<svg width="88" height="223" viewBox="0 0 88 223" fill="none" xmlns="http://www.w3.org/2000/svg">
<rect x="8" width="16" height="16" fill="#264AE5"/>
<path d="M32.8271 13.6035V12.25C32.9821 12.3867 33.1667 12.5098 33.3809 12.6191C33.5996 12.7285 33.8275 12.8219 34.0645 12.8994C34.306 12.9723 34.5475 13.0293 34.7891 13.0703C35.0306 13.1113 35.2539 13.1318 35.459 13.1318C36.1654 13.1318 36.6917 13.002 37.0381 12.7422C37.389 12.4779 37.5645 12.0996 37.5645 11.6074C37.5645 11.3431 37.5052 11.113 37.3867 10.917C37.2728 10.721 37.1133 10.5433 36.9082 10.3838C36.7031 10.2197 36.4593 10.0648 36.1768 9.91895C35.8988 9.76855 35.598 9.61133 35.2744 9.44727C34.9326 9.27409 34.6136 9.09863 34.3174 8.9209C34.0212 8.74316 33.7637 8.5472 33.5449 8.33301C33.3262 8.11882 33.153 7.87728 33.0254 7.6084C32.9023 7.33496 32.8408 7.01595 32.8408 6.65137C32.8408 6.20475 32.9388 5.81738 33.1348 5.48926C33.3307 5.15658 33.5882 4.88314 33.9072 4.66895C34.2262 4.45475 34.5885 4.29525 34.9941 4.19043C35.4043 4.08561 35.8213 4.0332 36.2451 4.0332C37.2113 4.0332 37.9154 4.14941 38.3574 4.38184V5.67383C37.7786 5.27279 37.0358 5.07227 36.1289 5.07227C35.8783 5.07227 35.6276 5.09961 35.377 5.1543C35.1263 5.20443 34.903 5.28874 34.707 5.40723C34.5111 5.52572 34.3516 5.67839 34.2285 5.86523C34.1055 6.05208 34.0439 6.27995 34.0439 6.54883C34.0439 6.79948 34.0895 7.01595 34.1807 7.19824C34.2764 7.38053 34.4154 7.54688 34.5977 7.69727C34.7799 7.84766 35.001 7.99349 35.2607 8.13477C35.5251 8.27604 35.8281 8.43099 36.1699 8.59961C36.5208 8.77279 36.8535 8.95508 37.168 9.14648C37.4824 9.33789 37.7581 9.5498 37.9951 9.78223C38.2321 10.0146 38.4189 10.2721 38.5557 10.5547C38.6969 10.8372 38.7676 11.1608 38.7676 11.5254C38.7676 12.0085 38.6719 12.4186 38.4805 12.7559C38.2936 13.0885 38.0384 13.3597 37.7148 13.5693C37.3958 13.779 37.0267 13.9294 36.6074 14.0205C36.1882 14.1162 35.7461 14.1641 35.2812 14.1641C35.1263 14.1641 34.9349 14.1504 34.707 14.123C34.4792 14.1003 34.2467 14.0638 34.0098 14.0137C33.7728 13.9681 33.5472 13.9111 33.333 13.8428C33.1234 13.7699 32.9548 13.6901 32.8271 13.6035ZM46.1982 10.7803H41.2559C41.2741 11.5596 41.4837 12.1611 41.8848 12.585C42.2858 13.0088 42.8372 13.2207 43.5391 13.2207C44.3275 13.2207 45.0521 12.9609 45.7129 12.4414V13.4941C45.0977 13.9408 44.2842 14.1641 43.2725 14.1641C42.2835 14.1641 41.5065 13.8473 40.9414 13.2139C40.3763 12.5758 40.0938 11.6803 40.0938 10.5273C40.0938 9.43815 40.4014 8.55176 41.0166 7.86816C41.6364 7.18001 42.4043 6.83594 43.3203 6.83594C44.2363 6.83594 44.945 7.13216 45.4463 7.72461C45.9476 8.31706 46.1982 9.13965 46.1982 10.1924V10.7803ZM45.0498 9.83008C45.0452 9.18294 44.888 8.67936 44.5781 8.31934C44.2728 7.95931 43.8467 7.7793 43.2998 7.7793C42.7712 7.7793 42.3223 7.96842 41.9531 8.34668C41.584 8.72493 41.3561 9.2194 41.2695 9.83008H45.0498ZM51.5508 8.13477C51.3548 7.98438 51.0723 7.90918 50.7031 7.90918C50.2246 7.90918 49.8236 8.13477 49.5 8.58594C49.181 9.03711 49.0215 9.65234 49.0215 10.4316V14H47.9004V7H49.0215V8.44238H49.0488C49.2083 7.9502 49.4521 7.56738 49.7803 7.29395C50.1084 7.01595 50.4753 6.87695 50.8809 6.87695C51.1725 6.87695 51.3958 6.90885 51.5508 6.97266V8.13477ZM53.3418 5.22266C53.1413 5.22266 52.9704 5.1543 52.8291 5.01758C52.6878 4.88086 52.6172 4.70768 52.6172 4.49805C52.6172 4.28841 52.6878 4.11523 52.8291 3.97852C52.9704 3.83724 53.1413 3.7666 53.3418 3.7666C53.5469 3.7666 53.7201 3.83724 53.8613 3.97852C54.0072 4.11523 54.0801 4.28841 54.0801 4.49805C54.0801 4.69857 54.0072 4.86947 53.8613 5.01074C53.7201 5.15202 53.5469 5.22266 53.3418 5.22266ZM53.8887 14H52.7676V7H53.8887V14ZM61.7842 10.7803H56.8418C56.86 11.5596 57.0697 12.1611 57.4707 12.585C57.8717 13.0088 58.4232 13.2207 59.125 13.2207C59.9134 13.2207 60.638 12.9609 61.2988 12.4414V13.4941C60.6836 13.9408 59.8701 14.1641 58.8584 14.1641C57.8695 14.1641 57.0924 13.8473 56.5273 13.2139C55.9622 12.5758 55.6797 11.6803 55.6797 10.5273C55.6797 9.43815 55.9873 8.55176 56.6025 7.86816C57.2223 7.18001 57.9902 6.83594 58.9062 6.83594C59.8223 6.83594 60.5309 7.13216 61.0322 7.72461C61.5335 8.31706 61.7842 9.13965 61.7842 10.1924V10.7803ZM60.6357 9.83008C60.6312 9.18294 60.474 8.67936 60.1641 8.31934C59.8587 7.95931 59.4326 7.7793 58.8857 7.7793C58.3571 7.7793 57.9082 7.96842 57.5391 8.34668C57.1699 8.72493 56.9421 9.2194 56.8555 9.83008H60.6357ZM63.0625 13.7471V12.5439C63.6732 12.9951 64.3454 13.2207 65.0791 13.2207C66.0635 13.2207 66.5557 12.8926 66.5557 12.2363C66.5557 12.0495 66.5124 11.8923 66.4258 11.7646C66.3438 11.6325 66.2298 11.5163 66.084 11.416C65.9427 11.3158 65.7741 11.2269 65.5781 11.1494C65.3867 11.0674 65.1794 10.9831 64.9561 10.8965C64.6462 10.7734 64.3727 10.6504 64.1357 10.5273C63.9033 10.3997 63.7074 10.2585 63.5479 10.1035C63.3929 9.94401 63.2744 9.764 63.1924 9.56348C63.1149 9.36296 63.0762 9.12826 63.0762 8.85938C63.0762 8.53125 63.1514 8.24186 63.3018 7.99121C63.4521 7.736 63.6527 7.52409 63.9033 7.35547C64.154 7.18229 64.4388 7.05241 64.7578 6.96582C65.0814 6.87923 65.4141 6.83594 65.7559 6.83594C66.362 6.83594 66.9043 6.94076 67.3828 7.15039V8.28516C66.8678 7.94792 66.2754 7.7793 65.6055 7.7793C65.3958 7.7793 65.2067 7.80436 65.0381 7.85449C64.8695 7.90007 64.7236 7.96615 64.6006 8.05273C64.4821 8.13932 64.3887 8.24414 64.3203 8.36719C64.2565 8.48568 64.2246 8.61784 64.2246 8.76367C64.2246 8.94596 64.2565 9.09863 64.3203 9.22168C64.3887 9.34473 64.4867 9.4541 64.6143 9.5498C64.7419 9.64551 64.8968 9.7321 65.0791 9.80957C65.2614 9.88704 65.4688 9.97135 65.7012 10.0625C66.0111 10.181 66.2891 10.304 66.5352 10.4316C66.7812 10.5547 66.9909 10.696 67.1641 10.8555C67.3372 11.0104 67.4694 11.1904 67.5605 11.3955C67.6562 11.6006 67.7041 11.8444 67.7041 12.127C67.7041 12.4733 67.6266 12.7741 67.4717 13.0293C67.3213 13.2845 67.1185 13.4964 66.8633 13.665C66.6081 13.8337 66.3141 13.959 65.9814 14.041C65.6488 14.123 65.3001 14.1641 64.9355 14.1641C64.2155 14.1641 63.5911 14.0251 63.0625 13.7471ZM77.0898 14H75.9688V5.53027C75.8822 5.61686 75.7546 5.71712 75.5859 5.83105C75.4219 5.94043 75.235 6.0498 75.0254 6.15918C74.8203 6.26855 74.6016 6.37109 74.3691 6.4668C74.1413 6.5625 73.918 6.6377 73.6992 6.69238V5.55762C73.9453 5.48926 74.2051 5.39811 74.4785 5.28418C74.7565 5.16569 75.0277 5.03581 75.292 4.89453C75.5609 4.7487 75.8138 4.59831 76.0508 4.44336C76.2878 4.28385 76.4928 4.12891 76.666 3.97852H77.0898V14Z" fill="#535965"/>
<rect x="8" y="24" width="16" height="16" fill="#F2B42A"/>
<path d="M32.8271 37.6035V36.25C32.9821 36.3867 33.1667 36.5098 33.3809 36.6191C33.5996 36.7285 33.8275 36.8219 34.0645 36.8994C34.306 36.9723 34.5475 37.0293 34.7891 37.0703C35.0306 37.1113 35.2539 37.1318 35.459 37.1318C36.1654 37.1318 36.6917 37.002 37.0381 36.7422C37.389 36.4779 37.5645 36.0996 37.5645 35.6074C37.5645 35.3431 37.5052 35.113 37.3867 34.917C37.2728 34.721 37.1133 34.5433 36.9082 34.3838C36.7031 34.2197 36.4593 34.0648 36.1768 33.9189C35.8988 33.7686 35.598 33.6113 35.2744 33.4473C34.9326 33.2741 34.6136 33.0986 34.3174 32.9209C34.0212 32.7432 33.7637 32.5472 33.5449 32.333C33.3262 32.1188 33.153 31.8773 33.0254 31.6084C32.9023 31.335 32.8408 31.016 32.8408 30.6514C32.8408 30.2048 32.9388 29.8174 33.1348 29.4893C33.3307 29.1566 33.5882 28.8831 33.9072 28.6689C34.2262 28.4548 34.5885 28.2952 34.9941 28.1904C35.4043 28.0856 35.8213 28.0332 36.2451 28.0332C37.2113 28.0332 37.9154 28.1494 38.3574 28.3818V29.6738C37.7786 29.2728 37.0358 29.0723 36.1289 29.0723C35.8783 29.0723 35.6276 29.0996 35.377 29.1543C35.1263 29.2044 34.903 29.2887 34.707 29.4072C34.5111 29.5257 34.3516 29.6784 34.2285 29.8652C34.1055 30.0521 34.0439 30.2799 34.0439 30.5488C34.0439 30.7995 34.0895 31.016 34.1807 31.1982C34.2764 31.3805 34.4154 31.5469 34.5977 31.6973C34.7799 31.8477 35.001 31.9935 35.2607 32.1348C35.5251 32.276 35.8281 32.431 36.1699 32.5996C36.5208 32.7728 36.8535 32.9551 37.168 33.1465C37.4824 33.3379 37.7581 33.5498 37.9951 33.7822C38.2321 34.0146 38.4189 34.2721 38.5557 34.5547C38.6969 34.8372 38.7676 35.1608 38.7676 35.5254C38.7676 36.0085 38.6719 36.4186 38.4805 36.7559C38.2936 37.0885 38.0384 37.3597 37.7148 37.5693C37.3958 37.779 37.0267 37.9294 36.6074 38.0205C36.1882 38.1162 35.7461 38.1641 35.2812 38.1641C35.1263 38.1641 34.9349 38.1504 34.707 38.123C34.4792 38.1003 34.2467 38.0638 34.0098 38.0137C33.7728 37.9681 33.5472 37.9111 33.333 37.8428C33.1234 37.7699 32.9548 37.6901 32.8271 37.6035ZM46.1982 34.7803H41.2559C41.2741 35.5596 41.4837 36.1611 41.8848 36.585C42.2858 37.0088 42.8372 37.2207 43.5391 37.2207C44.3275 37.2207 45.0521 36.9609 45.7129 36.4414V37.4941C45.0977 37.9408 44.2842 38.1641 43.2725 38.1641C42.2835 38.1641 41.5065 37.8473 40.9414 37.2139C40.3763 36.5758 40.0938 35.6803 40.0938 34.5273C40.0938 33.4382 40.4014 32.5518 41.0166 31.8682C41.6364 31.18 42.4043 30.8359 43.3203 30.8359C44.2363 30.8359 44.945 31.1322 45.4463 31.7246C45.9476 32.3171 46.1982 33.1396 46.1982 34.1924V34.7803ZM45.0498 33.8301C45.0452 33.1829 44.888 32.6794 44.5781 32.3193C44.2728 31.9593 43.8467 31.7793 43.2998 31.7793C42.7712 31.7793 42.3223 31.9684 41.9531 32.3467C41.584 32.7249 41.3561 33.2194 41.2695 33.8301H45.0498ZM51.5508 32.1348C51.3548 31.9844 51.0723 31.9092 50.7031 31.9092C50.2246 31.9092 49.8236 32.1348 49.5 32.5859C49.181 33.0371 49.0215 33.6523 49.0215 34.4316V38H47.9004V31H49.0215V32.4424H49.0488C49.2083 31.9502 49.4521 31.5674 49.7803 31.2939C50.1084 31.016 50.4753 30.877 50.8809 30.877C51.1725 30.877 51.3958 30.9089 51.5508 30.9727V32.1348ZM53.3418 29.2227C53.1413 29.2227 52.9704 29.1543 52.8291 29.0176C52.6878 28.8809 52.6172 28.7077 52.6172 28.498C52.6172 28.2884 52.6878 28.1152 52.8291 27.9785C52.9704 27.8372 53.1413 27.7666 53.3418 27.7666C53.5469 27.7666 53.7201 27.8372 53.8613 27.9785C54.0072 28.1152 54.0801 28.2884 54.0801 28.498C54.0801 28.6986 54.0072 28.8695 53.8613 29.0107C53.7201 29.152 53.5469 29.2227 53.3418 29.2227ZM53.8887 38H52.7676V31H53.8887V38ZM61.7842 34.7803H56.8418C56.86 35.5596 57.0697 36.1611 57.4707 36.585C57.8717 37.0088 58.4232 37.2207 59.125 37.2207C59.9134 37.2207 60.638 36.9609 61.2988 36.4414V37.4941C60.6836 37.9408 59.8701 38.1641 58.8584 38.1641C57.8695 38.1641 57.0924 37.8473 56.5273 37.2139C55.9622 36.5758 55.6797 35.6803 55.6797 34.5273C55.6797 33.4382 55.9873 32.5518 56.6025 31.8682C57.2223 31.18 57.9902 30.8359 58.9062 30.8359C59.8223 30.8359 60.5309 31.1322 61.0322 31.7246C61.5335 32.3171 61.7842 33.1396 61.7842 34.1924V34.7803ZM60.6357 33.8301C60.6312 33.1829 60.474 32.6794 60.1641 32.3193C59.8587 31.9593 59.4326 31.7793 58.8857 31.7793C58.3571 31.7793 57.9082 31.9684 57.5391 32.3467C57.1699 32.7249 56.9421 33.2194 56.8555 33.8301H60.6357ZM63.0625 37.7471V36.5439C63.6732 36.9951 64.3454 37.2207 65.0791 37.2207C66.0635 37.2207 66.5557 36.8926 66.5557 36.2363C66.5557 36.0495 66.5124 35.8923 66.4258 35.7646C66.3438 35.6325 66.2298 35.5163 66.084 35.416C65.9427 35.3158 65.7741 35.2269 65.5781 35.1494C65.3867 35.0674 65.1794 34.9831 64.9561 34.8965C64.6462 34.7734 64.3727 34.6504 64.1357 34.5273C63.9033 34.3997 63.7074 34.2585 63.5479 34.1035C63.3929 33.944 63.2744 33.764 63.1924 33.5635C63.1149 33.363 63.0762 33.1283 63.0762 32.8594C63.0762 32.5312 63.1514 32.2419 63.3018 31.9912C63.4521 31.736 63.6527 31.5241 63.9033 31.3555C64.154 31.1823 64.4388 31.0524 64.7578 30.9658C65.0814 30.8792 65.4141 30.8359 65.7559 30.8359C66.362 30.8359 66.9043 30.9408 67.3828 31.1504V32.2852C66.8678 31.9479 66.2754 31.7793 65.6055 31.7793C65.3958 31.7793 65.2067 31.8044 65.0381 31.8545C64.8695 31.9001 64.7236 31.9661 64.6006 32.0527C64.4821 32.1393 64.3887 32.2441 64.3203 32.3672C64.2565 32.4857 64.2246 32.6178 64.2246 32.7637C64.2246 32.946 64.2565 33.0986 64.3203 33.2217C64.3887 33.3447 64.4867 33.4541 64.6143 33.5498C64.7419 33.6455 64.8968 33.7321 65.0791 33.8096C65.2614 33.887 65.4688 33.9714 65.7012 34.0625C66.0111 34.181 66.2891 34.304 66.5352 34.4316C66.7812 34.5547 66.9909 34.696 67.1641 34.8555C67.3372 35.0104 67.4694 35.1904 67.5605 35.3955C67.6562 35.6006 67.7041 35.8444 67.7041 36.127C67.7041 36.4733 67.6266 36.7741 67.4717 37.0293C67.3213 37.2845 67.1185 37.4964 66.8633 37.665C66.6081 37.8337 66.3141 37.959 65.9814 38.041C65.6488 38.123 65.3001 38.1641 64.9355 38.1641C64.2155 38.1641 63.5911 38.0251 63.0625 37.7471ZM77.418 30.7676C77.418 30.4668 77.3701 30.2048 77.2744 29.9814C77.1833 29.7581 77.0557 29.5736 76.8916 29.4277C76.7321 29.2773 76.543 29.1657 76.3242 29.0928C76.1055 29.0199 75.8685 28.9834 75.6133 28.9834C75.3945 28.9834 75.1803 29.013 74.9707 29.0723C74.7611 29.1315 74.556 29.2135 74.3555 29.3184C74.1595 29.4232 73.9681 29.5485 73.7812 29.6943C73.599 29.8402 73.4281 30.002 73.2686 30.1797V28.9766C73.583 28.6712 73.9339 28.4388 74.3213 28.2793C74.7132 28.1152 75.1895 28.0332 75.75 28.0332C76.151 28.0332 76.5225 28.0924 76.8643 28.2109C77.2061 28.3249 77.5023 28.4935 77.7529 28.7168C78.0036 28.9401 78.1995 29.2158 78.3408 29.5439C78.4867 29.8721 78.5596 30.248 78.5596 30.6719C78.5596 31.0592 78.514 31.4102 78.4229 31.7246C78.3363 32.0391 78.2018 32.3353 78.0195 32.6133C77.8418 32.8913 77.6162 33.1579 77.3428 33.4131C77.0693 33.6683 76.748 33.9281 76.3789 34.1924C75.9186 34.5205 75.5381 34.8008 75.2373 35.0332C74.9411 35.2656 74.7041 35.4844 74.5264 35.6895C74.3532 35.89 74.2301 36.0928 74.1572 36.2979C74.0889 36.4984 74.0547 36.7308 74.0547 36.9951H78.9355V38H72.8857V37.5146C72.8857 37.0954 72.9313 36.7262 73.0225 36.4072C73.1136 36.0882 73.264 35.7852 73.4736 35.498C73.6833 35.2109 73.9567 34.9238 74.2939 34.6367C74.6357 34.3496 75.0527 34.026 75.5449 33.666C75.9004 33.4108 76.1966 33.167 76.4336 32.9346C76.6751 32.7021 76.8688 32.4697 77.0146 32.2373C77.1605 32.0049 77.263 31.7702 77.3223 31.5332C77.3861 31.2917 77.418 31.0365 77.418 30.7676Z" fill="#535965"/>
<rect x="8" y="48" width="16" height="16" fill="#2DBAFC"/>
<path d="M32.8271 61.6035V60.25C32.9821 60.3867 33.1667 60.5098 33.3809 60.6191C33.5996 60.7285 33.8275 60.8219 34.0645 60.8994C34.306 60.9723 34.5475 61.0293 34.7891 61.0703C35.0306 61.1113 35.2539 61.1318 35.459 61.1318C36.1654 61.1318 36.6917 61.002 37.0381 60.7422C37.389 60.4779 37.5645 60.0996 37.5645 59.6074C37.5645 59.3431 37.5052 59.113 37.3867 58.917C37.2728 58.721 37.1133 58.5433 36.9082 58.3838C36.7031 58.2197 36.4593 58.0648 36.1768 57.9189C35.8988 57.7686 35.598 57.6113 35.2744 57.4473C34.9326 57.2741 34.6136 57.0986 34.3174 56.9209C34.0212 56.7432 33.7637 56.5472 33.5449 56.333C33.3262 56.1188 33.153 55.8773 33.0254 55.6084C32.9023 55.335 32.8408 55.016 32.8408 54.6514C32.8408 54.2048 32.9388 53.8174 33.1348 53.4893C33.3307 53.1566 33.5882 52.8831 33.9072 52.6689C34.2262 52.4548 34.5885 52.2952 34.9941 52.1904C35.4043 52.0856 35.8213 52.0332 36.2451 52.0332C37.2113 52.0332 37.9154 52.1494 38.3574 52.3818V53.6738C37.7786 53.2728 37.0358 53.0723 36.1289 53.0723C35.8783 53.0723 35.6276 53.0996 35.377 53.1543C35.1263 53.2044 34.903 53.2887 34.707 53.4072C34.5111 53.5257 34.3516 53.6784 34.2285 53.8652C34.1055 54.0521 34.0439 54.2799 34.0439 54.5488C34.0439 54.7995 34.0895 55.016 34.1807 55.1982C34.2764 55.3805 34.4154 55.5469 34.5977 55.6973C34.7799 55.8477 35.001 55.9935 35.2607 56.1348C35.5251 56.276 35.8281 56.431 36.1699 56.5996C36.5208 56.7728 36.8535 56.9551 37.168 57.1465C37.4824 57.3379 37.7581 57.5498 37.9951 57.7822C38.2321 58.0146 38.4189 58.2721 38.5557 58.5547C38.6969 58.8372 38.7676 59.1608 38.7676 59.5254C38.7676 60.0085 38.6719 60.4186 38.4805 60.7559C38.2936 61.0885 38.0384 61.3597 37.7148 61.5693C37.3958 61.779 37.0267 61.9294 36.6074 62.0205C36.1882 62.1162 35.7461 62.1641 35.2812 62.1641C35.1263 62.1641 34.9349 62.1504 34.707 62.123C34.4792 62.1003 34.2467 62.0638 34.0098 62.0137C33.7728 61.9681 33.5472 61.9111 33.333 61.8428C33.1234 61.7699 32.9548 61.6901 32.8271 61.6035ZM46.1982 58.7803H41.2559C41.2741 59.5596 41.4837 60.1611 41.8848 60.585C42.2858 61.0088 42.8372 61.2207 43.5391 61.2207C44.3275 61.2207 45.0521 60.9609 45.7129 60.4414V61.4941C45.0977 61.9408 44.2842 62.1641 43.2725 62.1641C42.2835 62.1641 41.5065 61.8473 40.9414 61.2139C40.3763 60.5758 40.0938 59.6803 40.0938 58.5273C40.0938 57.4382 40.4014 56.5518 41.0166 55.8682C41.6364 55.18 42.4043 54.8359 43.3203 54.8359C44.2363 54.8359 44.945 55.1322 45.4463 55.7246C45.9476 56.3171 46.1982 57.1396 46.1982 58.1924V58.7803ZM45.0498 57.8301C45.0452 57.1829 44.888 56.6794 44.5781 56.3193C44.2728 55.9593 43.8467 55.7793 43.2998 55.7793C42.7712 55.7793 42.3223 55.9684 41.9531 56.3467C41.584 56.7249 41.3561 57.2194 41.2695 57.8301H45.0498ZM51.5508 56.1348C51.3548 55.9844 51.0723 55.9092 50.7031 55.9092C50.2246 55.9092 49.8236 56.1348 49.5 56.5859C49.181 57.0371 49.0215 57.6523 49.0215 58.4316V62H47.9004V55H49.0215V56.4424H49.0488C49.2083 55.9502 49.4521 55.5674 49.7803 55.2939C50.1084 55.016 50.4753 54.877 50.8809 54.877C51.1725 54.877 51.3958 54.9089 51.5508 54.9727V56.1348ZM53.3418 53.2227C53.1413 53.2227 52.9704 53.1543 52.8291 53.0176C52.6878 52.8809 52.6172 52.7077 52.6172 52.498C52.6172 52.2884 52.6878 52.1152 52.8291 51.9785C52.9704 51.8372 53.1413 51.7666 53.3418 51.7666C53.5469 51.7666 53.7201 51.8372 53.8613 51.9785C54.0072 52.1152 54.0801 52.2884 54.0801 52.498C54.0801 52.6986 54.0072 52.8695 53.8613 53.0107C53.7201 53.152 53.5469 53.2227 53.3418 53.2227ZM53.8887 62H52.7676V55H53.8887V62ZM61.7842 58.7803H56.8418C56.86 59.5596 57.0697 60.1611 57.4707 60.585C57.8717 61.0088 58.4232 61.2207 59.125 61.2207C59.9134 61.2207 60.638 60.9609 61.2988 60.4414V61.4941C60.6836 61.9408 59.8701 62.1641 58.8584 62.1641C57.8695 62.1641 57.0924 61.8473 56.5273 61.2139C55.9622 60.5758 55.6797 59.6803 55.6797 58.5273C55.6797 57.4382 55.9873 56.5518 56.6025 55.8682C57.2223 55.18 57.9902 54.8359 58.9062 54.8359C59.8223 54.8359 60.5309 55.1322 61.0322 55.7246C61.5335 56.3171 61.7842 57.1396 61.7842 58.1924V58.7803ZM60.6357 57.8301C60.6312 57.1829 60.474 56.6794 60.1641 56.3193C59.8587 55.9593 59.4326 55.7793 58.8857 55.7793C58.3571 55.7793 57.9082 55.9684 57.5391 56.3467C57.1699 56.7249 56.9421 57.2194 56.8555 57.8301H60.6357ZM63.0625 61.7471V60.5439C63.6732 60.9951 64.3454 61.2207 65.0791 61.2207C66.0635 61.2207 66.5557 60.8926 66.5557 60.2363C66.5557 60.0495 66.5124 59.8923 66.4258 59.7646C66.3438 59.6325 66.2298 59.5163 66.084 59.416C65.9427 59.3158 65.7741 59.2269 65.5781 59.1494C65.3867 59.0674 65.1794 58.9831 64.9561 58.8965C64.6462 58.7734 64.3727 58.6504 64.1357 58.5273C63.9033 58.3997 63.7074 58.2585 63.5479 58.1035C63.3929 57.944 63.2744 57.764 63.1924 57.5635C63.1149 57.363 63.0762 57.1283 63.0762 56.8594C63.0762 56.5312 63.1514 56.2419 63.3018 55.9912C63.4521 55.736 63.6527 55.5241 63.9033 55.3555C64.154 55.1823 64.4388 55.0524 64.7578 54.9658C65.0814 54.8792 65.4141 54.8359 65.7559 54.8359C66.362 54.8359 66.9043 54.9408 67.3828 55.1504V56.2852C66.8678 55.9479 66.2754 55.7793 65.6055 55.7793C65.3958 55.7793 65.2067 55.8044 65.0381 55.8545C64.8695 55.9001 64.7236 55.9661 64.6006 56.0527C64.4821 56.1393 64.3887 56.2441 64.3203 56.3672C64.2565 56.4857 64.2246 56.6178 64.2246 56.7637C64.2246 56.946 64.2565 57.0986 64.3203 57.2217C64.3887 57.3447 64.4867 57.4541 64.6143 57.5498C64.7419 57.6455 64.8968 57.7321 65.0791 57.8096C65.2614 57.887 65.4688 57.9714 65.7012 58.0625C66.0111 58.181 66.2891 58.304 66.5352 58.4316C66.7812 58.5547 66.9909 58.696 67.1641 58.8555C67.3372 59.0104 67.4694 59.1904 67.5605 59.3955C67.6562 59.6006 67.7041 59.8444 67.7041 60.127C67.7041 60.4733 67.6266 60.7741 67.4717 61.0293C67.3213 61.2845 67.1185 61.4964 66.8633 61.665C66.6081 61.8337 66.3141 61.959 65.9814 62.041C65.6488 62.123 65.3001 62.1641 64.9355 62.1641C64.2155 62.1641 63.5911 62.0251 63.0625 61.7471ZM78.6553 59.2246C78.6553 59.6667 78.571 60.07 78.4023 60.4346C78.2383 60.7946 78.0036 61.1045 77.6982 61.3643C77.3975 61.6195 77.0352 61.8177 76.6113 61.959C76.1875 62.1003 75.7204 62.1709 75.21 62.1709C74.2757 62.1709 73.5329 61.9932 72.9814 61.6377V60.4346C73.6423 60.9541 74.3988 61.2139 75.251 61.2139C75.5928 61.2139 75.9004 61.1706 76.1738 61.084C76.4518 60.9974 76.6888 60.8721 76.8848 60.708C77.0853 60.5439 77.238 60.3457 77.3428 60.1133C77.4521 59.8809 77.5068 59.6188 77.5068 59.3271C77.5068 58.0465 76.5954 57.4062 74.7725 57.4062H73.959V56.4561H74.7314C76.3447 56.4561 77.1514 55.8545 77.1514 54.6514C77.1514 53.5394 76.5361 52.9834 75.3057 52.9834C74.613 52.9834 73.9635 53.2158 73.3574 53.6807V52.5938C73.9818 52.2201 74.7246 52.0332 75.5859 52.0332C75.9961 52.0332 76.3675 52.0902 76.7002 52.2041C77.0329 52.318 77.3177 52.4775 77.5547 52.6826C77.7917 52.8877 77.974 53.1338 78.1016 53.4209C78.2337 53.708 78.2998 54.0247 78.2998 54.3711C78.2998 55.6608 77.6481 56.4902 76.3447 56.8594V56.8867C76.6774 56.9232 76.985 57.0052 77.2676 57.1328C77.5501 57.2559 77.7939 57.4176 77.999 57.6182C78.2041 57.8187 78.3636 58.0557 78.4775 58.3291C78.596 58.598 78.6553 58.8965 78.6553 59.2246Z" fill="#535965"/>
</svg>
