<?xml version="1.0" encoding="UTF-8"?>
<svg width="18px" height="14px" viewBox="0 0 18 14" version="1.1" xmlns="http://www.w3.org/2000/svg" xmlns:xlink="http://www.w3.org/1999/xlink">
    <title>contains</title>
    <g id="Page-1" stroke="none" stroke-width="1" fill="none" fill-rule="evenodd">
        <g id="Contains" transform="translate(-6.000000, -8.000000)" fill="#264AE5" fill-rule="nonzero">
            <path d="M23.4135011,19.8855835 C23.7053346,19.8855835 23.9405034,20.1221339 23.9405034,20.4141876 L23.9405034,20.4141876 L23.9405034,21.4713959 C23.9405034,21.7632294 23.7053346,22 23.4135011,22 L23.4135011,22 L6.52860412,22 C6.23677059,22 6,21.7632294 6,21.4713959 L6,21.4713959 L6,20.4141876 C6,20.1221339 6.23677059,19.8855835 6.52860412,19.8855835 L6.52860412,19.8855835 Z M11.5942881,8 C11.9783853,8 12.3199074,8.24439925 12.4436588,8.60801489 L12.4436588,8.60801489 L15.8433842,18.1725458 C15.8895095,18.3094059 15.8668767,18.4601037 15.7826648,18.5774118 C15.6984208,18.6947199 15.5628423,18.7643021 15.4184185,18.7643021 L15.4184185,18.7643021 L13.9994368,18.7643021 C13.8069523,18.7643021 13.6359458,18.6414369 13.5744711,18.4590332 L13.5744711,18.4590332 L13.0399002,16.9702517 L8.82668508,16.9702517 L8.29211415,18.4590332 C8.23063943,18.6414369 8.05963292,18.7643021 7.86714847,18.7643021 L7.86714847,18.7643021 L6.44816678,18.7643021 C6.30379238,18.7641933 6.16829754,18.6945923 6.08411901,18.577298 C5.99998885,18.4600037 5.9773718,18.3093591 6.02348143,18.1725458 L6.02348143,18.1725458 L9.4229265,8.60801489 C9.54667784,8.24439925 9.88819992,8 10.2722972,8 L10.2722972,8 Z M18.109494,8.4485126 C18.3572007,8.4485126 18.5580066,8.64931853 18.5580066,8.89702519 L18.5580066,11.1903261 C19.0878121,10.8819737 19.6955466,10.6910755 20.3520569,10.6910755 C22.3328136,10.6932384 23.9379947,12.2984195 23.9401576,14.2791762 L23.9401576,15.1762014 C23.9379947,17.1569581 22.3328136,18.7621392 20.3520569,18.7643021 C19.6955466,18.7643021 19.0878121,18.5742449 18.5580066,18.2650515 L18.5580066,18.3157895 C18.5580066,18.5634961 18.3572007,18.7643021 18.109494,18.7643021 L17.2124688,18.7643021 C16.9647622,18.7643021 16.7639562,18.5634961 16.7639562,18.3157895 L16.7639562,8.89702519 C16.7639562,8.64931853 16.9647622,8.4485126 17.2124688,8.4485126 L18.109494,8.4485126 Z M20.3520569,12.9336385 C19.6089369,12.9336385 19.0065192,13.5360562 19.0065192,14.2791762 L19.0065192,15.1762014 C19.0065192,15.9193214 19.6089369,16.5217391 20.3520569,16.5217391 C21.0951769,16.5217391 21.6975947,15.9193214 21.6975947,15.1762014 L21.6975947,14.2791762 C21.6975947,13.5360562 21.0951769,12.9336385 20.3520569,12.9336385 Z M10.9332926,11.1042677 L9.63204549,14.7276888 L12.2345398,14.7276888 L10.9332926,11.1042677 Z" id="contains"></path>
        </g>
    </g>
</svg>