<svg width="18" height="14" xmlns="http://www.w3.org/2000/svg"><path d="M6.444.608A.897.897 0 0 0 5.594 0H4.272a.897.897 0 0 0-.85.608L.024 10.173a.449.449 0 0 0 .425.591h1.42a.448.448 0 0 0 .424-.305l.535-1.489H7.04l.534 1.489a.448.448 0 0 0 .425.305h1.42a.448.448 0 0 0 .424-.591L6.443.608zm-2.812 6.12l1.301-3.624 1.302 3.624H3.632zm7.58-6.28h.897c.248 0 .449.201.449.449V3.19c.53-.308 1.138-.499 1.794-.499A3.592 3.592 0 0 1 17.94 6.28v.897a3.592 3.592 0 0 1-3.588 3.588c-.656 0-1.264-.19-1.794-.499v.05c0 .248-.2.45-.449.45h-.897a.449.449 0 0 1-.448-.45V.898c0-.248.2-.448.448-.448zm1.795 6.728a1.346 1.346 0 1 0 2.69 0V6.28a1.346 1.346 0 0 0-2.69 0v.897zm4.407 4.71H11.29a.527.527 0 0 0-.527.528v1.057c0 .292.235.529.527.529h6.123a.527.527 0 0 0 .527-.529v-1.057a.527.527 0 0 0-.527-.528z" fill="#264AE5"/></svg>