<?xml version="1.0" encoding="UTF-8"?>
<svg width="12px" height="12px" viewBox="0 0 12 12" version="1.1" xmlns="http://www.w3.org/2000/svg" xmlns:xlink="http://www.w3.org/1999/xlink">
    <title>Path</title>
    <g id="Page-1" stroke="none" stroke-width="1" fill="none" fill-rule="evenodd">
        <g id="Smaller" transform="translate(-10.000000, -10.000000)" fill="#264AE5">
            <path d="M10.7181297,17.1934819 L20.1372542,21.94 C20.7119455,22.1284387 21.3469497,21.8590659 21.5553886,21.34 L21.9332036,20.4 C22.141955,19.8809341 21.845078,19.3084387 21.2703867,19.12 L14.787851,15.9931615 L21.2741367,12.87 C21.845703,12.6824988 22.1410174,12.1062534 21.9335161,11.59 L21.5575761,10.66 C21.3500747,10.1434341 20.7181956,9.87249877 20.1466293,10.06 L10.7181297,14.8087787 C10.2878144,14.9500296 10,15.3278446 10,15.7519099 L10,16.2506632 C10,16.674416 10.2878144,17.052231 10.7181297,17.1934819 Z" id="Path" transform="translate(16.000000, 16.000324) scale(-1, 1) translate(-16.000000, -16.000324) "></path>
        </g>
    </g>
</svg>