<?xml version="1.0" encoding="UTF-8"?>
<svg width="14px" height="16px" viewBox="0 0 14 16" version="1.1" xmlns="http://www.w3.org/2000/svg" xmlns:xlink="http://www.w3.org/1999/xlink">
    <title>not equal</title>
    <g id="Page-1" stroke="none" stroke-width="1" fill="none" fill-rule="evenodd">
        <g id="Not-Equal" transform="translate(-9.000000, -8.000000)" fill="#264AE5" fill-rule="nonzero">
            <path d="M21.9999429,14.5 C22.552128,14.5 22.9999385,14.0521961 22.9999385,13.500011 L22.9999385,12.5000154 C22.9999385,11.9478303 22.552128,11.5000198 21.9999429,11.5000198 L21.2536962,11.5000198 L22.8746266,9.41221644 C23.0424383,9.1928424 23.000876,8.87909378 22.7818145,8.71128202 L21.9877554,8.10315969 C21.7683814,7.93503543 21.4546328,7.97691024 21.2865085,8.19597178 L18.7215198,11.5000198 L10,11.5000198 C9.44781053,11.5000198 9,11.9478303 9,12.5000154 L9,13.500011 C9,14.0521961 9.44781053,14.5 10,14.5 L16.3924675,14.5 L14.0634153,17.5 L10,17.5 C9.44781053,17.5 9,17.9478039 9,18.499989 L9,19.4999846 C9,20.0521697 9.44781053,20.4999802 10,20.4999802 L11.7340505,20.4999802 L10.1131201,22.5877836 C9.94530835,22.8068451 9.98687066,23.1205937 10.2059322,23.288718 L11,23.8968403 C11.2193653,24.0649646 11.5331139,24.0230898 11.7009256,23.8040282 L14.2662269,20.4999802 L21.9999429,20.4999802 C22.552128,20.4999802 22.9999385,20.0521697 22.9999385,19.4999846 L22.9999385,18.499989 C22.9999385,17.9478039 22.552128,17.5 21.9999429,17.5 L16.5952791,17.5 L18.9243314,14.5 L21.9999429,14.5 Z" id="not-equal"></path>
        </g>
    </g>
</svg>