<?xml version="1.0" encoding="UTF-8"?>
<svg width="32px" height="32px" viewBox="0 0 32 32" version="1.1" xmlns="http://www.w3.org/2000/svg" xmlns:xlink="http://www.w3.org/1999/xlink">
    <title>Smaller Equal</title>
    <g id="Smaller-Equal" stroke="none" stroke-width="1" fill="none" fill-rule="evenodd">
        <path d="M10.718125,15.1934411 L20.1371875,18.9393786 C20.711875,19.1278161 21.346875,18.8600036 21.5553125,18.3409411 L21.933125,17.4009411 C22.141875,16.8818786 21.845,16.3081286 21.2703125,16.1196911 L15.7878125,13.9931286 L21.2740625,11.8653161 C21.845625,11.6778161 22.1409375,11.1068786 21.9334375,10.5906286 L21.5575,9.65562863 C21.35,9.13906613 20.718125,8.87250363 20.1465625,9.06000363 L10.718125,12.8087536 C10.2878125,12.9500036 10,13.3278161 10,13.7518786 L10,14.2506286 C10,14.6743786 10.2878125,15.0521911 10.718125,15.1934411 Z M22.25,20.9996911 L9.75,20.9996911 C9.3359375,20.9996911 9,21.3353161 9,21.7496911 L9,23.2496911 C9,23.6637536 9.3359375,23.9996911 9.75,23.9996911 L22.25,23.9996911 C22.6640625,23.9996911 23,23.6637536 23,23.2496911 L23,21.7496911 C23,21.3353161 22.6640625,20.9996911 22.25,20.9996911 Z" id="Shape" fill="#264AE5" fill-rule="nonzero"></path>
    </g>
</svg>