<?xml version="1.0" encoding="UTF-8"?>
<svg width="18px" height="14px" viewBox="0 0 18 14" version="1.1" xmlns="http://www.w3.org/2000/svg" xmlns:xlink="http://www.w3.org/1999/xlink">
    <title>startswith</title>
    <g id="Page-1" stroke="none" stroke-width="1" fill="none" fill-rule="evenodd">
        <g id="Starts-with" transform="translate(-7.000000, -9.000000)" fill="#264AE5" fill-rule="nonzero">
            <path d="M13.4436588,9.60801489 C13.3199074,9.24439925 12.9783853,9 12.5942881,9 L11.2722972,9 C10.8881999,9 10.5466778,9.24439925 10.4229265,9.60801489 L7.02348143,19.1725458 C6.9773718,19.3093591 6.99998885,19.4600037 7.08411901,19.577298 C7.16829754,19.6945923 7.30379238,19.7641933 7.44816678,19.7643021 L8.86714847,19.7643021 C9.05963292,19.7643021 9.23063943,19.6414369 9.29211415,19.4590332 L9.82668509,17.9702517 L14.0399002,17.9702517 L14.5744711,19.4590332 C14.6359458,19.6414369 14.8069524,19.7643021 14.9994368,19.7643021 L16.4184185,19.7643021 C16.5628423,19.7643021 16.6984208,19.6947199 16.7826648,19.5774118 C16.8668767,19.4601037 16.8895095,19.3094059 16.8433842,19.1725458 L13.4436588,9.60801489 Z M10.6320455,15.7276888 L11.9332926,12.1042678 L13.2345398,15.7276888 L10.6320455,15.7276888 Z M18.2124688,9.4485126 L19.109494,9.4485126 C19.3572007,9.4485126 19.5580066,9.64931853 19.5580066,9.89702519 L19.5580066,12.1903261 C20.0878121,11.8819737 20.6955466,11.6910755 21.3520569,11.6910755 C23.3328136,11.6932384 24.9379947,13.2984195 24.9401576,15.2791762 L24.9401576,16.1762014 C24.9379947,18.1569581 23.3328136,19.7621392 21.3520569,19.7643021 C20.6955466,19.7643021 20.0878121,19.5742449 19.5580066,19.2650515 L19.5580066,19.3157895 C19.5580066,19.5634962 19.3572007,19.7643021 19.109494,19.7643021 L18.2124688,19.7643021 C17.9647622,19.7643021 17.7639563,19.5634962 17.7639563,19.3157895 L17.7639563,9.89702519 C17.7639563,9.64931853 17.9647622,9.4485126 18.2124688,9.4485126 Z M20.0065192,16.1762014 C20.0065192,16.9193214 20.608937,17.5217391 21.3520569,17.5217391 C22.0951769,17.5217391 22.6975947,16.9193214 22.6975947,16.1762014 L22.6975947,15.2791762 C22.6975947,14.5360562 22.0951769,13.9336385 21.3520569,13.9336385 C20.608937,13.9336385 20.0065192,14.5360562 20.0065192,15.2791762 L20.0065192,16.1762014 Z M16.3402746,20.8855835 L7.52860412,20.8855835 C7.23677059,20.8855835 7,21.1221339 7,21.4141876 L7,22.4713959 C7,22.7632294 7.23677059,23 7.52860412,23 L16.3402746,23 C16.6321081,23 16.8672769,22.7632294 16.8672769,22.4713959 L16.8672769,21.4141876 C16.8672769,21.1221339 16.6321081,20.8855835 16.3402746,20.8855835 Z" id="startswith"></path>
        </g>
    </g>
</svg>