<svg width="86" height="232" viewBox="0 0 86 232" fill="none" xmlns="http://www.w3.org/2000/svg">
<rect x="9.32898" y="8.5" width="15" height="15" fill="#344BCE" stroke="#344BCE"/>
<path d="M33.538 20.6602V19.5C33.6708 19.6172 33.829 19.7227 34.0126 19.8164C34.2001 19.9102 34.3954 19.9902 34.5985 20.0566C34.8055 20.1191 35.0126 20.168 35.2196 20.2031C35.4266 20.2383 35.618 20.2559 35.7938 20.2559C36.3993 20.2559 36.8505 20.1445 37.1473 19.9219C37.4481 19.6953 37.5985 19.3711 37.5985 18.9492C37.5985 18.7227 37.5477 18.5254 37.4462 18.3574C37.3485 18.1895 37.2118 18.0371 37.036 17.9004C36.8602 17.7598 36.6512 17.627 36.4091 17.502C36.1708 17.373 35.913 17.2383 35.6356 17.0977C35.3427 16.9492 35.0692 16.7988 34.8153 16.6465C34.5614 16.4941 34.3407 16.3262 34.1532 16.1426C33.9657 15.959 33.8173 15.752 33.7079 15.5215C33.6024 15.2871 33.5497 15.0137 33.5497 14.7012C33.5497 14.3184 33.6337 13.9863 33.8016 13.7051C33.9696 13.4199 34.1903 13.1855 34.4637 13.002C34.7372 12.8184 35.0477 12.6816 35.3954 12.5918C35.7469 12.502 36.1044 12.457 36.4677 12.457C37.2958 12.457 37.8993 12.5566 38.2782 12.7559V13.8633C37.7821 13.5195 37.1454 13.3477 36.368 13.3477C36.1532 13.3477 35.9384 13.3711 35.7235 13.418C35.5087 13.4609 35.3173 13.5332 35.1493 13.6348C34.9813 13.7363 34.8446 13.8672 34.7391 14.0273C34.6337 14.1875 34.5809 14.3828 34.5809 14.6133C34.5809 14.8281 34.62 15.0137 34.6981 15.1699C34.7802 15.3262 34.8993 15.4688 35.0555 15.5977C35.2118 15.7266 35.4012 15.8516 35.6239 15.9727C35.8505 16.0938 36.1102 16.2266 36.4032 16.3711C36.704 16.5195 36.9891 16.6758 37.2587 16.8398C37.5282 17.0039 37.7645 17.1855 37.9677 17.3848C38.1708 17.584 38.3309 17.8047 38.4481 18.0469C38.5692 18.2891 38.6298 18.5664 38.6298 18.8789C38.6298 19.293 38.5477 19.6445 38.3837 19.9336C38.2235 20.2188 38.0048 20.4512 37.7274 20.6309C37.454 20.8105 37.1376 20.9395 36.7782 21.0176C36.4188 21.0996 36.0399 21.1406 35.6415 21.1406C35.5087 21.1406 35.3446 21.1289 35.1493 21.1055C34.954 21.0859 34.7548 21.0547 34.5516 21.0117C34.3485 20.9727 34.1552 20.9238 33.9716 20.8652C33.7919 20.8027 33.6473 20.7344 33.538 20.6602ZM44.9989 18.2402H40.7626C40.7782 18.9082 40.9579 19.4238 41.3016 19.7871C41.6454 20.1504 42.118 20.332 42.7196 20.332C43.3954 20.332 44.0165 20.1094 44.5829 19.6641V20.5664C44.0555 20.9492 43.3583 21.1406 42.4911 21.1406C41.6434 21.1406 40.9774 20.8691 40.493 20.3262C40.0087 19.7793 39.7665 19.0117 39.7665 18.0234C39.7665 17.0898 40.0302 16.3301 40.5575 15.7441C41.0887 15.1543 41.7469 14.8594 42.5321 14.8594C43.3173 14.8594 43.9247 15.1133 44.3544 15.6211C44.7841 16.1289 44.9989 16.834 44.9989 17.7363V18.2402ZM44.0145 17.4258C44.0106 16.8711 43.8759 16.4395 43.6102 16.1309C43.3485 15.8223 42.9833 15.668 42.5145 15.668C42.0614 15.668 41.6766 15.8301 41.3602 16.1543C41.0438 16.4785 40.8485 16.9023 40.7743 17.4258H44.0145ZM49.5868 15.9727C49.4188 15.8438 49.1766 15.7793 48.8602 15.7793C48.4501 15.7793 48.1063 15.9727 47.829 16.3594C47.5555 16.7461 47.4188 17.2734 47.4188 17.9414V21H46.4579V15H47.4188V16.2363H47.4423C47.579 15.8145 47.788 15.4863 48.0692 15.252C48.3505 15.0137 48.6649 14.8945 49.0126 14.8945C49.2626 14.8945 49.454 14.9219 49.5868 14.9766V15.9727ZM51.1219 13.4766C50.9501 13.4766 50.8036 13.418 50.6825 13.3008C50.5614 13.1836 50.5009 13.0352 50.5009 12.8555C50.5009 12.6758 50.5614 12.5273 50.6825 12.4102C50.8036 12.2891 50.9501 12.2285 51.1219 12.2285C51.2977 12.2285 51.4462 12.2891 51.5673 12.4102C51.6923 12.5273 51.7548 12.6758 51.7548 12.8555C51.7548 13.0273 51.6923 13.1738 51.5673 13.2949C51.4462 13.416 51.2977 13.4766 51.1219 13.4766ZM51.5907 21H50.6298V15H51.5907V21ZM58.3583 18.2402H54.1219C54.1376 18.9082 54.3173 19.4238 54.661 19.7871C55.0048 20.1504 55.4774 20.332 56.079 20.332C56.7548 20.332 57.3759 20.1094 57.9423 19.6641V20.5664C57.4149 20.9492 56.7177 21.1406 55.8505 21.1406C55.0028 21.1406 54.3368 20.8691 53.8524 20.3262C53.368 19.7793 53.1259 19.0117 53.1259 18.0234C53.1259 17.0898 53.3895 16.3301 53.9169 15.7441C54.4481 15.1543 55.1063 14.8594 55.8915 14.8594C56.6766 14.8594 57.2841 15.1133 57.7137 15.6211C58.1434 16.1289 58.3583 16.834 58.3583 17.7363V18.2402ZM57.3739 17.4258C57.37 16.8711 57.2352 16.4395 56.9696 16.1309C56.7079 15.8223 56.3427 15.668 55.8739 15.668C55.4208 15.668 55.036 15.8301 54.7196 16.1543C54.4032 16.4785 54.2079 16.9023 54.1337 17.4258H57.3739ZM59.454 20.7832V19.752C59.9774 20.1387 60.5536 20.332 61.1825 20.332C62.0262 20.332 62.4481 20.0508 62.4481 19.4883C62.4481 19.3281 62.411 19.1934 62.3368 19.084C62.2665 18.9707 62.1688 18.8711 62.0438 18.7852C61.9227 18.6992 61.7782 18.623 61.6102 18.5566C61.4462 18.4863 61.2684 18.4141 61.077 18.3398C60.8114 18.2344 60.577 18.1289 60.3739 18.0234C60.1747 17.9141 60.0067 17.793 59.87 17.6602C59.7372 17.5234 59.6356 17.3691 59.5653 17.1973C59.4989 17.0254 59.4657 16.8242 59.4657 16.5938C59.4657 16.3125 59.5302 16.0645 59.6591 15.8496C59.788 15.6309 59.9598 15.4492 60.1747 15.3047C60.3895 15.1562 60.6337 15.0449 60.9071 14.9707C61.1844 14.8965 61.4696 14.8594 61.7626 14.8594C62.2821 14.8594 62.7469 14.9492 63.1571 15.1289V16.1016C62.7157 15.8125 62.2079 15.668 61.6337 15.668C61.454 15.668 61.2919 15.6895 61.1473 15.7324C61.0028 15.7715 60.8778 15.8281 60.7723 15.9023C60.6708 15.9766 60.5907 16.0664 60.5321 16.1719C60.4774 16.2734 60.4501 16.3867 60.4501 16.5117C60.4501 16.668 60.4774 16.7988 60.5321 16.9043C60.5907 17.0098 60.6747 17.1035 60.7841 17.1855C60.8934 17.2676 61.0262 17.3418 61.1825 17.4082C61.3387 17.4746 61.5165 17.5469 61.7157 17.625C61.9813 17.7266 62.2196 17.832 62.4305 17.9414C62.6415 18.0469 62.8212 18.168 62.9696 18.3047C63.118 18.4375 63.2313 18.5918 63.3094 18.7676C63.3915 18.9434 63.4325 19.1523 63.4325 19.3945C63.4325 19.6914 63.3661 19.9492 63.2333 20.168C63.1044 20.3867 62.9305 20.5684 62.7118 20.7129C62.493 20.8574 62.2411 20.9648 61.9559 21.0352C61.6708 21.1055 61.3719 21.1406 61.0594 21.1406C60.4423 21.1406 59.9071 21.0215 59.454 20.7832ZM71.4774 21H70.5165V13.7402C70.4423 13.8145 70.3329 13.9004 70.1884 13.998C70.0477 14.0918 69.8876 14.1855 69.7079 14.2793C69.5321 14.373 69.3446 14.4609 69.1454 14.543C68.9501 14.625 68.7587 14.6895 68.5712 14.7363V13.7637C68.7821 13.7051 69.0048 13.627 69.2391 13.5293C69.4774 13.4277 69.7098 13.3164 69.9364 13.1953C70.1669 13.0703 70.3837 12.9414 70.5868 12.8086C70.7899 12.6719 70.9657 12.5391 71.1141 12.4102H71.4774V21Z" fill="#A4A4A4"/>
<rect x="8.82898" y="32" width="16" height="16" fill="#579BF9"/>
<path d="M33.538 44.6602V43.5C33.6708 43.6172 33.829 43.7227 34.0126 43.8164C34.2001 43.9102 34.3954 43.9902 34.5985 44.0566C34.8055 44.1191 35.0126 44.168 35.2196 44.2031C35.4266 44.2383 35.618 44.2559 35.7938 44.2559C36.3993 44.2559 36.8505 44.1445 37.1473 43.9219C37.4481 43.6953 37.5985 43.3711 37.5985 42.9492C37.5985 42.7227 37.5477 42.5254 37.4462 42.3574C37.3485 42.1895 37.2118 42.0371 37.036 41.9004C36.8602 41.7598 36.6512 41.627 36.4091 41.502C36.1708 41.373 35.913 41.2383 35.6356 41.0977C35.3427 40.9492 35.0692 40.7988 34.8153 40.6465C34.5614 40.4941 34.3407 40.3262 34.1532 40.1426C33.9657 39.959 33.8173 39.752 33.7079 39.5215C33.6024 39.2871 33.5497 39.0137 33.5497 38.7012C33.5497 38.3184 33.6337 37.9863 33.8016 37.7051C33.9696 37.4199 34.1903 37.1855 34.4637 37.002C34.7372 36.8184 35.0477 36.6816 35.3954 36.5918C35.7469 36.502 36.1044 36.457 36.4677 36.457C37.2958 36.457 37.8993 36.5566 38.2782 36.7559V37.8633C37.7821 37.5195 37.1454 37.3477 36.368 37.3477C36.1532 37.3477 35.9384 37.3711 35.7235 37.418C35.5087 37.4609 35.3173 37.5332 35.1493 37.6348C34.9813 37.7363 34.8446 37.8672 34.7391 38.0273C34.6337 38.1875 34.5809 38.3828 34.5809 38.6133C34.5809 38.8281 34.62 39.0137 34.6981 39.1699C34.7802 39.3262 34.8993 39.4688 35.0555 39.5977C35.2118 39.7266 35.4012 39.8516 35.6239 39.9727C35.8505 40.0938 36.1102 40.2266 36.4032 40.3711C36.704 40.5195 36.9891 40.6758 37.2587 40.8398C37.5282 41.0039 37.7645 41.1855 37.9677 41.3848C38.1708 41.584 38.3309 41.8047 38.4481 42.0469C38.5692 42.2891 38.6298 42.5664 38.6298 42.8789C38.6298 43.293 38.5477 43.6445 38.3837 43.9336C38.2235 44.2188 38.0048 44.4512 37.7274 44.6309C37.454 44.8105 37.1376 44.9395 36.7782 45.0176C36.4188 45.0996 36.0399 45.1406 35.6415 45.1406C35.5087 45.1406 35.3446 45.1289 35.1493 45.1055C34.954 45.0859 34.7548 45.0547 34.5516 45.0117C34.3485 44.9727 34.1552 44.9238 33.9716 44.8652C33.7919 44.8027 33.6473 44.7344 33.538 44.6602ZM44.9989 42.2402H40.7626C40.7782 42.9082 40.9579 43.4238 41.3016 43.7871C41.6454 44.1504 42.118 44.332 42.7196 44.332C43.3954 44.332 44.0165 44.1094 44.5829 43.6641V44.5664C44.0555 44.9492 43.3583 45.1406 42.4911 45.1406C41.6434 45.1406 40.9774 44.8691 40.493 44.3262C40.0087 43.7793 39.7665 43.0117 39.7665 42.0234C39.7665 41.0898 40.0302 40.3301 40.5575 39.7441C41.0887 39.1543 41.7469 38.8594 42.5321 38.8594C43.3173 38.8594 43.9247 39.1133 44.3544 39.6211C44.7841 40.1289 44.9989 40.834 44.9989 41.7363V42.2402ZM44.0145 41.4258C44.0106 40.8711 43.8759 40.4395 43.6102 40.1309C43.3485 39.8223 42.9833 39.668 42.5145 39.668C42.0614 39.668 41.6766 39.8301 41.3602 40.1543C41.0438 40.4785 40.8485 40.9023 40.7743 41.4258H44.0145ZM49.5868 39.9727C49.4188 39.8438 49.1766 39.7793 48.8602 39.7793C48.4501 39.7793 48.1063 39.9727 47.829 40.3594C47.5555 40.7461 47.4188 41.2734 47.4188 41.9414V45H46.4579V39H47.4188V40.2363H47.4423C47.579 39.8145 47.788 39.4863 48.0692 39.252C48.3505 39.0137 48.6649 38.8945 49.0126 38.8945C49.2626 38.8945 49.454 38.9219 49.5868 38.9766V39.9727ZM51.1219 37.4766C50.9501 37.4766 50.8036 37.418 50.6825 37.3008C50.5614 37.1836 50.5009 37.0352 50.5009 36.8555C50.5009 36.6758 50.5614 36.5273 50.6825 36.4102C50.8036 36.2891 50.9501 36.2285 51.1219 36.2285C51.2977 36.2285 51.4462 36.2891 51.5673 36.4102C51.6923 36.5273 51.7548 36.6758 51.7548 36.8555C51.7548 37.0273 51.6923 37.1738 51.5673 37.2949C51.4462 37.416 51.2977 37.4766 51.1219 37.4766ZM51.5907 45H50.6298V39H51.5907V45ZM58.3583 42.2402H54.1219C54.1376 42.9082 54.3173 43.4238 54.661 43.7871C55.0048 44.1504 55.4774 44.332 56.079 44.332C56.7548 44.332 57.3759 44.1094 57.9423 43.6641V44.5664C57.4149 44.9492 56.7177 45.1406 55.8505 45.1406C55.0028 45.1406 54.3368 44.8691 53.8524 44.3262C53.368 43.7793 53.1259 43.0117 53.1259 42.0234C53.1259 41.0898 53.3895 40.3301 53.9169 39.7441C54.4481 39.1543 55.1063 38.8594 55.8915 38.8594C56.6766 38.8594 57.2841 39.1133 57.7137 39.6211C58.1434 40.1289 58.3583 40.834 58.3583 41.7363V42.2402ZM57.3739 41.4258C57.37 40.8711 57.2352 40.4395 56.9696 40.1309C56.7079 39.8223 56.3427 39.668 55.8739 39.668C55.4208 39.668 55.036 39.8301 54.7196 40.1543C54.4032 40.4785 54.2079 40.9023 54.1337 41.4258H57.3739ZM59.454 44.7832V43.752C59.9774 44.1387 60.5536 44.332 61.1825 44.332C62.0262 44.332 62.4481 44.0508 62.4481 43.4883C62.4481 43.3281 62.411 43.1934 62.3368 43.084C62.2665 42.9707 62.1688 42.8711 62.0438 42.7852C61.9227 42.6992 61.7782 42.623 61.6102 42.5566C61.4462 42.4863 61.2684 42.4141 61.077 42.3398C60.8114 42.2344 60.577 42.1289 60.3739 42.0234C60.1747 41.9141 60.0067 41.793 59.87 41.6602C59.7372 41.5234 59.6356 41.3691 59.5653 41.1973C59.4989 41.0254 59.4657 40.8242 59.4657 40.5938C59.4657 40.3125 59.5302 40.0645 59.6591 39.8496C59.788 39.6309 59.9598 39.4492 60.1747 39.3047C60.3895 39.1562 60.6337 39.0449 60.9071 38.9707C61.1844 38.8965 61.4696 38.8594 61.7626 38.8594C62.2821 38.8594 62.7469 38.9492 63.1571 39.1289V40.1016C62.7157 39.8125 62.2079 39.668 61.6337 39.668C61.454 39.668 61.2919 39.6895 61.1473 39.7324C61.0028 39.7715 60.8778 39.8281 60.7723 39.9023C60.6708 39.9766 60.5907 40.0664 60.5321 40.1719C60.4774 40.2734 60.4501 40.3867 60.4501 40.5117C60.4501 40.668 60.4774 40.7988 60.5321 40.9043C60.5907 41.0098 60.6747 41.1035 60.7841 41.1855C60.8934 41.2676 61.0262 41.3418 61.1825 41.4082C61.3387 41.4746 61.5165 41.5469 61.7157 41.625C61.9813 41.7266 62.2196 41.832 62.4305 41.9414C62.6415 42.0469 62.8212 42.168 62.9696 42.3047C63.118 42.4375 63.2313 42.5918 63.3094 42.7676C63.3915 42.9434 63.4325 43.1523 63.4325 43.3945C63.4325 43.6914 63.3661 43.9492 63.2333 44.168C63.1044 44.3867 62.9305 44.5684 62.7118 44.7129C62.493 44.8574 62.2411 44.9648 61.9559 45.0352C61.6708 45.1055 61.3719 45.1406 61.0594 45.1406C60.4423 45.1406 59.9071 45.0215 59.454 44.7832ZM71.7587 38.8008C71.7587 38.543 71.7177 38.3184 71.6356 38.127C71.5575 37.9355 71.4481 37.7773 71.3075 37.6523C71.1708 37.5234 71.0087 37.4277 70.8212 37.3652C70.6337 37.3027 70.4305 37.2715 70.2118 37.2715C70.0243 37.2715 69.8407 37.2969 69.661 37.3477C69.4813 37.3984 69.3055 37.4688 69.1337 37.5586C68.9657 37.6484 68.8016 37.7559 68.6415 37.8809C68.4852 38.0059 68.3387 38.1445 68.202 38.2969V37.2656C68.4716 37.0039 68.7723 36.8047 69.1044 36.668C69.4403 36.5273 69.8485 36.457 70.329 36.457C70.6727 36.457 70.9911 36.5078 71.2841 36.6094C71.577 36.707 71.8309 36.8516 72.0458 37.043C72.2606 37.2344 72.4286 37.4707 72.5497 37.752C72.6747 38.0332 72.7372 38.3555 72.7372 38.7188C72.7372 39.0508 72.6981 39.3516 72.62 39.6211C72.5458 39.8906 72.4305 40.1445 72.2743 40.3828C72.1219 40.6211 71.9286 40.8496 71.6942 41.0684C71.4598 41.2871 71.1844 41.5098 70.868 41.7363C70.4735 42.0176 70.1473 42.2578 69.8895 42.457C69.6356 42.6562 69.4325 42.8438 69.2802 43.0195C69.1317 43.1914 69.0262 43.3652 68.9637 43.541C68.9052 43.7129 68.8759 43.9121 68.8759 44.1387H73.0594V45H67.8739V44.584C67.8739 44.2246 67.913 43.9082 67.9911 43.6348C68.0692 43.3613 68.1981 43.1016 68.3778 42.8555C68.5575 42.6094 68.7919 42.3633 69.0809 42.1172C69.3739 41.8711 69.7313 41.5938 70.1532 41.2852C70.4579 41.0664 70.7118 40.8574 70.9149 40.6582C71.1219 40.459 71.288 40.2598 71.413 40.0605C71.538 39.8613 71.6259 39.6602 71.6766 39.457C71.7313 39.25 71.7587 39.0312 71.7587 38.8008Z" fill="#A4A4A4"/>
<rect x="8.82898" y="56" width="16" height="16" fill="#FFDA70"/>
<path d="M33.538 68.6602V67.5C33.6708 67.6172 33.829 67.7227 34.0126 67.8164C34.2001 67.9102 34.3954 67.9902 34.5985 68.0566C34.8055 68.1191 35.0126 68.168 35.2196 68.2031C35.4266 68.2383 35.618 68.2559 35.7938 68.2559C36.3993 68.2559 36.8505 68.1445 37.1473 67.9219C37.4481 67.6953 37.5985 67.3711 37.5985 66.9492C37.5985 66.7227 37.5477 66.5254 37.4462 66.3574C37.3485 66.1895 37.2118 66.0371 37.036 65.9004C36.8602 65.7598 36.6512 65.627 36.4091 65.502C36.1708 65.373 35.913 65.2383 35.6356 65.0977C35.3427 64.9492 35.0692 64.7988 34.8153 64.6465C34.5614 64.4941 34.3407 64.3262 34.1532 64.1426C33.9657 63.959 33.8173 63.752 33.7079 63.5215C33.6024 63.2871 33.5497 63.0137 33.5497 62.7012C33.5497 62.3184 33.6337 61.9863 33.8016 61.7051C33.9696 61.4199 34.1903 61.1855 34.4637 61.002C34.7372 60.8184 35.0477 60.6816 35.3954 60.5918C35.7469 60.502 36.1044 60.457 36.4677 60.457C37.2958 60.457 37.8993 60.5566 38.2782 60.7559V61.8633C37.7821 61.5195 37.1454 61.3477 36.368 61.3477C36.1532 61.3477 35.9384 61.3711 35.7235 61.418C35.5087 61.4609 35.3173 61.5332 35.1493 61.6348C34.9813 61.7363 34.8446 61.8672 34.7391 62.0273C34.6337 62.1875 34.5809 62.3828 34.5809 62.6133C34.5809 62.8281 34.62 63.0137 34.6981 63.1699C34.7802 63.3262 34.8993 63.4688 35.0555 63.5977C35.2118 63.7266 35.4012 63.8516 35.6239 63.9727C35.8505 64.0938 36.1102 64.2266 36.4032 64.3711C36.704 64.5195 36.9891 64.6758 37.2587 64.8398C37.5282 65.0039 37.7645 65.1855 37.9677 65.3848C38.1708 65.584 38.3309 65.8047 38.4481 66.0469C38.5692 66.2891 38.6298 66.5664 38.6298 66.8789C38.6298 67.293 38.5477 67.6445 38.3837 67.9336C38.2235 68.2188 38.0048 68.4512 37.7274 68.6309C37.454 68.8105 37.1376 68.9395 36.7782 69.0176C36.4188 69.0996 36.0399 69.1406 35.6415 69.1406C35.5087 69.1406 35.3446 69.1289 35.1493 69.1055C34.954 69.0859 34.7548 69.0547 34.5516 69.0117C34.3485 68.9727 34.1552 68.9238 33.9716 68.8652C33.7919 68.8027 33.6473 68.7344 33.538 68.6602ZM44.9989 66.2402H40.7626C40.7782 66.9082 40.9579 67.4238 41.3016 67.7871C41.6454 68.1504 42.118 68.332 42.7196 68.332C43.3954 68.332 44.0165 68.1094 44.5829 67.6641V68.5664C44.0555 68.9492 43.3583 69.1406 42.4911 69.1406C41.6434 69.1406 40.9774 68.8691 40.493 68.3262C40.0087 67.7793 39.7665 67.0117 39.7665 66.0234C39.7665 65.0898 40.0302 64.3301 40.5575 63.7441C41.0887 63.1543 41.7469 62.8594 42.5321 62.8594C43.3173 62.8594 43.9247 63.1133 44.3544 63.6211C44.7841 64.1289 44.9989 64.834 44.9989 65.7363V66.2402ZM44.0145 65.4258C44.0106 64.8711 43.8759 64.4395 43.6102 64.1309C43.3485 63.8223 42.9833 63.668 42.5145 63.668C42.0614 63.668 41.6766 63.8301 41.3602 64.1543C41.0438 64.4785 40.8485 64.9023 40.7743 65.4258H44.0145ZM49.5868 63.9727C49.4188 63.8438 49.1766 63.7793 48.8602 63.7793C48.4501 63.7793 48.1063 63.9727 47.829 64.3594C47.5555 64.7461 47.4188 65.2734 47.4188 65.9414V69H46.4579V63H47.4188V64.2363H47.4423C47.579 63.8145 47.788 63.4863 48.0692 63.252C48.3505 63.0137 48.6649 62.8945 49.0126 62.8945C49.2626 62.8945 49.454 62.9219 49.5868 62.9766V63.9727ZM51.1219 61.4766C50.9501 61.4766 50.8036 61.418 50.6825 61.3008C50.5614 61.1836 50.5009 61.0352 50.5009 60.8555C50.5009 60.6758 50.5614 60.5273 50.6825 60.4102C50.8036 60.2891 50.9501 60.2285 51.1219 60.2285C51.2977 60.2285 51.4462 60.2891 51.5673 60.4102C51.6923 60.5273 51.7548 60.6758 51.7548 60.8555C51.7548 61.0273 51.6923 61.1738 51.5673 61.2949C51.4462 61.416 51.2977 61.4766 51.1219 61.4766ZM51.5907 69H50.6298V63H51.5907V69ZM58.3583 66.2402H54.1219C54.1376 66.9082 54.3173 67.4238 54.661 67.7871C55.0048 68.1504 55.4774 68.332 56.079 68.332C56.7548 68.332 57.3759 68.1094 57.9423 67.6641V68.5664C57.4149 68.9492 56.7177 69.1406 55.8505 69.1406C55.0028 69.1406 54.3368 68.8691 53.8524 68.3262C53.368 67.7793 53.1259 67.0117 53.1259 66.0234C53.1259 65.0898 53.3895 64.3301 53.9169 63.7441C54.4481 63.1543 55.1063 62.8594 55.8915 62.8594C56.6766 62.8594 57.2841 63.1133 57.7137 63.6211C58.1434 64.1289 58.3583 64.834 58.3583 65.7363V66.2402ZM57.3739 65.4258C57.37 64.8711 57.2352 64.4395 56.9696 64.1309C56.7079 63.8223 56.3427 63.668 55.8739 63.668C55.4208 63.668 55.036 63.8301 54.7196 64.1543C54.4032 64.4785 54.2079 64.9023 54.1337 65.4258H57.3739ZM59.454 68.7832V67.752C59.9774 68.1387 60.5536 68.332 61.1825 68.332C62.0262 68.332 62.4481 68.0508 62.4481 67.4883C62.4481 67.3281 62.411 67.1934 62.3368 67.084C62.2665 66.9707 62.1688 66.8711 62.0438 66.7852C61.9227 66.6992 61.7782 66.623 61.6102 66.5566C61.4462 66.4863 61.2684 66.4141 61.077 66.3398C60.8114 66.2344 60.577 66.1289 60.3739 66.0234C60.1747 65.9141 60.0067 65.793 59.87 65.6602C59.7372 65.5234 59.6356 65.3691 59.5653 65.1973C59.4989 65.0254 59.4657 64.8242 59.4657 64.5938C59.4657 64.3125 59.5302 64.0645 59.6591 63.8496C59.788 63.6309 59.9598 63.4492 60.1747 63.3047C60.3895 63.1562 60.6337 63.0449 60.9071 62.9707C61.1844 62.8965 61.4696 62.8594 61.7626 62.8594C62.2821 62.8594 62.7469 62.9492 63.1571 63.1289V64.1016C62.7157 63.8125 62.2079 63.668 61.6337 63.668C61.454 63.668 61.2919 63.6895 61.1473 63.7324C61.0028 63.7715 60.8778 63.8281 60.7723 63.9023C60.6708 63.9766 60.5907 64.0664 60.5321 64.1719C60.4774 64.2734 60.4501 64.3867 60.4501 64.5117C60.4501 64.668 60.4774 64.7988 60.5321 64.9043C60.5907 65.0098 60.6747 65.1035 60.7841 65.1855C60.8934 65.2676 61.0262 65.3418 61.1825 65.4082C61.3387 65.4746 61.5165 65.5469 61.7157 65.625C61.9813 65.7266 62.2196 65.832 62.4305 65.9414C62.6415 66.0469 62.8212 66.168 62.9696 66.3047C63.118 66.4375 63.2313 66.5918 63.3094 66.7676C63.3915 66.9434 63.4325 67.1523 63.4325 67.3945C63.4325 67.6914 63.3661 67.9492 63.2333 68.168C63.1044 68.3867 62.9305 68.5684 62.7118 68.7129C62.493 68.8574 62.2411 68.9648 61.9559 69.0352C61.6708 69.1055 61.3719 69.1406 61.0594 69.1406C60.4423 69.1406 59.9071 69.0215 59.454 68.7832ZM72.8192 66.6211C72.8192 67 72.7469 67.3457 72.6024 67.6582C72.4618 67.9668 72.2606 68.2324 71.9989 68.4551C71.7411 68.6738 71.4305 68.8438 71.0673 68.9648C70.704 69.0859 70.3036 69.1465 69.8661 69.1465C69.0653 69.1465 68.4286 68.9941 67.9559 68.6895V67.6582C68.5223 68.1035 69.1708 68.3262 69.9012 68.3262C70.1942 68.3262 70.4579 68.2891 70.6923 68.2148C70.9305 68.1406 71.1337 68.0332 71.3016 67.8926C71.4735 67.752 71.6044 67.582 71.6942 67.3828C71.788 67.1836 71.8348 66.959 71.8348 66.709C71.8348 65.6113 71.0536 65.0625 69.4911 65.0625H68.7938V64.248H69.4559C70.8387 64.248 71.5302 63.7324 71.5302 62.7012C71.5302 61.748 71.0028 61.2715 69.9481 61.2715C69.3544 61.2715 68.7977 61.4707 68.2782 61.8691V60.9375C68.8134 60.6172 69.4501 60.457 70.1884 60.457C70.5399 60.457 70.8583 60.5059 71.1434 60.6035C71.4286 60.7012 71.6727 60.8379 71.8759 61.0137C72.079 61.1895 72.2352 61.4004 72.3446 61.6465C72.4579 61.8926 72.5145 62.1641 72.5145 62.4609C72.5145 63.5664 71.9559 64.2773 70.8387 64.5938V64.6172C71.1239 64.6484 71.3876 64.7188 71.6298 64.8281C71.8719 64.9336 72.0809 65.0723 72.2567 65.2441C72.4325 65.416 72.5692 65.6191 72.6669 65.8535C72.7684 66.084 72.8192 66.3398 72.8192 66.6211Z" fill="#A4A4A4"/>
</svg>
