<svg width="14" height="14" viewBox="0 0 14 14" fill="none" xmlns="http://www.w3.org/2000/svg">
<path d="M12.1336 0H1.86642C1.37171 0.000969069 0.897545 0.197921 0.547733 0.547733C0.197921 0.897545 0.000969069 1.37171 0 1.86642L0 12.1336C0.000969069 12.6283 0.197921 13.1025 0.547733 13.4523C0.897545 13.8021 1.37171 13.999 1.86642 14H12.1336C12.3787 14 12.6214 13.9517 12.8478 13.8579C13.0743 13.7641 13.28 13.6267 13.4533 13.4533C13.6267 13.28 13.7641 13.0743 13.8579 12.8478C13.9517 12.6214 14 12.3787 14 12.1336V1.86642C13.999 1.37171 13.8021 0.897545 13.4523 0.547733C13.1025 0.197921 12.6283 0.000969069 12.1336 0V0ZM12.5003 9.53379H11.0005L10.4322 8.38973L9.87847 9.53379H7V5.89628C6.99521 5.74941 6.93299 5.61028 6.82671 5.5088C6.72043 5.40732 6.57858 5.35159 6.43164 5.35359C6.28506 5.35161 6.1436 5.40746 6.03791 5.50903C5.93221 5.61061 5.87079 5.74974 5.86695 5.89628V9.53379H4.37087V5.88895C4.36518 5.74205 4.3028 5.60308 4.19682 5.5012C4.09085 5.39933 3.94952 5.34248 3.80251 5.34259C3.72932 5.34113 3.65655 5.35411 3.58837 5.38078C3.52019 5.40745 3.45793 5.44729 3.40515 5.49802C3.35237 5.54876 3.3101 5.6094 3.28076 5.67648C3.25142 5.74355 3.23558 5.81575 3.23415 5.88895V9.53379H1.73075V4.46621H3.23415V5.05657H3.25982C3.2911 5.00919 3.3254 4.96388 3.36249 4.9209L3.38083 4.89523L3.46517 4.8109C3.55978 4.72114 3.66888 4.64799 3.78785 4.59455L3.88319 4.56888C3.943 4.54744 4.00427 4.53029 4.06653 4.51755L4.17287 4.49555C4.28813 4.47741 4.40454 4.46761 4.52122 4.46621C4.59613 4.4667 4.6709 4.47283 4.74489 4.48455C4.7919 4.48772 4.83853 4.49508 4.88423 4.50655H4.90623C5.07544 4.53936 5.23579 4.60762 5.37672 4.70685C5.51766 4.80607 5.63599 4.93401 5.72394 5.08224L5.86695 4.95024L5.88528 4.9319L5.97695 4.85123C6.08744 4.757 6.21094 4.6792 6.34364 4.62022C6.3722 4.60826 6.40161 4.59845 6.43164 4.59089C6.50326 4.56353 6.5768 4.54147 6.65165 4.52488L6.77632 4.49921C6.89746 4.47835 7.02009 4.46731 7.14301 4.46621C7.38626 4.43969 7.63199 4.48409 7.85059 4.59404C8.06919 4.70399 8.25133 4.87481 8.37507 5.08591C8.46312 5.24709 8.5121 5.4267 8.51807 5.61027V9.27711L9.68413 6.98533L8.39707 4.45155H9.90047L10.4688 5.5956L11.0005 4.46621H12.5039L11.2169 7L12.5003 9.53379Z" fill="black"/>
</svg>
