<svg width="720" height="440" viewBox="0 0 720 440" fill="none" xmlns="http://www.w3.org/2000/svg">
<rect y="62.5425" width="720" height="2.54252" fill="#D9DBDD"/>
<rect y="220.179" width="720" height="2.54254" fill="#D9DBDD"/>
<rect y="377.815" width="720" height="2.54256" fill="#D9DBDD"/>
<path d="M45.9578 314.252L257.873 283.742L686.809 344.763" stroke="#F2B42A" stroke-width="2"/>
<ellipse cx="257.873" cy="283.742" rx="5.10637" ry="5.08504" fill="#F2B42A"/>
<ellipse cx="469.787" cy="314.252" rx="5.10645" ry="5.08505" fill="#F2B42A"/>
<ellipse cx="684.256" cy="344.763" rx="5.10639" ry="5.08508" fill="#F2B42A"/>
<ellipse cx="45.9577" cy="314.252" rx="5.10639" ry="5.08505" fill="#F2B42A"/>
<path d="M51.0638 67.6275L252.766 192.211L469.787 161.701L689.362 288.827" stroke="#264AE5" stroke-width="2"/>
<ellipse cx="48.5105" cy="65.085" rx="5.10639" ry="5.08505" fill="#264AE5"/>
<ellipse cx="252.766" cy="192.211" rx="5.10641" ry="5.08505" fill="#264AE5"/>
<ellipse cx="469.787" cy="161.701" rx="5.10645" ry="5.08505" fill="#264AE5"/>
<ellipse cx="686.808" cy="288.827" rx="5.10635" ry="5.08505" fill="#2DBAFC"/>
<path d="M43.4045 161.701L257.873 128.648L469.788 253.232L686.809 283.742" stroke="#2DBAFC" stroke-width="2"/>
<ellipse cx="45.9577" cy="161.701" rx="5.10639" ry="5.08505" fill="#2DBAFC"/>
<ellipse cx="257.873" cy="128.648" rx="5.10637" ry="5.08504" fill="#2DBAFC"/>
<ellipse cx="469.787" cy="253.232" rx="5.10645" ry="5.08504" fill="#2DBAFC"/>
<ellipse cx="686.809" cy="283.742" rx="5.10639" ry="5.08504" fill="#264AE5"/>
</svg>
