<svg width="720" height="440" viewBox="0 0 720 440" fill="none" xmlns="http://www.w3.org/2000/svg">
<rect y="62.5425" width="720" height="2.54252" fill="#646464"/>
<rect y="220.179" width="720" height="2.54254" fill="#646464"/>
<rect y="377.815" width="720" height="2.54256" fill="#646464"/>
<path d="M45.9578 314.252L257.873 283.742L686.809 344.763" stroke="#FFDA70" stroke-width="2"/>
<ellipse cx="257.873" cy="283.742" rx="5.10637" ry="5.08504" fill="#FFDA70"/>
<ellipse cx="469.787" cy="314.252" rx="5.10645" ry="5.08505" fill="#FFDA70"/>
<ellipse cx="684.256" cy="344.763" rx="5.10639" ry="5.08508" fill="#FFDA70"/>
<ellipse cx="45.9577" cy="314.252" rx="5.10639" ry="5.08505" fill="#FFDA70"/>
<path d="M51.0638 67.6276L252.766 192.211L469.787 161.701L689.362 288.827" stroke="#344BCE" stroke-width="2"/>
<ellipse cx="48.5105" cy="65.085" rx="5.10639" ry="5.08505" fill="#344BCE"/>
<ellipse cx="252.766" cy="192.211" rx="5.10641" ry="5.08505" fill="#344BCE"/>
<ellipse cx="469.787" cy="161.701" rx="5.10645" ry="5.08505" fill="#344BCE"/>
<ellipse cx="686.808" cy="288.827" rx="5.10635" ry="5.08505" fill="#579BF9"/>
<path d="M43.4045 161.701L257.873 128.648L469.788 253.232L686.809 283.742" stroke="#579BF9" stroke-width="2"/>
<ellipse cx="45.9577" cy="161.701" rx="5.10639" ry="5.08505" fill="#579BF9"/>
<ellipse cx="257.873" cy="128.648" rx="5.10637" ry="5.08504" fill="#579BF9"/>
<ellipse cx="469.787" cy="253.232" rx="5.10645" ry="5.08504" fill="#579BF9"/>
<ellipse cx="686.809" cy="283.742" rx="5.10639" ry="5.08504" fill="#344BCE"/>
</svg>
