<svg width="72" height="232" viewBox="0 0 72 232" fill="none" xmlns="http://www.w3.org/2000/svg">
<rect x="8" y="8" width="16" height="16" fill="#344BCE"/>
<path d="M32.709 20.6602V19.5C32.8418 19.6172 33 19.7227 33.1836 19.8164C33.3711 19.9102 33.5664 19.9902 33.7695 20.0566C33.9766 20.1191 34.1836 20.168 34.3906 20.2031C34.5977 20.2383 34.7891 20.2559 34.9648 20.2559C35.5703 20.2559 36.0215 20.1445 36.3184 19.9219C36.6191 19.6953 36.7695 19.3711 36.7695 18.9492C36.7695 18.7227 36.7188 18.5254 36.6172 18.3574C36.5195 18.1895 36.3828 18.0371 36.207 17.9004C36.0312 17.7598 35.8223 17.627 35.5801 17.502C35.3418 17.373 35.084 17.2383 34.8066 17.0977C34.5137 16.9492 34.2402 16.7988 33.9863 16.6465C33.7324 16.4941 33.5117 16.3262 33.3242 16.1426C33.1367 15.959 32.9883 15.752 32.8789 15.5215C32.7734 15.2871 32.7207 15.0137 32.7207 14.7012C32.7207 14.3184 32.8047 13.9863 32.9727 13.7051C33.1406 13.4199 33.3613 13.1855 33.6348 13.002C33.9082 12.8184 34.2188 12.6816 34.5664 12.5918C34.918 12.502 35.2754 12.457 35.6387 12.457C36.4668 12.457 37.0703 12.5566 37.4492 12.7559V13.8633C36.9531 13.5195 36.3164 13.3477 35.5391 13.3477C35.3242 13.3477 35.1094 13.3711 34.8945 13.418C34.6797 13.4609 34.4883 13.5332 34.3203 13.6348C34.1523 13.7363 34.0156 13.8672 33.9102 14.0273C33.8047 14.1875 33.752 14.3828 33.752 14.6133C33.752 14.8281 33.791 15.0137 33.8691 15.1699C33.9512 15.3262 34.0703 15.4688 34.2266 15.5977C34.3828 15.7266 34.5723 15.8516 34.7949 15.9727C35.0215 16.0938 35.2812 16.2266 35.5742 16.3711C35.875 16.5195 36.1602 16.6758 36.4297 16.8398C36.6992 17.0039 36.9355 17.1855 37.1387 17.3848C37.3418 17.584 37.502 17.8047 37.6191 18.0469C37.7402 18.2891 37.8008 18.5664 37.8008 18.8789C37.8008 19.293 37.7188 19.6445 37.5547 19.9336C37.3945 20.2188 37.1758 20.4512 36.8984 20.6309C36.625 20.8105 36.3086 20.9395 35.9492 21.0176C35.5898 21.0996 35.2109 21.1406 34.8125 21.1406C34.6797 21.1406 34.5156 21.1289 34.3203 21.1055C34.125 21.0859 33.9258 21.0547 33.7227 21.0117C33.5195 20.9727 33.3262 20.9238 33.1426 20.8652C32.9629 20.8027 32.8184 20.7344 32.709 20.6602ZM44.1699 18.2402H39.9336C39.9492 18.9082 40.1289 19.4238 40.4727 19.7871C40.8164 20.1504 41.2891 20.332 41.8906 20.332C42.5664 20.332 43.1875 20.1094 43.7539 19.6641V20.5664C43.2266 20.9492 42.5293 21.1406 41.6621 21.1406C40.8145 21.1406 40.1484 20.8691 39.6641 20.3262C39.1797 19.7793 38.9375 19.0117 38.9375 18.0234C38.9375 17.0898 39.2012 16.3301 39.7285 15.7441C40.2598 15.1543 40.918 14.8594 41.7031 14.8594C42.4883 14.8594 43.0957 15.1133 43.5254 15.6211C43.9551 16.1289 44.1699 16.834 44.1699 17.7363V18.2402ZM43.1855 17.4258C43.1816 16.8711 43.0469 16.4395 42.7812 16.1309C42.5195 15.8223 42.1543 15.668 41.6855 15.668C41.2324 15.668 40.8477 15.8301 40.5312 16.1543C40.2148 16.4785 40.0195 16.9023 39.9453 17.4258H43.1855ZM48.7578 15.9727C48.5898 15.8438 48.3477 15.7793 48.0312 15.7793C47.6211 15.7793 47.2773 15.9727 47 16.3594C46.7266 16.7461 46.5898 17.2734 46.5898 17.9414V21H45.6289V15H46.5898V16.2363H46.6133C46.75 15.8145 46.959 15.4863 47.2402 15.252C47.5215 15.0137 47.8359 14.8945 48.1836 14.8945C48.4336 14.8945 48.625 14.9219 48.7578 14.9766V15.9727ZM50.293 13.4766C50.1211 13.4766 49.9746 13.418 49.8535 13.3008C49.7324 13.1836 49.6719 13.0352 49.6719 12.8555C49.6719 12.6758 49.7324 12.5273 49.8535 12.4102C49.9746 12.2891 50.1211 12.2285 50.293 12.2285C50.4688 12.2285 50.6172 12.2891 50.7383 12.4102C50.8633 12.5273 50.9258 12.6758 50.9258 12.8555C50.9258 13.0273 50.8633 13.1738 50.7383 13.2949C50.6172 13.416 50.4688 13.4766 50.293 13.4766ZM50.7617 21H49.8008V15H50.7617V21ZM57.5293 18.2402H53.293C53.3086 18.9082 53.4883 19.4238 53.832 19.7871C54.1758 20.1504 54.6484 20.332 55.25 20.332C55.9258 20.332 56.5469 20.1094 57.1133 19.6641V20.5664C56.5859 20.9492 55.8887 21.1406 55.0215 21.1406C54.1738 21.1406 53.5078 20.8691 53.0234 20.3262C52.5391 19.7793 52.2969 19.0117 52.2969 18.0234C52.2969 17.0898 52.5605 16.3301 53.0879 15.7441C53.6191 15.1543 54.2773 14.8594 55.0625 14.8594C55.8477 14.8594 56.4551 15.1133 56.8848 15.6211C57.3145 16.1289 57.5293 16.834 57.5293 17.7363V18.2402ZM56.5449 17.4258C56.541 16.8711 56.4062 16.4395 56.1406 16.1309C55.8789 15.8223 55.5137 15.668 55.0449 15.668C54.5918 15.668 54.207 15.8301 53.8906 16.1543C53.5742 16.4785 53.3789 16.9023 53.3047 17.4258H56.5449ZM58.625 20.7832V19.752C59.1484 20.1387 59.7246 20.332 60.3535 20.332C61.1973 20.332 61.6191 20.0508 61.6191 19.4883C61.6191 19.3281 61.582 19.1934 61.5078 19.084C61.4375 18.9707 61.3398 18.8711 61.2148 18.7852C61.0938 18.6992 60.9492 18.623 60.7812 18.5566C60.6172 18.4863 60.4395 18.4141 60.248 18.3398C59.9824 18.2344 59.748 18.1289 59.5449 18.0234C59.3457 17.9141 59.1777 17.793 59.041 17.6602C58.9082 17.5234 58.8066 17.3691 58.7363 17.1973C58.6699 17.0254 58.6367 16.8242 58.6367 16.5938C58.6367 16.3125 58.7012 16.0645 58.8301 15.8496C58.959 15.6309 59.1309 15.4492 59.3457 15.3047C59.5605 15.1562 59.8047 15.0449 60.0781 14.9707C60.3555 14.8965 60.6406 14.8594 60.9336 14.8594C61.4531 14.8594 61.918 14.9492 62.3281 15.1289V16.1016C61.8867 15.8125 61.3789 15.668 60.8047 15.668C60.625 15.668 60.4629 15.6895 60.3184 15.7324C60.1738 15.7715 60.0488 15.8281 59.9434 15.9023C59.8418 15.9766 59.7617 16.0664 59.7031 16.1719C59.6484 16.2734 59.6211 16.3867 59.6211 16.5117C59.6211 16.668 59.6484 16.7988 59.7031 16.9043C59.7617 17.0098 59.8457 17.1035 59.9551 17.1855C60.0645 17.2676 60.1973 17.3418 60.3535 17.4082C60.5098 17.4746 60.6875 17.5469 60.8867 17.625C61.1523 17.7266 61.3906 17.832 61.6016 17.9414C61.8125 18.0469 61.9922 18.168 62.1406 18.3047C62.2891 18.4375 62.4023 18.5918 62.4805 18.7676C62.5625 18.9434 62.6035 19.1523 62.6035 19.3945C62.6035 19.6914 62.5371 19.9492 62.4043 20.168C62.2754 20.3867 62.1016 20.5684 61.8828 20.7129C61.6641 20.8574 61.4121 20.9648 61.127 21.0352C60.8418 21.1055 60.543 21.1406 60.2305 21.1406C59.6133 21.1406 59.0781 21.0215 58.625 20.7832Z" fill="#A4A4A4"/>
<rect x="8" y="32" width="16" height="16" fill="#579BF9"/>
<path d="M32.709 44.6602V43.5C32.8418 43.6172 33 43.7227 33.1836 43.8164C33.3711 43.9102 33.5664 43.9902 33.7695 44.0566C33.9766 44.1191 34.1836 44.168 34.3906 44.2031C34.5977 44.2383 34.7891 44.2559 34.9648 44.2559C35.5703 44.2559 36.0215 44.1445 36.3184 43.9219C36.6191 43.6953 36.7695 43.3711 36.7695 42.9492C36.7695 42.7227 36.7188 42.5254 36.6172 42.3574C36.5195 42.1895 36.3828 42.0371 36.207 41.9004C36.0312 41.7598 35.8223 41.627 35.5801 41.502C35.3418 41.373 35.084 41.2383 34.8066 41.0977C34.5137 40.9492 34.2402 40.7988 33.9863 40.6465C33.7324 40.4941 33.5117 40.3262 33.3242 40.1426C33.1367 39.959 32.9883 39.752 32.8789 39.5215C32.7734 39.2871 32.7207 39.0137 32.7207 38.7012C32.7207 38.3184 32.8047 37.9863 32.9727 37.7051C33.1406 37.4199 33.3613 37.1855 33.6348 37.002C33.9082 36.8184 34.2188 36.6816 34.5664 36.5918C34.918 36.502 35.2754 36.457 35.6387 36.457C36.4668 36.457 37.0703 36.5566 37.4492 36.7559V37.8633C36.9531 37.5195 36.3164 37.3477 35.5391 37.3477C35.3242 37.3477 35.1094 37.3711 34.8945 37.418C34.6797 37.4609 34.4883 37.5332 34.3203 37.6348C34.1523 37.7363 34.0156 37.8672 33.9102 38.0273C33.8047 38.1875 33.752 38.3828 33.752 38.6133C33.752 38.8281 33.791 39.0137 33.8691 39.1699C33.9512 39.3262 34.0703 39.4688 34.2266 39.5977C34.3828 39.7266 34.5723 39.8516 34.7949 39.9727C35.0215 40.0938 35.2812 40.2266 35.5742 40.3711C35.875 40.5195 36.1602 40.6758 36.4297 40.8398C36.6992 41.0039 36.9355 41.1855 37.1387 41.3848C37.3418 41.584 37.502 41.8047 37.6191 42.0469C37.7402 42.2891 37.8008 42.5664 37.8008 42.8789C37.8008 43.293 37.7188 43.6445 37.5547 43.9336C37.3945 44.2188 37.1758 44.4512 36.8984 44.6309C36.625 44.8105 36.3086 44.9395 35.9492 45.0176C35.5898 45.0996 35.2109 45.1406 34.8125 45.1406C34.6797 45.1406 34.5156 45.1289 34.3203 45.1055C34.125 45.0859 33.9258 45.0547 33.7227 45.0117C33.5195 44.9727 33.3262 44.9238 33.1426 44.8652C32.9629 44.8027 32.8184 44.7344 32.709 44.6602ZM44.1699 42.2402H39.9336C39.9492 42.9082 40.1289 43.4238 40.4727 43.7871C40.8164 44.1504 41.2891 44.332 41.8906 44.332C42.5664 44.332 43.1875 44.1094 43.7539 43.6641V44.5664C43.2266 44.9492 42.5293 45.1406 41.6621 45.1406C40.8145 45.1406 40.1484 44.8691 39.6641 44.3262C39.1797 43.7793 38.9375 43.0117 38.9375 42.0234C38.9375 41.0898 39.2012 40.3301 39.7285 39.7441C40.2598 39.1543 40.918 38.8594 41.7031 38.8594C42.4883 38.8594 43.0957 39.1133 43.5254 39.6211C43.9551 40.1289 44.1699 40.834 44.1699 41.7363V42.2402ZM43.1855 41.4258C43.1816 40.8711 43.0469 40.4395 42.7812 40.1309C42.5195 39.8223 42.1543 39.668 41.6855 39.668C41.2324 39.668 40.8477 39.8301 40.5312 40.1543C40.2148 40.4785 40.0195 40.9023 39.9453 41.4258H43.1855ZM48.7578 39.9727C48.5898 39.8438 48.3477 39.7793 48.0312 39.7793C47.6211 39.7793 47.2773 39.9727 47 40.3594C46.7266 40.7461 46.5898 41.2734 46.5898 41.9414V45H45.6289V39H46.5898V40.2363H46.6133C46.75 39.8145 46.959 39.4863 47.2402 39.252C47.5215 39.0137 47.8359 38.8945 48.1836 38.8945C48.4336 38.8945 48.625 38.9219 48.7578 38.9766V39.9727ZM50.293 37.4766C50.1211 37.4766 49.9746 37.418 49.8535 37.3008C49.7324 37.1836 49.6719 37.0352 49.6719 36.8555C49.6719 36.6758 49.7324 36.5273 49.8535 36.4102C49.9746 36.2891 50.1211 36.2285 50.293 36.2285C50.4688 36.2285 50.6172 36.2891 50.7383 36.4102C50.8633 36.5273 50.9258 36.6758 50.9258 36.8555C50.9258 37.0273 50.8633 37.1738 50.7383 37.2949C50.6172 37.416 50.4688 37.4766 50.293 37.4766ZM50.7617 45H49.8008V39H50.7617V45ZM57.5293 42.2402H53.293C53.3086 42.9082 53.4883 43.4238 53.832 43.7871C54.1758 44.1504 54.6484 44.332 55.25 44.332C55.9258 44.332 56.5469 44.1094 57.1133 43.6641V44.5664C56.5859 44.9492 55.8887 45.1406 55.0215 45.1406C54.1738 45.1406 53.5078 44.8691 53.0234 44.3262C52.5391 43.7793 52.2969 43.0117 52.2969 42.0234C52.2969 41.0898 52.5605 40.3301 53.0879 39.7441C53.6191 39.1543 54.2773 38.8594 55.0625 38.8594C55.8477 38.8594 56.4551 39.1133 56.8848 39.6211C57.3145 40.1289 57.5293 40.834 57.5293 41.7363V42.2402ZM56.5449 41.4258C56.541 40.8711 56.4062 40.4395 56.1406 40.1309C55.8789 39.8223 55.5137 39.668 55.0449 39.668C54.5918 39.668 54.207 39.8301 53.8906 40.1543C53.5742 40.4785 53.3789 40.9023 53.3047 41.4258H56.5449ZM58.625 44.7832V43.752C59.1484 44.1387 59.7246 44.332 60.3535 44.332C61.1973 44.332 61.6191 44.0508 61.6191 43.4883C61.6191 43.3281 61.582 43.1934 61.5078 43.084C61.4375 42.9707 61.3398 42.8711 61.2148 42.7852C61.0938 42.6992 60.9492 42.623 60.7812 42.5566C60.6172 42.4863 60.4395 42.4141 60.248 42.3398C59.9824 42.2344 59.748 42.1289 59.5449 42.0234C59.3457 41.9141 59.1777 41.793 59.041 41.6602C58.9082 41.5234 58.8066 41.3691 58.7363 41.1973C58.6699 41.0254 58.6367 40.8242 58.6367 40.5938C58.6367 40.3125 58.7012 40.0645 58.8301 39.8496C58.959 39.6309 59.1309 39.4492 59.3457 39.3047C59.5605 39.1562 59.8047 39.0449 60.0781 38.9707C60.3555 38.8965 60.6406 38.8594 60.9336 38.8594C61.4531 38.8594 61.918 38.9492 62.3281 39.1289V40.1016C61.8867 39.8125 61.3789 39.668 60.8047 39.668C60.625 39.668 60.4629 39.6895 60.3184 39.7324C60.1738 39.7715 60.0488 39.8281 59.9434 39.9023C59.8418 39.9766 59.7617 40.0664 59.7031 40.1719C59.6484 40.2734 59.6211 40.3867 59.6211 40.5117C59.6211 40.668 59.6484 40.7988 59.7031 40.9043C59.7617 41.0098 59.8457 41.1035 59.9551 41.1855C60.0645 41.2676 60.1973 41.3418 60.3535 41.4082C60.5098 41.4746 60.6875 41.5469 60.8867 41.625C61.1523 41.7266 61.3906 41.832 61.6016 41.9414C61.8125 42.0469 61.9922 42.168 62.1406 42.3047C62.2891 42.4375 62.4023 42.5918 62.4805 42.7676C62.5625 42.9434 62.6035 43.1523 62.6035 43.3945C62.6035 43.6914 62.5371 43.9492 62.4043 44.168C62.2754 44.3867 62.1016 44.5684 61.8828 44.7129C61.6641 44.8574 61.4121 44.9648 61.127 45.0352C60.8418 45.1055 60.543 45.1406 60.2305 45.1406C59.6133 45.1406 59.0781 45.0215 58.625 44.7832Z" fill="#A4A4A4"/>
<rect x="8" y="56" width="16" height="16" fill="#FFDA70"/>
<path d="M32.709 68.6602V67.5C32.8418 67.6172 33 67.7227 33.1836 67.8164C33.3711 67.9102 33.5664 67.9902 33.7695 68.0566C33.9766 68.1191 34.1836 68.168 34.3906 68.2031C34.5977 68.2383 34.7891 68.2559 34.9648 68.2559C35.5703 68.2559 36.0215 68.1445 36.3184 67.9219C36.6191 67.6953 36.7695 67.3711 36.7695 66.9492C36.7695 66.7227 36.7188 66.5254 36.6172 66.3574C36.5195 66.1895 36.3828 66.0371 36.207 65.9004C36.0312 65.7598 35.8223 65.627 35.5801 65.502C35.3418 65.373 35.084 65.2383 34.8066 65.0977C34.5137 64.9492 34.2402 64.7988 33.9863 64.6465C33.7324 64.4941 33.5117 64.3262 33.3242 64.1426C33.1367 63.959 32.9883 63.752 32.8789 63.5215C32.7734 63.2871 32.7207 63.0137 32.7207 62.7012C32.7207 62.3184 32.8047 61.9863 32.9727 61.7051C33.1406 61.4199 33.3613 61.1855 33.6348 61.002C33.9082 60.8184 34.2188 60.6816 34.5664 60.5918C34.918 60.502 35.2754 60.457 35.6387 60.457C36.4668 60.457 37.0703 60.5566 37.4492 60.7559V61.8633C36.9531 61.5195 36.3164 61.3477 35.5391 61.3477C35.3242 61.3477 35.1094 61.3711 34.8945 61.418C34.6797 61.4609 34.4883 61.5332 34.3203 61.6348C34.1523 61.7363 34.0156 61.8672 33.9102 62.0273C33.8047 62.1875 33.752 62.3828 33.752 62.6133C33.752 62.8281 33.791 63.0137 33.8691 63.1699C33.9512 63.3262 34.0703 63.4688 34.2266 63.5977C34.3828 63.7266 34.5723 63.8516 34.7949 63.9727C35.0215 64.0938 35.2812 64.2266 35.5742 64.3711C35.875 64.5195 36.1602 64.6758 36.4297 64.8398C36.6992 65.0039 36.9355 65.1855 37.1387 65.3848C37.3418 65.584 37.502 65.8047 37.6191 66.0469C37.7402 66.2891 37.8008 66.5664 37.8008 66.8789C37.8008 67.293 37.7188 67.6445 37.5547 67.9336C37.3945 68.2188 37.1758 68.4512 36.8984 68.6309C36.625 68.8105 36.3086 68.9395 35.9492 69.0176C35.5898 69.0996 35.2109 69.1406 34.8125 69.1406C34.6797 69.1406 34.5156 69.1289 34.3203 69.1055C34.125 69.0859 33.9258 69.0547 33.7227 69.0117C33.5195 68.9727 33.3262 68.9238 33.1426 68.8652C32.9629 68.8027 32.8184 68.7344 32.709 68.6602ZM44.1699 66.2402H39.9336C39.9492 66.9082 40.1289 67.4238 40.4727 67.7871C40.8164 68.1504 41.2891 68.332 41.8906 68.332C42.5664 68.332 43.1875 68.1094 43.7539 67.6641V68.5664C43.2266 68.9492 42.5293 69.1406 41.6621 69.1406C40.8145 69.1406 40.1484 68.8691 39.6641 68.3262C39.1797 67.7793 38.9375 67.0117 38.9375 66.0234C38.9375 65.0898 39.2012 64.3301 39.7285 63.7441C40.2598 63.1543 40.918 62.8594 41.7031 62.8594C42.4883 62.8594 43.0957 63.1133 43.5254 63.6211C43.9551 64.1289 44.1699 64.834 44.1699 65.7363V66.2402ZM43.1855 65.4258C43.1816 64.8711 43.0469 64.4395 42.7812 64.1309C42.5195 63.8223 42.1543 63.668 41.6855 63.668C41.2324 63.668 40.8477 63.8301 40.5312 64.1543C40.2148 64.4785 40.0195 64.9023 39.9453 65.4258H43.1855ZM48.7578 63.9727C48.5898 63.8438 48.3477 63.7793 48.0312 63.7793C47.6211 63.7793 47.2773 63.9727 47 64.3594C46.7266 64.7461 46.5898 65.2734 46.5898 65.9414V69H45.6289V63H46.5898V64.2363H46.6133C46.75 63.8145 46.959 63.4863 47.2402 63.252C47.5215 63.0137 47.8359 62.8945 48.1836 62.8945C48.4336 62.8945 48.625 62.9219 48.7578 62.9766V63.9727ZM50.293 61.4766C50.1211 61.4766 49.9746 61.418 49.8535 61.3008C49.7324 61.1836 49.6719 61.0352 49.6719 60.8555C49.6719 60.6758 49.7324 60.5273 49.8535 60.4102C49.9746 60.2891 50.1211 60.2285 50.293 60.2285C50.4688 60.2285 50.6172 60.2891 50.7383 60.4102C50.8633 60.5273 50.9258 60.6758 50.9258 60.8555C50.9258 61.0273 50.8633 61.1738 50.7383 61.2949C50.6172 61.416 50.4688 61.4766 50.293 61.4766ZM50.7617 69H49.8008V63H50.7617V69ZM57.5293 66.2402H53.293C53.3086 66.9082 53.4883 67.4238 53.832 67.7871C54.1758 68.1504 54.6484 68.332 55.25 68.332C55.9258 68.332 56.5469 68.1094 57.1133 67.6641V68.5664C56.5859 68.9492 55.8887 69.1406 55.0215 69.1406C54.1738 69.1406 53.5078 68.8691 53.0234 68.3262C52.5391 67.7793 52.2969 67.0117 52.2969 66.0234C52.2969 65.0898 52.5605 64.3301 53.0879 63.7441C53.6191 63.1543 54.2773 62.8594 55.0625 62.8594C55.8477 62.8594 56.4551 63.1133 56.8848 63.6211C57.3145 64.1289 57.5293 64.834 57.5293 65.7363V66.2402ZM56.5449 65.4258C56.541 64.8711 56.4062 64.4395 56.1406 64.1309C55.8789 63.8223 55.5137 63.668 55.0449 63.668C54.5918 63.668 54.207 63.8301 53.8906 64.1543C53.5742 64.4785 53.3789 64.9023 53.3047 65.4258H56.5449ZM58.625 68.7832V67.752C59.1484 68.1387 59.7246 68.332 60.3535 68.332C61.1973 68.332 61.6191 68.0508 61.6191 67.4883C61.6191 67.3281 61.582 67.1934 61.5078 67.084C61.4375 66.9707 61.3398 66.8711 61.2148 66.7852C61.0938 66.6992 60.9492 66.623 60.7812 66.5566C60.6172 66.4863 60.4395 66.4141 60.248 66.3398C59.9824 66.2344 59.748 66.1289 59.5449 66.0234C59.3457 65.9141 59.1777 65.793 59.041 65.6602C58.9082 65.5234 58.8066 65.3691 58.7363 65.1973C58.6699 65.0254 58.6367 64.8242 58.6367 64.5938C58.6367 64.3125 58.7012 64.0645 58.8301 63.8496C58.959 63.6309 59.1309 63.4492 59.3457 63.3047C59.5605 63.1562 59.8047 63.0449 60.0781 62.9707C60.3555 62.8965 60.6406 62.8594 60.9336 62.8594C61.4531 62.8594 61.918 62.9492 62.3281 63.1289V64.1016C61.8867 63.8125 61.3789 63.668 60.8047 63.668C60.625 63.668 60.4629 63.6895 60.3184 63.7324C60.1738 63.7715 60.0488 63.8281 59.9434 63.9023C59.8418 63.9766 59.7617 64.0664 59.7031 64.1719C59.6484 64.2734 59.6211 64.3867 59.6211 64.5117C59.6211 64.668 59.6484 64.7988 59.7031 64.9043C59.7617 65.0098 59.8457 65.1035 59.9551 65.1855C60.0645 65.2676 60.1973 65.3418 60.3535 65.4082C60.5098 65.4746 60.6875 65.5469 60.8867 65.625C61.1523 65.7266 61.3906 65.832 61.6016 65.9414C61.8125 66.0469 61.9922 66.168 62.1406 66.3047C62.2891 66.4375 62.4023 66.5918 62.4805 66.7676C62.5625 66.9434 62.6035 67.1523 62.6035 67.3945C62.6035 67.6914 62.5371 67.9492 62.4043 68.168C62.2754 68.3867 62.1016 68.5684 61.8828 68.7129C61.6641 68.8574 61.4121 68.9648 61.127 69.0352C60.8418 69.1055 60.543 69.1406 60.2305 69.1406C59.6133 69.1406 59.0781 69.0215 58.625 68.7832Z" fill="#A4A4A4"/>
</svg>
