<svg width="721" height="443" viewBox="0 0 721 443" fill="none" xmlns="http://www.w3.org/2000/svg">
<line x1="1" y1="0.943359" x2="721" y2="0.943359" stroke="#646464"/>
<line x1="1" y1="63.8718" x2="721" y2="63.8718" stroke="#646464"/>
<line x1="1" y1="126.801" x2="721" y2="126.801" stroke="#646464"/>
<line x1="1" y1="189.729" x2="721" y2="189.729" stroke="#646464"/>
<line x1="1" y1="252.658" x2="721" y2="252.658" stroke="#646464"/>
<line x1="1" y1="315.586" x2="721" y2="315.586" stroke="#646464"/>
<line x1="1" y1="378.515" x2="721" y2="378.515" stroke="#646464"/>
<line x1="1" y1="441.443" x2="721" y2="441.443" stroke="#646464"/>
<line x1="0.5" y1="441.943" x2="0.5" y2="0.443359" stroke="#646464"/>
<line x1="720.5" y1="441.943" x2="720.5" y2="0.443359" stroke="#646464"/>
<path d="M23.17 349.705L236.539 314.682L697.751 385.128" stroke="#FFDA70" stroke-width="2"/>
<circle cx="239.691" cy="316.378" r="8" fill="#FFDA70"/>
<circle cx="470.692" cy="351.801" r="8" fill="#FFDA70"/>
<circle cx="700.66" cy="387.224" r="8" fill="#FFDA70"/>
<circle cx="25" cy="351.801" r="8" fill="#FFDA70"/>
<path d="M23.17 56.1133L236.338 200.757L465.695 165.334L697.751 312.931" stroke="#344BCE" stroke-width="2"/>
<circle cx="25" cy="57.9434" r="8" fill="#344BCE"/>
<circle cx="239.691" cy="202.588" r="8" fill="#344BCE"/>
<circle cx="470.692" cy="167.172" r="8" fill="#344BCE"/>
<circle cx="700.66" cy="314.757" r="8" fill="#344BCE"/>
<path d="M23.17 171.57L236.539 133.59L465.747 277.556L697.751 312.707" stroke="#579BF9" stroke-width="2"/>
<circle cx="25" cy="173.689" r="8" fill="#579BF9"/>
<circle cx="239.691" cy="135.465" r="8" fill="#579BF9"/>
<circle cx="470.692" cy="279.262" r="8" fill="#579BF9"/>
<circle cx="700.66" cy="315.11" r="8" fill="#579BF9"/>
</svg>
