<svg width="404" height="232" viewBox="0 0 404 232" fill="none" xmlns="http://www.w3.org/2000/svg">
<path d="M374.719 206H375.95V197.243H379.128V196.136H371.54V197.243H374.719V206ZM380.947 206H382.136V201.639C382.136 200.347 382.881 199.554 384.057 199.554C385.233 199.554 385.78 200.189 385.78 201.516V206H386.969V201.229C386.969 199.479 386.046 198.501 384.392 198.501C383.305 198.501 382.615 198.959 382.245 199.738H382.136V195.705H380.947V206ZM391.59 206.13C392.67 206.13 393.415 205.686 393.778 204.899H393.887V206H395.077V198.631H393.887V202.992C393.887 204.284 393.197 205.077 391.898 205.077C390.722 205.077 390.244 204.441 390.244 203.115V198.631H389.054V203.402C389.054 205.146 389.915 206.13 391.59 206.13Z" fill="#535965"/>
<path d="M263.254 206H264.416L266.686 198.214H266.768L269.037 206H270.199L272.886 196.136H271.601L269.639 204.154H269.557L267.349 196.136H266.104L263.896 204.154H263.814L261.853 196.136H260.567L263.254 206ZM276.933 206.13C278.669 206.13 279.722 205.146 279.975 204.147L279.988 204.093H278.799L278.771 204.154C278.573 204.599 277.958 205.07 276.96 205.07C275.647 205.07 274.807 204.182 274.772 202.657H280.077V202.192C280.077 199.991 278.86 198.501 276.857 198.501C274.854 198.501 273.556 200.06 273.556 202.336V202.343C273.556 204.653 274.827 206.13 276.933 206.13ZM276.851 199.561C277.937 199.561 278.744 200.251 278.867 201.707H274.793C274.923 200.306 275.757 199.561 276.851 199.561ZM284.644 206.13C285.669 206.13 286.489 205.645 286.94 204.824H287.05V206H288.239V195.705H287.05V199.793H286.94C286.537 199.007 285.655 198.501 284.644 198.501C282.77 198.501 281.554 199.998 281.554 202.309V202.322C281.554 204.619 282.777 206.13 284.644 206.13ZM284.917 205.077C283.57 205.077 282.77 204.038 282.77 202.322V202.309C282.77 200.593 283.57 199.554 284.917 199.554C286.257 199.554 287.077 200.606 287.077 202.309V202.322C287.077 204.024 286.257 205.077 284.917 205.077Z" fill="#535965"/>
<path d="M159.532 206H160.763V197.243H163.941V196.136H156.353V197.243H159.532V206ZM167.134 206.13C168.214 206.13 168.959 205.686 169.321 204.899H169.431V206H170.62V198.631H169.431V202.992C169.431 204.284 168.74 205.077 167.441 205.077C166.265 205.077 165.787 204.441 165.787 203.115V198.631H164.598V203.402C164.598 205.146 165.459 206.13 167.134 206.13ZM175.849 206.13C177.586 206.13 178.639 205.146 178.891 204.147L178.905 204.093H177.716L177.688 204.154C177.49 204.599 176.875 205.07 175.877 205.07C174.564 205.07 173.723 204.182 173.689 202.657H178.994V202.192C178.994 199.991 177.777 198.501 175.774 198.501C173.771 198.501 172.473 200.06 172.473 202.336V202.343C172.473 204.653 173.744 206.13 175.849 206.13ZM175.767 199.561C176.854 199.561 177.661 200.251 177.784 201.707H173.71C173.84 200.306 174.674 199.561 175.767 199.561Z" fill="#535965"/>
<path d="M47.0426 206H48.191V198.467H48.2662L51.3834 206H52.4225L55.5397 198.467H55.6149V206H56.7633V196.136H55.3346L51.9576 204.366H51.8483L48.4713 196.136H47.0426V206ZM62.1569 206.13C64.2555 206.13 65.5543 204.681 65.5543 202.322V202.309C65.5543 199.943 64.2555 198.501 62.1569 198.501C60.0582 198.501 58.7594 199.943 58.7594 202.309V202.322C58.7594 204.681 60.0582 206.13 62.1569 206.13ZM62.1569 205.077C60.7623 205.077 59.9762 204.059 59.9762 202.322V202.309C59.9762 200.565 60.7623 199.554 62.1569 199.554C63.5514 199.554 64.3375 200.565 64.3375 202.309V202.322C64.3375 204.059 63.5514 205.077 62.1569 205.077ZM67.4 206H68.5895V201.639C68.5895 200.347 69.3346 199.554 70.5104 199.554C71.6862 199.554 72.233 200.189 72.233 201.516V206H73.4225V201.229C73.4225 199.479 72.4996 198.501 70.8453 198.501C69.7584 198.501 69.068 198.959 68.6988 199.738H68.5895V198.631H67.4V206Z" fill="#535965"/>
<path d="M27.2296 173.232C29.4102 173.232 30.7227 171.243 30.7227 168.071V168.058C30.7227 164.886 29.4102 162.903 27.2296 162.903C25.0489 162.903 23.7501 164.886 23.7501 168.058V168.071C23.7501 171.243 25.0489 173.232 27.2296 173.232ZM27.2296 172.159C25.8145 172.159 24.9874 170.587 24.9874 168.071V168.058C24.9874 165.542 25.8145 163.983 27.2296 163.983C28.6446 163.983 29.4854 165.542 29.4854 168.058V168.071C29.4854 170.587 28.6446 172.159 27.2296 172.159Z" fill="#535965"/>
<path d="M18.5137 113.232C20.5167 113.232 21.9454 111.845 21.9454 109.855V109.842C21.9454 107.935 20.6124 106.547 18.7598 106.547C17.8643 106.547 17.0918 106.909 16.6543 107.572H16.545L16.8799 104.236H21.3985V103.136H15.9092L15.3897 108.803H16.4561C16.5792 108.57 16.7364 108.379 16.9073 108.215C17.3311 107.812 17.8917 107.613 18.5479 107.613C19.8262 107.613 20.7422 108.55 20.7422 109.862V109.876C20.7422 111.209 19.8399 112.146 18.5274 112.146C17.3721 112.146 16.5176 111.394 16.4014 110.45L16.3946 110.396H15.212L15.2188 110.471C15.3624 112.05 16.6749 113.232 18.5137 113.232ZM27.2295 113.232C29.4102 113.232 30.7227 111.243 30.7227 108.071V108.058C30.7227 104.886 29.4102 102.903 27.2295 102.903C25.0489 102.903 23.75 104.886 23.75 108.058V108.071C23.75 111.243 25.0489 113.232 27.2295 113.232ZM27.2295 112.159C25.8145 112.159 24.9874 110.587 24.9874 108.071V108.058C24.9874 105.542 25.8145 103.983 27.2295 103.983C28.6446 103.983 29.4854 105.542 29.4854 108.058V108.071C29.4854 110.587 28.6446 112.159 27.2295 112.159Z" fill="#535965"/>
<path d="M11.0284 53H12.2589V43.1357H11.0352L8.41022 45.0225V46.3213L10.919 44.5029H11.0284V53ZM18.4112 53.2324C20.5919 53.2324 21.9044 51.2432 21.9044 48.0713V48.0576C21.9044 44.8857 20.5919 42.9033 18.4112 42.9033C16.2305 42.9033 14.9317 44.8857 14.9317 48.0576V48.0713C14.9317 51.2432 16.2305 53.2324 18.4112 53.2324ZM18.4112 52.1592C16.9962 52.1592 16.169 50.5869 16.169 48.0713V48.0576C16.169 45.542 16.9962 43.9834 18.4112 43.9834C19.8262 43.9834 20.6671 45.542 20.6671 48.0576V48.0713C20.6671 50.5869 19.8262 52.1592 18.4112 52.1592ZM27.2296 53.2324C29.4102 53.2324 30.7227 51.2432 30.7227 48.0713V48.0576C30.7227 44.8857 29.4102 42.9033 27.2296 42.9033C25.0489 42.9033 23.7501 44.8857 23.7501 48.0576V48.0713C23.7501 51.2432 25.0489 53.2324 27.2296 53.2324ZM27.2296 52.1592C25.8145 52.1592 24.9874 50.5869 24.9874 48.0713V48.0576C24.9874 45.542 25.8145 43.9834 27.2296 43.9834C28.6446 43.9834 29.4854 45.542 29.4854 48.0576V48.0713C29.4854 50.5869 28.6446 52.1592 27.2296 52.1592Z" fill="#535965"/>
<rect x="41.7722" y="27.0869" width="356.962" height="1.26087" fill="#D9DBDD"/>
<rect x="41.7722" y="105.261" width="356.962" height="1.26088" fill="#D9DBDD"/>
<rect x="41.7722" y="183.435" width="356.962" height="1.26088" fill="#D9DBDD"/>
<path d="M64.557 151.913L169.62 136.783L382.279 167.043" stroke="#F2B42A"/>
<ellipse cx="169.62" cy="136.783" rx="2.53164" ry="2.52174" fill="#F2B42A"/>
<ellipse cx="274.684" cy="151.913" rx="2.53166" ry="2.52174" fill="#F2B42A"/>
<ellipse cx="381.013" cy="167.043" rx="2.53166" ry="2.52175" fill="#F2B42A"/>
<ellipse cx="64.557" cy="151.913" rx="2.53165" ry="2.52174" fill="#F2B42A"/>
<path d="M67.0886 29.6087L167.089 91.3913L274.684 76.2609L383.544 139.304" stroke="#264AE5"/>
<ellipse cx="65.8228" cy="28.3478" rx="2.53165" ry="2.52174" fill="#264AE5"/>
<ellipse cx="167.089" cy="91.3913" rx="2.53166" ry="2.52174" fill="#264AE5"/>
<ellipse cx="274.684" cy="76.2609" rx="2.53166" ry="2.52174" fill="#264AE5"/>
<ellipse cx="382.279" cy="139.304" rx="2.53163" ry="2.52174" fill="#2DBAFC"/>
<path d="M63.2911 76.2608L169.62 59.8695L274.684 121.652L382.279 136.783" stroke="#2DBAFC"/>
<ellipse cx="64.557" cy="76.2608" rx="2.53165" ry="2.52174" fill="#2DBAFC"/>
<ellipse cx="169.62" cy="59.8695" rx="2.53164" ry="2.52174" fill="#2DBAFC"/>
<ellipse cx="274.684" cy="121.652" rx="2.53166" ry="2.52174" fill="#2DBAFC"/>
<ellipse cx="382.279" cy="136.783" rx="2.53165" ry="2.52174" fill="#264AE5"/>
</svg>
