<svg width="406" height="232" viewBox="0 0 406 232" fill="none" xmlns="http://www.w3.org/2000/svg">
<rect x="41.7722" y="27.087" width="356.962" height="1.26087" fill="#D9DBDD"/>
<rect x="41.7722" y="105.261" width="356.962" height="1.26088" fill="#D9DBDD"/>
<rect x="41.7722" y="183.435" width="356.962" height="1.26088" fill="#D9DBDD"/>
<path d="M64.5571 151.913L169.62 136.783L382.279 167.043" stroke="#F2B42A"/>
<ellipse cx="169.62" cy="136.783" rx="2.53164" ry="2.52174" fill="#F2B42A"/>
<ellipse cx="274.684" cy="151.913" rx="2.53166" ry="2.52174" fill="#F2B42A"/>
<ellipse cx="381.013" cy="167.043" rx="2.53166" ry="2.52175" fill="#F2B42A"/>
<ellipse cx="64.557" cy="151.913" rx="2.53165" ry="2.52174" fill="#F2B42A"/>
<path d="M67.0886 29.6087L167.089 91.3913L274.684 76.2609L383.544 139.304" stroke="#264AE5"/>
<ellipse cx="65.8229" cy="28.3479" rx="2.53165" ry="2.52174" fill="#264AE5"/>
<ellipse cx="167.089" cy="91.3913" rx="2.53166" ry="2.52174" fill="#264AE5"/>
<ellipse cx="274.684" cy="76.2609" rx="2.53166" ry="2.52174" fill="#264AE5"/>
<ellipse cx="382.279" cy="139.304" rx="2.53163" ry="2.52174" fill="#2DBAFC"/>
<path d="M63.2913 76.2609L169.62 59.8696L274.684 121.652L382.279 136.783" stroke="#2DBAFC"/>
<ellipse cx="64.557" cy="76.2609" rx="2.53165" ry="2.52174" fill="#2DBAFC"/>
<ellipse cx="169.62" cy="59.8696" rx="2.53164" ry="2.52174" fill="#2DBAFC"/>
<ellipse cx="274.684" cy="121.652" rx="2.53166" ry="2.52174" fill="#2DBAFC"/>
<ellipse cx="382.278" cy="136.783" rx="2.53165" ry="2.52174" fill="#264AE5"/>
</svg>
