<svg width="480" height="270" viewBox="0 0 480 270" fill="none" xmlns="http://www.w3.org/2000/svg">
<rect width="480" height="270" fill="black"/>
<rect width="480" height="62" transform="translate(0 208)" fill="black" fill-opacity="0.8"/>
<path d="M16 226V240L27 233L16 226Z" fill="white"/>
<path d="M49.334 233.717C49.334 235.205 49.0938 236.311 48.6133 237.033C48.1367 237.756 47.4062 238.117 46.4219 238.117C45.4688 238.117 44.7461 237.744 44.2539 236.998C43.7617 236.252 43.5156 235.158 43.5156 233.717C43.5156 232.205 43.7539 231.092 44.2305 230.377C44.7109 229.658 45.4414 229.299 46.4219 229.299C47.3789 229.299 48.1035 229.674 48.5957 230.424C49.0879 231.174 49.334 232.271 49.334 233.717ZM44.9102 233.717C44.9102 234.885 45.0293 235.719 45.2676 236.219C45.5098 236.719 45.8945 236.969 46.4219 236.969C46.9492 236.969 47.334 236.715 47.5762 236.207C47.8223 235.699 47.9453 234.869 47.9453 233.717C47.9453 232.568 47.8223 231.738 47.5762 231.227C47.334 230.711 46.9492 230.453 46.4219 230.453C45.8945 230.453 45.5098 230.705 45.2676 231.209C45.0293 231.713 44.9102 232.549 44.9102 233.717ZM50.6348 237.268C50.6348 236.982 50.709 236.764 50.8574 236.611C51.0059 236.459 51.2207 236.383 51.502 236.383C51.7871 236.383 52.0039 236.463 52.1523 236.623C52.3008 236.779 52.375 236.994 52.375 237.268C52.375 237.545 52.2988 237.766 52.1465 237.93C51.998 238.09 51.7832 238.17 51.502 238.17C51.2207 238.17 51.0059 238.09 50.8574 237.93C50.709 237.77 50.6348 237.549 50.6348 237.268ZM50.6348 232.264C50.6348 231.674 50.9238 231.379 51.502 231.379C51.7949 231.379 52.0137 231.457 52.1582 231.613C52.3027 231.77 52.375 231.986 52.375 232.264C52.375 232.541 52.2988 232.762 52.1465 232.926C51.998 233.086 51.7832 233.166 51.502 233.166C51.2207 233.166 51.0059 233.086 50.8574 232.926C50.709 232.766 50.6348 232.545 50.6348 232.264ZM57.7305 238H56.3535V232.469C56.3535 231.809 56.3691 231.285 56.4004 230.898C56.3105 230.992 56.1992 231.096 56.0664 231.209C55.9375 231.322 55.5 231.682 54.7539 232.287L54.0625 231.414L56.582 229.434H57.7305V238ZM66.3496 233.717C66.3496 235.205 66.1094 236.311 65.6289 237.033C65.1523 237.756 64.4219 238.117 63.4375 238.117C62.4844 238.117 61.7617 237.744 61.2695 236.998C60.7773 236.252 60.5312 235.158 60.5312 233.717C60.5312 232.205 60.7695 231.092 61.2461 230.377C61.7266 229.658 62.457 229.299 63.4375 229.299C64.3945 229.299 65.1191 229.674 65.6113 230.424C66.1035 231.174 66.3496 232.271 66.3496 233.717ZM61.9258 233.717C61.9258 234.885 62.0449 235.719 62.2832 236.219C62.5254 236.719 62.9102 236.969 63.4375 236.969C63.9648 236.969 64.3496 236.715 64.5918 236.207C64.8379 235.699 64.9609 234.869 64.9609 233.717C64.9609 232.568 64.8379 231.738 64.5918 231.227C64.3496 230.711 63.9648 230.453 63.4375 230.453C62.9102 230.453 62.5254 230.705 62.2832 231.209C62.0449 231.713 61.9258 232.549 61.9258 233.717ZM71.4531 229.434L68.2656 238H66.9648L70.1582 229.434H71.4531ZM81.0098 233.717C81.0098 235.205 80.7695 236.311 80.2891 237.033C79.8125 237.756 79.082 238.117 78.0977 238.117C77.1445 238.117 76.4219 237.744 75.9297 236.998C75.4375 236.252 75.1914 235.158 75.1914 233.717C75.1914 232.205 75.4297 231.092 75.9062 230.377C76.3867 229.658 77.1172 229.299 78.0977 229.299C79.0547 229.299 79.7793 229.674 80.2715 230.424C80.7637 231.174 81.0098 232.271 81.0098 233.717ZM76.5859 233.717C76.5859 234.885 76.7051 235.719 76.9434 236.219C77.1855 236.719 77.5703 236.969 78.0977 236.969C78.625 236.969 79.0098 236.715 79.252 236.207C79.498 235.699 79.6211 234.869 79.6211 233.717C79.6211 232.568 79.498 231.738 79.252 231.227C79.0098 230.711 78.625 230.453 78.0977 230.453C77.5703 230.453 77.1855 230.705 76.9434 231.209C76.7051 231.713 76.5859 232.549 76.5859 233.717ZM87.8652 238H82.0586V236.957L84.2676 234.736C84.9199 234.068 85.3516 233.596 85.5625 233.318C85.7773 233.037 85.9336 232.773 86.0312 232.527C86.1289 232.281 86.1777 232.018 86.1777 231.736C86.1777 231.35 86.0605 231.045 85.8262 230.822C85.5957 230.6 85.2754 230.488 84.8652 230.488C84.5371 230.488 84.2188 230.549 83.9102 230.67C83.6055 230.791 83.252 231.01 82.8496 231.326L82.1055 230.418C82.582 230.016 83.0449 229.73 83.4941 229.562C83.9434 229.395 84.4219 229.311 84.9297 229.311C85.7266 229.311 86.3652 229.52 86.8457 229.938C87.3262 230.352 87.5664 230.91 87.5664 231.613C87.5664 232 87.4961 232.367 87.3555 232.715C87.2188 233.062 87.0059 233.422 86.7168 233.793C86.4316 234.16 85.9551 234.658 85.2871 235.287L83.7988 236.729V236.787H87.8652V238ZM89.166 237.268C89.166 236.982 89.2402 236.764 89.3887 236.611C89.5371 236.459 89.752 236.383 90.0332 236.383C90.3184 236.383 90.5352 236.463 90.6836 236.623C90.832 236.779 90.9062 236.994 90.9062 237.268C90.9062 237.545 90.8301 237.766 90.6777 237.93C90.5293 238.09 90.3145 238.17 90.0332 238.17C89.752 238.17 89.5371 238.09 89.3887 237.93C89.2402 237.77 89.166 237.549 89.166 237.268ZM89.166 232.264C89.166 231.674 89.4551 231.379 90.0332 231.379C90.3262 231.379 90.5449 231.457 90.6895 231.613C90.834 231.77 90.9062 231.986 90.9062 232.264C90.9062 232.541 90.8301 232.762 90.6777 232.926C90.5293 233.086 90.3145 233.166 90.0332 233.166C89.752 233.166 89.5371 233.086 89.3887 232.926C89.2402 232.766 89.166 232.545 89.166 232.264ZM98.0254 233.717C98.0254 235.205 97.7852 236.311 97.3047 237.033C96.8281 237.756 96.0977 238.117 95.1133 238.117C94.1602 238.117 93.4375 237.744 92.9453 236.998C92.4531 236.252 92.207 235.158 92.207 233.717C92.207 232.205 92.4453 231.092 92.9219 230.377C93.4023 229.658 94.1328 229.299 95.1133 229.299C96.0703 229.299 96.7949 229.674 97.2871 230.424C97.7793 231.174 98.0254 232.271 98.0254 233.717ZM93.6016 233.717C93.6016 234.885 93.7207 235.719 93.959 236.219C94.2012 236.719 94.5859 236.969 95.1133 236.969C95.6406 236.969 96.0254 236.715 96.2676 236.207C96.5137 235.699 96.6367 234.869 96.6367 233.717C96.6367 232.568 96.5137 231.738 96.2676 231.227C96.0254 230.711 95.6406 230.453 95.1133 230.453C94.5859 230.453 94.2012 230.705 93.959 231.209C93.7207 231.713 93.6016 232.549 93.6016 233.717ZM104.881 233.717C104.881 235.205 104.641 236.311 104.16 237.033C103.684 237.756 102.953 238.117 101.969 238.117C101.016 238.117 100.293 237.744 99.8008 236.998C99.3086 236.252 99.0625 235.158 99.0625 233.717C99.0625 232.205 99.3008 231.092 99.7773 230.377C100.258 229.658 100.988 229.299 101.969 229.299C102.926 229.299 103.65 229.674 104.143 230.424C104.635 231.174 104.881 232.271 104.881 233.717ZM100.457 233.717C100.457 234.885 100.576 235.719 100.814 236.219C101.057 236.719 101.441 236.969 101.969 236.969C102.496 236.969 102.881 236.715 103.123 236.207C103.369 235.699 103.492 234.869 103.492 233.717C103.492 232.568 103.369 231.738 103.123 231.227C102.881 230.711 102.496 230.453 101.969 230.453C101.441 230.453 101.057 230.705 100.814 231.209C100.576 231.713 100.457 232.549 100.457 233.717Z" fill="#E4E0E0"/>
<path d="M404 233C404 231.451 403.108 230.121 401.812 229.474V236.517C403.108 235.879 404 234.549 404 233ZM392.188 230.375V235.625H395.688L400.062 240V226L395.688 230.375H392.188Z" fill="white"/>
<path d="M422 235H420V240H425V238H422V235ZM420 231H422V228H425V226H420V231ZM432 238H429V240H434V235H432V238ZM429 226V228H432V231H434V226H429Z" fill="white"/>
<circle cx="457" cy="228" r="2" fill="white"/>
<circle cx="457" cy="233" r="2" fill="white"/>
<circle cx="457" cy="238" r="2" fill="white"/>
<rect width="32" height="4" transform="translate(16 250)" fill="white"/>
<g opacity="0.6">
<rect width="30" height="4" transform="translate(48 250)" fill="#989898"/>
</g>
<g opacity="0.3">
<rect width="386" height="4" transform="translate(78 250)" fill="#989898"/>
</g>
<path d="M216 135C216 121.745 226.745 111 240 111C253.255 111 264 121.745 264 135C264 148.255 253.255 159 240 159C226.745 159 216 148.255 216 135Z" fill="#373737"/>
<path d="M232 123V147L250.857 135L232 123Z" fill="white"/>
</svg>
