<svg width="176" height="176" viewBox="0 0 176 176" fill="none" xmlns="http://www.w3.org/2000/svg">
<path fill-rule="evenodd" clip-rule="evenodd" d="M88.452 23.1531C52.8565 23.1531 24.0007 52.0089 24.0007 87.6043C24.0007 123.2 52.8565 152.056 88.452 152.056C124.047 152.056 152.903 123.2 152.903 87.6043C152.903 52.0089 124.047 23.1531 88.452 23.1531ZM13.7568 87.6043C13.7568 46.3513 47.199 12.9092 88.452 12.9092C129.705 12.9092 163.147 46.3513 163.147 87.6043C163.147 128.857 129.705 162.299 88.452 162.299C47.199 162.299 13.7568 128.857 13.7568 87.6043Z" fill="white"/>
<path d="M65.5838 95.7138H69.378L76.5928 81.3774V78.3302H64.3955V81.3349H72.7902V81.4538L65.5838 95.7138ZM85.2273 95.9514C89.0979 95.9514 91.7292 93.4305 91.7208 89.9164C91.7292 86.5891 89.4035 84.1955 86.2714 84.1955C84.7436 84.1955 83.4279 84.832 82.8168 85.6894H82.7149L83.1647 81.3349H90.7616V78.3302H80.1345L79.3111 87.4973L82.5791 88.083C83.1138 87.3615 84.1493 86.9116 85.1765 86.9116C86.925 86.9202 88.1812 88.1849 88.1812 90.0098C88.1812 91.8178 86.9504 93.0655 85.2273 93.0655C83.7674 93.0655 82.5876 92.1488 82.5027 90.7992H78.9377C79.0056 93.804 81.6284 95.9514 85.2273 95.9514ZM103.8 92.4543C103.807 94.5424 105.141 96.3165 107.628 96.3165C110.089 96.3165 111.464 94.5424 111.455 92.4543V91.5377C111.464 89.4326 110.123 87.6756 107.628 87.6756C105.174 87.6756 103.807 89.4496 103.8 91.5377V92.4543ZM94.8783 82.5063C94.8868 84.5944 96.2195 86.3515 98.698 86.3515C101.168 86.3515 102.543 84.6114 102.535 82.5063V81.5896C102.543 79.4845 101.202 77.7275 98.698 77.7275C96.2703 77.7275 94.8868 79.4845 94.8783 81.5896V82.5063ZM95.7102 95.7138H97.9255L109.877 78.3302H107.662L95.7102 95.7138ZM106.269 91.5377C106.278 90.7058 106.609 89.8486 107.628 89.8486C108.697 89.8486 108.977 90.7058 108.969 91.5377V92.4543C108.977 93.2862 108.663 94.1265 107.628 94.1265C106.592 94.1265 106.278 93.2607 106.269 92.4543V91.5377ZM97.3653 81.5896C97.3738 80.7832 97.6878 79.9005 98.698 79.9005C99.7679 79.9005 100.056 80.7578 100.048 81.5896V82.5063C100.056 83.3381 99.7337 84.1785 98.698 84.1785C97.6964 84.1785 97.3738 83.3381 97.3653 82.5063V81.5896Z" fill="#264AE5"/>
<path fill-rule="evenodd" clip-rule="evenodd" d="M13.7571 87.9303L13.7568 87.9305C13.7568 128.857 47.1989 162.299 88.7779 162.299C88.778 162.299 88.7781 162.299 88.7781 162.299C129.705 162.299 163.147 128.857 163.147 87.9305C163.147 87.9304 163.147 87.9303 163.147 87.9303C163.147 46.3512 129.705 12.9092 88.7781 12.9092L88.7779 12.9094V23.1528C123.989 23.1528 152.903 51.9503 152.903 87.9303C152.903 123.2 124.048 152.055 88.7779 152.055C52.7979 152.055 24.0005 123.141 24.0005 87.9303H13.7571Z" fill="#264AE5"/>
</svg>
