<svg width="176" height="176" viewBox="0 0 176 176" fill="none" xmlns="http://www.w3.org/2000/svg">
<path d="M87.621 157.178C126.045 157.178 157.194 126.029 157.194 87.6044C157.194 49.1802 126.045 18.0312 87.621 18.0312C49.1968 18.0312 18.0479 49.1802 18.0479 87.6044C18.0479 126.029 49.1968 157.178 87.621 157.178Z" stroke="white" stroke-width="10.2439" stroke-linecap="round" stroke-linejoin="round"/>
<path d="M64.7527 95.7138H68.5469L75.7618 81.3774V78.3302H63.5645V81.3349H71.9592V81.4538L64.7527 95.7138ZM84.3963 95.9514C88.2669 95.9514 90.8982 93.4305 90.8897 89.9164C90.8982 86.5891 88.5725 84.1955 85.4403 84.1955C83.9125 84.1955 82.5969 84.832 81.9857 85.6894H81.8839L82.3337 81.3349H89.9306V78.3302H79.3034L78.4801 87.4973L81.7481 88.083C82.2828 87.3615 83.3183 86.9116 84.3454 86.9116C86.094 86.9202 87.3502 88.1849 87.3502 90.0098C87.3502 91.8178 86.1194 93.0655 84.3963 93.0655C82.9364 93.0655 81.7565 92.1488 81.6717 90.7992H78.1066C78.1746 93.804 80.7973 95.9514 84.3963 95.9514ZM102.969 92.4543C102.976 94.5424 104.31 96.3165 106.796 96.3165C109.258 96.3165 110.633 94.5424 110.624 92.4543V91.5377C110.633 89.4326 109.292 87.6756 106.796 87.6756C104.343 87.6756 102.976 89.4496 102.969 91.5377V92.4543ZM94.0472 82.5063C94.0558 84.5944 95.3884 86.3515 97.8669 86.3515C100.337 86.3515 101.712 84.6114 101.704 82.5063V81.5896C101.712 79.4845 100.371 77.7275 97.8669 77.7275C95.4393 77.7275 94.0558 79.4845 94.0472 81.5896V82.5063ZM94.8791 95.7138H97.0945L109.046 78.3302H106.831L94.8791 95.7138ZM105.438 91.5377C105.447 90.7058 105.778 89.8486 106.796 89.8486C107.866 89.8486 108.146 90.7058 108.138 91.5377V92.4543C108.146 93.2862 107.832 94.1265 106.796 94.1265C105.761 94.1265 105.447 93.2607 105.438 92.4543V91.5377ZM96.5343 81.5896C96.5427 80.7832 96.8568 79.9005 97.8669 79.9005C98.9368 79.9005 99.2254 80.7578 99.2168 81.5896V82.5063C99.2254 83.3381 98.9027 84.1785 97.8669 84.1785C96.8653 84.1785 96.5427 83.3381 96.5343 82.5063V81.5896Z" fill="#DEDEDE"/>
<path fill-rule="evenodd" clip-rule="evenodd" d="M12.926 87.9303L12.9258 87.9305C12.9258 128.857 46.3678 162.299 87.9469 162.299C87.9469 162.299 87.947 162.299 87.9471 162.299C128.874 162.299 162.316 128.857 162.316 87.9305C162.316 87.9304 162.316 87.9303 162.316 87.9303C162.316 46.3512 128.874 12.9092 87.9471 12.9092L87.9469 12.9094V23.1528C123.158 23.1528 152.072 51.9503 152.072 87.9303C152.072 123.2 123.217 152.055 87.9469 152.055C51.9669 152.055 23.1694 123.141 23.1694 87.9303H12.926Z" fill="#579BF9"/>
</svg>
