<svg width="175" height="175" viewBox="-15 -15 205 205" fill="none" xmlns="http://www.w3.org/2000/svg">
<circle cx="87.5" cy="87.5" r="81.5" stroke="#F8F8F8" stroke-width="12" stroke-linecap="round" stroke-linejoin="round"/>
<mask id="path-2-inside-1" fill="white">
<path fill-rule="evenodd" clip-rule="evenodd" d="M0 87.8821C0 135.825 39.1751 175 87.8821 175C135.825 175 175 135.825 175 87.8821C175 39.1751 135.825 0 87.8821 0"/>
</mask>
<path d="M175 87.8821L163 87.8821L175 87.8821ZM-12 87.8821C-12 142.52 32.616 187 87.8821 187V163C45.7341 163 12 129.129 12 87.8821H-12ZM87.8821 187C142.452 187 187 142.452 187 87.8821L163 87.8821C163 129.198 129.198 163 87.8821 163V187ZM187 87.8821C187 32.616 142.52 -12 87.8821 -12V12C129.129 12 163 45.7341 163 87.8821H187Z" fill="#264AE5" mask="url(#path-2-inside-1)"/>
<path d="M60.7118 97H65.1564L73.6081 80.206V76.6364H59.3198V80.1562H69.1536V80.2955L60.7118 97ZM83.7228 97.2784C88.2569 97.2784 91.3393 94.3253 91.3294 90.2088C91.3393 86.3111 88.6149 83.5071 84.9458 83.5071C83.1561 83.5071 81.6149 84.2528 80.899 85.2571H80.7797L81.3066 80.1562H90.2058V76.6364H77.7569L76.7924 87.375L80.6206 88.0611C81.247 87.2159 82.46 86.6889 83.6632 86.6889C85.7115 86.6989 87.1831 88.1804 87.1831 90.3182C87.1831 92.4361 85.7413 93.8977 83.7228 93.8977C82.0126 93.8977 80.6305 92.8239 80.5311 91.2429H76.3549C76.4345 94.7628 79.5069 97.2784 83.7228 97.2784ZM105.479 93.1818C105.488 95.6278 107.05 97.706 109.963 97.706C112.846 97.706 114.457 95.6278 114.447 93.1818V92.108C114.457 89.642 112.886 87.5838 109.963 87.5838C107.089 87.5838 105.488 89.6619 105.479 92.108V93.1818ZM95.0282 81.5284C95.0382 83.9744 96.5993 86.0327 99.5027 86.0327C102.396 86.0327 104.007 83.9943 103.997 81.5284V80.4545C104.007 77.9886 102.436 75.9304 99.5027 75.9304C96.6589 75.9304 95.0382 77.9886 95.0282 80.4545V81.5284ZM96.0027 97H98.5978L112.598 76.6364H110.003L96.0027 97ZM108.372 92.108C108.382 91.1335 108.77 90.1293 109.963 90.1293C111.216 90.1293 111.544 91.1335 111.534 92.108V93.1818C111.544 94.1562 111.176 95.1406 109.963 95.1406C108.75 95.1406 108.382 94.1264 108.372 93.1818V92.108ZM97.9416 80.4545C97.9515 79.5099 98.3194 78.4759 99.5027 78.4759C100.756 78.4759 101.094 79.4801 101.084 80.4545V81.5284C101.094 82.5028 100.716 83.4872 99.5027 83.4872C98.3294 83.4872 97.9515 82.5028 97.9416 81.5284V80.4545Z" fill="#264AE5"/>
</svg>
