<svg width="14" height="8" viewBox="0 0 14 8" fill="none" xmlns="http://www.w3.org/2000/svg">
<path fill-rule="evenodd" clip-rule="evenodd" transform="translate(14,8) rotate(180)" d="M13.354 7.35399C13.3076 7.40055 13.2524 7.4375 13.1916 7.4627C13.1309 7.48791 13.0658 7.50089 13 7.50089C12.9342 7.50089 12.8691 7.48791 12.8084 7.4627C12.7476 7.4375 12.6925 7.40055 12.646 7.35399L7.00001 1.70699L1.35401 7.35399C1.30752 7.40048 1.25233 7.43736 1.19159 7.46251C1.13085 7.48767 1.06575 7.50062 1.00001 7.50062C0.934263 7.50062 0.869163 7.48767 0.808423 7.46251C0.747684 7.43736 0.692494 7.40048 0.646007 7.35399C0.599519 7.3075 0.562642 7.25231 0.537483 7.19158C0.512324 7.13084 0.499375 7.06574 0.499375 6.99999C0.499375 6.93425 0.512324 6.86915 0.537483 6.80841C0.562642 6.74767 0.599519 6.69248 0.646007 6.64599L6.64601 0.645991C6.69245 0.599428 6.74763 0.562486 6.80837 0.537279C6.86912 0.512073 6.93424 0.499098 7.00001 0.499098C7.06577 0.499098 7.13089 0.512073 7.19164 0.537279C7.25239 0.562486 7.30756 0.599428 7.35401 0.645991L13.354 6.64599C13.4006 6.69244 13.4375 6.74761 13.4627 6.80836C13.4879 6.8691 13.5009 6.93422 13.5009 6.99999C13.5009 7.06576 13.4879 7.13088 13.4627 7.19163C13.4375 7.25237 13.4006 7.30755 13.354 7.35399Z" fill="black"/>
</svg>
