<svg width="752" height="136" viewBox="0 0 752 136" fill="none" xmlns="http://www.w3.org/2000/svg">
<line x1="1" y1="0.5" x2="751" y2="0.5" stroke="#6E6E6E"/>
<rect width="750" height="42" transform="translate(1 1)" fill="#3B3B3B"/>
<path d="M11 25.5V27.5H31V25.5H11ZM11 20.5V22.5H31V20.5H11ZM11 15.5V17.5H31V15.5H11Z" fill="#D6D6D6"/>
<path d="M338.92 21.344V23.232H332.136V21.344H338.92Z" fill="#D6D6D6"/>
<path d="M363.204 17.4785V27.5H361.618V19.4199C361.331 19.625 361.021 19.8005 360.688 19.9463C360.36 20.0876 359.984 20.2129 359.561 20.3223V18.9688C359.825 18.8822 360.08 18.791 360.326 18.6953C360.572 18.5996 360.814 18.4925 361.051 18.374C361.292 18.2555 361.534 18.1234 361.775 17.9775C362.021 17.8317 362.274 17.6654 362.534 17.4785H363.204ZM368.413 27.6641C367.392 27.6641 366.595 27.2471 366.021 26.4131C365.451 25.5791 365.166 24.3737 365.166 22.7969C365.166 21.0651 365.465 19.7549 366.062 18.8662C366.659 17.9775 367.52 17.5332 368.646 17.5332C370.801 17.5332 371.879 19.208 371.879 22.5576C371.879 24.2165 371.574 25.4834 370.963 26.3584C370.357 27.2288 369.507 27.6641 368.413 27.6641ZM368.57 18.7979C367.381 18.7979 366.786 20.1081 366.786 22.7285C366.786 25.1803 367.369 26.4062 368.536 26.4062C369.685 26.4062 370.259 25.1598 370.259 22.667C370.259 20.0876 369.696 18.7979 368.57 18.7979ZM376.192 27.6641C375.172 27.6641 374.374 27.2471 373.8 26.4131C373.23 25.5791 372.945 24.3737 372.945 22.7969C372.945 21.0651 373.244 19.7549 373.841 18.8662C374.438 17.9775 375.299 17.5332 376.425 17.5332C378.58 17.5332 379.658 19.208 379.658 22.5576C379.658 24.2165 379.353 25.4834 378.742 26.3584C378.136 27.2288 377.286 27.6641 376.192 27.6641ZM376.35 18.7979C375.16 18.7979 374.565 20.1081 374.565 22.7285C374.565 25.1803 375.149 26.4062 376.315 26.4062C377.464 26.4062 378.038 25.1598 378.038 22.667C378.038 20.0876 377.475 18.7979 376.35 18.7979ZM383.035 22.6191C382.342 22.6191 381.791 22.3981 381.381 21.9561C380.971 21.5094 380.766 20.9147 380.766 20.1719C380.766 19.3607 380.982 18.7227 381.415 18.2578C381.853 17.7884 382.44 17.5537 383.179 17.5537C383.894 17.5537 384.448 17.7702 384.84 18.2031C385.236 18.6361 385.435 19.2445 385.435 20.0283C385.435 20.8122 385.214 21.4411 384.771 21.915C384.329 22.3844 383.751 22.6191 383.035 22.6191ZM383.131 18.5107C382.757 18.5107 382.461 18.6543 382.242 18.9414C382.028 19.2285 381.921 19.6227 381.921 20.124C381.921 20.6162 382.026 20.999 382.235 21.2725C382.45 21.5459 382.741 21.6826 383.11 21.6826C383.479 21.6826 383.769 21.5413 383.979 21.2588C384.188 20.9717 384.293 20.5752 384.293 20.0693C384.293 19.5771 384.188 19.1943 383.979 18.9209C383.773 18.6475 383.491 18.5107 383.131 18.5107ZM389.673 17.6973L383.384 27.5684H382.406L388.688 17.6973H389.673ZM388.791 27.6504C388.098 27.6504 387.547 27.4294 387.137 26.9873C386.727 26.5407 386.521 25.946 386.521 25.2031C386.521 24.3919 386.738 23.7539 387.171 23.2891C387.608 22.8197 388.196 22.585 388.935 22.585C389.65 22.585 390.204 22.8014 390.596 23.2344C390.992 23.6673 391.19 24.2757 391.19 25.0596C391.19 25.8434 390.969 26.4723 390.527 26.9463C390.085 27.4157 389.507 27.6504 388.791 27.6504ZM388.887 23.542C388.513 23.542 388.217 23.6855 387.998 23.9727C387.784 24.2598 387.677 24.654 387.677 25.1553C387.677 25.6475 387.782 26.0303 387.991 26.3037C388.205 26.5771 388.497 26.7139 388.866 26.7139C389.235 26.7139 389.525 26.5726 389.734 26.29C389.944 26.0029 390.049 25.6064 390.049 25.1006C390.049 24.6084 389.944 24.2256 389.734 23.9521C389.529 23.6787 389.247 23.542 388.887 23.542Z" fill="#D6D6D6"/>
<path d="M419.472 23.28H416.448V26.384H414.336V23.28H411.312V21.328H414.336V18.224H416.448V21.328H419.472V23.28Z" fill="#D6D6D6"/>
<path d="M658 30L658 28L644 28L644 30L658 30ZM658 20L654 20L654 14L648 14L648 20L644 20L651 27L658 20Z" fill="#D6D6D6"/>
<path d="M698 18H684C682.34 18 681 19.34 681 21V27H685V31H697V27H701V21C701 19.34 699.66 18 698 18ZM695 29H687V24H695V29ZM698 22C697.45 22 697 21.55 697 21C697 20.45 697.45 20 698 20C698.55 20 699 20.45 699 21C699 21.55 698.55 22 698 22ZM697 13H685V17H697V13Z" fill="#D6D6D6"/>
<path d="M731 18C732.1 18 733 17.1 733 16C733 14.9 732.1 14 731 14C729.9 14 729 14.9 729 16C729 17.1 729.9 18 731 18ZM731 20C729.9 20 729 20.9 729 22C729 23.1 729.9 24 731 24C732.1 24 733 23.1 733 22C733 20.9 732.1 20 731 20ZM731 26C729.9 26 729 26.9 729 28C729 29.1 729.9 30 731 30C732.1 30 733 29.1 733 28C733 26.9 732.1 26 731 26Z" fill="#D6D6D6"/>
<line x1="1" y1="42.5" x2="751" y2="42.5" stroke="#6E6E6E"/>
<rect width="750" height="92" transform="translate(1 43)" fill="#6E6E6E"/>
<rect width="738" height="80" transform="translate(7 49)" fill="#2E2E2E"/>
<path d="M380.87 61V67.3478C380.87 68.4524 381.765 69.3478 382.87 69.3478H389.217" stroke="#D6D6D6" stroke-miterlimit="10" stroke-linecap="round" stroke-linejoin="round"/>
<path d="M389.217 91C389.217 92.1046 388.322 93 387.217 93H364.783C363.678 93 362.783 92.1046 362.783 91V63C362.783 61.8954 363.678 61 364.783 61H380.041C380.572 61 381.08 61.2107 381.455 61.5858L388.632 68.762C389.007 69.1371 389.217 69.6458 389.217 70.1763V91Z" stroke="#D6D6D6" stroke-miterlimit="10" stroke-linecap="round" stroke-linejoin="round"/>
<path d="M322.828 115.91H320.672V105.598H322.828V106.295H321.527V115.213H322.828V115.91ZM332.789 114H331.811V108.363C331.811 107.918 331.838 107.373 331.893 106.729H331.869C331.775 107.107 331.691 107.379 331.617 107.543L328.746 114H328.266L325.4 107.59C325.318 107.402 325.234 107.115 325.148 106.729H325.125C325.156 107.064 325.172 107.613 325.172 108.375V114H324.223V105.598H325.523L328.102 111.457C328.301 111.906 328.43 112.242 328.488 112.465H328.523C328.691 112.004 328.826 111.66 328.928 111.434L331.559 105.598H332.789V114ZM337.383 114.141C336.496 114.141 335.787 113.861 335.256 113.303C334.729 112.74 334.465 111.996 334.465 111.07C334.465 110.062 334.74 109.275 335.291 108.709C335.842 108.143 336.586 107.859 337.523 107.859C338.418 107.859 339.115 108.135 339.615 108.686C340.119 109.236 340.371 110 340.371 110.977C340.371 111.934 340.1 112.701 339.557 113.279C339.018 113.854 338.293 114.141 337.383 114.141ZM337.453 108.668C336.836 108.668 336.348 108.879 335.988 109.301C335.629 109.719 335.449 110.297 335.449 111.035C335.449 111.746 335.631 112.307 335.994 112.717C336.357 113.127 336.844 113.332 337.453 113.332C338.074 113.332 338.551 113.131 338.883 112.729C339.219 112.326 339.387 111.754 339.387 111.012C339.387 110.262 339.219 109.684 338.883 109.277C338.551 108.871 338.074 108.668 337.453 108.668ZM347.027 114H346.066V112.98H346.043C345.598 113.754 344.91 114.141 343.98 114.141C343.227 114.141 342.623 113.873 342.17 113.338C341.721 112.799 341.496 112.066 341.496 111.141C341.496 110.148 341.746 109.354 342.246 108.756C342.746 108.158 343.412 107.859 344.244 107.859C345.068 107.859 345.668 108.184 346.043 108.832H346.066V105.117H347.027V114ZM346.066 111.287V110.402C346.066 109.918 345.906 109.508 345.586 109.172C345.266 108.836 344.859 108.668 344.367 108.668C343.781 108.668 343.32 108.883 342.984 109.312C342.648 109.742 342.48 110.336 342.48 111.094C342.48 111.785 342.641 112.332 342.961 112.734C343.285 113.133 343.719 113.332 344.262 113.332C344.797 113.332 345.23 113.139 345.562 112.752C345.898 112.365 346.066 111.877 346.066 111.287ZM353.824 114H352.863V113.051H352.84C352.441 113.777 351.824 114.141 350.988 114.141C349.559 114.141 348.844 113.289 348.844 111.586V108H349.799V111.434C349.799 112.699 350.283 113.332 351.252 113.332C351.721 113.332 352.105 113.16 352.406 112.816C352.711 112.469 352.863 112.016 352.863 111.457V108H353.824V114ZM356.73 114H355.77V105.117H356.73V114ZM363.498 111.24H359.262C359.277 111.908 359.457 112.424 359.801 112.787C360.145 113.15 360.617 113.332 361.219 113.332C361.895 113.332 362.516 113.109 363.082 112.664V113.566C362.555 113.949 361.857 114.141 360.99 114.141C360.143 114.141 359.477 113.869 358.992 113.326C358.508 112.779 358.266 112.012 358.266 111.023C358.266 110.09 358.529 109.33 359.057 108.744C359.588 108.154 360.246 107.859 361.031 107.859C361.816 107.859 362.424 108.113 362.854 108.621C363.283 109.129 363.498 109.834 363.498 110.736V111.24ZM362.514 110.426C362.51 109.871 362.375 109.439 362.109 109.131C361.848 108.822 361.482 108.668 361.014 108.668C360.561 108.668 360.176 108.83 359.859 109.154C359.543 109.479 359.348 109.902 359.273 110.426H362.514ZM365.291 114.129C365.111 114.129 364.957 114.064 364.828 113.936C364.703 113.807 364.641 113.652 364.641 113.473C364.641 113.293 364.703 113.139 364.828 113.01C364.957 112.877 365.111 112.811 365.291 112.811C365.475 112.811 365.631 112.877 365.76 113.01C365.889 113.139 365.953 113.293 365.953 113.473C365.953 113.652 365.889 113.807 365.76 113.936C365.631 114.064 365.475 114.129 365.291 114.129ZM372.141 114H367.688V105.598H371.953V106.488H368.672V109.283H371.707V110.168H368.672V113.109H372.141V114ZM378.609 114H377.648V110.578C377.648 109.305 377.184 108.668 376.254 108.668C375.773 108.668 375.375 108.85 375.059 109.213C374.746 109.572 374.59 110.027 374.59 110.578V114H373.629V108H374.59V108.996H374.613C375.066 108.238 375.723 107.859 376.582 107.859C377.238 107.859 377.74 108.072 378.088 108.498C378.436 108.92 378.609 109.531 378.609 110.332V114ZM383.209 113.941C382.982 114.066 382.684 114.129 382.312 114.129C381.262 114.129 380.736 113.543 380.736 112.371V108.82H379.705V108H380.736V106.535L381.697 106.225V108H383.209V108.82H381.697V112.201C381.697 112.604 381.766 112.891 381.902 113.062C382.039 113.234 382.266 113.32 382.582 113.32C382.824 113.32 383.033 113.254 383.209 113.121V113.941ZM384.984 106.477C384.812 106.477 384.666 106.418 384.545 106.301C384.424 106.184 384.363 106.035 384.363 105.855C384.363 105.676 384.424 105.527 384.545 105.41C384.666 105.289 384.812 105.229 384.984 105.229C385.16 105.229 385.309 105.289 385.43 105.41C385.555 105.527 385.617 105.676 385.617 105.855C385.617 106.027 385.555 106.174 385.43 106.295C385.309 106.416 385.16 106.477 384.984 106.477ZM385.453 114H384.492V108H385.453V114ZM390.182 113.941C389.955 114.066 389.656 114.129 389.285 114.129C388.234 114.129 387.709 113.543 387.709 112.371V108.82H386.678V108H387.709V106.535L388.67 106.225V108H390.182V108.82H388.67V112.201C388.67 112.604 388.738 112.891 388.875 113.062C389.012 113.234 389.238 113.32 389.555 113.32C389.797 113.32 390.006 113.254 390.182 113.121V113.941ZM396.24 108L393.48 114.961C392.988 116.203 392.297 116.824 391.406 116.824C391.156 116.824 390.947 116.799 390.779 116.748V115.887C390.986 115.957 391.176 115.992 391.348 115.992C391.832 115.992 392.195 115.703 392.438 115.125L392.918 113.988L390.574 108H391.641L393.264 112.617C393.283 112.676 393.324 112.828 393.387 113.074H393.422C393.441 112.98 393.48 112.832 393.539 112.629L395.244 108H396.24ZM404.18 114H402.973L398.648 107.303C398.539 107.135 398.449 106.959 398.379 106.775H398.344C398.375 106.955 398.391 107.34 398.391 107.93V114H397.406V105.598H398.684L402.891 112.189C403.066 112.463 403.18 112.65 403.23 112.752H403.254C403.215 112.51 403.195 112.098 403.195 111.516V105.598H404.18V114ZM410.549 114H409.588V113.062H409.564C409.146 113.781 408.531 114.141 407.719 114.141C407.121 114.141 406.652 113.982 406.312 113.666C405.977 113.35 405.809 112.93 405.809 112.406C405.809 111.285 406.469 110.633 407.789 110.449L409.588 110.197C409.588 109.178 409.176 108.668 408.352 108.668C407.629 108.668 406.977 108.914 406.395 109.406V108.422C406.984 108.047 407.664 107.859 408.434 107.859C409.844 107.859 410.549 108.605 410.549 110.098V114ZM409.588 110.965L408.141 111.164C407.695 111.227 407.359 111.338 407.133 111.498C406.906 111.654 406.793 111.934 406.793 112.336C406.793 112.629 406.896 112.869 407.104 113.057C407.314 113.24 407.594 113.332 407.941 113.332C408.418 113.332 408.811 113.166 409.119 112.834C409.432 112.498 409.588 112.074 409.588 111.562V110.965ZM420.879 114H419.918V110.555C419.918 109.891 419.814 109.41 419.607 109.113C419.404 108.816 419.061 108.668 418.576 108.668C418.166 108.668 417.816 108.855 417.527 109.23C417.242 109.605 417.1 110.055 417.1 110.578V114H416.139V110.438C416.139 109.258 415.684 108.668 414.773 108.668C414.352 108.668 414.004 108.846 413.73 109.201C413.457 109.553 413.32 110.012 413.32 110.578V114H412.359V108H413.32V108.949H413.344C413.77 108.223 414.391 107.859 415.207 107.859C415.617 107.859 415.975 107.975 416.279 108.205C416.584 108.432 416.793 108.73 416.906 109.102C417.352 108.273 418.016 107.859 418.898 107.859C420.219 107.859 420.879 108.674 420.879 110.303V114ZM427.518 111.24H423.281C423.297 111.908 423.477 112.424 423.82 112.787C424.164 113.15 424.637 113.332 425.238 113.332C425.914 113.332 426.535 113.109 427.102 112.664V113.566C426.574 113.949 425.877 114.141 425.01 114.141C424.162 114.141 423.496 113.869 423.012 113.326C422.527 112.779 422.285 112.012 422.285 111.023C422.285 110.09 422.549 109.33 423.076 108.744C423.607 108.154 424.266 107.859 425.051 107.859C425.836 107.859 426.443 108.113 426.873 108.621C427.303 109.129 427.518 109.834 427.518 110.736V111.24ZM426.533 110.426C426.529 109.871 426.395 109.439 426.129 109.131C425.867 108.822 425.502 108.668 425.033 108.668C424.58 108.668 424.195 108.83 423.879 109.154C423.562 109.479 423.367 109.902 423.293 110.426H426.533ZM430.465 115.91H428.314V115.213H429.609V106.295H428.314V105.598H430.465V115.91Z" fill="#D6D6D6"/>
<rect x="0.5" y="0.5" width="751" height="135" stroke="#6E6E6E"/>
</svg>
