<svg width="752" height="144" viewBox="0 0 752 144" fill="none" xmlns="http://www.w3.org/2000/svg">
<line x1="1" y1="0.5" x2="751" y2="0.5" stroke="#6E6E6E"/>
<rect width="750" height="42" transform="translate(1 1)" fill="#3B3B3B"/>
<path d="M11 25.5V27.5H31V25.5H11ZM11 20.5V22.5H31V20.5H11ZM11 15.5V17.5H31V15.5H11Z" fill="#D6D6D6"/>
<path d="M336.92 21.344V23.232H330.136V21.344H336.92Z" fill="#D6D6D6"/>
<path d="M362.353 27.5H360.739V21.0674C360.739 20.8532 360.742 20.639 360.746 20.4248C360.751 20.2106 360.755 20.001 360.76 19.7959C360.769 19.5908 360.78 19.3949 360.794 19.208C360.698 19.3128 360.58 19.4268 360.438 19.5498C360.302 19.6729 360.156 19.8005 360.001 19.9326L358.853 20.8486L358.046 19.8301L361.013 17.5059H362.353V27.5ZM372.408 22.4961C372.408 23.3027 372.344 24.0251 372.217 24.6631C372.094 25.2965 371.898 25.8343 371.629 26.2764C371.36 26.7184 371.009 27.0557 370.576 27.2881C370.143 27.5205 369.619 27.6367 369.004 27.6367C368.234 27.6367 367.598 27.4339 367.097 27.0283C366.595 26.6182 366.224 26.0303 365.982 25.2646C365.741 24.4945 365.62 23.5716 365.62 22.4961C365.62 21.4206 365.729 20.5 365.948 19.7344C366.172 18.9642 366.532 18.374 367.028 17.9639C367.525 17.5537 368.184 17.3486 369.004 17.3486C369.779 17.3486 370.417 17.5537 370.918 17.9639C371.424 18.3695 371.798 18.9574 372.039 19.7275C372.285 20.4932 372.408 21.416 372.408 22.4961ZM367.24 22.4961C367.24 23.3392 367.295 24.0433 367.404 24.6084C367.518 25.1735 367.705 25.5973 367.965 25.8799C368.225 26.1579 368.571 26.2969 369.004 26.2969C369.437 26.2969 369.783 26.1579 370.043 25.8799C370.303 25.6019 370.49 25.1803 370.604 24.6152C370.722 24.0501 370.781 23.3438 370.781 22.4961C370.781 21.6576 370.724 20.9557 370.61 20.3906C370.496 19.8255 370.31 19.4017 370.05 19.1191C369.79 18.832 369.441 18.6885 369.004 18.6885C368.566 18.6885 368.218 18.832 367.958 19.1191C367.703 19.4017 367.518 19.8255 367.404 20.3906C367.295 20.9557 367.24 21.6576 367.24 22.4961ZM380.42 22.4961C380.42 23.3027 380.356 24.0251 380.229 24.6631C380.105 25.2965 379.91 25.8343 379.641 26.2764C379.372 26.7184 379.021 27.0557 378.588 27.2881C378.155 27.5205 377.631 27.6367 377.016 27.6367C376.245 27.6367 375.61 27.4339 375.108 27.0283C374.607 26.6182 374.236 26.0303 373.994 25.2646C373.753 24.4945 373.632 23.5716 373.632 22.4961C373.632 21.4206 373.741 20.5 373.96 19.7344C374.183 18.9642 374.543 18.374 375.04 17.9639C375.537 17.5537 376.195 17.3486 377.016 17.3486C377.79 17.3486 378.428 17.5537 378.93 17.9639C379.436 18.3695 379.809 18.9574 380.051 19.7275C380.297 20.4932 380.42 21.416 380.42 22.4961ZM375.252 22.4961C375.252 23.3392 375.307 24.0433 375.416 24.6084C375.53 25.1735 375.717 25.5973 375.977 25.8799C376.236 26.1579 376.583 26.2969 377.016 26.2969C377.449 26.2969 377.795 26.1579 378.055 25.8799C378.314 25.6019 378.501 25.1803 378.615 24.6152C378.734 24.0501 378.793 23.3438 378.793 22.4961C378.793 21.6576 378.736 20.9557 378.622 20.3906C378.508 19.8255 378.321 19.4017 378.062 19.1191C377.802 18.832 377.453 18.6885 377.016 18.6885C376.578 18.6885 376.229 18.832 375.97 19.1191C375.715 19.4017 375.53 19.8255 375.416 20.3906C375.307 20.9557 375.252 21.6576 375.252 22.4961ZM383.797 17.3623C384.531 17.3623 385.087 17.6357 385.465 18.1826C385.843 18.7249 386.032 19.4928 386.032 20.4863C386.032 21.4753 385.85 22.2477 385.485 22.8037C385.125 23.3597 384.562 23.6377 383.797 23.6377C383.081 23.6377 382.537 23.3597 382.163 22.8037C381.789 22.2477 381.603 21.4753 381.603 20.4863C381.603 19.4928 381.778 18.7249 382.129 18.1826C382.484 17.6357 383.04 17.3623 383.797 17.3623ZM383.804 18.4834C383.507 18.4834 383.289 18.6497 383.147 18.9824C383.011 19.3151 382.942 19.8187 382.942 20.4932C382.942 21.1631 383.011 21.6689 383.147 22.0107C383.289 22.348 383.507 22.5166 383.804 22.5166C384.104 22.5166 384.328 22.348 384.474 22.0107C384.624 21.6735 384.699 21.1676 384.699 20.4932C384.699 19.8232 384.626 19.3219 384.48 18.9893C384.335 18.652 384.109 18.4834 383.804 18.4834ZM390.51 17.5059L384.966 27.5H383.646L389.19 17.5059H390.51ZM390.325 21.3613C391.059 21.3613 391.615 21.6348 391.993 22.1816C392.376 22.724 392.567 23.4919 392.567 24.4854C392.567 25.4697 392.385 26.2399 392.021 26.7959C391.66 27.3519 391.095 27.6299 390.325 27.6299C389.61 27.6299 389.065 27.3519 388.691 26.7959C388.318 26.2399 388.131 25.4697 388.131 24.4854C388.131 23.4919 388.306 22.724 388.657 22.1816C389.013 21.6348 389.569 21.3613 390.325 21.3613ZM390.332 22.4824C390.036 22.4824 389.817 22.6488 389.676 22.9814C389.539 23.3141 389.471 23.8177 389.471 24.4922C389.471 25.1621 389.539 25.668 389.676 26.0098C389.817 26.347 390.036 26.5156 390.332 26.5156C390.637 26.5156 390.863 26.3493 391.009 26.0166C391.155 25.6794 391.228 25.1712 391.228 24.4922C391.228 23.8223 391.155 23.321 391.009 22.9883C390.863 22.651 390.637 22.4824 390.332 22.4824Z" fill="#D6D6D6"/>
<path d="M421.472 23.28H418.448V26.384H416.336V23.28H413.312V21.328H416.336V18.224H418.448V21.328H421.472V23.28Z" fill="#D6D6D6"/>
<path d="M658 30L658 28L644 28L644 30L658 30ZM658 20L654 20L654 14L648 14L648 20L644 20L651 27L658 20Z" fill="#D6D6D6"/>
<path d="M698 18H684C682.34 18 681 19.34 681 21V27H685V31H697V27H701V21C701 19.34 699.66 18 698 18ZM695 29H687V24H695V29ZM698 22C697.45 22 697 21.55 697 21C697 20.45 697.45 20 698 20C698.55 20 699 20.45 699 21C699 21.55 698.55 22 698 22ZM697 13H685V17H697V13Z" fill="#D6D6D6"/>
<path d="M731 18C732.1 18 733 17.1 733 16C733 14.9 732.1 14 731 14C729.9 14 729 14.9 729 16C729 17.1 729.9 18 731 18ZM731 20C729.9 20 729 20.9 729 22C729 23.1 729.9 24 731 24C732.1 24 733 23.1 733 22C733 20.9 732.1 20 731 20ZM731 26C729.9 26 729 26.9 729 28C729 29.1 729.9 30 731 30C732.1 30 733 29.1 733 28C733 26.9 732.1 26 731 26Z" fill="#D6D6D6"/>
<line x1="1" y1="42.5" x2="751" y2="42.5" stroke="#6E6E6E"/>
<rect width="750" height="100" transform="translate(1 43)" fill="#6E6E6E"/>
<rect width="738" height="88" transform="translate(7 49)" fill="#2E2E2E"/>
<path d="M380.87 65V71.3478C380.87 72.4524 381.765 73.3478 382.87 73.3478H389.217" stroke="#D6D6D6" stroke-miterlimit="10" stroke-linecap="round" stroke-linejoin="round"/>
<path d="M389.217 95C389.217 96.1046 388.322 97 387.217 97H364.783C363.678 97 362.783 96.1046 362.783 95V67C362.783 65.8954 363.678 65 364.783 65H380.041C380.572 65 381.08 65.2107 381.455 65.5858L388.632 72.762C389.007 73.1371 389.217 73.6458 389.217 74.1763V95Z" stroke="#D6D6D6" stroke-miterlimit="10" stroke-linecap="round" stroke-linejoin="round"/>
<path d="M310.828 119.91H308.672V109.598H310.828V110.295H309.527V119.213H310.828V119.91ZM312.223 118V109.598H314.543C317.504 109.598 318.984 110.963 318.984 113.693C318.984 114.99 318.572 116.033 317.748 116.822C316.928 117.607 315.828 118 314.449 118H312.223ZM313.207 110.488V117.109H314.461C315.562 117.109 316.42 116.814 317.033 116.225C317.646 115.635 317.953 114.799 317.953 113.717C317.953 111.564 316.809 110.488 314.52 110.488H313.207ZM323.016 118.141C322.129 118.141 321.42 117.861 320.889 117.303C320.361 116.74 320.098 115.996 320.098 115.07C320.098 114.062 320.373 113.275 320.924 112.709C321.475 112.143 322.219 111.859 323.156 111.859C324.051 111.859 324.748 112.135 325.248 112.686C325.752 113.236 326.004 114 326.004 114.977C326.004 115.934 325.732 116.701 325.189 117.279C324.65 117.854 323.926 118.141 323.016 118.141ZM323.086 112.668C322.469 112.668 321.98 112.879 321.621 113.301C321.262 113.719 321.082 114.297 321.082 115.035C321.082 115.746 321.264 116.307 321.627 116.717C321.99 117.127 322.477 117.332 323.086 117.332C323.707 117.332 324.184 117.131 324.516 116.729C324.852 116.326 325.02 115.754 325.02 115.012C325.02 114.262 324.852 113.684 324.516 113.277C324.184 112.871 323.707 112.668 323.086 112.668ZM331.629 117.725C331.168 118.002 330.621 118.141 329.988 118.141C329.133 118.141 328.441 117.863 327.914 117.309C327.391 116.75 327.129 116.027 327.129 115.141C327.129 114.152 327.412 113.359 327.979 112.762C328.545 112.16 329.301 111.859 330.246 111.859C330.773 111.859 331.238 111.957 331.641 112.152V113.137C331.195 112.824 330.719 112.668 330.211 112.668C329.598 112.668 329.094 112.889 328.699 113.33C328.309 113.768 328.113 114.344 328.113 115.059C328.113 115.762 328.297 116.316 328.664 116.723C329.035 117.129 329.531 117.332 330.152 117.332C330.676 117.332 331.168 117.158 331.629 116.811V117.725ZM337.934 118H336.973V117.051H336.949C336.551 117.777 335.934 118.141 335.098 118.141C333.668 118.141 332.953 117.289 332.953 115.586V112H333.908V115.434C333.908 116.699 334.393 117.332 335.361 117.332C335.83 117.332 336.215 117.16 336.516 116.816C336.82 116.469 336.973 116.016 336.973 115.457V112H337.934V118ZM348.398 118H347.438V114.555C347.438 113.891 347.334 113.41 347.127 113.113C346.924 112.816 346.58 112.668 346.096 112.668C345.686 112.668 345.336 112.855 345.047 113.23C344.762 113.605 344.619 114.055 344.619 114.578V118H343.658V114.438C343.658 113.258 343.203 112.668 342.293 112.668C341.871 112.668 341.523 112.846 341.25 113.201C340.977 113.553 340.84 114.012 340.84 114.578V118H339.879V112H340.84V112.949H340.863C341.289 112.223 341.91 111.859 342.727 111.859C343.137 111.859 343.494 111.975 343.799 112.205C344.104 112.432 344.312 112.73 344.426 113.102C344.871 112.273 345.535 111.859 346.418 111.859C347.738 111.859 348.398 112.674 348.398 114.303V118ZM355.037 115.24H350.801C350.816 115.908 350.996 116.424 351.34 116.787C351.684 117.15 352.156 117.332 352.758 117.332C353.434 117.332 354.055 117.109 354.621 116.664V117.566C354.094 117.949 353.396 118.141 352.529 118.141C351.682 118.141 351.016 117.869 350.531 117.326C350.047 116.779 349.805 116.012 349.805 115.023C349.805 114.09 350.068 113.33 350.596 112.744C351.127 112.154 351.785 111.859 352.57 111.859C353.355 111.859 353.963 112.113 354.393 112.621C354.822 113.129 355.037 113.834 355.037 114.736V115.24ZM354.053 114.426C354.049 113.871 353.914 113.439 353.648 113.131C353.387 112.822 353.021 112.668 352.553 112.668C352.1 112.668 351.715 112.83 351.398 113.154C351.082 113.479 350.887 113.902 350.812 114.426H354.053ZM361.477 118H360.516V114.578C360.516 113.305 360.051 112.668 359.121 112.668C358.641 112.668 358.242 112.85 357.926 113.213C357.613 113.572 357.457 114.027 357.457 114.578V118H356.496V112H357.457V112.996H357.48C357.934 112.238 358.59 111.859 359.449 111.859C360.105 111.859 360.607 112.072 360.955 112.498C361.303 112.92 361.477 113.531 361.477 114.332V118ZM366.076 117.941C365.85 118.066 365.551 118.129 365.18 118.129C364.129 118.129 363.604 117.543 363.604 116.371V112.82H362.572V112H363.604V110.535L364.564 110.225V112H366.076V112.82H364.564V116.201C364.564 116.604 364.633 116.891 364.77 117.062C364.906 117.234 365.133 117.32 365.449 117.32C365.691 117.32 365.9 117.254 366.076 117.121V117.941ZM376.928 114.602C376.928 116.961 375.863 118.141 373.734 118.141C371.695 118.141 370.676 117.006 370.676 114.736V109.598H371.66V114.672C371.66 116.395 372.387 117.256 373.84 117.256C375.242 117.256 375.943 116.424 375.943 114.76V109.598H376.928V114.602ZM385.055 118H383.883L382.477 115.645C382.348 115.426 382.223 115.24 382.102 115.088C381.98 114.932 381.855 114.805 381.727 114.707C381.602 114.609 381.465 114.539 381.316 114.496C381.172 114.449 381.008 114.426 380.824 114.426H380.016V118H379.031V109.598H381.539C381.906 109.598 382.244 109.645 382.553 109.738C382.865 109.828 383.135 109.967 383.361 110.154C383.592 110.342 383.771 110.576 383.9 110.857C384.029 111.135 384.094 111.461 384.094 111.836C384.094 112.129 384.049 112.398 383.959 112.645C383.873 112.887 383.748 113.104 383.584 113.295C383.424 113.486 383.229 113.65 382.998 113.787C382.771 113.92 382.516 114.023 382.23 114.098V114.121C382.371 114.184 382.492 114.256 382.594 114.338C382.699 114.416 382.799 114.51 382.893 114.619C382.986 114.729 383.078 114.854 383.168 114.994C383.262 115.131 383.365 115.291 383.479 115.475L385.055 118ZM380.016 110.488V113.535H381.352C381.598 113.535 381.824 113.498 382.031 113.424C382.242 113.35 382.424 113.244 382.576 113.107C382.729 112.967 382.848 112.797 382.934 112.598C383.02 112.395 383.062 112.168 383.062 111.918C383.062 111.469 382.916 111.119 382.623 110.869C382.334 110.615 381.914 110.488 381.363 110.488H380.016ZM390.574 118H386.215V109.598H387.199V117.109H390.574V118ZM395.525 109.598L391.494 119.395H390.598L394.617 109.598H395.525ZM400.805 110.488H397.523V113.395H400.559V114.279H397.523V118H396.539V109.598H400.805V110.488ZM402.762 110.477C402.59 110.477 402.443 110.418 402.322 110.301C402.201 110.184 402.141 110.035 402.141 109.855C402.141 109.676 402.201 109.527 402.322 109.41C402.443 109.289 402.59 109.229 402.762 109.229C402.938 109.229 403.086 109.289 403.207 109.41C403.332 109.527 403.395 109.676 403.395 109.855C403.395 110.027 403.332 110.174 403.207 110.295C403.086 110.416 402.938 110.477 402.762 110.477ZM403.23 118H402.27V112H403.23V118ZM406.137 118H405.176V109.117H406.137V118ZM412.904 115.24H408.668C408.684 115.908 408.863 116.424 409.207 116.787C409.551 117.15 410.023 117.332 410.625 117.332C411.301 117.332 411.922 117.109 412.488 116.664V117.566C411.961 117.949 411.264 118.141 410.396 118.141C409.549 118.141 408.883 117.869 408.398 117.326C407.914 116.779 407.672 116.012 407.672 115.023C407.672 114.09 407.936 113.33 408.463 112.744C408.994 112.154 409.652 111.859 410.438 111.859C411.223 111.859 411.83 112.113 412.26 112.621C412.689 113.129 412.904 113.834 412.904 114.736V115.24ZM411.92 114.426C411.916 113.871 411.781 113.439 411.516 113.131C411.254 112.822 410.889 112.668 410.42 112.668C409.967 112.668 409.582 112.83 409.266 113.154C408.949 113.479 408.754 113.902 408.68 114.426H411.92ZM418.77 114.824V118H417.785V109.598H420.094C420.992 109.598 421.688 109.816 422.18 110.254C422.676 110.691 422.924 111.309 422.924 112.105C422.924 112.902 422.648 113.555 422.098 114.062C421.551 114.57 420.811 114.824 419.877 114.824H418.77ZM418.77 110.488V113.934H419.801C420.48 113.934 420.998 113.779 421.354 113.471C421.713 113.158 421.893 112.719 421.893 112.152C421.893 111.043 421.236 110.488 419.924 110.488H418.77ZM428.678 118H427.717V117.062H427.693C427.275 117.781 426.66 118.141 425.848 118.141C425.25 118.141 424.781 117.982 424.441 117.666C424.105 117.35 423.938 116.93 423.938 116.406C423.938 115.285 424.598 114.633 425.918 114.449L427.717 114.197C427.717 113.178 427.305 112.668 426.48 112.668C425.758 112.668 425.105 112.914 424.523 113.406V112.422C425.113 112.047 425.793 111.859 426.562 111.859C427.973 111.859 428.678 112.605 428.678 114.098V118ZM427.717 114.965L426.27 115.164C425.824 115.227 425.488 115.338 425.262 115.498C425.035 115.654 424.922 115.934 424.922 116.336C424.922 116.629 425.025 116.869 425.232 117.057C425.443 117.24 425.723 117.332 426.07 117.332C426.547 117.332 426.939 117.166 427.248 116.834C427.561 116.498 427.717 116.074 427.717 115.562V114.965ZM433.271 117.941C433.045 118.066 432.746 118.129 432.375 118.129C431.324 118.129 430.799 117.543 430.799 116.371V112.82H429.768V112H430.799V110.535L431.76 110.225V112H433.271V112.82H431.76V116.201C431.76 116.604 431.828 116.891 431.965 117.062C432.102 117.234 432.328 117.32 432.645 117.32C432.887 117.32 433.096 117.254 433.271 117.121V117.941ZM439.535 118H438.574V114.543C438.574 113.293 438.109 112.668 437.18 112.668C436.711 112.668 436.316 112.85 435.996 113.213C435.676 113.572 435.516 114.035 435.516 114.602V118H434.555V109.117H435.516V112.996H435.539C436 112.238 436.656 111.859 437.508 111.859C438.859 111.859 439.535 112.674 439.535 114.303V118ZM442.84 119.91H440.689V119.213H441.984V110.295H440.689V109.598H442.84V119.91Z" fill="#D6D6D6"/>
<rect x="0.5" y="0.5" width="751" height="143" stroke="#6E6E6E"/>
</svg>
