<svg width="752" height="136" viewBox="0 0 752 136" fill="none" xmlns="http://www.w3.org/2000/svg">
<line x1="1" y1="0.5" x2="751" y2="0.5" stroke="#C1C3C8"/>
<rect width="750" height="42" transform="translate(1 1)" fill="#E7E7E9"/>
<path d="M11 25.5V27.5H31V25.5H11ZM11 20.5V22.5H31V20.5H11ZM11 15.5V17.5H31V15.5H11Z" fill="#535965"/>
<path d="M336.92 21.344V23.232H330.136V21.344H336.92Z" fill="#535965"/>
<path d="M362.353 27.5H360.739V21.0674C360.739 20.8532 360.742 20.639 360.746 20.4248C360.751 20.2106 360.755 20.001 360.76 19.7959C360.769 19.5908 360.78 19.3949 360.794 19.208C360.698 19.3128 360.58 19.4268 360.438 19.5498C360.302 19.6729 360.156 19.8005 360.001 19.9326L358.853 20.8486L358.046 19.8301L361.013 17.5059H362.353V27.5ZM372.408 22.4961C372.408 23.3027 372.344 24.0251 372.217 24.6631C372.094 25.2965 371.898 25.8343 371.629 26.2764C371.36 26.7184 371.009 27.0557 370.576 27.2881C370.143 27.5205 369.619 27.6367 369.004 27.6367C368.234 27.6367 367.598 27.4339 367.097 27.0283C366.595 26.6182 366.224 26.0303 365.982 25.2646C365.741 24.4945 365.62 23.5716 365.62 22.4961C365.62 21.4206 365.729 20.5 365.948 19.7344C366.172 18.9642 366.532 18.374 367.028 17.9639C367.525 17.5537 368.184 17.3486 369.004 17.3486C369.779 17.3486 370.417 17.5537 370.918 17.9639C371.424 18.3695 371.798 18.9574 372.039 19.7275C372.285 20.4932 372.408 21.416 372.408 22.4961ZM367.24 22.4961C367.24 23.3392 367.295 24.0433 367.404 24.6084C367.518 25.1735 367.705 25.5973 367.965 25.8799C368.225 26.1579 368.571 26.2969 369.004 26.2969C369.437 26.2969 369.783 26.1579 370.043 25.8799C370.303 25.6019 370.49 25.1803 370.604 24.6152C370.722 24.0501 370.781 23.3438 370.781 22.4961C370.781 21.6576 370.724 20.9557 370.61 20.3906C370.496 19.8255 370.31 19.4017 370.05 19.1191C369.79 18.832 369.441 18.6885 369.004 18.6885C368.566 18.6885 368.218 18.832 367.958 19.1191C367.703 19.4017 367.518 19.8255 367.404 20.3906C367.295 20.9557 367.24 21.6576 367.24 22.4961ZM380.42 22.4961C380.42 23.3027 380.356 24.0251 380.229 24.6631C380.105 25.2965 379.91 25.8343 379.641 26.2764C379.372 26.7184 379.021 27.0557 378.588 27.2881C378.155 27.5205 377.631 27.6367 377.016 27.6367C376.245 27.6367 375.61 27.4339 375.108 27.0283C374.607 26.6182 374.236 26.0303 373.994 25.2646C373.753 24.4945 373.632 23.5716 373.632 22.4961C373.632 21.4206 373.741 20.5 373.96 19.7344C374.183 18.9642 374.543 18.374 375.04 17.9639C375.537 17.5537 376.195 17.3486 377.016 17.3486C377.79 17.3486 378.428 17.5537 378.93 17.9639C379.436 18.3695 379.809 18.9574 380.051 19.7275C380.297 20.4932 380.42 21.416 380.42 22.4961ZM375.252 22.4961C375.252 23.3392 375.307 24.0433 375.416 24.6084C375.53 25.1735 375.717 25.5973 375.977 25.8799C376.236 26.1579 376.583 26.2969 377.016 26.2969C377.449 26.2969 377.795 26.1579 378.055 25.8799C378.314 25.6019 378.501 25.1803 378.615 24.6152C378.734 24.0501 378.793 23.3438 378.793 22.4961C378.793 21.6576 378.736 20.9557 378.622 20.3906C378.508 19.8255 378.321 19.4017 378.062 19.1191C377.802 18.832 377.453 18.6885 377.016 18.6885C376.578 18.6885 376.229 18.832 375.97 19.1191C375.715 19.4017 375.53 19.8255 375.416 20.3906C375.307 20.9557 375.252 21.6576 375.252 22.4961ZM383.797 17.3623C384.531 17.3623 385.087 17.6357 385.465 18.1826C385.843 18.7249 386.032 19.4928 386.032 20.4863C386.032 21.4753 385.85 22.2477 385.485 22.8037C385.125 23.3597 384.562 23.6377 383.797 23.6377C383.081 23.6377 382.537 23.3597 382.163 22.8037C381.789 22.2477 381.603 21.4753 381.603 20.4863C381.603 19.4928 381.778 18.7249 382.129 18.1826C382.484 17.6357 383.04 17.3623 383.797 17.3623ZM383.804 18.4834C383.507 18.4834 383.289 18.6497 383.147 18.9824C383.011 19.3151 382.942 19.8187 382.942 20.4932C382.942 21.1631 383.011 21.6689 383.147 22.0107C383.289 22.348 383.507 22.5166 383.804 22.5166C384.104 22.5166 384.328 22.348 384.474 22.0107C384.624 21.6735 384.699 21.1676 384.699 20.4932C384.699 19.8232 384.626 19.3219 384.48 18.9893C384.335 18.652 384.109 18.4834 383.804 18.4834ZM390.51 17.5059L384.966 27.5H383.646L389.19 17.5059H390.51ZM390.325 21.3613C391.059 21.3613 391.615 21.6348 391.993 22.1816C392.376 22.724 392.567 23.4919 392.567 24.4854C392.567 25.4697 392.385 26.2399 392.021 26.7959C391.66 27.3519 391.095 27.6299 390.325 27.6299C389.61 27.6299 389.065 27.3519 388.691 26.7959C388.318 26.2399 388.131 25.4697 388.131 24.4854C388.131 23.4919 388.306 22.724 388.657 22.1816C389.013 21.6348 389.569 21.3613 390.325 21.3613ZM390.332 22.4824C390.036 22.4824 389.817 22.6488 389.676 22.9814C389.539 23.3141 389.471 23.8177 389.471 24.4922C389.471 25.1621 389.539 25.668 389.676 26.0098C389.817 26.347 390.036 26.5156 390.332 26.5156C390.637 26.5156 390.863 26.3493 391.009 26.0166C391.155 25.6794 391.228 25.1712 391.228 24.4922C391.228 23.8223 391.155 23.321 391.009 22.9883C390.863 22.651 390.637 22.4824 390.332 22.4824Z" fill="#535965"/>
<path d="M421.472 23.28H418.448V26.384H416.336V23.28H413.312V21.328H416.336V18.224H418.448V21.328H421.472V23.28Z" fill="#535965"/>
<path d="M658 30L658 28L644 28L644 30L658 30ZM658 20L654 20L654 14L648 14L648 20L644 20L651 27L658 20Z" fill="#535965"/>
<path d="M698 18H684C682.34 18 681 19.34 681 21V27H685V31H697V27H701V21C701 19.34 699.66 18 698 18ZM695 29H687V24H695V29ZM698 22C697.45 22 697 21.55 697 21C697 20.45 697.45 20 698 20C698.55 20 699 20.45 699 21C699 21.55 698.55 22 698 22ZM697 13H685V17H697V13Z" fill="#535965"/>
<path d="M731 18C732.1 18 733 17.1 733 16C733 14.9 732.1 14 731 14C729.9 14 729 14.9 729 16C729 17.1 729.9 18 731 18ZM731 20C729.9 20 729 20.9 729 22C729 23.1 729.9 24 731 24C732.1 24 733 23.1 733 22C733 20.9 732.1 20 731 20ZM731 26C729.9 26 729 26.9 729 28C729 29.1 729.9 30 731 30C732.1 30 733 29.1 733 28C733 26.9 732.1 26 731 26Z" fill="#535965"/>
<line x1="1" y1="42.5" x2="751" y2="42.5" stroke="#C1C3C8"/>
<rect width="750" height="92" transform="translate(1 43)" fill="#C1C3C8"/>
<rect width="738" height="80" transform="translate(7 49)" fill="white"/>
<path d="M380.87 61V67.3478C380.87 68.4524 381.765 69.3478 382.87 69.3478H389.217" stroke="#535965" stroke-miterlimit="10" stroke-linecap="round" stroke-linejoin="round"/>
<path d="M389.217 91C389.217 92.1046 388.322 93 387.217 93H364.783C363.678 93 362.783 92.1046 362.783 91V63C362.783 61.8954 363.678 61 364.783 61H380.041C380.572 61 381.08 61.2107 381.455 61.5858L388.632 68.762C389.007 69.1371 389.217 69.6458 389.217 70.1763V91Z" stroke="#535965" stroke-miterlimit="10" stroke-linecap="round" stroke-linejoin="round"/>
<path d="M310.828 115.91H308.672V105.598H310.828V106.295H309.527V115.213H310.828V115.91ZM312.223 114V105.598H314.543C317.504 105.598 318.984 106.963 318.984 109.693C318.984 110.99 318.572 112.033 317.748 112.822C316.928 113.607 315.828 114 314.449 114H312.223ZM313.207 106.488V113.109H314.461C315.562 113.109 316.42 112.814 317.033 112.225C317.646 111.635 317.953 110.799 317.953 109.717C317.953 107.564 316.809 106.488 314.52 106.488H313.207ZM323.016 114.141C322.129 114.141 321.42 113.861 320.889 113.303C320.361 112.74 320.098 111.996 320.098 111.07C320.098 110.062 320.373 109.275 320.924 108.709C321.475 108.143 322.219 107.859 323.156 107.859C324.051 107.859 324.748 108.135 325.248 108.686C325.752 109.236 326.004 110 326.004 110.977C326.004 111.934 325.732 112.701 325.189 113.279C324.65 113.854 323.926 114.141 323.016 114.141ZM323.086 108.668C322.469 108.668 321.98 108.879 321.621 109.301C321.262 109.719 321.082 110.297 321.082 111.035C321.082 111.746 321.264 112.307 321.627 112.717C321.99 113.127 322.477 113.332 323.086 113.332C323.707 113.332 324.184 113.131 324.516 112.729C324.852 112.326 325.02 111.754 325.02 111.012C325.02 110.262 324.852 109.684 324.516 109.277C324.184 108.871 323.707 108.668 323.086 108.668ZM331.629 113.725C331.168 114.002 330.621 114.141 329.988 114.141C329.133 114.141 328.441 113.863 327.914 113.309C327.391 112.75 327.129 112.027 327.129 111.141C327.129 110.152 327.412 109.359 327.979 108.762C328.545 108.16 329.301 107.859 330.246 107.859C330.773 107.859 331.238 107.957 331.641 108.152V109.137C331.195 108.824 330.719 108.668 330.211 108.668C329.598 108.668 329.094 108.889 328.699 109.33C328.309 109.768 328.113 110.344 328.113 111.059C328.113 111.762 328.297 112.316 328.664 112.723C329.035 113.129 329.531 113.332 330.152 113.332C330.676 113.332 331.168 113.158 331.629 112.811V113.725ZM337.934 114H336.973V113.051H336.949C336.551 113.777 335.934 114.141 335.098 114.141C333.668 114.141 332.953 113.289 332.953 111.586V108H333.908V111.434C333.908 112.699 334.393 113.332 335.361 113.332C335.83 113.332 336.215 113.16 336.516 112.816C336.82 112.469 336.973 112.016 336.973 111.457V108H337.934V114ZM348.398 114H347.438V110.555C347.438 109.891 347.334 109.41 347.127 109.113C346.924 108.816 346.58 108.668 346.096 108.668C345.686 108.668 345.336 108.855 345.047 109.23C344.762 109.605 344.619 110.055 344.619 110.578V114H343.658V110.438C343.658 109.258 343.203 108.668 342.293 108.668C341.871 108.668 341.523 108.846 341.25 109.201C340.977 109.553 340.84 110.012 340.84 110.578V114H339.879V108H340.84V108.949H340.863C341.289 108.223 341.91 107.859 342.727 107.859C343.137 107.859 343.494 107.975 343.799 108.205C344.104 108.432 344.312 108.73 344.426 109.102C344.871 108.273 345.535 107.859 346.418 107.859C347.738 107.859 348.398 108.674 348.398 110.303V114ZM355.037 111.24H350.801C350.816 111.908 350.996 112.424 351.34 112.787C351.684 113.15 352.156 113.332 352.758 113.332C353.434 113.332 354.055 113.109 354.621 112.664V113.566C354.094 113.949 353.396 114.141 352.529 114.141C351.682 114.141 351.016 113.869 350.531 113.326C350.047 112.779 349.805 112.012 349.805 111.023C349.805 110.09 350.068 109.33 350.596 108.744C351.127 108.154 351.785 107.859 352.57 107.859C353.355 107.859 353.963 108.113 354.393 108.621C354.822 109.129 355.037 109.834 355.037 110.736V111.24ZM354.053 110.426C354.049 109.871 353.914 109.439 353.648 109.131C353.387 108.822 353.021 108.668 352.553 108.668C352.1 108.668 351.715 108.83 351.398 109.154C351.082 109.479 350.887 109.902 350.812 110.426H354.053ZM361.477 114H360.516V110.578C360.516 109.305 360.051 108.668 359.121 108.668C358.641 108.668 358.242 108.85 357.926 109.213C357.613 109.572 357.457 110.027 357.457 110.578V114H356.496V108H357.457V108.996H357.48C357.934 108.238 358.59 107.859 359.449 107.859C360.105 107.859 360.607 108.072 360.955 108.498C361.303 108.92 361.477 109.531 361.477 110.332V114ZM366.076 113.941C365.85 114.066 365.551 114.129 365.18 114.129C364.129 114.129 363.604 113.543 363.604 112.371V108.82H362.572V108H363.604V106.535L364.564 106.225V108H366.076V108.82H364.564V112.201C364.564 112.604 364.633 112.891 364.77 113.062C364.906 113.234 365.133 113.32 365.449 113.32C365.691 113.32 365.9 113.254 366.076 113.121V113.941ZM376.928 110.602C376.928 112.961 375.863 114.141 373.734 114.141C371.695 114.141 370.676 113.006 370.676 110.736V105.598H371.66V110.672C371.66 112.395 372.387 113.256 373.84 113.256C375.242 113.256 375.943 112.424 375.943 110.76V105.598H376.928V110.602ZM385.055 114H383.883L382.477 111.645C382.348 111.426 382.223 111.24 382.102 111.088C381.98 110.932 381.855 110.805 381.727 110.707C381.602 110.609 381.465 110.539 381.316 110.496C381.172 110.449 381.008 110.426 380.824 110.426H380.016V114H379.031V105.598H381.539C381.906 105.598 382.244 105.645 382.553 105.738C382.865 105.828 383.135 105.967 383.361 106.154C383.592 106.342 383.771 106.576 383.9 106.857C384.029 107.135 384.094 107.461 384.094 107.836C384.094 108.129 384.049 108.398 383.959 108.645C383.873 108.887 383.748 109.104 383.584 109.295C383.424 109.486 383.229 109.65 382.998 109.787C382.771 109.92 382.516 110.023 382.23 110.098V110.121C382.371 110.184 382.492 110.256 382.594 110.338C382.699 110.416 382.799 110.51 382.893 110.619C382.986 110.729 383.078 110.854 383.168 110.994C383.262 111.131 383.365 111.291 383.479 111.475L385.055 114ZM380.016 106.488V109.535H381.352C381.598 109.535 381.824 109.498 382.031 109.424C382.242 109.35 382.424 109.244 382.576 109.107C382.729 108.967 382.848 108.797 382.934 108.598C383.02 108.395 383.062 108.168 383.062 107.918C383.062 107.469 382.916 107.119 382.623 106.869C382.334 106.615 381.914 106.488 381.363 106.488H380.016ZM390.574 114H386.215V105.598H387.199V113.109H390.574V114ZM395.525 105.598L391.494 115.395H390.598L394.617 105.598H395.525ZM400.805 106.488H397.523V109.395H400.559V110.279H397.523V114H396.539V105.598H400.805V106.488ZM402.762 106.477C402.59 106.477 402.443 106.418 402.322 106.301C402.201 106.184 402.141 106.035 402.141 105.855C402.141 105.676 402.201 105.527 402.322 105.41C402.443 105.289 402.59 105.229 402.762 105.229C402.938 105.229 403.086 105.289 403.207 105.41C403.332 105.527 403.395 105.676 403.395 105.855C403.395 106.027 403.332 106.174 403.207 106.295C403.086 106.416 402.938 106.477 402.762 106.477ZM403.23 114H402.27V108H403.23V114ZM406.137 114H405.176V105.117H406.137V114ZM412.904 111.24H408.668C408.684 111.908 408.863 112.424 409.207 112.787C409.551 113.15 410.023 113.332 410.625 113.332C411.301 113.332 411.922 113.109 412.488 112.664V113.566C411.961 113.949 411.264 114.141 410.396 114.141C409.549 114.141 408.883 113.869 408.398 113.326C407.914 112.779 407.672 112.012 407.672 111.023C407.672 110.09 407.936 109.33 408.463 108.744C408.994 108.154 409.652 107.859 410.438 107.859C411.223 107.859 411.83 108.113 412.26 108.621C412.689 109.129 412.904 109.834 412.904 110.736V111.24ZM411.92 110.426C411.916 109.871 411.781 109.439 411.516 109.131C411.254 108.822 410.889 108.668 410.42 108.668C409.967 108.668 409.582 108.83 409.266 109.154C408.949 109.479 408.754 109.902 408.68 110.426H411.92ZM418.77 110.824V114H417.785V105.598H420.094C420.992 105.598 421.688 105.816 422.18 106.254C422.676 106.691 422.924 107.309 422.924 108.105C422.924 108.902 422.648 109.555 422.098 110.062C421.551 110.57 420.811 110.824 419.877 110.824H418.77ZM418.77 106.488V109.934H419.801C420.48 109.934 420.998 109.779 421.354 109.471C421.713 109.158 421.893 108.719 421.893 108.152C421.893 107.043 421.236 106.488 419.924 106.488H418.77ZM428.678 114H427.717V113.062H427.693C427.275 113.781 426.66 114.141 425.848 114.141C425.25 114.141 424.781 113.982 424.441 113.666C424.105 113.35 423.938 112.93 423.938 112.406C423.938 111.285 424.598 110.633 425.918 110.449L427.717 110.197C427.717 109.178 427.305 108.668 426.48 108.668C425.758 108.668 425.105 108.914 424.523 109.406V108.422C425.113 108.047 425.793 107.859 426.562 107.859C427.973 107.859 428.678 108.605 428.678 110.098V114ZM427.717 110.965L426.27 111.164C425.824 111.227 425.488 111.338 425.262 111.498C425.035 111.654 424.922 111.934 424.922 112.336C424.922 112.629 425.025 112.869 425.232 113.057C425.443 113.24 425.723 113.332 426.07 113.332C426.547 113.332 426.939 113.166 427.248 112.834C427.561 112.498 427.717 112.074 427.717 111.562V110.965ZM433.271 113.941C433.045 114.066 432.746 114.129 432.375 114.129C431.324 114.129 430.799 113.543 430.799 112.371V108.82H429.768V108H430.799V106.535L431.76 106.225V108H433.271V108.82H431.76V112.201C431.76 112.604 431.828 112.891 431.965 113.062C432.102 113.234 432.328 113.32 432.645 113.32C432.887 113.32 433.096 113.254 433.271 113.121V113.941ZM439.535 114H438.574V110.543C438.574 109.293 438.109 108.668 437.18 108.668C436.711 108.668 436.316 108.85 435.996 109.213C435.676 109.572 435.516 110.035 435.516 110.602V114H434.555V105.117H435.516V108.996H435.539C436 108.238 436.656 107.859 437.508 107.859C438.859 107.859 439.535 108.674 439.535 110.303V114ZM442.84 115.91H440.689V115.213H441.984V106.295H440.689V105.598H442.84V115.91Z" fill="#535965"/>
<rect x="0.5" y="0.5" width="751" height="135" stroke="#C1C3C8"/>
</svg>
