<svg width="376" height="376" viewBox="0 0 376 376" fill="none" xmlns="http://www.w3.org/2000/svg">
    <g clip-path="url(#clip0_122_22462)">
        <path d="M0.121094 0.538086H375.121V375.538H0.121094V0.538086Z" fill="none"/>
        <path fill-rule="evenodd" clip-rule="evenodd" d="M102.743 88.4922L83.7246 88.4365V108.431L102.743 108.469V88.4922Z" fill="#A4A4A4"/>
        <path fill-rule="evenodd" clip-rule="evenodd" d="M264.864 166.538L246.121 166.549V206.247L294.474 206.133V186.327L264.864 186.371V166.538Z" fill="#171717"/>
        <path fill-rule="evenodd" clip-rule="evenodd" d="M264.864 166.538L246.121 166.549V196.538H294.474V186.327L264.864 186.371V166.538ZM213.037 138.513L194.207 138.5V158.395L213.037 158.391V138.513Z" fill="#A4A4A4"/>
        <path fill-rule="evenodd" clip-rule="evenodd" d="M309.817 234.241L291.152 234.309V254.118L309.817 254.033V234.241ZM309.817 331.551L328.45 331.399V308.331L309.817 308.461V331.551Z" fill="#171717"/>
        <path fill-rule="evenodd" clip-rule="evenodd" d="M170.624 126.865L151.723 126.842V146.776L170.624 146.782V126.865ZM102.743 180.056V160.078L83.7246 160.084V180.078L102.743 180.056Z" fill="#A4A4A4"/>
        <path fill-rule="evenodd" clip-rule="evenodd" d="M83.7248 221.734V201.739L64.6738 201.78V221.791L83.7248 221.734Z" fill="#171717"/>
        <path fill-rule="evenodd" clip-rule="evenodd" d="M219.307 50.1945L170.624 49.9531V69.8697L219.307 70.0676V50.1945ZM294.266 186.434L330.005 186.381V166.607L294.266 166.628V186.434Z" fill="#A4A4A4"/>
        <path fill-rule="evenodd" clip-rule="evenodd" d="M274.014 288.888V331.84L292.709 331.688V308.581L309.817 308.461V288.669L274.014 288.888Z" fill="#171717"/>
        <path fill-rule="evenodd" clip-rule="evenodd" d="M219.307 110.363V90.4905L170.624 90.3513V63.7952L151.723 63.7188V110.231L170.624 110.268L219.307 110.363Z" fill="#A4A4A4"/>
        <path fill-rule="evenodd" clip-rule="evenodd" d="M156.451 221.513L175.345 221.455L194.207 221.398V201.502L175.345 201.543V181.63L158.027 181.651L139.103 181.675V160.068L120.147 160.073V201.661L102.743 201.698V221.676L120.147 221.623L139.103 221.566V201.621L156.451 201.583V221.513Z" fill="#171717"/>
        <path d="M175.345 181.63V197.038H120.147V160.073L139.103 160.068V181.675L158.027 181.651L175.345 181.63Z" fill="#A4A4A4"/>
        <path fill-rule="evenodd" clip-rule="evenodd" d="M230.27 179.907L211.469 179.929V223.002L230.27 222.944V179.907Z" fill="#171717"/>
        <path fill-rule="evenodd" clip-rule="evenodd" d="M230.27 179.907L211.469 179.929V196.538H230.27V179.907Z" fill="#A4A4A4"/>
        <path fill-rule="evenodd" clip-rule="evenodd" d="M239.658 270.897L258.411 270.798V227.816L239.658 227.878V270.897ZM222.44 234.559L203.626 234.628L154.875 234.805V254.736L203.626 254.514V312.519L154.875 312.867V332.797L203.626 332.407L222.44 332.255V292.514L239.658 292.406V272.552L222.44 272.643V234.559Z" fill="#171717"/>
        <path fill-rule="evenodd" clip-rule="evenodd" d="M311.371 128.639L255.288 128.574V69.0516L311.371 69.2667V128.639ZM330.005 51.212L238.094 50.7842V148.411L330.005 148.434V51.212Z" fill="#A4A4A4"/>
        <path fill-rule="evenodd" clip-rule="evenodd" d="M292.709 89.0503L274.014 88.9951V108.819L292.709 108.857V89.0503Z" fill="#A4A4A4"/>
        <path fill-rule="evenodd" clip-rule="evenodd" d="M63.0851 253.484L120.147 253.23V313.116L63.0851 313.524V253.484ZM45.5918 333.677L139.103 332.923V234.862L45.5918 235.203V333.677Z" fill="#171717"/>
        <path fill-rule="evenodd" clip-rule="evenodd" d="M82.1387 293.392L101.159 293.272V273.294L82.1387 273.395V293.392ZM162.753 272.963V292.888L181.636 292.769V272.862L162.753 272.963Z" fill="#171717"/>
        <path fill-rule="evenodd" clip-rule="evenodd" d="M120.147 128.467L63.0851 128.401V68.3623L120.147 68.581V128.467ZM139.103 50.3709L45.5918 49.9355V148.411L139.103 148.434V50.3709Z" fill="#A4A4A4"/>
        <path fill-rule="evenodd" clip-rule="evenodd" d="M305.121 15.5381V27.5381H347.121V69.5381H359.121V15.5381H305.121ZM69.1211 359.538V347.538H27.1211V305.538H15.1211V359.538H69.1211ZM347.121 305.538H359.121V359.538H305.121V347.538H347.121V305.538ZM15.1211 69.5381H27.1211V27.5381H69.1211V15.5381H15.1211V69.5381Z" fill="#A4A4A4"/>
        <path d="M24.1211 185.655H351.121V197.095H24.1211V185.655Z" fill="#E33F4E"/>
    </g>
    <defs>
        <clipPath id="clip0_122_22462">
            <rect width="375" height="375" fill="white" transform="translate(0.121094 0.538086)"/>
        </clipPath>
    </defs>
</svg>
