<svg width="375" height="375" viewBox="0 0 375 375" fill="none" xmlns="http://www.w3.org/2000/svg">
<path d="M0 0H375V375H0V0Z" fill="white"/>
<path fill-rule="evenodd" clip-rule="evenodd" d="M102.622 87.9541L83.604 87.8984V107.893L102.622 107.931V87.9541Z" fill="#808080"/>
<path fill-rule="evenodd" clip-rule="evenodd" d="M264.743 166L246 166.011V205.709L294.353 205.595V185.789L264.743 185.833V166Z" fill="#000105"/>
<path fill-rule="evenodd" clip-rule="evenodd" d="M264.743 166L246 166.011V196H294.353V185.789L264.743 185.833V166ZM212.916 137.975L194.086 137.962V157.857L212.916 157.853V137.975Z" fill="#808080"/>
<path fill-rule="evenodd" clip-rule="evenodd" d="M309.696 233.703L291.031 233.771V253.58L309.696 253.495V233.703ZM309.696 331.013L328.329 330.861V307.793L309.696 307.923V331.013Z" fill="#000105"/>
<path fill-rule="evenodd" clip-rule="evenodd" d="M170.503 126.327L151.602 126.304V146.238L170.503 146.244V126.327ZM102.622 179.518V159.54L83.604 159.546V179.54L102.622 179.518Z" fill="#808080"/>
<path fill-rule="evenodd" clip-rule="evenodd" d="M83.6042 221.196V201.201L64.5532 201.242V221.253L83.6042 221.196Z" fill="#000105"/>
<path fill-rule="evenodd" clip-rule="evenodd" d="M219.186 49.6569L170.503 49.4155V69.3321L219.186 69.53V49.6569ZM294.145 185.896L329.884 185.843V166.069L294.145 166.09V185.896Z" fill="#808080"/>
<path fill-rule="evenodd" clip-rule="evenodd" d="M273.893 288.35V331.302L292.588 331.15V308.043L309.696 307.923V288.131L273.893 288.35Z" fill="#000105"/>
<path fill-rule="evenodd" clip-rule="evenodd" d="M219.186 109.825V89.9524L170.503 89.8132V63.2571L151.602 63.1807V109.693L170.503 109.73L219.186 109.825Z" fill="#808080"/>
<path fill-rule="evenodd" clip-rule="evenodd" d="M156.33 220.975L175.224 220.917L194.086 220.86V200.964L175.224 201.005V181.092L157.906 181.113L138.982 181.137V159.53L120.026 159.535V201.123L102.622 201.16V221.138L120.026 221.085L138.982 221.028V201.083L156.33 201.045V220.975Z" fill="#000105"/>
<path d="M175.224 181.092V196.5H120.026V159.535L138.982 159.53V181.137L157.906 181.113L175.224 181.092Z" fill="#808080"/>
<path fill-rule="evenodd" clip-rule="evenodd" d="M230.149 179.369L211.348 179.391V222.464L230.149 222.406V179.369Z" fill="#000105"/>
<path fill-rule="evenodd" clip-rule="evenodd" d="M230.149 179.369L211.348 179.391V196H230.149V179.369Z" fill="#808080"/>
<path fill-rule="evenodd" clip-rule="evenodd" d="M239.537 270.359L258.29 270.26V227.278L239.537 227.34V270.359ZM222.319 234.021L203.505 234.09L154.754 234.267V254.198L203.505 253.976V311.981L154.754 312.329V332.259L203.505 331.869L222.319 331.717V291.976L239.537 291.868V272.014L222.319 272.105V234.021Z" fill="#000105"/>
<path fill-rule="evenodd" clip-rule="evenodd" d="M311.25 128.149L255.167 128.084V68.5613L311.25 68.7764V128.149ZM329.884 50.7217L237.973 50.2939V147.921L329.884 147.944V50.7217Z" fill="#808080"/>
<path fill-rule="evenodd" clip-rule="evenodd" d="M292.588 88.5122L273.893 88.457V108.281L292.588 108.319V88.5122Z" fill="#808080"/>
<path fill-rule="evenodd" clip-rule="evenodd" d="M62.964 252.946L120.026 252.692V312.578L62.964 312.986V252.946ZM45.4707 333.139L138.982 332.385V234.324L45.4707 234.665V333.139Z" fill="#000105"/>
<path fill-rule="evenodd" clip-rule="evenodd" d="M82.0176 292.854L101.038 292.734V272.756L82.0176 272.857V292.854ZM162.632 272.425V292.35L181.515 292.231V272.324L162.632 272.425Z" fill="#000105"/>
<path fill-rule="evenodd" clip-rule="evenodd" d="M120.026 127.929L62.964 127.863V67.8243L120.026 68.043V127.929ZM138.982 49.8329L45.4707 49.3975V147.873L138.982 147.896V49.8329Z" fill="#808080"/>
<path fill-rule="evenodd" clip-rule="evenodd" d="M305 15V27H347V69H359V15H305ZM69 359V347H27V305H15V359H69ZM347 305H359V359H305V347H347V305ZM15 69H27V27H69V15H15V69Z" fill="black"/>
<path d="M24 185.117H351V196.557H24V185.117Z" fill="#E33F4E"/>
</svg>
