<svg width="376" height="375" viewBox="0 0 376 375" fill="none" xmlns="http://www.w3.org/2000/svg">
<path fill-rule="evenodd" clip-rule="evenodd" d="M103.139 87.9541L84.1212 87.8984V107.893L103.139 107.931V87.9541Z" fill="#A4A4A4"/>
<path fill-rule="evenodd" clip-rule="evenodd" d="M265.26 166L246.517 166.011V205.709L294.87 205.595V185.789L265.26 185.833V166Z" fill="#171717"/>
<path fill-rule="evenodd" clip-rule="evenodd" d="M265.26 166L246.517 166.011V196H294.87V185.789L265.26 185.833V166ZM213.433 137.975L194.603 137.962V157.857L213.433 157.853V137.975Z" fill="#A4A4A4"/>
<path fill-rule="evenodd" clip-rule="evenodd" d="M310.213 233.703L291.548 233.771V253.58L310.213 253.495V233.703ZM310.213 331.013L328.846 330.861V307.793L310.213 307.923V331.013Z" fill="#171717"/>
<path fill-rule="evenodd" clip-rule="evenodd" d="M171.02 126.327L152.119 126.304V146.238L171.02 146.244V126.327ZM103.139 179.518V159.54L84.1212 159.546V179.54L103.139 179.518Z" fill="#A4A4A4"/>
<path fill-rule="evenodd" clip-rule="evenodd" d="M84.1213 221.196V201.201L65.0703 201.242V221.253L84.1213 221.196Z" fill="#171717"/>
<path fill-rule="evenodd" clip-rule="evenodd" d="M219.703 49.6569L171.02 49.4155V69.3321L219.703 69.53V49.6569ZM294.662 185.896L330.401 185.843V166.069L294.662 166.09V185.896Z" fill="#A4A4A4"/>
<path fill-rule="evenodd" clip-rule="evenodd" d="M274.41 288.35V331.302L293.105 331.15V308.043L310.213 307.923V288.131L274.41 288.35Z" fill="#171717"/>
<path fill-rule="evenodd" clip-rule="evenodd" d="M219.703 109.825V89.9524L171.02 89.8132V63.2571L152.119 63.1807V109.693L171.02 109.73L219.703 109.825Z" fill="#A4A4A4"/>
<path fill-rule="evenodd" clip-rule="evenodd" d="M156.847 220.975L175.741 220.917L194.603 220.86V200.964L175.741 201.005V181.092L158.423 181.113L139.499 181.137V159.53L120.543 159.535V201.123L103.139 201.16V221.138L120.543 221.085L139.499 221.028V201.083L156.847 201.045V220.975Z" fill="#171717"/>
<path d="M175.741 181.092V196.5H120.543V159.535L139.499 159.53V181.137L158.423 181.113L175.741 181.092Z" fill="#A4A4A4"/>
<path fill-rule="evenodd" clip-rule="evenodd" d="M230.666 179.369L211.865 179.391V222.464L230.666 222.406V179.369Z" fill="#171717"/>
<path fill-rule="evenodd" clip-rule="evenodd" d="M230.666 179.369L211.865 179.391V196H230.666V179.369Z" fill="#A4A4A4"/>
<path fill-rule="evenodd" clip-rule="evenodd" d="M240.054 270.359L258.807 270.26V227.278L240.054 227.34V270.359ZM222.836 234.021L204.022 234.09L155.271 234.267V254.198L204.022 253.976V311.981L155.271 312.329V332.259L204.022 331.869L222.836 331.717V291.976L240.054 291.868V272.014L222.836 272.105V234.021Z" fill="#171717"/>
<path fill-rule="evenodd" clip-rule="evenodd" d="M311.767 128.101L255.684 128.036V68.5135L311.767 68.7286V128.101ZM330.401 50.6739L238.49 50.2461V147.873L330.401 147.896V50.6739Z" fill="#A4A4A4"/>
<path fill-rule="evenodd" clip-rule="evenodd" d="M293.105 88.5122L274.41 88.457V108.281L293.105 108.319V88.5122Z" fill="#A4A4A4"/>
<path fill-rule="evenodd" clip-rule="evenodd" d="M63.4812 252.946L120.543 252.692V312.578L63.4812 312.986V252.946ZM45.9879 333.139L139.499 332.385V234.324L45.9879 234.665V333.139Z" fill="#171717"/>
<path fill-rule="evenodd" clip-rule="evenodd" d="M82.5348 292.854L101.555 292.734V272.756L82.5348 272.857V292.854ZM163.149 272.425V292.35L182.032 292.231V272.324L163.149 272.425Z" fill="#171717"/>
<path fill-rule="evenodd" clip-rule="evenodd" d="M120.543 127.929L63.4812 127.863V67.8243L120.543 68.043V127.929ZM139.499 49.8329L45.9879 49.3975V147.873L139.499 147.896V49.8329Z" fill="#A4A4A4"/>
<path fill-rule="evenodd" clip-rule="evenodd" d="M305.517 15V27H347.517V69H359.517V15H305.517ZM69.5172 359V347H27.5172V305H15.5172V359H69.5172ZM347.517 305H359.517V359H305.517V347H347.517V305ZM15.5172 69H27.5172V27H69.5172V15H15.5172V69Z" fill="#A4A4A4"/>
<path d="M24.5172 185.117H351.517V196.557H24.5172V185.117Z" fill="#E33F4E"/>
</svg>
