<svg width="286" height="235" viewBox="0 0 286 235" fill="none" xmlns="http://www.w3.org/2000/svg">
<path fill-rule="evenodd" clip-rule="evenodd" d="M141.518 68.855C169.132 68.8553 191.518 91.2409 191.518 118.855C191.518 146.469 169.132 168.855 141.518 168.855C130.534 168.855 120.377 165.313 112.127 159.309L82.7401 199.757C99.8249 212.17 120.4 218.855 141.518 218.855C196.747 218.855 241.518 174.083 241.518 118.855C241.518 63.6265 196.747 18.855 141.518 18.855V68.855Z" fill="#2B36B0"/>
<path fill-rule="evenodd" clip-rule="evenodd" d="M102.991 150.727C105.664 153.954 108.734 156.84 112.127 159.309L82.7401 199.757C75.9536 194.826 69.8144 189.061 64.4673 182.597L102.991 150.727Z" fill="#3A65E5"/>
<path fill-rule="evenodd" clip-rule="evenodd" d="M93.9521 102.529C92.3718 107.396 91.5177 112.59 91.5177 117.984C91.5177 130.097 95.8249 141.203 102.991 149.856L64.4673 181.726C42.6456 155.349 35.8339 119.641 46.4129 87.0823L93.9521 102.529Z" fill="#579BF9"/>
<path fill-rule="evenodd" clip-rule="evenodd" d="M141.518 68.855C141.518 68.855 141.518 68.855 141.518 68.855C119.297 68.855 100.462 83.3497 93.9521 103.4L46.4129 87.9533C59.8003 46.751 98.1959 18.855 141.518 18.855V68.855Z" fill="#4481F2"/>
</svg>
