<svg width="286" height="235" viewBox="0 0 286 235" fill="none" xmlns="http://www.w3.org/2000/svg">
<path d="M67.3121 29.2504H66.0543V31.8549H64.9469V29.2504H60.3395V28.519L64.7008 22.0522H66.0543V28.3412H67.3121V29.2504ZM64.9469 28.3412V24.1029C64.9469 23.8022 64.956 23.4649 64.9742 23.0912H64.9469C64.8831 23.2553 64.7578 23.5059 64.5709 23.8432L61.5563 28.3412H64.9469Z" fill="#DEDEDE"/>
<path d="M23.1393 140.493V139.283C23.8092 139.811 24.5657 140.076 25.4088 140.076C26.0924 140.076 26.637 139.905 27.0426 139.563C27.4527 139.221 27.6578 138.761 27.6578 138.182C27.6578 136.902 26.7486 136.261 24.9303 136.261H24.1168V135.311H24.8893C26.5071 135.311 27.316 134.709 27.316 133.506C27.316 132.394 26.6985 131.838 25.4635 131.838C24.7753 131.838 24.1259 132.073 23.5152 132.543V131.449C24.1442 131.075 24.887 130.888 25.7438 130.888C26.5686 130.888 27.2272 131.107 27.7193 131.544C28.2161 131.982 28.4645 132.543 28.4645 133.226C28.4645 134.516 27.8082 135.345 26.4957 135.714V135.742C27.2021 135.81 27.7626 136.058 28.1774 136.487C28.5966 136.911 28.8063 137.442 28.8063 138.08C28.8063 138.959 28.4895 139.67 27.8561 140.212C27.2272 140.75 26.3955 141.019 25.361 141.019C24.4313 141.019 23.6907 140.844 23.1393 140.493Z" fill="#DEDEDE"/>
<path d="M61.8064 210.855H55.9001V209.857L58.7575 206.993C59.4867 206.264 60.0062 205.657 60.3161 205.174C60.6306 204.687 60.7878 204.167 60.7878 203.616C60.7878 203.051 60.626 202.613 60.3025 202.303C59.9789 201.993 59.5186 201.838 58.9216 201.838C58.0466 201.838 57.2081 202.212 56.406 202.959V201.784C57.1716 201.187 58.0625 200.888 59.0788 200.888C59.9538 200.888 60.642 201.125 61.1433 201.599C61.6446 202.073 61.8952 202.709 61.8952 203.506C61.8952 204.135 61.7221 204.751 61.3757 205.352C61.0293 205.949 60.4073 206.692 59.5095 207.581L57.2468 209.816V209.843H61.8064V210.855Z" fill="#DEDEDE"/>
<path d="M258.991 124.855H253.447V123.871H255.662V116.255L253.392 116.932V115.866L256.783 114.834V123.871H258.991V124.855Z" fill="#DEDEDE"/>
<path fill-rule="evenodd" clip-rule="evenodd" d="M141.518 68.855C169.132 68.8553 191.518 91.2409 191.518 118.855C191.518 146.469 169.132 168.855 141.518 168.855C130.534 168.855 120.377 165.313 112.127 159.309L82.7401 199.757C99.8249 212.17 120.4 218.855 141.518 218.855C196.747 218.855 241.518 174.083 241.518 118.855C241.518 63.6265 196.747 18.855 141.518 18.855V68.855Z" fill="#2B36B0"/>
<path fill-rule="evenodd" clip-rule="evenodd" d="M102.991 150.727C105.664 153.954 108.734 156.84 112.127 159.309L82.7401 199.757C75.9536 194.826 69.8144 189.061 64.4673 182.597L102.991 150.727Z" fill="#3A65E5"/>
<path fill-rule="evenodd" clip-rule="evenodd" d="M93.9521 102.529C92.3718 107.396 91.5177 112.59 91.5177 117.984C91.5177 130.097 95.8249 141.203 102.991 149.856L64.4673 181.726C42.6456 155.349 35.8339 119.641 46.4129 87.0823L93.9521 102.529Z" fill="#579BF9"/>
<path fill-rule="evenodd" clip-rule="evenodd" d="M141.518 68.855C141.518 68.855 141.518 68.855 141.518 68.855C119.297 68.855 100.462 83.3497 93.9521 103.4L46.4129 87.9533C59.8003 46.751 98.1959 18.855 141.518 18.855V68.855Z" fill="#4481F2"/>
</svg>
