<svg width="285" height="234" fill="none" xmlns="http://www.w3.org/2000/svg">
    <path d="M141.001 118V18c55.229 0 100 44.772 100 100s-44.771 100-100 100a99.997 99.997 0 0 1-58.778-19.098L141 118z"
          fill="#03096C"/>
    <path d="M141.001 118l-58.778 80.902a100 100 0 0 1-18.273-17.16L141.001 118z" fill="#081CA9"/>
    <path d="M141.001 118L63.95 181.742a99.999 99.999 0 0 1-18.054-94.644L141 118z" fill="#264AE5"/>
    <path d="M141.001 118L45.896 87.098C59.283 45.896 97.679 18 141 18v100z" fill="#4D68F5"/>
    <circle cx="141" cy="117" r="50" fill="#fff"/>
</svg>
