<svg width="286" height="235" viewBox="0 0 286 235" fill="none" xmlns="http://www.w3.org/2000/svg">
<path d="M141.518 118.765V18.7646C196.747 18.7646 241.518 63.5361 241.518 118.765C241.518 173.993 196.747 218.765 141.518 218.765C120.4 218.765 99.8246 212.08 82.7399 199.667L141.518 118.765Z" fill="#2B36B0"/>
<path d="M141.518 118.765L82.7402 199.667C75.9537 194.736 69.8145 188.971 64.4674 182.507L141.518 118.765Z" fill="#3A65E5"/>
<path d="M141.518 118.765L64.4673 182.507C42.6456 156.13 35.8339 120.422 46.4129 87.8629L141.518 118.765Z" fill="#579BF9"/>
<path d="M141.518 118.765L46.4128 87.8629C59.8001 46.6606 98.1958 18.7646 141.518 18.7646V118.765Z" fill="#4481F2"/>
<path d="M67.3121 29.2912H66.0543V31.8957H64.9469V29.2912H60.3395V28.5598L64.7008 22.093H66.0543V28.382H67.3121V29.2912ZM64.9469 28.382V24.1437C64.9469 23.843 64.956 23.5057 64.9742 23.132H64.9469C64.8831 23.2961 64.7578 23.5467 64.5709 23.884L61.5563 28.382H64.9469Z" fill="white"/>
<path d="M23.1393 140.534V139.324C23.8092 139.852 24.5657 140.117 25.4088 140.117C26.0924 140.117 26.637 139.946 27.0426 139.604C27.4527 139.262 27.6578 138.802 27.6578 138.223C27.6578 136.943 26.7486 136.302 24.9303 136.302H24.1168V135.352H24.8893C26.5071 135.352 27.316 134.75 27.316 133.547C27.316 132.435 26.6985 131.879 25.4635 131.879C24.7753 131.879 24.1259 132.114 23.5152 132.584V131.49C24.1442 131.116 24.887 130.929 25.7438 130.929C26.5686 130.929 27.2272 131.148 27.7193 131.585C28.2161 132.023 28.4645 132.584 28.4645 133.267C28.4645 134.557 27.8082 135.386 26.4957 135.755V135.783C27.2021 135.851 27.7626 136.099 28.1774 136.528C28.5966 136.952 28.8063 137.483 28.8063 138.121C28.8063 139 28.4895 139.711 27.8561 140.253C27.2272 140.791 26.3955 141.06 25.361 141.06C24.4313 141.06 23.6907 140.885 23.1393 140.534Z" fill="white"/>
<path d="M61.8064 210.896H55.9001V209.898L58.7575 207.034C59.4867 206.305 60.0062 205.698 60.3161 205.215C60.6306 204.728 60.7878 204.208 60.7878 203.657C60.7878 203.092 60.626 202.654 60.3025 202.344C59.9789 202.034 59.5186 201.879 58.9216 201.879C58.0466 201.879 57.2081 202.253 56.406 203V201.825C57.1716 201.228 58.0625 200.929 59.0788 200.929C59.9538 200.929 60.642 201.166 61.1433 201.64C61.6446 202.114 61.8952 202.75 61.8952 203.547C61.8952 204.176 61.7221 204.792 61.3757 205.393C61.0293 205.99 60.4073 206.733 59.5095 207.622L57.2468 209.857V209.884H61.8064V210.896Z" fill="white"/>
<path d="M258.991 124.896H253.447V123.912H255.662V116.296L253.392 116.973V115.907L256.783 114.875V123.912H258.991V124.896Z" fill="white"/>
</svg>
