<svg width="285" height="234" viewBox="0 0 285 234" fill="none" xmlns="http://www.w3.org/2000/svg">
    <path d="M141.001 118V18C196.23 18 241.001 62.7715 241.001 118C241.001 173.228 196.23 218 141.001 218C119.883 218 99.3075 211.315 82.2228 198.902L141.001 118Z"
          fill="#03096C"/>
    <path d="M141.001 118L82.2228 198.902C75.4363 193.971 69.2971 188.206 63.95 181.742L141.001 118Z" fill="#081CA9"/>
    <path d="M141.001 118L63.95 181.742C42.1283 155.365 35.3167 119.657 45.8957 87.0983L141.001 118Z" fill="#264AE5"/>
    <path d="M141.001 118L45.8957 87.0983C59.2831 45.896 97.6787 18 141.001 18V118Z" fill="#4D68F5"/>
</svg>
