<svg width="285" height="234" viewBox="0 0 285 234" fill="none" xmlns="http://www.w3.org/2000/svg">
    <path d="M141.001 118V18C196.23 18 241.001 62.7715 241.001 118C241.001 173.228 196.23 218 141.001 218C119.883 218 99.3076 211.315 82.2228 198.902L141.001 118Z"
          fill="#03096C"/>
    <path d="M141.001 118L82.2228 198.902C75.4363 193.971 69.2971 188.206 63.95 181.742L141.001 118Z" fill="#081CA9"/>
    <path d="M141.001 118L63.95 181.742C42.1283 155.365 35.3167 119.657 45.8957 87.0983L141.001 118Z" fill="#264AE5"/>
    <path d="M141.001 118L45.8957 87.0983C59.2831 45.896 97.6787 18 141.001 18V118Z" fill="#4D68F5"/>
    <path d="M66.7949 28.3955H65.5371V31H64.4297V28.3955H59.8223V27.6641L64.1836 21.1973H65.5371V27.4863H66.7949V28.3955ZM64.4297 27.4863V23.248C64.4297 22.9473 64.4388 22.61 64.457 22.2363H64.4297C64.3659 22.4004 64.2406 22.651 64.0537 22.9883L61.0391 27.4863H64.4297Z"
          fill="black"/>
    <path d="M22.6221 139.638V138.428C23.292 138.956 24.0485 139.221 24.8916 139.221C25.5752 139.221 26.1198 139.05 26.5254 138.708C26.9355 138.366 27.1406 137.906 27.1406 137.327C27.1406 136.047 26.2314 135.406 24.4131 135.406H23.5996V134.456H24.3721C25.9899 134.456 26.7988 133.854 26.7988 132.651C26.7988 131.539 26.1813 130.983 24.9463 130.983C24.2581 130.983 23.6087 131.218 22.998 131.688V130.594C23.627 130.22 24.3698 130.033 25.2266 130.033C26.0514 130.033 26.71 130.252 27.2021 130.689C27.6989 131.127 27.9473 131.688 27.9473 132.371C27.9473 133.661 27.291 134.49 25.9785 134.859V134.887C26.6849 134.955 27.2454 135.203 27.6602 135.632C28.0794 136.056 28.2891 136.587 28.2891 137.225C28.2891 138.104 27.9723 138.815 27.3389 139.357C26.71 139.895 25.8783 140.164 24.8438 140.164C23.9141 140.164 23.1735 139.989 22.6221 139.638Z"
          fill="black"/>
    <path d="M61.2891 210H55.3828V209.002L58.2402 206.138C58.9694 205.409 59.4889 204.802 59.7988 204.319C60.1133 203.832 60.2705 203.312 60.2705 202.761C60.2705 202.196 60.1087 201.758 59.7852 201.448C59.4616 201.138 59.0013 200.983 58.4043 200.983C57.5293 200.983 56.6908 201.357 55.8887 202.104V200.929C56.6543 200.332 57.5452 200.033 58.5615 200.033C59.4365 200.033 60.1247 200.27 60.626 200.744C61.1273 201.218 61.3779 201.854 61.3779 202.651C61.3779 203.28 61.2048 203.896 60.8584 204.497C60.512 205.094 59.89 205.837 58.9922 206.726L56.7295 208.961V208.988H61.2891V210Z"
          fill="black"/>
    <path d="M258.474 124H252.93V123.016H255.145V115.4L252.875 116.077V115.011L256.266 113.979V123.016H258.474V124Z"
          fill="black"/>
</svg>
