<svg width="286" height="235" viewBox="0 0 286 235" fill="none" xmlns="http://www.w3.org/2000/svg">
<path d="M141.518 118.564V18.564C196.747 18.564 241.518 63.3355 241.518 118.564C241.518 173.792 196.747 218.564 141.518 218.564C120.4 218.564 99.8246 211.879 82.7399 199.466L141.518 118.564Z" fill="#2B36B0"/>
<path d="M141.518 118.564L82.7402 199.466C75.9537 194.535 69.8145 188.77 64.4674 182.306L141.518 118.564Z" fill="#3A65E5"/>
<path d="M141.518 118.564L64.4673 182.306C42.6456 155.929 35.8339 120.221 46.4129 87.6621L141.518 118.564Z" fill="#579BF9"/>
<path d="M141.518 118.564L46.4128 87.6623C59.8001 46.46 98.1958 18.564 141.518 18.564V118.564Z" fill="#4481F2"/>
</svg>
