<svg width="32" height="32" viewBox="0 0 32 32" fill="none" xmlns="http://www.w3.org/2000/svg">
    <path fill-rule="evenodd" clip-rule="evenodd" d="M18.2222 16.0003L26.5397 7.6828C27.1541 7.06838 27.1541 6.07524 26.5397 5.46082C25.9253 4.84639 24.9321 4.84639 24.3177 5.46082L16.0002 13.7783L7.68279 5.46082C7.06837 4.84639 6.07524 4.84639 5.46082 5.46082C4.84639 6.07524 4.84639 7.06838 5.46082 7.6828L13.7783 16.0003L5.46082 24.3178C4.84639 24.9323 4.84639 25.9254 5.46082 26.5398C5.76724 26.8463 6.16952 27.0003 6.5718 27.0003C6.97408 27.0003 7.37636 26.8463 7.68279 26.5398L16.0002 18.2223L24.3177 26.5398C24.6241 26.8463 25.0264 27.0003 25.4287 27.0003C25.831 27.0003 26.2333 26.8463 26.5397 26.5398C27.1541 25.9254 27.1541 24.9323 26.5397 24.3178L18.2222 16.0003Z" fill="white"/>
</svg>