<svg width="57" height="8" viewBox="0 0 57 8" fill="none" xmlns="http://www.w3.org/2000/svg">
<path d="M4.5 8C6.70914 8 8.5 6.20914 8.5 4C8.5 1.79086 6.70914 0 4.5 0C2.29086 0 0.5 1.79086 0.5 4C0.5 6.20914 2.29086 8 4.5 8Z" fill="#146FF4"/>
<path d="M16.5 8C18.7091 8 20.5 6.20914 20.5 4C20.5 1.79086 18.7091 0 16.5 0C14.2909 0 12.5 1.79086 12.5 4C12.5 6.20914 14.2909 8 16.5 8Z" fill="#D9DBDD"/>
<path d="M28.5 8C30.7091 8 32.5 6.20914 32.5 4C32.5 1.79086 30.7091 0 28.5 0C26.2909 0 24.5 1.79086 24.5 4C24.5 6.20914 26.2909 8 28.5 8Z" fill="#D9DBDD"/>
<path d="M40.5 8C42.7091 8 44.5 6.20914 44.5 4C44.5 1.79086 42.7091 0 40.5 0C38.2909 0 36.5 1.79086 36.5 4C36.5 6.20914 38.2909 8 40.5 8Z" fill="#D9DBDD"/>
<path d="M52.5 8C54.7091 8 56.5 6.20914 56.5 4C56.5 1.79086 54.7091 0 52.5 0C50.2909 0 48.5 1.79086 48.5 4C48.5 6.20914 50.2909 8 52.5 8Z" fill="#D9DBDD"/>
</svg>
