<svg width="375" height="211" viewBox="0 0 375 211" fill="none" xmlns="http://www.w3.org/2000/svg">
<rect width="375" height="211" fill="black"/>
<rect width="375" height="54" transform="translate(0 157)" fill="black"/>
<path d="M16 159V173L27 166L16 159Z" fill="white"/>
<path d="M49.334 166.717C49.334 168.205 49.0938 169.311 48.6133 170.033C48.1367 170.756 47.4062 171.117 46.4219 171.117C45.4688 171.117 44.7461 170.744 44.2539 169.998C43.7617 169.252 43.5156 168.158 43.5156 166.717C43.5156 165.205 43.7539 164.092 44.2305 163.377C44.7109 162.658 45.4414 162.299 46.4219 162.299C47.3789 162.299 48.1035 162.674 48.5957 163.424C49.0879 164.174 49.334 165.271 49.334 166.717ZM44.9102 166.717C44.9102 167.885 45.0293 168.719 45.2676 169.219C45.5098 169.719 45.8945 169.969 46.4219 169.969C46.9492 169.969 47.334 169.715 47.5762 169.207C47.8223 168.699 47.9453 167.869 47.9453 166.717C47.9453 165.568 47.8223 164.738 47.5762 164.227C47.334 163.711 46.9492 163.453 46.4219 163.453C45.8945 163.453 45.5098 163.705 45.2676 164.209C45.0293 164.713 44.9102 165.549 44.9102 166.717ZM50.6348 170.268C50.6348 169.982 50.709 169.764 50.8574 169.611C51.0059 169.459 51.2207 169.383 51.502 169.383C51.7871 169.383 52.0039 169.463 52.1523 169.623C52.3008 169.779 52.375 169.994 52.375 170.268C52.375 170.545 52.2988 170.766 52.1465 170.93C51.998 171.09 51.7832 171.17 51.502 171.17C51.2207 171.17 51.0059 171.09 50.8574 170.93C50.709 170.77 50.6348 170.549 50.6348 170.268ZM50.6348 165.264C50.6348 164.674 50.9238 164.379 51.502 164.379C51.7949 164.379 52.0137 164.457 52.1582 164.613C52.3027 164.77 52.375 164.986 52.375 165.264C52.375 165.541 52.2988 165.762 52.1465 165.926C51.998 166.086 51.7832 166.166 51.502 166.166C51.2207 166.166 51.0059 166.086 50.8574 165.926C50.709 165.766 50.6348 165.545 50.6348 165.264ZM57.7305 171H56.3535V165.469C56.3535 164.809 56.3691 164.285 56.4004 163.898C56.3105 163.992 56.1992 164.096 56.0664 164.209C55.9375 164.322 55.5 164.682 54.7539 165.287L54.0625 164.414L56.582 162.434H57.7305V171ZM66.3496 166.717C66.3496 168.205 66.1094 169.311 65.6289 170.033C65.1523 170.756 64.4219 171.117 63.4375 171.117C62.4844 171.117 61.7617 170.744 61.2695 169.998C60.7773 169.252 60.5312 168.158 60.5312 166.717C60.5312 165.205 60.7695 164.092 61.2461 163.377C61.7266 162.658 62.457 162.299 63.4375 162.299C64.3945 162.299 65.1191 162.674 65.6113 163.424C66.1035 164.174 66.3496 165.271 66.3496 166.717ZM61.9258 166.717C61.9258 167.885 62.0449 168.719 62.2832 169.219C62.5254 169.719 62.9102 169.969 63.4375 169.969C63.9648 169.969 64.3496 169.715 64.5918 169.207C64.8379 168.699 64.9609 167.869 64.9609 166.717C64.9609 165.568 64.8379 164.738 64.5918 164.227C64.3496 163.711 63.9648 163.453 63.4375 163.453C62.9102 163.453 62.5254 163.705 62.2832 164.209C62.0449 164.713 61.9258 165.549 61.9258 166.717ZM71.4531 162.434L68.2656 171H66.9648L70.1582 162.434H71.4531ZM81.0098 166.717C81.0098 168.205 80.7695 169.311 80.2891 170.033C79.8125 170.756 79.082 171.117 78.0977 171.117C77.1445 171.117 76.4219 170.744 75.9297 169.998C75.4375 169.252 75.1914 168.158 75.1914 166.717C75.1914 165.205 75.4297 164.092 75.9062 163.377C76.3867 162.658 77.1172 162.299 78.0977 162.299C79.0547 162.299 79.7793 162.674 80.2715 163.424C80.7637 164.174 81.0098 165.271 81.0098 166.717ZM76.5859 166.717C76.5859 167.885 76.7051 168.719 76.9434 169.219C77.1855 169.719 77.5703 169.969 78.0977 169.969C78.625 169.969 79.0098 169.715 79.252 169.207C79.498 168.699 79.6211 167.869 79.6211 166.717C79.6211 165.568 79.498 164.738 79.252 164.227C79.0098 163.711 78.625 163.453 78.0977 163.453C77.5703 163.453 77.1855 163.705 76.9434 164.209C76.7051 164.713 76.5859 165.549 76.5859 166.717ZM87.8652 171H82.0586V169.957L84.2676 167.736C84.9199 167.068 85.3516 166.596 85.5625 166.318C85.7773 166.037 85.9336 165.773 86.0312 165.527C86.1289 165.281 86.1777 165.018 86.1777 164.736C86.1777 164.35 86.0605 164.045 85.8262 163.822C85.5957 163.6 85.2754 163.488 84.8652 163.488C84.5371 163.488 84.2188 163.549 83.9102 163.67C83.6055 163.791 83.252 164.01 82.8496 164.326L82.1055 163.418C82.582 163.016 83.0449 162.73 83.4941 162.562C83.9434 162.395 84.4219 162.311 84.9297 162.311C85.7266 162.311 86.3652 162.52 86.8457 162.938C87.3262 163.352 87.5664 163.91 87.5664 164.613C87.5664 165 87.4961 165.367 87.3555 165.715C87.2188 166.062 87.0059 166.422 86.7168 166.793C86.4316 167.16 85.9551 167.658 85.2871 168.287L83.7988 169.729V169.787H87.8652V171ZM89.166 170.268C89.166 169.982 89.2402 169.764 89.3887 169.611C89.5371 169.459 89.752 169.383 90.0332 169.383C90.3184 169.383 90.5352 169.463 90.6836 169.623C90.832 169.779 90.9062 169.994 90.9062 170.268C90.9062 170.545 90.8301 170.766 90.6777 170.93C90.5293 171.09 90.3145 171.17 90.0332 171.17C89.752 171.17 89.5371 171.09 89.3887 170.93C89.2402 170.77 89.166 170.549 89.166 170.268ZM89.166 165.264C89.166 164.674 89.4551 164.379 90.0332 164.379C90.3262 164.379 90.5449 164.457 90.6895 164.613C90.834 164.77 90.9062 164.986 90.9062 165.264C90.9062 165.541 90.8301 165.762 90.6777 165.926C90.5293 166.086 90.3145 166.166 90.0332 166.166C89.752 166.166 89.5371 166.086 89.3887 165.926C89.2402 165.766 89.166 165.545 89.166 165.264ZM98.0254 166.717C98.0254 168.205 97.7852 169.311 97.3047 170.033C96.8281 170.756 96.0977 171.117 95.1133 171.117C94.1602 171.117 93.4375 170.744 92.9453 169.998C92.4531 169.252 92.207 168.158 92.207 166.717C92.207 165.205 92.4453 164.092 92.9219 163.377C93.4023 162.658 94.1328 162.299 95.1133 162.299C96.0703 162.299 96.7949 162.674 97.2871 163.424C97.7793 164.174 98.0254 165.271 98.0254 166.717ZM93.6016 166.717C93.6016 167.885 93.7207 168.719 93.959 169.219C94.2012 169.719 94.5859 169.969 95.1133 169.969C95.6406 169.969 96.0254 169.715 96.2676 169.207C96.5137 168.699 96.6367 167.869 96.6367 166.717C96.6367 165.568 96.5137 164.738 96.2676 164.227C96.0254 163.711 95.6406 163.453 95.1133 163.453C94.5859 163.453 94.2012 163.705 93.959 164.209C93.7207 164.713 93.6016 165.549 93.6016 166.717ZM104.881 166.717C104.881 168.205 104.641 169.311 104.16 170.033C103.684 170.756 102.953 171.117 101.969 171.117C101.016 171.117 100.293 170.744 99.8008 169.998C99.3086 169.252 99.0625 168.158 99.0625 166.717C99.0625 165.205 99.3008 164.092 99.7773 163.377C100.258 162.658 100.988 162.299 101.969 162.299C102.926 162.299 103.65 162.674 104.143 163.424C104.635 164.174 104.881 165.271 104.881 166.717ZM100.457 166.717C100.457 167.885 100.576 168.719 100.814 169.219C101.057 169.719 101.441 169.969 101.969 169.969C102.496 169.969 102.881 169.715 103.123 169.207C103.369 168.699 103.492 167.869 103.492 166.717C103.492 165.568 103.369 164.738 103.123 164.227C102.881 163.711 102.496 163.453 101.969 163.453C101.441 163.453 101.057 163.705 100.814 164.209C100.576 164.713 100.457 165.549 100.457 166.717Z" fill="#E4E0E0"/>
<path d="M299 166C299 164.451 298.108 163.121 296.812 162.474V169.518C298.108 168.879 299 167.549 299 166ZM287.188 163.375V168.625H290.688L295.062 173V159L290.688 163.375H287.188Z" fill="white"/>
<path d="M317 168H315V173H320V171H317V168ZM315 164H317V161H320V159H315V164ZM327 171H324V173H329V168H327V171ZM324 159V161H327V164H329V159H324Z" fill="white"/>
<circle cx="352" cy="161" r="2" fill="white"/>
<circle cx="352" cy="166" r="2" fill="white"/>
<circle cx="352" cy="171" r="2" fill="white"/>
<rect width="32" height="4" transform="translate(16 191)" fill="white"/>
<g opacity="0.6">
<rect width="30" height="4" transform="translate(48 191)" fill="#989898"/>
</g>
<g opacity="0.3">
<rect width="281" height="4" transform="translate(78 191)" fill="#989898"/>
</g>
<path d="M164 106C164 92.7452 174.745 82 188 82V82C201.255 82 212 92.7452 212 106V106C212 119.255 201.255 130 188 130V130C174.745 130 164 119.255 164 106V106Z" fill="#373737"/>
<path d="M180 94V118L198.857 106L180 94Z" fill="white"/>
</svg>
