<svg width="289" height="225" viewBox="0 0 289 225" fill="none" xmlns="http://www.w3.org/2000/svg">
<line x1="1" y1="0.5" x2="288" y2="0.5" stroke="#646464"/>
<line x1="1" y1="26.7144" x2="288" y2="26.7144" stroke="#646464"/>
<line x1="1" y1="52.9285" x2="288" y2="52.9285" stroke="#646464"/>
<line x1="1" y1="79.1428" x2="288" y2="79.1428" stroke="#646464"/>
<line x1="1" y1="105.357" x2="288" y2="105.357" stroke="#646464"/>
<line x1="1" y1="131.572" x2="288" y2="131.572" stroke="#646464"/>
<line x1="1" y1="157.786" x2="288" y2="157.786" stroke="#646464"/>
<line x1="1" y1="184" x2="288" y2="184" stroke="#646464"/>
<line x1="0.5" y1="184.5" x2="0.5" stroke="#646464"/>
<line x1="287.5" y1="184.5" x2="287.5" stroke="#646464"/>
<g clip-path="url(#clip0_121_5289)">
<path fill-rule="evenodd" clip-rule="evenodd" d="M283.075 193.68L277.424 194.762L272.202 196.192L266.749 197.432L261.928 199.22L256.459 200.436L251.494 202.055L245.326 202.453L239.52 203.332L234.435 205.144L228.59 205.933L223.053 207.121L217.312 208.05L212.251 209.867H208.791L206.077 210.17L200.258 210.573L194.687 211.385L188.858 211.629L183.142 212.133L183.127 212.135L177.86 213.645L172.083 213.966L166.277 214.262L160.66 214.897H154.009L153.986 214.895L147.711 216.062L140.914 215.422L140.882 215.419L134.773 217.153L128.107 216.94L128.096 216.94L121.638 217.546L115.243 218.12L108.67 218.218L102.204 218.654L95.8098 219.381L89.2266 219.036L82.6757 218.926L82.6553 218.926L76.3626 220.335L69.8265 219.942L63.2933 219.512L56.7664 219.39L50.3056 219.842L43.8011 219.752L37.3485 220.566L30.8293 219.604L24.3584 220.273L1 224H24.3584H288V192L283.075 193.68Z" fill="#FFDA70"/>
<path fill-rule="evenodd" clip-rule="evenodd" d="M283.075 201.843L277.424 202.634L272.202 203.679L266.749 204.585L261.928 205.891L256.459 206.78L251.494 207.963L245.326 208.254L239.52 208.897L234.435 210.221L228.59 210.797L223.053 211.666L217.312 212.345L212.251 213.672H208.791L206.077 213.894L200.258 214.188L194.687 214.782L188.858 214.96L183.142 215.328L183.127 215.329L177.86 216.433L172.083 216.668L166.277 216.884L160.66 217.348H154.009L153.986 217.347L147.711 218.199L140.914 217.732L140.882 217.729L134.773 218.997L128.107 218.841L128.096 218.841L121.638 219.284L115.243 219.703L108.67 219.774L102.204 220.093L95.8098 220.625L89.2266 220.373L82.6757 220.292L82.6554 220.292L76.3626 221.322L69.8265 221.035L63.2933 220.72L56.7664 220.631L50.3056 220.961L43.8011 220.896L37.3485 221.491L30.8293 220.788L24.3584 221.277L1 224H24.3584H288V200.615L283.075 201.843Z" fill="#2DBAFC"/>
<path fill-rule="evenodd" clip-rule="evenodd" d="M282.077 208.295L276.143 208.969L270.329 211.636H263.549L257.755 212.77L251.605 213.627L245.216 214.83L238.724 215.473L232.753 216.829L225.051 217.661L219.318 218.159L212.68 217.765L206.327 218.756L199.766 218.759L199.746 218.758L193.456 219.556L186.912 219.927L179.773 221.168L174.008 221.168L167.449 220.872L161.049 221.168L154.53 221.822L148.127 221.82L141.577 221.635L135.045 221.168L128.655 222.5L122.157 222.024L122.143 222.023L115.77 222.847L109.247 223.255L102.823 223.044L96.3398 223.063L93.7848 223.011L89.2161 223.539L84.3298 223.292L76.9163 222.957L70.492 223.539L67.957 223.231L60.9882 223.413L57.3853 223.34L51.0779 223.245L44.5535 222.832L39.3084 223.063L31.6097 222.947L25.2137 222.732L1 224H25.1627H288V206.769L282.077 208.295Z" fill="#344BCE"/>
<rect opacity="0.85" x="1" y="192" width="71.75" height="32" fill="#4F4F4F" stroke="#646464"/>
<rect opacity="0.85" x="216.642" y="192" width="71.75" height="32" fill="#4F4F4F" stroke="#646464"/>
<rect x="214" y="202" width="6" height="12" rx="3" fill="white"/>
<rect x="70" y="202" width="6" height="12" rx="3" fill="white"/>
</g>
<rect x="1" y="192" width="287" height="32" stroke="#646464"/>
<g clip-path="url(#clip1_121_5289)">
<path fill-rule="evenodd" clip-rule="evenodd" d="M417.731 -76.1134L403.653 -66.8493L390.643 -54.602L377.057 -43.9927L365.046 -28.6808L351.422 -18.2693L339.052 -4.40657L323.687 -0.99752L309.223 6.5308L296.554 22.0448L281.992 28.8031L268.199 38.9756L253.895 46.9322L241.286 62.4831H232.666L225.906 65.0835L211.41 68.533L197.531 75.4876L183.008 77.573L168.77 81.8906L168.732 81.902L155.609 94.8392L141.218 97.5833L126.754 100.119L112.76 105.556H96.1899L96.1325 105.54L80.5004 115.527L63.5655 110.05L63.4872 110.026L48.2673 124.874L31.6603 123.048L31.6331 123.045L15.5446 128.241L-0.386886 133.155L-16.7617 133.988L-32.8719 137.726L-48.8013 143.952L-65.202 140.996L-81.5223 140.055L-81.5729 140.052L-97.2501 152.121L-113.533 148.755L-129.809 145.068L-146.07 144.028L-162.166 147.893L-178.37 147.13L-194.445 154.098L-210.687 145.862L-226.808 151.592L-285 183.5H-226.807H430V-90.5L417.731 -76.1134Z" fill="#FFDA70"/>
<path fill-rule="evenodd" clip-rule="evenodd" d="M417.731 -5.99886L403.653 0.763304L390.643 9.70292L377.057 17.4469L365.046 28.6235L351.422 36.2231L339.052 46.3419L323.687 48.8303L309.223 54.3254L296.554 65.6495L281.992 70.5825L268.199 78.0077L253.895 83.8155L241.286 95.1665H232.666L225.906 97.0646L211.41 99.5824L197.531 104.659L183.008 106.181L168.77 109.333L168.732 109.341L155.609 118.784L141.218 120.787L126.754 122.638L112.76 126.607H96.19L96.1325 126.595L80.5004 133.884L63.5655 129.887L63.4872 129.869L48.2673 140.707L31.6603 139.374L31.6331 139.372L15.5446 143.165L-0.38687 146.752L-16.7617 147.36L-32.8719 150.088L-48.8013 154.633L-65.202 152.475L-81.5223 151.788L-81.5729 151.786L-97.2501 160.596L-113.533 158.139L-129.809 155.448L-146.07 154.688L-162.165 157.51L-178.37 156.952L-194.445 162.039L-210.687 156.027L-226.808 160.209L-285 183.5H-226.807H430V-16.5L417.731 -5.99886Z" fill="#579BF9"/>
<path fill-rule="evenodd" clip-rule="evenodd" d="M415.245 48.6032L400.461 54.3975L385.977 77.3029H369.085L354.651 87.0426L339.33 94.4026L323.413 104.733L307.239 110.255L292.363 121.908L273.176 129.051L258.893 133.326L242.357 129.943L226.529 138.456L210.183 138.484L210.133 138.477L194.465 145.329L178.161 148.52L160.374 159.174L146.014 159.172L129.672 156.628L113.727 159.174L97.4869 164.794L81.5352 164.779L65.2181 163.186L48.9437 159.174L33.0252 170.617L16.8365 166.527L16.8013 166.518L0.925997 173.6L-15.325 177.101L-31.3296 175.291L-47.481 175.456L-53.8462 175.004L-65.2281 179.54L-77.4013 177.417L-95.8706 174.541L-111.875 179.54L-118.191 176.891L-135.552 178.46L-144.528 177.827L-160.242 177.015L-176.496 173.471L-189.563 175.456L-208.742 174.457L-224.677 172.61L-285 183.5H-224.804H430V35.5L415.245 48.6032Z" fill="#344BCE"/>
</g>
<defs>
<clipPath id="clip0_121_5289">
<rect x="1" y="192" width="287" height="32" fill="white"/>
</clipPath>
<clipPath id="clip1_121_5289">
<rect width="286" height="162" fill="white" transform="translate(1 21.5)"/>
</clipPath>
</defs>
</svg>
