<svg width="721" height="442" viewBox="0 0 721 442" fill="none" xmlns="http://www.w3.org/2000/svg">
<line x1="1" y1="0.5" x2="721" y2="0.5" stroke="#D9DBDD"/>
<line x1="1" y1="63.4286" x2="721" y2="63.4286" stroke="#D9DBDD"/>
<line x1="1" y1="126.357" x2="721" y2="126.357" stroke="#D9DBDD"/>
<line x1="1" y1="189.286" x2="721" y2="189.286" stroke="#D9DBDD"/>
<line x1="1" y1="252.214" x2="721" y2="252.214" stroke="#D9DBDD"/>
<line x1="1" y1="315.143" x2="721" y2="315.143" stroke="#D9DBDD"/>
<line x1="1" y1="378.071" x2="721" y2="378.071" stroke="#D9DBDD"/>
<line x1="1" y1="441" x2="721" y2="441" stroke="#D9DBDD"/>
<line x1="0.5" y1="441.5" x2="0.5" stroke="#D9DBDD"/>
<line x1="720.5" y1="441.5" x2="720.5" stroke="#D9DBDD"/>
<g clip-path="url(#clip0_222_8878)">
<path fill-rule="evenodd" clip-rule="evenodd" d="M1050.11 -67.2069L1014.67 -49.0718L981.919 -25.0971L947.718 -4.32891L917.48 25.645L883.181 46.0259L852.041 73.163L813.36 79.8364L776.945 94.5735L745.051 124.943L708.393 138.173L673.67 158.086L637.658 173.661L605.916 204.103H584.216L567.197 209.193L530.703 215.946L495.764 229.56L459.201 233.642L423.357 242.094L423.262 242.117L390.226 267.442L353.995 272.814L317.583 277.777L282.353 288.421H240.639L240.494 288.389L201.141 307.939L158.508 297.219L158.31 297.17L119.995 326.236L78.1868 322.662L78.1183 322.656L37.6158 332.827L-2.49142 342.448L-43.7147 344.077L-84.2718 351.395L-124.374 363.582L-165.662 357.797L-206.748 355.953L-206.876 355.948L-246.343 379.574L-287.336 372.985L-328.31 365.768L-369.246 363.731L-409.766 371.298L-450.561 369.803L-491.03 383.444L-531.917 367.321L-572.501 378.537L-719 441H-572.501H1081V-95.3694L1050.11 -67.2069Z" fill="#F2B42A"/>
<path fill-rule="evenodd" clip-rule="evenodd" d="M1050.11 70.046L1014.67 83.2833L981.919 100.783L947.718 115.942L917.48 137.821L883.181 152.698L852.041 172.506L813.36 177.377L776.945 188.134L745.051 210.301L708.393 219.958L673.67 234.493L637.658 245.862L605.916 268.082H584.216L567.197 271.798L530.703 276.727L495.764 286.664L459.201 289.644L423.357 295.813L423.262 295.83L390.226 314.315L353.995 318.236L317.583 321.859L282.353 329.629H240.639L240.495 329.605L201.141 343.875L158.508 336.05L158.31 336.015L119.995 357.231L78.1868 354.622L78.1183 354.618L37.6158 362.041L-2.49142 369.064L-43.7147 370.253L-84.2718 375.595L-124.374 384.491L-165.662 380.268L-206.748 378.922L-206.876 378.918L-246.343 396.163L-287.336 391.354L-328.311 386.086L-369.246 384.599L-409.766 390.123L-450.561 389.032L-491.03 398.988L-531.917 387.22L-572.501 395.407L-719 441H-572.501H1081V49.4895L1050.11 70.046Z" fill="#2DBAFC"/>
<path fill-rule="evenodd" clip-rule="evenodd" d="M1043.85 176.932L1006.64 188.275L970.173 233.114H927.648L891.31 252.18L852.739 266.587L812.668 286.81L771.951 297.62L734.502 320.43L686.197 334.414L650.241 342.782L608.613 336.159L568.764 352.824L527.613 352.879L527.488 352.866L488.044 366.278L447 372.524L402.222 393.38L366.07 393.376L324.93 388.397L284.789 393.38L243.904 404.381L203.746 404.352L162.668 401.234L121.697 393.38L81.6228 415.78L40.8681 407.775L40.7795 407.757L0.813652 421.62L-40.0979 428.473L-80.3893 424.931L-121.05 425.253L-137.074 424.369L-165.728 433.248L-196.374 429.092L-242.87 423.462L-283.162 433.248L-299.061 428.063L-342.767 431.134L-365.364 429.896L-404.923 428.305L-445.842 421.367L-478.738 425.253L-527.023 423.297L-567.137 419.682L-719 441H-567.457H1081V151.282L1043.85 176.932Z" fill="#264AE5"/>
</g>
<defs>
<clipPath id="clip0_222_8878">
<rect width="720" height="317.124" fill="white" transform="translate(1 123.877)"/>
</clipPath>
</defs>
</svg>
