<svg width="288" height="225" viewBox="0 0 288 225" fill="none" xmlns="http://www.w3.org/2000/svg">
<line x1="1" y1="0.5" x2="288" y2="0.5" stroke="#646464"/>
<line x1="1" y1="32.4285" x2="288" y2="32.4285" stroke="#646464"/>
<line x1="1" y1="64.3572" x2="288" y2="64.3572" stroke="#646464"/>
<line x1="1" y1="96.2856" x2="288" y2="96.2856" stroke="#646464"/>
<line x1="1" y1="128.214" x2="288" y2="128.214" stroke="#646464"/>
<line x1="1" y1="160.143" x2="288" y2="160.143" stroke="#646464"/>
<line x1="1" y1="192.072" x2="288" y2="192.072" stroke="#646464"/>
<line x1="1" y1="224" x2="288" y2="224" stroke="#646464"/>
<line x1="0.5" y1="224.5" x2="0.5" stroke="#646464"/>
<line x1="287.5" y1="224.5" x2="287.5" stroke="#646464"/>
<g clip-path="url(#clip0_121_5244)">
<path fill-rule="evenodd" clip-rule="evenodd" d="M417.731 -35.6134L403.653 -26.3493L390.643 -14.102L377.057 -3.49272L365.046 11.8192L351.422 22.2307L339.052 36.0934L323.687 39.5025L309.223 47.0308L296.554 62.5448L281.992 69.3031L268.199 79.4756L253.895 87.4322L241.286 102.983H232.666L225.906 105.583L211.41 109.033L197.531 115.988L183.008 118.073L168.77 122.391L168.732 122.402L155.609 135.339L141.218 138.083L126.754 140.619L112.76 146.056H96.1899L96.1325 146.04L80.5004 156.027L63.5655 150.55L63.4872 150.526L48.2673 165.374L31.6603 163.548L31.6331 163.545L15.5446 168.741L-0.386871 173.655L-16.7617 174.488L-32.8719 178.226L-48.8013 184.452L-65.202 181.496L-81.5223 180.555L-81.5729 180.552L-97.2501 192.621L-113.533 189.255L-129.809 185.568L-146.07 184.528L-162.166 188.393L-178.37 187.63L-194.445 194.598L-210.687 186.362L-226.808 192.092L-285 224H-226.807H430V-50L417.731 -35.6134Z" fill="#FFDA70"/>
<path fill-rule="evenodd" clip-rule="evenodd" d="M417.731 34.5011L403.653 41.2633L390.643 50.2029L377.057 57.9469L365.046 69.1235L351.422 76.7231L339.052 86.8419L323.687 89.3303L309.223 94.8254L296.554 106.149L281.992 111.083L268.199 118.508L253.895 124.315L241.286 135.666H232.666L225.906 137.565L211.41 140.082L197.531 145.159L183.008 146.681L168.77 149.833L168.732 149.841L155.609 159.284L141.218 161.287L126.754 163.138L112.76 167.107H96.1899L96.1325 167.095L80.5004 174.384L63.5655 170.387L63.4872 170.369L48.2673 181.207L31.6603 179.874L31.6331 179.872L15.5446 183.665L-0.386871 187.252L-16.7617 187.86L-32.8719 190.588L-48.8013 195.133L-65.202 192.975L-81.5223 192.288L-81.5729 192.286L-97.2501 201.096L-113.533 198.639L-129.809 195.948L-146.07 195.188L-162.165 198.01L-178.37 197.452L-194.445 202.539L-210.687 196.527L-226.808 200.709L-285 224H-226.807H430V24L417.731 34.5011Z" fill="#579BF9"/>
<path fill-rule="evenodd" clip-rule="evenodd" d="M415.245 89.1032L400.461 94.8975L385.977 117.803H369.085L354.651 127.543L339.33 134.903L323.413 145.233L307.239 150.755L292.363 162.408L273.176 169.551L258.893 173.826L242.357 170.443L226.529 178.956L210.183 178.984L210.133 178.977L194.465 185.829L178.161 189.02L160.374 199.674L146.014 199.672L129.672 197.128L113.727 199.674L97.4869 205.294L81.5352 205.279L65.2181 203.686L48.9438 199.674L33.0252 211.117L16.8365 207.027L16.8013 207.018L0.925995 214.1L-15.325 217.601L-31.3296 215.791L-47.481 215.956L-53.8462 215.504L-65.2281 220.04L-77.4013 217.917L-95.8706 215.041L-111.875 220.04L-118.191 217.391L-135.552 218.96L-144.528 218.327L-160.242 217.515L-176.496 213.971L-189.563 215.956L-208.742 214.957L-224.677 213.11L-285 224H-224.804H430V76L415.245 89.1032Z" fill="#344BCE"/>
</g>
<defs>
<clipPath id="clip0_121_5244">
<rect width="286" height="162" fill="white" transform="translate(1 62)"/>
</clipPath>
</defs>
</svg>
