<svg width="86" height="232" viewBox="0 0 86 232" fill="none" xmlns="http://www.w3.org/2000/svg">
<rect x="9.3291" y="8.5" width="15" height="15" fill="#344BCE" stroke="#344BCE"/>
<path d="M33.5381 20.6602V19.5C33.6709 19.6172 33.8291 19.7227 34.0127 19.8164C34.2002 19.9102 34.3955 19.9902 34.5986 20.0566C34.8057 20.1191 35.0127 20.168 35.2197 20.2031C35.4268 20.2383 35.6182 20.2559 35.7939 20.2559C36.3994 20.2559 36.8506 20.1445 37.1475 19.9219C37.4482 19.6953 37.5986 19.3711 37.5986 18.9492C37.5986 18.7227 37.5479 18.5254 37.4463 18.3574C37.3486 18.1895 37.2119 18.0371 37.0361 17.9004C36.8604 17.7598 36.6514 17.627 36.4092 17.502C36.1709 17.373 35.9131 17.2383 35.6357 17.0977C35.3428 16.9492 35.0693 16.7988 34.8154 16.6465C34.5615 16.4941 34.3408 16.3262 34.1533 16.1426C33.9658 15.959 33.8174 15.752 33.708 15.5215C33.6025 15.2871 33.5498 15.0137 33.5498 14.7012C33.5498 14.3184 33.6338 13.9863 33.8018 13.7051C33.9697 13.4199 34.1904 13.1855 34.4639 13.002C34.7373 12.8184 35.0479 12.6816 35.3955 12.5918C35.7471 12.502 36.1045 12.457 36.4678 12.457C37.2959 12.457 37.8994 12.5566 38.2783 12.7559V13.8633C37.7822 13.5195 37.1455 13.3477 36.3682 13.3477C36.1533 13.3477 35.9385 13.3711 35.7236 13.418C35.5088 13.4609 35.3174 13.5332 35.1494 13.6348C34.9814 13.7363 34.8447 13.8672 34.7393 14.0273C34.6338 14.1875 34.5811 14.3828 34.5811 14.6133C34.5811 14.8281 34.6201 15.0137 34.6982 15.1699C34.7803 15.3262 34.8994 15.4688 35.0557 15.5977C35.2119 15.7266 35.4014 15.8516 35.624 15.9727C35.8506 16.0938 36.1104 16.2266 36.4033 16.3711C36.7041 16.5195 36.9893 16.6758 37.2588 16.8398C37.5283 17.0039 37.7646 17.1855 37.9678 17.3848C38.1709 17.584 38.3311 17.8047 38.4482 18.0469C38.5693 18.2891 38.6299 18.5664 38.6299 18.8789C38.6299 19.293 38.5479 19.6445 38.3838 19.9336C38.2236 20.2188 38.0049 20.4512 37.7275 20.6309C37.4541 20.8105 37.1377 20.9395 36.7783 21.0176C36.4189 21.0996 36.04 21.1406 35.6416 21.1406C35.5088 21.1406 35.3447 21.1289 35.1494 21.1055C34.9541 21.0859 34.7549 21.0547 34.5518 21.0117C34.3486 20.9727 34.1553 20.9238 33.9717 20.8652C33.792 20.8027 33.6475 20.7344 33.5381 20.6602ZM44.999 18.2402H40.7627C40.7783 18.9082 40.958 19.4238 41.3018 19.7871C41.6455 20.1504 42.1182 20.332 42.7197 20.332C43.3955 20.332 44.0166 20.1094 44.583 19.6641V20.5664C44.0557 20.9492 43.3584 21.1406 42.4912 21.1406C41.6436 21.1406 40.9775 20.8691 40.4932 20.3262C40.0088 19.7793 39.7666 19.0117 39.7666 18.0234C39.7666 17.0898 40.0303 16.3301 40.5576 15.7441C41.0889 15.1543 41.7471 14.8594 42.5322 14.8594C43.3174 14.8594 43.9248 15.1133 44.3545 15.6211C44.7842 16.1289 44.999 16.834 44.999 17.7363V18.2402ZM44.0146 17.4258C44.0107 16.8711 43.876 16.4395 43.6104 16.1309C43.3486 15.8223 42.9834 15.668 42.5146 15.668C42.0615 15.668 41.6768 15.8301 41.3604 16.1543C41.0439 16.4785 40.8486 16.9023 40.7744 17.4258H44.0146ZM49.5869 15.9727C49.4189 15.8438 49.1768 15.7793 48.8604 15.7793C48.4502 15.7793 48.1064 15.9727 47.8291 16.3594C47.5557 16.7461 47.4189 17.2734 47.4189 17.9414V21H46.458V15H47.4189V16.2363H47.4424C47.5791 15.8145 47.7881 15.4863 48.0693 15.252C48.3506 15.0137 48.665 14.8945 49.0127 14.8945C49.2627 14.8945 49.4541 14.9219 49.5869 14.9766V15.9727ZM51.1221 13.4766C50.9502 13.4766 50.8037 13.418 50.6826 13.3008C50.5615 13.1836 50.501 13.0352 50.501 12.8555C50.501 12.6758 50.5615 12.5273 50.6826 12.4102C50.8037 12.2891 50.9502 12.2285 51.1221 12.2285C51.2979 12.2285 51.4463 12.2891 51.5674 12.4102C51.6924 12.5273 51.7549 12.6758 51.7549 12.8555C51.7549 13.0273 51.6924 13.1738 51.5674 13.2949C51.4463 13.416 51.2979 13.4766 51.1221 13.4766ZM51.5908 21H50.6299V15H51.5908V21ZM58.3584 18.2402H54.1221C54.1377 18.9082 54.3174 19.4238 54.6611 19.7871C55.0049 20.1504 55.4775 20.332 56.0791 20.332C56.7549 20.332 57.376 20.1094 57.9424 19.6641V20.5664C57.415 20.9492 56.7178 21.1406 55.8506 21.1406C55.0029 21.1406 54.3369 20.8691 53.8525 20.3262C53.3682 19.7793 53.126 19.0117 53.126 18.0234C53.126 17.0898 53.3896 16.3301 53.917 15.7441C54.4482 15.1543 55.1064 14.8594 55.8916 14.8594C56.6768 14.8594 57.2842 15.1133 57.7139 15.6211C58.1436 16.1289 58.3584 16.834 58.3584 17.7363V18.2402ZM57.374 17.4258C57.3701 16.8711 57.2354 16.4395 56.9697 16.1309C56.708 15.8223 56.3428 15.668 55.874 15.668C55.4209 15.668 55.0361 15.8301 54.7197 16.1543C54.4033 16.4785 54.208 16.9023 54.1338 17.4258H57.374ZM59.4541 20.7832V19.752C59.9775 20.1387 60.5537 20.332 61.1826 20.332C62.0264 20.332 62.4482 20.0508 62.4482 19.4883C62.4482 19.3281 62.4111 19.1934 62.3369 19.084C62.2666 18.9707 62.1689 18.8711 62.0439 18.7852C61.9229 18.6992 61.7783 18.623 61.6104 18.5566C61.4463 18.4863 61.2686 18.4141 61.0771 18.3398C60.8115 18.2344 60.5771 18.1289 60.374 18.0234C60.1748 17.9141 60.0068 17.793 59.8701 17.6602C59.7373 17.5234 59.6357 17.3691 59.5654 17.1973C59.499 17.0254 59.4658 16.8242 59.4658 16.5938C59.4658 16.3125 59.5303 16.0645 59.6592 15.8496C59.7881 15.6309 59.96 15.4492 60.1748 15.3047C60.3896 15.1562 60.6338 15.0449 60.9072 14.9707C61.1846 14.8965 61.4697 14.8594 61.7627 14.8594C62.2822 14.8594 62.7471 14.9492 63.1572 15.1289V16.1016C62.7158 15.8125 62.208 15.668 61.6338 15.668C61.4541 15.668 61.292 15.6895 61.1475 15.7324C61.0029 15.7715 60.8779 15.8281 60.7725 15.9023C60.6709 15.9766 60.5908 16.0664 60.5322 16.1719C60.4775 16.2734 60.4502 16.3867 60.4502 16.5117C60.4502 16.668 60.4775 16.7988 60.5322 16.9043C60.5908 17.0098 60.6748 17.1035 60.7842 17.1855C60.8936 17.2676 61.0264 17.3418 61.1826 17.4082C61.3389 17.4746 61.5166 17.5469 61.7158 17.625C61.9814 17.7266 62.2197 17.832 62.4307 17.9414C62.6416 18.0469 62.8213 18.168 62.9697 18.3047C63.1182 18.4375 63.2314 18.5918 63.3096 18.7676C63.3916 18.9434 63.4326 19.1523 63.4326 19.3945C63.4326 19.6914 63.3662 19.9492 63.2334 20.168C63.1045 20.3867 62.9307 20.5684 62.7119 20.7129C62.4932 20.8574 62.2412 20.9648 61.9561 21.0352C61.6709 21.1055 61.3721 21.1406 61.0596 21.1406C60.4424 21.1406 59.9072 21.0215 59.4541 20.7832ZM71.4775 21H70.5166V13.7402C70.4424 13.8145 70.333 13.9004 70.1885 13.998C70.0479 14.0918 69.8877 14.1855 69.708 14.2793C69.5322 14.373 69.3447 14.4609 69.1455 14.543C68.9502 14.625 68.7588 14.6895 68.5713 14.7363V13.7637C68.7822 13.7051 69.0049 13.627 69.2393 13.5293C69.4775 13.4277 69.71 13.3164 69.9365 13.1953C70.167 13.0703 70.3838 12.9414 70.5869 12.8086C70.79 12.6719 70.9658 12.5391 71.1143 12.4102H71.4775V21Z" fill="#A4A4A4"/>
<rect x="8.8291" y="32" width="16" height="16" fill="#579BF9"/>
<path d="M33.5381 44.6602V43.5C33.6709 43.6172 33.8291 43.7227 34.0127 43.8164C34.2002 43.9102 34.3955 43.9902 34.5986 44.0566C34.8057 44.1191 35.0127 44.168 35.2197 44.2031C35.4268 44.2383 35.6182 44.2559 35.7939 44.2559C36.3994 44.2559 36.8506 44.1445 37.1475 43.9219C37.4482 43.6953 37.5986 43.3711 37.5986 42.9492C37.5986 42.7227 37.5479 42.5254 37.4463 42.3574C37.3486 42.1895 37.2119 42.0371 37.0361 41.9004C36.8604 41.7598 36.6514 41.627 36.4092 41.502C36.1709 41.373 35.9131 41.2383 35.6357 41.0977C35.3428 40.9492 35.0693 40.7988 34.8154 40.6465C34.5615 40.4941 34.3408 40.3262 34.1533 40.1426C33.9658 39.959 33.8174 39.752 33.708 39.5215C33.6025 39.2871 33.5498 39.0137 33.5498 38.7012C33.5498 38.3184 33.6338 37.9863 33.8018 37.7051C33.9697 37.4199 34.1904 37.1855 34.4639 37.002C34.7373 36.8184 35.0479 36.6816 35.3955 36.5918C35.7471 36.502 36.1045 36.457 36.4678 36.457C37.2959 36.457 37.8994 36.5566 38.2783 36.7559V37.8633C37.7822 37.5195 37.1455 37.3477 36.3682 37.3477C36.1533 37.3477 35.9385 37.3711 35.7236 37.418C35.5088 37.4609 35.3174 37.5332 35.1494 37.6348C34.9814 37.7363 34.8447 37.8672 34.7393 38.0273C34.6338 38.1875 34.5811 38.3828 34.5811 38.6133C34.5811 38.8281 34.6201 39.0137 34.6982 39.1699C34.7803 39.3262 34.8994 39.4688 35.0557 39.5977C35.2119 39.7266 35.4014 39.8516 35.624 39.9727C35.8506 40.0938 36.1104 40.2266 36.4033 40.3711C36.7041 40.5195 36.9893 40.6758 37.2588 40.8398C37.5283 41.0039 37.7646 41.1855 37.9678 41.3848C38.1709 41.584 38.3311 41.8047 38.4482 42.0469C38.5693 42.2891 38.6299 42.5664 38.6299 42.8789C38.6299 43.293 38.5479 43.6445 38.3838 43.9336C38.2236 44.2188 38.0049 44.4512 37.7275 44.6309C37.4541 44.8105 37.1377 44.9395 36.7783 45.0176C36.4189 45.0996 36.04 45.1406 35.6416 45.1406C35.5088 45.1406 35.3447 45.1289 35.1494 45.1055C34.9541 45.0859 34.7549 45.0547 34.5518 45.0117C34.3486 44.9727 34.1553 44.9238 33.9717 44.8652C33.792 44.8027 33.6475 44.7344 33.5381 44.6602ZM44.999 42.2402H40.7627C40.7783 42.9082 40.958 43.4238 41.3018 43.7871C41.6455 44.1504 42.1182 44.332 42.7197 44.332C43.3955 44.332 44.0166 44.1094 44.583 43.6641V44.5664C44.0557 44.9492 43.3584 45.1406 42.4912 45.1406C41.6436 45.1406 40.9775 44.8691 40.4932 44.3262C40.0088 43.7793 39.7666 43.0117 39.7666 42.0234C39.7666 41.0898 40.0303 40.3301 40.5576 39.7441C41.0889 39.1543 41.7471 38.8594 42.5322 38.8594C43.3174 38.8594 43.9248 39.1133 44.3545 39.6211C44.7842 40.1289 44.999 40.834 44.999 41.7363V42.2402ZM44.0146 41.4258C44.0107 40.8711 43.876 40.4395 43.6104 40.1309C43.3486 39.8223 42.9834 39.668 42.5146 39.668C42.0615 39.668 41.6768 39.8301 41.3604 40.1543C41.0439 40.4785 40.8486 40.9023 40.7744 41.4258H44.0146ZM49.5869 39.9727C49.4189 39.8438 49.1768 39.7793 48.8604 39.7793C48.4502 39.7793 48.1064 39.9727 47.8291 40.3594C47.5557 40.7461 47.4189 41.2734 47.4189 41.9414V45H46.458V39H47.4189V40.2363H47.4424C47.5791 39.8145 47.7881 39.4863 48.0693 39.252C48.3506 39.0137 48.665 38.8945 49.0127 38.8945C49.2627 38.8945 49.4541 38.9219 49.5869 38.9766V39.9727ZM51.1221 37.4766C50.9502 37.4766 50.8037 37.418 50.6826 37.3008C50.5615 37.1836 50.501 37.0352 50.501 36.8555C50.501 36.6758 50.5615 36.5273 50.6826 36.4102C50.8037 36.2891 50.9502 36.2285 51.1221 36.2285C51.2979 36.2285 51.4463 36.2891 51.5674 36.4102C51.6924 36.5273 51.7549 36.6758 51.7549 36.8555C51.7549 37.0273 51.6924 37.1738 51.5674 37.2949C51.4463 37.416 51.2979 37.4766 51.1221 37.4766ZM51.5908 45H50.6299V39H51.5908V45ZM58.3584 42.2402H54.1221C54.1377 42.9082 54.3174 43.4238 54.6611 43.7871C55.0049 44.1504 55.4775 44.332 56.0791 44.332C56.7549 44.332 57.376 44.1094 57.9424 43.6641V44.5664C57.415 44.9492 56.7178 45.1406 55.8506 45.1406C55.0029 45.1406 54.3369 44.8691 53.8525 44.3262C53.3682 43.7793 53.126 43.0117 53.126 42.0234C53.126 41.0898 53.3896 40.3301 53.917 39.7441C54.4482 39.1543 55.1064 38.8594 55.8916 38.8594C56.6768 38.8594 57.2842 39.1133 57.7139 39.6211C58.1436 40.1289 58.3584 40.834 58.3584 41.7363V42.2402ZM57.374 41.4258C57.3701 40.8711 57.2354 40.4395 56.9697 40.1309C56.708 39.8223 56.3428 39.668 55.874 39.668C55.4209 39.668 55.0361 39.8301 54.7197 40.1543C54.4033 40.4785 54.208 40.9023 54.1338 41.4258H57.374ZM59.4541 44.7832V43.752C59.9775 44.1387 60.5537 44.332 61.1826 44.332C62.0264 44.332 62.4482 44.0508 62.4482 43.4883C62.4482 43.3281 62.4111 43.1934 62.3369 43.084C62.2666 42.9707 62.1689 42.8711 62.0439 42.7852C61.9229 42.6992 61.7783 42.623 61.6104 42.5566C61.4463 42.4863 61.2686 42.4141 61.0771 42.3398C60.8115 42.2344 60.5771 42.1289 60.374 42.0234C60.1748 41.9141 60.0068 41.793 59.8701 41.6602C59.7373 41.5234 59.6357 41.3691 59.5654 41.1973C59.499 41.0254 59.4658 40.8242 59.4658 40.5938C59.4658 40.3125 59.5303 40.0645 59.6592 39.8496C59.7881 39.6309 59.96 39.4492 60.1748 39.3047C60.3896 39.1562 60.6338 39.0449 60.9072 38.9707C61.1846 38.8965 61.4697 38.8594 61.7627 38.8594C62.2822 38.8594 62.7471 38.9492 63.1572 39.1289V40.1016C62.7158 39.8125 62.208 39.668 61.6338 39.668C61.4541 39.668 61.292 39.6895 61.1475 39.7324C61.0029 39.7715 60.8779 39.8281 60.7725 39.9023C60.6709 39.9766 60.5908 40.0664 60.5322 40.1719C60.4775 40.2734 60.4502 40.3867 60.4502 40.5117C60.4502 40.668 60.4775 40.7988 60.5322 40.9043C60.5908 41.0098 60.6748 41.1035 60.7842 41.1855C60.8936 41.2676 61.0264 41.3418 61.1826 41.4082C61.3389 41.4746 61.5166 41.5469 61.7158 41.625C61.9814 41.7266 62.2197 41.832 62.4307 41.9414C62.6416 42.0469 62.8213 42.168 62.9697 42.3047C63.1182 42.4375 63.2314 42.5918 63.3096 42.7676C63.3916 42.9434 63.4326 43.1523 63.4326 43.3945C63.4326 43.6914 63.3662 43.9492 63.2334 44.168C63.1045 44.3867 62.9307 44.5684 62.7119 44.7129C62.4932 44.8574 62.2412 44.9648 61.9561 45.0352C61.6709 45.1055 61.3721 45.1406 61.0596 45.1406C60.4424 45.1406 59.9072 45.0215 59.4541 44.7832ZM71.7588 38.8008C71.7588 38.543 71.7178 38.3184 71.6357 38.127C71.5576 37.9355 71.4482 37.7773 71.3076 37.6523C71.1709 37.5234 71.0088 37.4277 70.8213 37.3652C70.6338 37.3027 70.4307 37.2715 70.2119 37.2715C70.0244 37.2715 69.8408 37.2969 69.6611 37.3477C69.4814 37.3984 69.3057 37.4688 69.1338 37.5586C68.9658 37.6484 68.8018 37.7559 68.6416 37.8809C68.4854 38.0059 68.3389 38.1445 68.2021 38.2969V37.2656C68.4717 37.0039 68.7725 36.8047 69.1045 36.668C69.4404 36.5273 69.8486 36.457 70.3291 36.457C70.6729 36.457 70.9912 36.5078 71.2842 36.6094C71.5771 36.707 71.8311 36.8516 72.0459 37.043C72.2607 37.2344 72.4287 37.4707 72.5498 37.752C72.6748 38.0332 72.7373 38.3555 72.7373 38.7188C72.7373 39.0508 72.6982 39.3516 72.6201 39.6211C72.5459 39.8906 72.4307 40.1445 72.2744 40.3828C72.1221 40.6211 71.9287 40.8496 71.6943 41.0684C71.46 41.2871 71.1846 41.5098 70.8682 41.7363C70.4736 42.0176 70.1475 42.2578 69.8896 42.457C69.6357 42.6562 69.4326 42.8438 69.2803 43.0195C69.1318 43.1914 69.0264 43.3652 68.9639 43.541C68.9053 43.7129 68.876 43.9121 68.876 44.1387H73.0596V45H67.874V44.584C67.874 44.2246 67.9131 43.9082 67.9912 43.6348C68.0693 43.3613 68.1982 43.1016 68.3779 42.8555C68.5576 42.6094 68.792 42.3633 69.0811 42.1172C69.374 41.8711 69.7314 41.5938 70.1533 41.2852C70.458 41.0664 70.7119 40.8574 70.915 40.6582C71.1221 40.459 71.2881 40.2598 71.4131 40.0605C71.5381 39.8613 71.626 39.6602 71.6768 39.457C71.7314 39.25 71.7588 39.0312 71.7588 38.8008Z" fill="#A4A4A4"/>
<rect x="8.8291" y="56" width="16" height="16" fill="#FFDA70"/>
<path d="M33.5381 68.6602V67.5C33.6709 67.6172 33.8291 67.7227 34.0127 67.8164C34.2002 67.9102 34.3955 67.9902 34.5986 68.0566C34.8057 68.1191 35.0127 68.168 35.2197 68.2031C35.4268 68.2383 35.6182 68.2559 35.7939 68.2559C36.3994 68.2559 36.8506 68.1445 37.1475 67.9219C37.4482 67.6953 37.5986 67.3711 37.5986 66.9492C37.5986 66.7227 37.5479 66.5254 37.4463 66.3574C37.3486 66.1895 37.2119 66.0371 37.0361 65.9004C36.8604 65.7598 36.6514 65.627 36.4092 65.502C36.1709 65.373 35.9131 65.2383 35.6357 65.0977C35.3428 64.9492 35.0693 64.7988 34.8154 64.6465C34.5615 64.4941 34.3408 64.3262 34.1533 64.1426C33.9658 63.959 33.8174 63.752 33.708 63.5215C33.6025 63.2871 33.5498 63.0137 33.5498 62.7012C33.5498 62.3184 33.6338 61.9863 33.8018 61.7051C33.9697 61.4199 34.1904 61.1855 34.4639 61.002C34.7373 60.8184 35.0479 60.6816 35.3955 60.5918C35.7471 60.502 36.1045 60.457 36.4678 60.457C37.2959 60.457 37.8994 60.5566 38.2783 60.7559V61.8633C37.7822 61.5195 37.1455 61.3477 36.3682 61.3477C36.1533 61.3477 35.9385 61.3711 35.7236 61.418C35.5088 61.4609 35.3174 61.5332 35.1494 61.6348C34.9814 61.7363 34.8447 61.8672 34.7393 62.0273C34.6338 62.1875 34.5811 62.3828 34.5811 62.6133C34.5811 62.8281 34.6201 63.0137 34.6982 63.1699C34.7803 63.3262 34.8994 63.4688 35.0557 63.5977C35.2119 63.7266 35.4014 63.8516 35.624 63.9727C35.8506 64.0938 36.1104 64.2266 36.4033 64.3711C36.7041 64.5195 36.9893 64.6758 37.2588 64.8398C37.5283 65.0039 37.7646 65.1855 37.9678 65.3848C38.1709 65.584 38.3311 65.8047 38.4482 66.0469C38.5693 66.2891 38.6299 66.5664 38.6299 66.8789C38.6299 67.293 38.5479 67.6445 38.3838 67.9336C38.2236 68.2188 38.0049 68.4512 37.7275 68.6309C37.4541 68.8105 37.1377 68.9395 36.7783 69.0176C36.4189 69.0996 36.04 69.1406 35.6416 69.1406C35.5088 69.1406 35.3447 69.1289 35.1494 69.1055C34.9541 69.0859 34.7549 69.0547 34.5518 69.0117C34.3486 68.9727 34.1553 68.9238 33.9717 68.8652C33.792 68.8027 33.6475 68.7344 33.5381 68.6602ZM44.999 66.2402H40.7627C40.7783 66.9082 40.958 67.4238 41.3018 67.7871C41.6455 68.1504 42.1182 68.332 42.7197 68.332C43.3955 68.332 44.0166 68.1094 44.583 67.6641V68.5664C44.0557 68.9492 43.3584 69.1406 42.4912 69.1406C41.6436 69.1406 40.9775 68.8691 40.4932 68.3262C40.0088 67.7793 39.7666 67.0117 39.7666 66.0234C39.7666 65.0898 40.0303 64.3301 40.5576 63.7441C41.0889 63.1543 41.7471 62.8594 42.5322 62.8594C43.3174 62.8594 43.9248 63.1133 44.3545 63.6211C44.7842 64.1289 44.999 64.834 44.999 65.7363V66.2402ZM44.0146 65.4258C44.0107 64.8711 43.876 64.4395 43.6104 64.1309C43.3486 63.8223 42.9834 63.668 42.5146 63.668C42.0615 63.668 41.6768 63.8301 41.3604 64.1543C41.0439 64.4785 40.8486 64.9023 40.7744 65.4258H44.0146ZM49.5869 63.9727C49.4189 63.8438 49.1768 63.7793 48.8604 63.7793C48.4502 63.7793 48.1064 63.9727 47.8291 64.3594C47.5557 64.7461 47.4189 65.2734 47.4189 65.9414V69H46.458V63H47.4189V64.2363H47.4424C47.5791 63.8145 47.7881 63.4863 48.0693 63.252C48.3506 63.0137 48.665 62.8945 49.0127 62.8945C49.2627 62.8945 49.4541 62.9219 49.5869 62.9766V63.9727ZM51.1221 61.4766C50.9502 61.4766 50.8037 61.418 50.6826 61.3008C50.5615 61.1836 50.501 61.0352 50.501 60.8555C50.501 60.6758 50.5615 60.5273 50.6826 60.4102C50.8037 60.2891 50.9502 60.2285 51.1221 60.2285C51.2979 60.2285 51.4463 60.2891 51.5674 60.4102C51.6924 60.5273 51.7549 60.6758 51.7549 60.8555C51.7549 61.0273 51.6924 61.1738 51.5674 61.2949C51.4463 61.416 51.2979 61.4766 51.1221 61.4766ZM51.5908 69H50.6299V63H51.5908V69ZM58.3584 66.2402H54.1221C54.1377 66.9082 54.3174 67.4238 54.6611 67.7871C55.0049 68.1504 55.4775 68.332 56.0791 68.332C56.7549 68.332 57.376 68.1094 57.9424 67.6641V68.5664C57.415 68.9492 56.7178 69.1406 55.8506 69.1406C55.0029 69.1406 54.3369 68.8691 53.8525 68.3262C53.3682 67.7793 53.126 67.0117 53.126 66.0234C53.126 65.0898 53.3896 64.3301 53.917 63.7441C54.4482 63.1543 55.1064 62.8594 55.8916 62.8594C56.6768 62.8594 57.2842 63.1133 57.7139 63.6211C58.1436 64.1289 58.3584 64.834 58.3584 65.7363V66.2402ZM57.374 65.4258C57.3701 64.8711 57.2354 64.4395 56.9697 64.1309C56.708 63.8223 56.3428 63.668 55.874 63.668C55.4209 63.668 55.0361 63.8301 54.7197 64.1543C54.4033 64.4785 54.208 64.9023 54.1338 65.4258H57.374ZM59.4541 68.7832V67.752C59.9775 68.1387 60.5537 68.332 61.1826 68.332C62.0264 68.332 62.4482 68.0508 62.4482 67.4883C62.4482 67.3281 62.4111 67.1934 62.3369 67.084C62.2666 66.9707 62.1689 66.8711 62.0439 66.7852C61.9229 66.6992 61.7783 66.623 61.6104 66.5566C61.4463 66.4863 61.2686 66.4141 61.0771 66.3398C60.8115 66.2344 60.5771 66.1289 60.374 66.0234C60.1748 65.9141 60.0068 65.793 59.8701 65.6602C59.7373 65.5234 59.6357 65.3691 59.5654 65.1973C59.499 65.0254 59.4658 64.8242 59.4658 64.5938C59.4658 64.3125 59.5303 64.0645 59.6592 63.8496C59.7881 63.6309 59.96 63.4492 60.1748 63.3047C60.3896 63.1562 60.6338 63.0449 60.9072 62.9707C61.1846 62.8965 61.4697 62.8594 61.7627 62.8594C62.2822 62.8594 62.7471 62.9492 63.1572 63.1289V64.1016C62.7158 63.8125 62.208 63.668 61.6338 63.668C61.4541 63.668 61.292 63.6895 61.1475 63.7324C61.0029 63.7715 60.8779 63.8281 60.7725 63.9023C60.6709 63.9766 60.5908 64.0664 60.5322 64.1719C60.4775 64.2734 60.4502 64.3867 60.4502 64.5117C60.4502 64.668 60.4775 64.7988 60.5322 64.9043C60.5908 65.0098 60.6748 65.1035 60.7842 65.1855C60.8936 65.2676 61.0264 65.3418 61.1826 65.4082C61.3389 65.4746 61.5166 65.5469 61.7158 65.625C61.9814 65.7266 62.2197 65.832 62.4307 65.9414C62.6416 66.0469 62.8213 66.168 62.9697 66.3047C63.1182 66.4375 63.2314 66.5918 63.3096 66.7676C63.3916 66.9434 63.4326 67.1523 63.4326 67.3945C63.4326 67.6914 63.3662 67.9492 63.2334 68.168C63.1045 68.3867 62.9307 68.5684 62.7119 68.7129C62.4932 68.8574 62.2412 68.9648 61.9561 69.0352C61.6709 69.1055 61.3721 69.1406 61.0596 69.1406C60.4424 69.1406 59.9072 69.0215 59.4541 68.7832ZM72.8193 66.6211C72.8193 67 72.7471 67.3457 72.6025 67.6582C72.4619 67.9668 72.2607 68.2324 71.999 68.4551C71.7412 68.6738 71.4307 68.8438 71.0674 68.9648C70.7041 69.0859 70.3037 69.1465 69.8662 69.1465C69.0654 69.1465 68.4287 68.9941 67.9561 68.6895V67.6582C68.5225 68.1035 69.1709 68.3262 69.9014 68.3262C70.1943 68.3262 70.458 68.2891 70.6924 68.2148C70.9307 68.1406 71.1338 68.0332 71.3018 67.8926C71.4736 67.752 71.6045 67.582 71.6943 67.3828C71.7881 67.1836 71.835 66.959 71.835 66.709C71.835 65.6113 71.0537 65.0625 69.4912 65.0625H68.7939V64.248H69.4561C70.8389 64.248 71.5303 63.7324 71.5303 62.7012C71.5303 61.748 71.0029 61.2715 69.9482 61.2715C69.3545 61.2715 68.7979 61.4707 68.2783 61.8691V60.9375C68.8135 60.6172 69.4502 60.457 70.1885 60.457C70.54 60.457 70.8584 60.5059 71.1436 60.6035C71.4287 60.7012 71.6729 60.8379 71.876 61.0137C72.0791 61.1895 72.2354 61.4004 72.3447 61.6465C72.458 61.8926 72.5146 62.1641 72.5146 62.4609C72.5146 63.5664 71.9561 64.2773 70.8389 64.5938V64.6172C71.124 64.6484 71.3877 64.7188 71.6299 64.8281C71.8721 64.9336 72.0811 65.0723 72.2568 65.2441C72.4326 65.416 72.5693 65.6191 72.667 65.8535C72.7686 66.084 72.8193 66.3398 72.8193 66.6211Z" fill="#A4A4A4"/>
</svg>
