<svg id="Layer_1" data-name="Layer 1" xmlns="http://www.w3.org/2000/svg" viewBox="0 0 500 500"><defs><clipPath id="clip-path"><path class="cls-1" d="M2546.81 5031.5h68.81v17.5h139.81v18.63L2594.87 5232l-23-1.58c-9.94-1-24.89-10.32-25.07-20.33z"/></clipPath><clipPath id="clip-path-2"><path class="cls-1" d="M2554.45 5039.16h49.15v17.53h143.09v18.62l-144.18 146.79-23-1.58c-9.93-1-24.88-10.32-25.07-20.33z"/></clipPath><clipPath id="clip-path-3"><path class="cls-1" d="M2755.46 5231.87l-169.42-1.1 13.1-23-1.09-134.77h191.15v125a33.79 33.79 0 01-33.74 33.84"/></clipPath><style>.cls-1{fill:none;clip-rule:evenodd}.cls-7{fill:#065dba}</style></defs><path d="M262.33 109.34c-25.35-4.17-45.1-6.15-60.74-6.15-67.33 0-58.5 36.66-93.1 92.57-40.4 65.24-35.76 153.6 37.06 170.61 46.52 10.86 117.38 24.74 175.89 24.74 47 0 86.1-9 98.16-35.65 36.72-81.26-48.6-228.22-157.27-246.12z" fill="#e8f8fe"/><path fill="#fff" d="M171.5 149h190.64v190.64H171.5z"/><path fill="#d5fae9" d="M218 299.52l21-33.68 29 31.8L294 249l24 52.39V307H213.33l4.67-7.48z"/><path d="M321.33 279.46c-2.81-7.3-17.59-45.76-20.52-52.6-.72-1.66-1.17-3.64-1.94-5.57a4.33 4.33 0 00-7.95-.18v.09c-.91 2-1.31 3.74-2.23 5.74s-2 3.24-3 5.52c-1.28 2.78-2 5.36-3 7.89-5.08 12.31-11.28 24.57-14.76 32.67l-2.12 5.39-23.35-28.3-1.14-1.22-.25-.27a3.07 3.07 0 00-4.34-.14 2.82 2.82 0 00-.62.81l-5.71 10.88c-6.3 10.48-14.25 21.14-20.1 31.47-1.08 1.82-2.13 3.61-3.15 5.35-1.28 2.75-2.09 5-3.28 6.94l-1 1.69 5.9 3.54c2.37-3.92 4.69-8 7.22-11.91l1.1-1.52c1.14-1.63 1.65-3.72 2.79-5.34a103.35 103.35 0 006.69-11.07c1.43-2.74 10.12-17.84 12.86-22.61v-.07l3.9 4.32 4.94 7 12.59 15.26c1.28 1.36 2.48 2.59 3.42 3.53l.37.37a3.16 3.16 0 004.48 0 3.33 3.33 0 00.73-1.12c1.09-2.89 2-5.27 3-7.68 2.67-6.13 5.23-11.92 7.17-17.54a48.89 48.89 0 014-8.24c.88-1.46 1.85-3.23 2.66-4.66l7.9-17.14L307.78 264l4.35 9.46L314 279c3.24 7.32 6.27 14.72 9.17 20.7 2.72 5.6 14.16 19.77-1.84-20.24z" fill="#66da55"/><path d="M352.24 303.25l-5.07-.59a70.32 70.32 0 00-14.35.63c-4.23-.4-20.5.65-25.53.71l-6.73-.81-20 .22a70.76 70.76 0 00-13 .86l-.78.05-.78-.05a70.76 70.76 0 00-13-.86l-20-.22-6.73.81c-5-.06-21.31-1.11-25.53-.71a70.46 70.46 0 00-14.36-.63l-5.07.59c-3.31.15-6.65.05-9.9.07v6.87h1.38a42.3 42.3 0 015.44.77l16.75.18 5-.56c4.93-.1 10 1.14 14.69.78 5-.39 9.8-.53 14.88-.49 3.78 0 7.57 0 11.69.06a22.52 22.52 0 018.37-.11 27.85 27.85 0 016.43-1c2.36.31 3.88.89 5.85.62 1.1-.15 3.68.78 4.8.69 1.13.09 3.7-.84 4.8-.69 2 .27 3.49-.31 5.86-.62a27.77 27.77 0 016.42 1 22.52 22.52 0 018.37.11c4.12 0 7.91 0 11.7-.06 5.07 0 9.89.1 14.88.49 4.68.36 9.75-.88 14.68-.78l5.05.56 16.74-.18a42.3 42.3 0 015.44-.77h1.38v-6.87c-3.12-.02-6.46.08-9.77-.07z" fill="#ffad80"/><path class="cls-7" d="M365.05 241.49c0-8.89-.19-59.09-.25-74.94 0-5.72-.08-11.39-.12-16.55a2.51 2.51 0 00-2.54-2.49l-27 .28-24.21-.49-56.29-.07c-14.21.23-25.45.54-37.4.58-16.15.07-31.58.11-45.75.39h-.08a1.8 1.8 0 00-1.77 1.85c.06 3 .11 5.57.16 8.11.19 7.33.06 18.09-.19 26.09-.12 4.84-.26 10.55-.38 15.2l-.18 141.24a2.42 2.42 0 002.44 2.43h55.74l29.75-.47 16.81.17c22.89-.29 45.77-.45 64.53-.82 8.8-.18 24.89-1 23.39-1.74-.74-.37-5.85-.74-18.36-1.09s-32.38-.7-62.72-.86c-14.74-.14-71.26-.54-106.16-.62v-47.36c0-5.22.21-11 .2-17 0-6.28-.27-11.25-.26-17.5s.33-10.68.34-17.81c0-8.71-.31-16.23-.38-24-.2-22.39-.14-45.2-.08-61.14 15.81 0 26.4.05 35.23 0l40.5-.55 109.76.15.56 35.38v59.83c0 20.05.11 39.8.37 58.25.25 17.86.62 35.09 1.12 34.36s1.21-2.52 1.89-17.68c.38-8.53.73-27.19 1.12-43.83.23-11.24.32-24.74.21-37.3z"/><path class="cls-7" d="M407.18 216c-4.19-.31-7.55-.52-10.68-.68-7.29-.37-26.26 1.05 7.75 4.9-.4 3.75-.81 8-1.26 12.87-1 10.41-6.46 65.31-7.23 75.24-.18 2.45-.68 5.15-.93 8s-.21 5.3-.48 8.23-.78 5-1.1 8.31c-.38 4.09-.39 7.64-.65 11.3-1 14-2.51 28.2-3.46 38.32l-3.82-.33-19-1.18L314.5 376l-18.63-1.1c-18.38-1.69-38.43-4-55.74-5.12-8.38-.55-16.38-.85-15.86-.08s1.61 1.89 8.84 3.35c4.07.81 12.8 1.9 20.55 2.93 5.22.69 11.46 1.25 17.25 1.59 4.13.24 27.37 2.13 34.71 2.72 7 .57 13.89 1 20.37 1.45l11.3 1.53 26.37 2.48c6.68.37 12 .55 17.58 1l10.28.83h.05a2.11 2.11 0 002.26-1.94c.43-5.42.75-10.31.93-15a114.94 114.94 0 011.31-12.21c.35-2.25.71-4.92 1-7.09 3-31.52 5.9-62.7 8.66-92 .37-5.95.63-10.06.87-13.9.38-3.11.72-5.88.95-7.74.51-6.91 1-13.82 1.44-19.54v-.07a2 2 0 00-1.81-2.09z"/><path d="M208.76 193a14.66 14.66 0 011-1.78 15.29 15.29 0 0112-6 16.18 16.18 0 015 .35 15.26 15.26 0 016.4 4.19 18.17 18.17 0 013.84 6.44c.79 2.16 1 4.41 1.51 4.26a1.52 1.52 0 00.82-.63 4.44 4.44 0 00.62-2.26 10.84 10.84 0 00-.3-2.89 18.65 18.65 0 00-1.29-3.64 12.73 12.73 0 00-3.55-4.46 20.83 20.83 0 00-4.47-2.88 18.41 18.41 0 00-5.83-1.65 17.87 17.87 0 00-6.54.55 14.92 14.92 0 00-10.43 6 22.4 22.4 0 00-2.54 5.1 15.11 15.11 0 00-.87 7.93c.15 1.08.37 2.65.53 3.83a16.46 16.46 0 00.53 2.23 18.41 18.41 0 0024.94 9.35 19.23 19.23 0 002.1-1.37c.56-.46 1.06-.86 1.5-1.28l1.1-.87c.33-.27.58-.55.8-.75a17.15 17.15 0 004-8.67 6.71 6.71 0 00-.24-2.39c-.24-.77-.57-1.32-.92-1.27-.18 0-.36.2-.54.55a17.57 17.57 0 00-.59 1.67 25.73 25.73 0 01-1 2.92 17.25 17.25 0 01-2.4 4.11 14.86 14.86 0 01-2.94 2.71 15 15 0 01-5.46 2.51 15.31 15.31 0 01-6 .17 17.16 17.16 0 01-3.61-1 14 14 0 01-1.76-1.1c-.33-.18-.64-.33-.93-.51a5.34 5.34 0 01-.9-.59 17.08 17.08 0 01-1.39-1.67 21.13 21.13 0 01-1.85-2.21 12.83 12.83 0 01-2.06-6.48 17.34 17.34 0 01.72-5.61 15.85 15.85 0 011-2.91z" fill="#0595db"/><circle cx="221.71" cy="200.21" r="11.79" fill="#a3e5fb"/></svg>