<svg width="244" height="154" viewBox="0 0 244 154" fill="none" xmlns="http://www.w3.org/2000/svg">
<rect x="13.9429" y="123.599" width="230.057" height="0.996719" fill="#646464"/>
<rect x="13.9429" y="95.6899" width="230.057" height="0.996712" fill="#646464"/>
<rect x="13.9429" y="67.7803" width="230.057" height="0.996719" fill="#646464"/>
<rect x="13.9429" y="39.8708" width="230.057" height="0.996719" fill="#646464"/>
<rect x="13.9429" y="11.9612" width="230.057" height="0.99672" fill="#646464"/>
<ellipse opacity="0.5" cx="83.6572" cy="87.4748" rx="44.8163" ry="36.6396" fill="#344BCE"/>
<ellipse opacity="0.5" cx="83.6571" cy="67.7802" rx="27.8857" ry="27.9094" fill="#344BCE"/>
<ellipse opacity="0.5" cx="83.1592" cy="40.3689" rx="31.3714" ry="31.3981" fill="#344BCE"/>
<ellipse opacity="0.5" cx="83.1592" cy="14.9515" rx="14.9388" ry="14.9515" fill="#264AE5"/>
<ellipse opacity="0.501046" cx="147.894" cy="94.4832" rx="31.3714" ry="29.6932" fill="#579BF9"/>
<ellipse opacity="0.501046" cx="148.392" cy="68.2785" rx="35.3551" ry="35.3851" fill="#579BF9"/>
<ellipse opacity="0.501046" cx="148.392" cy="40.8674" rx="17.9265" ry="17.9417" fill="#579BF9"/>
<ellipse opacity="0.501046" cx="147.894" cy="12.9579" rx="12.9469" ry="12.9579" fill="#579BF9"/>
<ellipse opacity="0.501395" cx="212.131" cy="68.2786" rx="13.4449" ry="13.4563" fill="#FFDA70"/>
<ellipse opacity="0.501395" cx="212.629" cy="40.3688" rx="9.46123" ry="9.46885" fill="#FFDA70"/>
<ellipse opacity="0.501395" cx="212.629" cy="12.9577" rx="4.97958" ry="4.98361" fill="#FFDA70"/>
<ellipse opacity="0.501395" cx="212.131" cy="96.1878" rx="9.46122" ry="9.46885" fill="#FFDA70"/>
<path d="M68.1246 148.065H69.1793V144.216H73.8199V148.065H74.8746V139.61H73.8199V143.267H69.1793V139.61H68.1246V148.065ZM77.441 140.53C77.8277 140.53 78.1441 140.214 78.1441 139.827C78.1441 139.44 77.8277 139.124 77.441 139.124C77.0543 139.124 76.7379 139.44 76.7379 139.827C76.7379 140.214 77.0543 140.53 77.441 140.53ZM76.9254 148.065H77.9449V141.749H76.9254V148.065ZM82.4683 150.292C84.191 150.292 85.2808 149.39 85.2808 147.978V141.749H84.2613V142.792H84.191C83.8043 142.077 83.1129 141.638 82.2222 141.638C80.5699 141.638 79.5504 142.921 79.5504 144.69V144.702C79.5504 146.472 80.564 147.737 82.1988 147.737C83.066 147.737 83.7808 147.345 84.1793 146.647H84.273V147.925C84.273 148.856 83.5992 149.39 82.4683 149.39C81.5601 149.39 80.9976 149.05 80.8863 148.569L80.8804 148.563H79.8258L79.814 148.569C79.9722 149.606 80.9449 150.292 82.4683 150.292ZM82.4215 146.835C81.2496 146.835 80.5933 145.956 80.5933 144.702V144.69C80.5933 143.437 81.2496 142.54 82.4215 142.54C83.5875 142.54 84.2965 143.437 84.2965 144.69V144.702C84.2965 145.956 83.5933 146.835 82.4215 146.835ZM87.2379 148.065H88.2574V144.327C88.2574 143.22 88.8961 142.54 89.9039 142.54C90.9117 142.54 91.3804 143.085 91.3804 144.222V148.065H92.4V143.976C92.4 142.476 91.609 141.638 90.191 141.638C89.2593 141.638 88.6675 142.03 88.3511 142.698H88.2574V139.241H87.2379V148.065Z" fill="#A4A4A4"/>
<path d="M123.918 148.065H124.902V141.608H124.967L127.638 148.065H128.529L131.201 141.608H131.265V148.065H132.25V139.61H131.025L128.131 146.665H128.037L125.142 139.61H123.918V148.065ZM136.855 148.177C138.344 148.177 139.246 147.333 139.463 146.478L139.474 146.431H138.455L138.431 146.483C138.262 146.864 137.734 147.269 136.879 147.269C135.754 147.269 135.033 146.507 135.004 145.2H139.551V144.802C139.551 142.915 138.508 141.638 136.791 141.638C135.074 141.638 133.961 142.974 133.961 144.925V144.931C133.961 146.911 135.051 148.177 136.855 148.177ZM136.785 142.546C137.717 142.546 138.408 143.138 138.513 144.386H135.021C135.133 143.185 135.847 142.546 136.785 142.546ZM143.465 148.177C144.344 148.177 145.047 147.761 145.433 147.058H145.527V148.065H146.547V139.241H145.527V142.745H145.433C145.088 142.071 144.332 141.638 143.465 141.638C141.859 141.638 140.816 142.921 140.816 144.901V144.913C140.816 146.882 141.865 148.177 143.465 148.177ZM143.699 147.274C142.545 147.274 141.859 146.384 141.859 144.913V144.901C141.859 143.431 142.545 142.54 143.699 142.54C144.847 142.54 145.551 143.442 145.551 144.901V144.913C145.551 146.372 144.847 147.274 143.699 147.274ZM149.043 140.53C149.429 140.53 149.746 140.214 149.746 139.827C149.746 139.44 149.429 139.124 149.043 139.124C148.656 139.124 148.34 139.44 148.34 139.827C148.34 140.214 148.656 140.53 149.043 140.53ZM148.527 148.065H149.547V141.749H148.527V148.065ZM153.584 148.177C154.51 148.177 155.148 147.796 155.459 147.122H155.553V148.065H156.572V141.749H155.553V145.487C155.553 146.595 154.961 147.274 153.847 147.274C152.84 147.274 152.429 146.729 152.429 145.593V141.749H151.41V145.839C151.41 147.333 152.148 148.177 153.584 148.177ZM158.476 148.065H159.496V144.151C159.496 143.261 160.123 142.54 160.949 142.54C161.746 142.54 162.262 143.026 162.262 143.776V148.065H163.281V144.005C163.281 143.202 163.861 142.54 164.74 142.54C165.631 142.54 166.058 143.003 166.058 143.935V148.065H167.078V143.7C167.078 142.376 166.357 141.638 165.068 141.638C164.195 141.638 163.474 142.077 163.135 142.745H163.041C162.748 142.089 162.15 141.638 161.295 141.638C160.469 141.638 159.871 142.03 159.59 142.71H159.496V141.749H158.476V148.065Z" fill="#A4A4A4"/>
<path d="M200.377 148.065H205.51V147.116H201.432V139.61H200.377V148.065ZM209.371 148.177C211.17 148.177 212.283 146.935 212.283 144.913V144.901C212.283 142.874 211.17 141.638 209.371 141.638C207.572 141.638 206.459 142.874 206.459 144.901V144.913C206.459 146.935 207.572 148.177 209.371 148.177ZM209.371 147.274C208.176 147.274 207.502 146.401 207.502 144.913V144.901C207.502 143.407 208.176 142.54 209.371 142.54C210.566 142.54 211.24 143.407 211.24 144.901V144.913C211.24 146.401 210.566 147.274 209.371 147.274ZM214.85 148.065H215.869L217.275 143.179H217.369L218.781 148.065H219.807L221.576 141.749H220.563L219.32 146.8H219.227L217.815 141.749H216.848L215.436 146.8H215.342L214.1 141.749H213.08L214.85 148.065Z" fill="#A4A4A4"/>
<path d="M4.18219 129.824C6.05133 129.824 7.17633 128.119 7.17633 125.401V125.389C7.17633 122.67 6.05133 120.971 4.18219 120.971C2.31305 120.971 1.19977 122.67 1.19977 125.389V125.401C1.19977 128.119 2.31305 129.824 4.18219 129.824ZM4.18219 128.905C2.9693 128.905 2.26031 127.557 2.26031 125.401V125.389C2.26031 123.233 2.9693 121.897 4.18219 121.897C5.39508 121.897 6.11578 123.233 6.11578 125.389V125.401C6.11578 127.557 5.39508 128.905 4.18219 128.905Z" fill="#A4A4A4"/>
<path d="M3.42082 101.716H4.47551V93.2606H3.42668L1.17668 94.8778V95.9911L3.32707 94.4325H3.42082V101.716Z" fill="#A4A4A4"/>
<path d="M1.66852 73.8062H7.14117V72.8569H3.13336V72.7632L5.05524 70.7769C6.58453 69.2007 7.00055 68.4976 7.00055 67.5308V67.519C7.00055 66.1538 5.86969 65.1519 4.39313 65.1519C2.77594 65.1519 1.61578 66.23 1.60992 67.73L1.62164 67.7358L2.62946 67.7417L2.63531 67.73C2.63531 66.7339 3.30914 66.0718 4.32281 66.0718C5.31891 66.0718 5.92242 66.7397 5.92242 67.6304V67.6421C5.92242 68.3804 5.60602 68.8198 4.52789 69.9858L1.66852 73.0796V73.8062Z" fill="#A4A4A4"/>
<path d="M4.26422 46.0372C5.95758 46.0372 7.19977 44.9943 7.19977 43.5822V43.5704C7.19977 42.3693 6.36188 41.6017 5.13141 41.4962V41.4728C6.1861 41.2501 6.92438 40.5353 6.92438 39.4923V39.4806C6.92438 38.1974 5.86383 37.3009 4.2525 37.3009C2.67047 37.3009 1.58063 38.2208 1.44586 39.5978L1.44 39.6564H2.45367L2.45953 39.5978C2.54742 38.7423 3.25641 38.215 4.2525 38.215C5.28375 38.215 5.86383 38.7247 5.86383 39.6095V39.6212C5.86383 40.465 5.16071 41.0861 4.15289 41.0861H3.13922V41.9767H4.19977C5.38336 41.9767 6.1275 42.5568 6.1275 43.5939V43.6056C6.1275 44.5021 5.37164 45.1232 4.26422 45.1232C3.13922 45.1232 2.37164 44.549 2.28961 43.7169L2.28375 43.6583H1.27008L1.27594 43.7286C1.38727 45.0646 2.51813 46.0372 4.26422 46.0372Z" fill="#A4A4A4"/>
<path d="M6.04529 17.9871H7.07654V16.2351H8.27771V15.2917H7.07654V9.53198H5.54724C4.36365 11.2957 3.06873 13.3582 1.92615 15.2742V16.2351H6.04529V17.9871ZM3.00427 15.2976V15.2273C3.92419 13.6746 5.03162 11.9285 5.98083 10.5105H6.05115V15.2976H3.00427Z" fill="#A4A4A4"/>
</svg>
