<svg width="100" height="218" viewBox="0 0 100 218" fill="none" xmlns="http://www.w3.org/2000/svg">
<rect opacity="0.502906" x="6.04834" y="11.5668" width="14.8891" height="14.8878" rx="7.4439" fill="#344BCE"/>
<path d="M36.8496 23.1992C38.7363 23.1992 39.9727 22.2148 39.9727 20.6328V20.627C39.9727 19.4082 39.2754 18.6992 37.5117 18.3066L36.5742 18.0957C35.4258 17.8438 34.9629 17.3867 34.9629 16.7129V16.707C34.9629 15.8223 35.7773 15.3242 36.832 15.3184C37.9336 15.3125 38.6367 15.8633 38.7539 16.6074L38.7656 16.6836H39.8203L39.8145 16.6016C39.7266 15.3418 38.5488 14.3457 36.8613 14.3457C35.1152 14.3457 33.8906 15.3359 33.8848 16.7363V16.7422C33.8848 17.9668 34.6172 18.7461 36.3105 19.1211L37.248 19.3262C38.4082 19.584 38.8945 20.0645 38.8945 20.7676V20.7734C38.8945 21.6348 38.0566 22.2266 36.9082 22.2266C35.6895 22.2266 34.8105 21.6934 34.7344 20.8496L34.7285 20.7852H33.6738L33.6797 20.8496C33.8027 22.2266 34.998 23.1992 36.8496 23.1992ZM44.1797 23.1113C45.668 23.1113 46.5703 22.2676 46.7871 21.4121L46.7988 21.3652H45.7793L45.7559 21.418C45.5859 21.7988 45.0586 22.2031 44.2031 22.2031C43.0781 22.2031 42.3574 21.4414 42.3281 20.1348H46.875V19.7363C46.875 17.8496 45.832 16.5723 44.1152 16.5723C42.3984 16.5723 41.2852 17.9082 41.2852 19.8594V19.8652C41.2852 21.8457 42.375 23.1113 44.1797 23.1113ZM44.1094 17.4805C45.041 17.4805 45.7324 18.0723 45.8379 19.3203H42.3457C42.457 18.1191 43.1719 17.4805 44.1094 17.4805ZM48.457 23H49.4766V19.0859C49.4766 18.1602 50.168 17.5449 51.1406 17.5449C51.3633 17.5449 51.5566 17.5684 51.7676 17.6035V16.6133C51.668 16.5957 51.4512 16.5723 51.2578 16.5723C50.4023 16.5723 49.8105 16.959 49.5703 17.6211H49.4766V16.6836H48.457V23ZM53.5664 15.4648C53.9531 15.4648 54.2695 15.1484 54.2695 14.7617C54.2695 14.375 53.9531 14.0586 53.5664 14.0586C53.1797 14.0586 52.8633 14.375 52.8633 14.7617C52.8633 15.1484 53.1797 15.4648 53.5664 15.4648ZM53.0508 23H54.0703V16.6836H53.0508V23ZM58.5703 23.1113C60.0586 23.1113 60.9609 22.2676 61.1777 21.4121L61.1895 21.3652H60.1699L60.1465 21.418C59.9766 21.7988 59.4492 22.2031 58.5938 22.2031C57.4688 22.2031 56.748 21.4414 56.7188 20.1348H61.2656V19.7363C61.2656 17.8496 60.2227 16.5723 58.5059 16.5723C56.7891 16.5723 55.6758 17.9082 55.6758 19.8594V19.8652C55.6758 21.8457 56.7656 23.1113 58.5703 23.1113ZM58.5 17.4805C59.4316 17.4805 60.123 18.0723 60.2285 19.3203H56.7363C56.8477 18.1191 57.5625 17.4805 58.5 17.4805ZM65.0156 23.1113C66.4512 23.1113 67.5469 22.332 67.5469 21.207V21.1953C67.5469 20.293 66.9727 19.7773 65.7832 19.4902L64.8105 19.2559C64.0664 19.0742 63.75 18.8047 63.75 18.377V18.3652C63.75 17.8086 64.3008 17.4219 65.0508 17.4219C65.8125 17.4219 66.3047 17.7676 66.4395 18.2656H67.4414C67.3008 17.2344 66.3809 16.5723 65.0566 16.5723C63.7148 16.5723 62.707 17.3633 62.707 18.4121V18.418C62.707 19.3262 63.2402 19.8418 64.4238 20.123L65.4023 20.3574C66.1816 20.5449 66.5039 20.8438 66.5039 21.2715V21.2832C66.5039 21.8574 65.9004 22.2617 65.0508 22.2617C64.2422 22.2617 63.7383 21.916 63.5684 21.3887H62.5254C62.6426 22.4316 63.6094 23.1113 65.0156 23.1113ZM74.5664 23H75.6211V14.5449H74.5723L72.3223 16.1621V17.2754L74.4727 15.7168H74.5664V23Z" fill="#A4A4A4"/>
<rect opacity="0.496977" x="6.04834" y="47.5783" width="14.8891" height="14.8878" rx="7.4439" fill="#579BF9"/>
<path d="M36.9197 58.8626C38.8064 58.8626 40.0427 57.8783 40.0427 56.2962V56.2904C40.0427 55.0716 39.3455 54.3626 37.5818 53.9701L36.6443 53.7591C35.4958 53.5072 35.033 53.0501 35.033 52.3763V52.3705C35.033 51.4857 35.8474 50.9876 36.9021 50.9818C38.0037 50.9759 38.7068 51.5267 38.824 52.2708L38.8357 52.347H39.8904L39.8845 52.265C39.7966 51.0052 38.6189 50.0091 36.9314 50.0091C35.1853 50.0091 33.9607 50.9994 33.9548 52.3997V52.4056C33.9548 53.6302 34.6873 54.4095 36.3806 54.7845L37.3181 54.9896C38.4783 55.2474 38.9646 55.7279 38.9646 56.431V56.4369C38.9646 57.2982 38.1267 57.89 36.9783 57.89C35.7595 57.89 34.8806 57.3568 34.8044 56.513L34.7986 56.4486H33.7439L33.7498 56.513C33.8728 57.89 35.0681 58.8626 36.9197 58.8626ZM44.2498 58.7747C45.738 58.7747 46.6404 57.931 46.8572 57.0755L46.8689 57.0287H45.8494L45.8259 57.0814C45.656 57.4622 45.1287 57.8665 44.2732 57.8665C43.1482 57.8665 42.4275 57.1048 42.3982 55.7982H46.9451V55.3997C46.9451 53.513 45.9021 52.2357 44.1853 52.2357C42.4685 52.2357 41.3552 53.5716 41.3552 55.5228V55.5287C41.3552 57.5091 42.4451 58.7747 44.2498 58.7747ZM44.1794 53.1439C45.1111 53.1439 45.8025 53.7357 45.908 54.9837H42.4158C42.5271 53.7826 43.2419 53.1439 44.1794 53.1439ZM48.5271 58.6634H49.5466V54.7494C49.5466 53.8236 50.238 53.2083 51.2107 53.2083C51.4333 53.2083 51.6267 53.2318 51.8376 53.2669V52.2767C51.738 52.2591 51.5212 52.2357 51.3279 52.2357C50.4724 52.2357 49.8806 52.6224 49.6404 53.2845H49.5466V52.347H48.5271V58.6634ZM53.6365 51.1283C54.0232 51.1283 54.3396 50.8119 54.3396 50.4251C54.3396 50.0384 54.0232 49.722 53.6365 49.722C53.2498 49.722 52.9333 50.0384 52.9333 50.4251C52.9333 50.8119 53.2498 51.1283 53.6365 51.1283ZM53.1208 58.6634H54.1404V52.347H53.1208V58.6634ZM58.6404 58.7747C60.1287 58.7747 61.031 57.931 61.2478 57.0755L61.2595 57.0287H60.24L60.2166 57.0814C60.0466 57.4622 59.5193 57.8665 58.6638 57.8665C57.5388 57.8665 56.8181 57.1048 56.7888 55.7982H61.3357V55.3997C61.3357 53.513 60.2927 52.2357 58.5759 52.2357C56.8591 52.2357 55.7458 53.5716 55.7458 55.5228V55.5287C55.7458 57.5091 56.8357 58.7747 58.6404 58.7747ZM58.5701 53.1439C59.5017 53.1439 60.1931 53.7357 60.2986 54.9837H56.8064C56.9177 53.7826 57.6326 53.1439 58.5701 53.1439ZM65.0857 58.7747C66.5212 58.7747 67.6169 57.9955 67.6169 56.8705V56.8587C67.6169 55.9564 67.0427 55.4408 65.8533 55.1537L64.8806 54.9193C64.1365 54.7376 63.8201 54.4681 63.8201 54.0404V54.0287C63.8201 53.472 64.3708 53.0853 65.1208 53.0853C65.8826 53.0853 66.3748 53.431 66.5095 53.929H67.5115C67.3708 52.8978 66.4509 52.2357 65.1267 52.2357C63.7849 52.2357 62.7771 53.0267 62.7771 54.0755V54.0814C62.7771 54.9896 63.3103 55.5052 64.4939 55.7865L65.4724 56.0208C66.2517 56.2083 66.574 56.5072 66.574 56.9349V56.9466C66.574 57.5208 65.9705 57.9251 65.1208 57.9251C64.3123 57.9251 63.8083 57.5794 63.6384 57.0521H62.5955C62.7126 58.0951 63.6794 58.7747 65.0857 58.7747ZM72.5681 58.6634H78.0408V57.7142H74.033V57.6205L75.9548 55.6341C77.4841 54.058 77.9001 53.3548 77.9001 52.388V52.3763C77.9001 51.0111 76.7693 50.0091 75.2927 50.0091C73.6755 50.0091 72.5154 51.0872 72.5095 52.5872L72.5212 52.5931L73.5291 52.599L73.5349 52.5872C73.5349 51.5912 74.2087 50.929 75.2224 50.929C76.2185 50.929 76.822 51.597 76.822 52.4876V52.4994C76.822 53.2376 76.5056 53.6771 75.4275 54.8431L72.5681 57.9369V58.6634Z" fill="#A4A4A4"/>
<rect opacity="0.50086" x="6.04834" y="83.5899" width="14.8891" height="14.8878" rx="7.4439" fill="#FFDA70"/>
<path d="M36.8496 95.1992C38.7363 95.1992 39.9727 94.2148 39.9727 92.6328V92.627C39.9727 91.4082 39.2754 90.6992 37.5117 90.3066L36.5742 90.0957C35.4258 89.8438 34.9629 89.3867 34.9629 88.7129V88.707C34.9629 87.8223 35.7773 87.3242 36.832 87.3184C37.9336 87.3125 38.6367 87.8633 38.7539 88.6074L38.7656 88.6836H39.8203L39.8145 88.6016C39.7266 87.3418 38.5488 86.3457 36.8613 86.3457C35.1152 86.3457 33.8906 87.3359 33.8848 88.7363V88.7422C33.8848 89.9668 34.6172 90.7461 36.3105 91.1211L37.248 91.3262C38.4082 91.584 38.8945 92.0645 38.8945 92.7676V92.7734C38.8945 93.6348 38.0566 94.2266 36.9082 94.2266C35.6895 94.2266 34.8105 93.6934 34.7344 92.8496L34.7285 92.7852H33.6738L33.6797 92.8496C33.8027 94.2266 34.998 95.1992 36.8496 95.1992ZM44.1797 95.1113C45.668 95.1113 46.5703 94.2676 46.7871 93.4121L46.7988 93.3652H45.7793L45.7559 93.418C45.5859 93.7988 45.0586 94.2031 44.2031 94.2031C43.0781 94.2031 42.3574 93.4414 42.3281 92.1348H46.875V91.7363C46.875 89.8496 45.832 88.5723 44.1152 88.5723C42.3984 88.5723 41.2852 89.9082 41.2852 91.8594V91.8652C41.2852 93.8457 42.375 95.1113 44.1797 95.1113ZM44.1094 89.4805C45.041 89.4805 45.7324 90.0723 45.8379 91.3203H42.3457C42.457 90.1191 43.1719 89.4805 44.1094 89.4805ZM48.457 95H49.4766V91.0859C49.4766 90.1602 50.168 89.5449 51.1406 89.5449C51.3633 89.5449 51.5566 89.5684 51.7676 89.6035V88.6133C51.668 88.5957 51.4512 88.5723 51.2578 88.5723C50.4023 88.5723 49.8105 88.959 49.5703 89.6211H49.4766V88.6836H48.457V95ZM53.5664 87.4648C53.9531 87.4648 54.2695 87.1484 54.2695 86.7617C54.2695 86.375 53.9531 86.0586 53.5664 86.0586C53.1797 86.0586 52.8633 86.375 52.8633 86.7617C52.8633 87.1484 53.1797 87.4648 53.5664 87.4648ZM53.0508 95H54.0703V88.6836H53.0508V95ZM58.5703 95.1113C60.0586 95.1113 60.9609 94.2676 61.1777 93.4121L61.1895 93.3652H60.1699L60.1465 93.418C59.9766 93.7988 59.4492 94.2031 58.5938 94.2031C57.4688 94.2031 56.748 93.4414 56.7188 92.1348H61.2656V91.7363C61.2656 89.8496 60.2227 88.5723 58.5059 88.5723C56.7891 88.5723 55.6758 89.9082 55.6758 91.8594V91.8652C55.6758 93.8457 56.7656 95.1113 58.5703 95.1113ZM58.5 89.4805C59.4316 89.4805 60.123 90.0723 60.2285 91.3203H56.7363C56.8477 90.1191 57.5625 89.4805 58.5 89.4805ZM65.0156 95.1113C66.4512 95.1113 67.5469 94.332 67.5469 93.207V93.1953C67.5469 92.293 66.9727 91.7773 65.7832 91.4902L64.8105 91.2559C64.0664 91.0742 63.75 90.8047 63.75 90.377V90.3652C63.75 89.8086 64.3008 89.4219 65.0508 89.4219C65.8125 89.4219 66.3047 89.7676 66.4395 90.2656H67.4414C67.3008 89.2344 66.3809 88.5723 65.0566 88.5723C63.7148 88.5723 62.707 89.3633 62.707 90.4121V90.418C62.707 91.3262 63.2402 91.8418 64.4238 92.123L65.4023 92.3574C66.1816 92.5449 66.5039 92.8438 66.5039 93.2715V93.2832C66.5039 93.8574 65.9004 94.2617 65.0508 94.2617C64.2422 94.2617 63.7383 93.916 63.5684 93.3887H62.5254C62.6426 94.4316 63.6094 95.1113 65.0156 95.1113ZM75.375 95.1406C77.0684 95.1406 78.3105 94.0977 78.3105 92.6855V92.6738C78.3105 91.4727 77.4727 90.7051 76.2422 90.5996V90.5762C77.2969 90.3535 78.0352 89.6387 78.0352 88.5957V88.584C78.0352 87.3008 76.9746 86.4043 75.3633 86.4043C73.7812 86.4043 72.6914 87.3242 72.5566 88.7012L72.5508 88.7598H73.5645L73.5703 88.7012C73.6582 87.8457 74.3672 87.3184 75.3633 87.3184C76.3945 87.3184 76.9746 87.8281 76.9746 88.7129V88.7246C76.9746 89.5684 76.2715 90.1895 75.2637 90.1895H74.25V91.0801H75.3105C76.4941 91.0801 77.2383 91.6602 77.2383 92.6973V92.709C77.2383 93.6055 76.4824 94.2266 75.375 94.2266C74.25 94.2266 73.4824 93.6523 73.4004 92.8203L73.3945 92.7617H72.3809L72.3867 92.832C72.498 94.168 73.6289 95.1406 75.375 95.1406Z" fill="#A4A4A4"/>
</svg>
