<svg width="346" height="218" viewBox="0 0 346 218" fill="none" xmlns="http://www.w3.org/2000/svg">
<rect x="19.7712" y="174.964" width="326.229" height="1.411" fill="#646464"/>
<rect x="19.7712" y="135.456" width="326.229" height="1.411" fill="#646464"/>
<rect x="19.7712" y="95.9482" width="326.229" height="1.411" fill="#646464"/>
<rect x="19.7712" y="56.4401" width="326.229" height="1.411" fill="#646464"/>
<rect x="19.7712" y="16.932" width="326.229" height="1.411" fill="#646464"/>
<ellipse opacity="0.5" cx="118.628" cy="123.828" rx="63.5511" ry="51.8664" fill="#344BCE"/>
<ellipse opacity="0.5" cx="118.629" cy="95.9482" rx="39.5429" ry="39.5081" fill="#344BCE"/>
<ellipse opacity="0.5" cx="116.513" cy="57.1456" rx="44.4857" ry="44.4466" fill="#344BCE"/>
<ellipse opacity="0.5" cx="117.922" cy="21.165" rx="21.1837" ry="21.165" fill="#344BCE"/>
<ellipse opacity="0.501046" cx="209.718" cy="133.748" rx="44.4857" ry="42.0332" fill="#579BF9"/>
<ellipse opacity="0.501046" cx="210.425" cy="96.6537" rx="50.1347" ry="50.0906" fill="#579BF9"/>
<ellipse opacity="0.501046" cx="210.424" cy="57.8511" rx="25.4204" ry="25.3981" fill="#579BF9"/>
<ellipse opacity="0.501046" cx="209.718" cy="18.343" rx="18.3592" ry="18.343" fill="#579BF9"/>
<ellipse opacity="0.501395" cx="300.808" cy="96.6537" rx="19.0653" ry="19.0485" fill="#FFDA70"/>
<ellipse opacity="0.501395" cx="301.514" cy="57.1456" rx="13.4163" ry="13.4045" fill="#FFDA70"/>
<ellipse opacity="0.501395" cx="301.514" cy="18.343" rx="7.06123" ry="7.05502" fill="#FFDA70"/>
<ellipse opacity="0.501395" cx="300.808" cy="136.162" rx="13.4163" ry="13.4045" fill="#FFDA70"/>
<path d="M95.9094 203.979C97.7961 203.979 99.0325 202.995 99.0325 201.413V201.407C99.0325 200.188 98.3352 199.479 96.5715 199.087L95.634 198.876C94.4856 198.624 94.0227 198.167 94.0227 197.493V197.487C94.0227 196.602 94.8372 196.104 95.8918 196.098C96.9934 196.092 97.6965 196.643 97.8137 197.387L97.8254 197.464H98.8801L98.8743 197.381C98.7864 196.122 97.6086 195.126 95.9211 195.126C94.175 195.126 92.9504 196.116 92.9446 197.516V197.522C92.9446 198.747 93.677 199.526 95.3704 199.901L96.3079 200.106C97.468 200.364 97.9543 200.844 97.9543 201.547V201.553C97.9543 202.415 97.1165 203.006 95.968 203.006C94.7493 203.006 93.8704 202.473 93.7942 201.63L93.7883 201.565H92.7336L92.7395 201.63C92.8625 203.006 94.0579 203.979 95.9094 203.979ZM103.24 203.891C104.728 203.891 105.63 203.047 105.847 202.192L105.859 202.145H104.839L104.816 202.198C104.646 202.579 104.118 202.983 103.263 202.983C102.138 202.983 101.417 202.221 101.388 200.915H105.935V200.516C105.935 198.63 104.892 197.352 103.175 197.352C101.458 197.352 100.345 198.688 100.345 200.639V200.645C100.345 202.626 101.435 203.891 103.24 203.891ZM103.169 198.26C104.101 198.26 104.792 198.852 104.898 200.1H101.406C101.517 198.899 102.232 198.26 103.169 198.26ZM107.517 203.78H108.536V199.866C108.536 198.94 109.228 198.325 110.2 198.325C110.423 198.325 110.616 198.348 110.827 198.383V197.393C110.728 197.376 110.511 197.352 110.318 197.352C109.462 197.352 108.87 197.739 108.63 198.401H108.536V197.464H107.517V203.78ZM112.626 196.245C113.013 196.245 113.329 195.928 113.329 195.542C113.329 195.155 113.013 194.839 112.626 194.839C112.24 194.839 111.923 195.155 111.923 195.542C111.923 195.928 112.24 196.245 112.626 196.245ZM112.111 203.78H113.13V197.464H112.111V203.78ZM117.63 203.891C119.118 203.891 120.021 203.047 120.238 202.192L120.249 202.145H119.23L119.206 202.198C119.036 202.579 118.509 202.983 117.654 202.983C116.529 202.983 115.808 202.221 115.779 200.915H120.325V200.516C120.325 198.63 119.282 197.352 117.566 197.352C115.849 197.352 114.736 198.688 114.736 200.639V200.645C114.736 202.626 115.825 203.891 117.63 203.891ZM117.56 198.26C118.491 198.26 119.183 198.852 119.288 200.1H115.796C115.907 198.899 116.622 198.26 117.56 198.26ZM124.075 203.891C125.511 203.891 126.607 203.112 126.607 201.987V201.975C126.607 201.073 126.032 200.557 124.843 200.27L123.87 200.036C123.126 199.854 122.81 199.585 122.81 199.157V199.145C122.81 198.589 123.361 198.202 124.111 198.202C124.872 198.202 125.365 198.547 125.499 199.046H126.501C126.361 198.014 125.441 197.352 124.116 197.352C122.775 197.352 121.767 198.143 121.767 199.192V199.198C121.767 200.106 122.3 200.622 123.484 200.903L124.462 201.137C125.241 201.325 125.564 201.624 125.564 202.051V202.063C125.564 202.637 124.96 203.042 124.111 203.042C123.302 203.042 122.798 202.696 122.628 202.169H121.585C121.702 203.212 122.669 203.891 124.075 203.891ZM133.626 203.78H134.681V195.325H133.632L131.382 196.942V198.055L133.532 196.497H133.626V203.78Z" fill="#A4A4A4"/>
<path d="M187.139 203.979C189.026 203.979 190.262 202.995 190.262 201.413V201.407C190.262 200.188 189.565 199.479 187.801 199.087L186.864 198.876C185.715 198.624 185.252 198.167 185.252 197.493V197.487C185.252 196.602 186.067 196.104 187.122 196.098C188.223 196.092 188.926 196.643 189.043 197.387L189.055 197.464H190.11L190.104 197.381C190.016 196.122 188.838 195.126 187.151 195.126C185.405 195.126 184.18 196.116 184.174 197.516V197.522C184.174 198.747 184.907 199.526 186.6 199.901L187.538 200.106C188.698 200.364 189.184 200.844 189.184 201.547V201.553C189.184 202.415 188.346 203.006 187.198 203.006C185.979 203.006 185.1 202.473 185.024 201.63L185.018 201.565H183.963L183.969 201.63C184.092 203.006 185.288 203.979 187.139 203.979ZM194.469 203.891C195.957 203.891 196.86 203.047 197.077 202.192L197.088 202.145H196.069L196.045 202.198C195.875 202.579 195.348 202.983 194.493 202.983C193.368 202.983 192.647 202.221 192.618 200.915H197.165V200.516C197.165 198.63 196.122 197.352 194.405 197.352C192.688 197.352 191.575 198.688 191.575 200.639V200.645C191.575 202.626 192.665 203.891 194.469 203.891ZM194.399 198.26C195.331 198.26 196.022 198.852 196.127 200.1H192.635C192.747 198.899 193.461 198.26 194.399 198.26ZM198.747 203.78H199.766V199.866C199.766 198.94 200.457 198.325 201.43 198.325C201.653 198.325 201.846 198.348 202.057 198.383V197.393C201.957 197.376 201.741 197.352 201.547 197.352C200.692 197.352 200.1 197.739 199.86 198.401H199.766V197.464H198.747V203.78ZM203.856 196.245C204.243 196.245 204.559 195.928 204.559 195.542C204.559 195.155 204.243 194.839 203.856 194.839C203.469 194.839 203.153 195.155 203.153 195.542C203.153 195.928 203.469 196.245 203.856 196.245ZM203.34 203.78H204.36V197.464H203.34V203.78ZM208.86 203.891C210.348 203.891 211.25 203.047 211.467 202.192L211.479 202.145H210.459L210.436 202.198C210.266 202.579 209.739 202.983 208.883 202.983C207.758 202.983 207.038 202.221 207.008 200.915H211.555V200.516C211.555 198.63 210.512 197.352 208.795 197.352C207.079 197.352 205.965 198.688 205.965 200.639V200.645C205.965 202.626 207.055 203.891 208.86 203.891ZM208.79 198.26C209.721 198.26 210.413 198.852 210.518 200.1H207.026C207.137 198.899 207.852 198.26 208.79 198.26ZM215.305 203.891C216.741 203.891 217.836 203.112 217.836 201.987V201.975C217.836 201.073 217.262 200.557 216.073 200.27L215.1 200.036C214.356 199.854 214.04 199.585 214.04 199.157V199.145C214.04 198.589 214.59 198.202 215.34 198.202C216.102 198.202 216.594 198.547 216.729 199.046H217.731C217.59 198.014 216.67 197.352 215.346 197.352C214.004 197.352 212.997 198.143 212.997 199.192V199.198C212.997 200.106 213.53 200.622 214.713 200.903L215.692 201.137C216.471 201.325 216.793 201.624 216.793 202.051V202.063C216.793 202.637 216.19 203.042 215.34 203.042C214.532 203.042 214.028 202.696 213.858 202.169H212.815C212.932 203.212 213.899 203.891 215.305 203.891ZM222.788 203.78H228.26V202.831H224.252V202.737L226.174 200.751C227.704 199.174 228.12 198.471 228.12 197.505V197.493C228.12 196.128 226.989 195.126 225.512 195.126C223.895 195.126 222.735 196.204 222.729 197.704L222.741 197.71L223.748 197.715L223.754 197.704C223.754 196.708 224.428 196.046 225.442 196.046C226.438 196.046 227.041 196.714 227.041 197.604V197.616C227.041 198.354 226.725 198.794 225.647 199.96L222.788 203.053V203.78Z" fill="#A4A4A4"/>
<path d="M279.76 203.979C281.646 203.979 282.883 202.995 282.883 201.413V201.407C282.883 200.188 282.186 199.479 280.422 199.087L279.484 198.876C278.336 198.624 277.873 198.167 277.873 197.493V197.487C277.873 196.602 278.688 196.104 279.742 196.098C280.844 196.092 281.547 196.643 281.664 197.387L281.676 197.464H282.73L282.725 197.381C282.637 196.122 281.459 195.126 279.771 195.126C278.025 195.126 276.801 196.116 276.795 197.516V197.522C276.795 198.747 277.527 199.526 279.221 199.901L280.158 200.106C281.318 200.364 281.805 200.844 281.805 201.547V201.553C281.805 202.415 280.967 203.006 279.818 203.006C278.6 203.006 277.721 202.473 277.645 201.63L277.639 201.565H276.584L276.59 201.63C276.713 203.006 277.908 203.979 279.76 203.979ZM287.09 203.891C288.578 203.891 289.48 203.047 289.697 202.192L289.709 202.145H288.689L288.666 202.198C288.496 202.579 287.969 202.983 287.113 202.983C285.988 202.983 285.268 202.221 285.238 200.915H289.785V200.516C289.785 198.63 288.742 197.352 287.025 197.352C285.309 197.352 284.195 198.688 284.195 200.639V200.645C284.195 202.626 285.285 203.891 287.09 203.891ZM287.02 198.26C287.951 198.26 288.643 198.852 288.748 200.1H285.256C285.367 198.899 286.082 198.26 287.02 198.26ZM291.367 203.78H292.387V199.866C292.387 198.94 293.078 198.325 294.051 198.325C294.273 198.325 294.467 198.348 294.678 198.383V197.393C294.578 197.376 294.361 197.352 294.168 197.352C293.312 197.352 292.721 197.739 292.48 198.401H292.387V197.464H291.367V203.78ZM296.477 196.245C296.863 196.245 297.18 195.928 297.18 195.542C297.18 195.155 296.863 194.839 296.477 194.839C296.09 194.839 295.773 195.155 295.773 195.542C295.773 195.928 296.09 196.245 296.477 196.245ZM295.961 203.78H296.98V197.464H295.961V203.78ZM301.48 203.891C302.969 203.891 303.871 203.047 304.088 202.192L304.1 202.145H303.08L303.057 202.198C302.887 202.579 302.359 202.983 301.504 202.983C300.379 202.983 299.658 202.221 299.629 200.915H304.176V200.516C304.176 198.63 303.133 197.352 301.416 197.352C299.699 197.352 298.586 198.688 298.586 200.639V200.645C298.586 202.626 299.676 203.891 301.48 203.891ZM301.41 198.26C302.342 198.26 303.033 198.852 303.139 200.1H299.646C299.758 198.899 300.473 198.26 301.41 198.26ZM307.926 203.891C309.361 203.891 310.457 203.112 310.457 201.987V201.975C310.457 201.073 309.883 200.557 308.693 200.27L307.721 200.036C306.977 199.854 306.66 199.585 306.66 199.157V199.145C306.66 198.589 307.211 198.202 307.961 198.202C308.723 198.202 309.215 198.547 309.35 199.046H310.352C310.211 198.014 309.291 197.352 307.967 197.352C306.625 197.352 305.617 198.143 305.617 199.192V199.198C305.617 200.106 306.15 200.622 307.334 200.903L308.312 201.137C309.092 201.325 309.414 201.624 309.414 202.051V202.063C309.414 202.637 308.811 203.042 307.961 203.042C307.152 203.042 306.648 202.696 306.479 202.169H305.436C305.553 203.212 306.52 203.891 307.926 203.891ZM318.285 203.921C319.979 203.921 321.221 202.878 321.221 201.465V201.454C321.221 200.253 320.383 199.485 319.152 199.38V199.356C320.207 199.133 320.945 198.419 320.945 197.376V197.364C320.945 196.081 319.885 195.184 318.273 195.184C316.691 195.184 315.602 196.104 315.467 197.481L315.461 197.54H316.475L316.48 197.481C316.568 196.626 317.277 196.098 318.273 196.098C319.305 196.098 319.885 196.608 319.885 197.493V197.505C319.885 198.348 319.182 198.969 318.174 198.969H317.16V199.86H318.221C319.404 199.86 320.148 200.44 320.148 201.477V201.489C320.148 202.385 319.393 203.006 318.285 203.006C317.16 203.006 316.393 202.432 316.311 201.6L316.305 201.542H315.291L315.297 201.612C315.408 202.948 316.539 203.921 318.285 203.921Z" fill="#A4A4A4"/>
<path d="M7.51186 177.876C9.381 177.876 10.506 176.171 10.506 173.452V173.44C10.506 170.721 9.381 169.022 7.51186 169.022C5.64272 169.022 4.52943 170.721 4.52943 173.44V173.452C4.52943 176.171 5.64272 177.876 7.51186 177.876ZM7.51186 176.956C6.29897 176.956 5.58998 175.608 5.58998 173.452V173.44C5.58998 171.284 6.29897 169.948 7.51186 169.948C8.72475 169.948 9.44545 171.284 9.44545 173.44V173.452C9.44545 175.608 8.72475 176.956 7.51186 176.956Z" fill="#A4A4A4"/>
<path d="M5.91807 138.168H6.97276V129.713H5.92393L3.67393 131.33V132.444L5.82432 130.885H5.91807V138.168Z" fill="#A4A4A4"/>
<path d="M4.99818 98.6602H10.4708V97.711H6.46303V97.6172L8.3849 95.6309C9.9142 94.0547 10.3302 93.3516 10.3302 92.3848V92.3731C10.3302 91.0078 9.19936 90.0059 7.72279 90.0059C6.10561 90.0059 4.94545 91.084 4.93959 92.584L4.95131 92.5899L5.95912 92.5957L5.96498 92.584C5.96498 91.5879 6.63881 90.9258 7.65248 90.9258C8.64857 90.9258 9.25209 91.5938 9.25209 92.4844V92.4961C9.25209 93.2344 8.93568 93.6739 7.85756 94.8399L4.99818 97.9336V98.6602Z" fill="#A4A4A4"/>
<path d="M7.59389 59.2927C9.28725 59.2927 10.5294 58.2498 10.5294 56.8376V56.8259C10.5294 55.6248 9.69154 54.8572 8.46107 54.7517V54.7283C9.51576 54.5056 10.254 53.7908 10.254 52.7478V52.7361C10.254 51.4529 9.1935 50.5564 7.58217 50.5564C6.00014 50.5564 4.91029 51.4763 4.77553 52.8533L4.76967 52.9119H5.78334L5.7892 52.8533C5.87709 51.9978 6.58607 51.4705 7.58217 51.4705C8.61342 51.4705 9.1935 51.9802 9.1935 52.865V52.8767C9.1935 53.7205 8.49037 54.3416 7.48256 54.3416H6.46889V55.2322H7.52943C8.71303 55.2322 9.45717 55.8123 9.45717 56.8494V56.8611C9.45717 57.7576 8.70131 58.3787 7.59389 58.3787C6.46889 58.3787 5.70131 57.8044 5.61928 56.9724L5.61342 56.9138H4.59975L4.60561 56.9841C4.71693 58.3201 5.84779 59.2927 7.59389 59.2927Z" fill="#A4A4A4"/>
<path d="M9.79115 19.644H10.8224V17.8921H12.0236V16.9487H10.8224V11.1889H9.29311C8.10951 12.9526 6.81459 15.0151 5.67201 16.9311V17.8921H9.79115V19.644ZM6.75014 16.9546V16.8842C7.67006 15.3315 8.77748 13.5854 9.7267 12.1674H9.79701V16.9546H6.75014Z" fill="#A4A4A4"/>
</svg>
