<svg width="720" height="389" viewBox="0 0 720 389" fill="none" xmlns="http://www.w3.org/2000/svg">
<rect y="385.888" width="720" height="3.112" fill="#D9DBDD"/>
<rect y="298.752" width="720" height="3.112" fill="#D9DBDD"/>
<rect y="211.616" width="720" height="3.112" fill="#D9DBDD"/>
<rect y="124.48" width="720" height="3.112" fill="#D9DBDD"/>
<rect y="37.3441" width="720" height="3.112" fill="#D9DBDD"/>
<ellipse opacity="0.5" cx="218.182" cy="273.105" rx="140.26" ry="114.393" fill="#264AE5"/>
<ellipse opacity="0.5" cx="218.182" cy="211.616" rx="87.2727" ry="87.136" fill="#264AE5"/>
<ellipse opacity="0.5" cx="216.624" cy="126.036" rx="98.1818" ry="98.028" fill="#264AE5"/>
<ellipse opacity="0.5" cx="216.624" cy="46.68" rx="46.7532" ry="46.68" fill="#264AE5"/>
<ellipse opacity="0.501046" cx="419.221" cy="294.985" rx="98.1818" ry="92.7051" fill="#2DBAFC"/>
<ellipse opacity="0.501046" cx="420.78" cy="213.172" rx="110.649" ry="110.476" fill="#2DBAFC"/>
<ellipse opacity="0.501046" cx="420.779" cy="127.592" rx="56.1039" ry="56.016" fill="#2DBAFC"/>
<ellipse opacity="0.501046" cx="419.221" cy="40.456" rx="40.5195" ry="40.456" fill="#2DBAFC"/>
<ellipse opacity="0.501395" cx="620.26" cy="213.172" rx="42.0779" ry="42.012" fill="#F2B42A"/>
<ellipse opacity="0.501395" cx="621.818" cy="126.036" rx="29.6104" ry="29.564" fill="#F2B42A"/>
<ellipse opacity="0.501395" cx="621.818" cy="40.456" rx="15.5844" ry="15.56" fill="#F2B42A"/>
<ellipse opacity="0.501395" cx="620.26" cy="300.308" rx="29.6104" ry="29.564" fill="#F2B42A"/>
</svg>
