<svg width="83" height="152" viewBox="0 0 83 152" fill="none" xmlns="http://www.w3.org/2000/svg">
<rect opacity="0.502906" x="7" y="7.82352" width="10" height="10" rx="5" fill="#0123C6"/>
<path d="M26.0781 16.2353H27.1328V12.3857H31.7734V16.2353H32.8281V7.78021H31.7734V11.4365H27.1328V7.78021H26.0781V16.2353ZM35.3945 8.70013C35.7812 8.70013 36.0977 8.38373 36.0977 7.99701C36.0977 7.61029 35.7812 7.29388 35.3945 7.29388C35.0078 7.29388 34.6914 7.61029 34.6914 7.99701C34.6914 8.38373 35.0078 8.70013 35.3945 8.70013ZM34.8789 16.2353H35.8984V9.91888H34.8789V16.2353ZM40.4219 18.4619C42.1445 18.4619 43.2344 17.5595 43.2344 16.1474V9.91888H42.2148V10.9619H42.1445C41.7578 10.247 41.0664 9.80756 40.1758 9.80756C38.5234 9.80756 37.5039 11.0908 37.5039 12.8603V12.872C37.5039 14.6415 38.5176 15.9072 40.1523 15.9072C41.0195 15.9072 41.7344 15.5146 42.1328 14.8173H42.2266V16.0947C42.2266 17.0263 41.5527 17.5595 40.4219 17.5595C39.5137 17.5595 38.9512 17.2197 38.8398 16.7392L38.834 16.7333H37.7793L37.7676 16.7392C37.9258 17.7763 38.8984 18.4619 40.4219 18.4619ZM40.375 15.0048C39.2031 15.0048 38.5469 14.1259 38.5469 12.872V12.8603C38.5469 11.6064 39.2031 10.7099 40.375 10.7099C41.541 10.7099 42.25 11.6064 42.25 12.8603V12.872C42.25 14.1259 41.5469 15.0048 40.375 15.0048ZM45.1914 16.2353H46.2109V12.497C46.2109 11.3896 46.8496 10.7099 47.8574 10.7099C48.8652 10.7099 49.334 11.2548 49.334 12.3915V16.2353H50.3535V12.1454C50.3535 10.6454 49.5625 9.80756 48.1445 9.80756C47.2129 9.80756 46.6211 10.2001 46.3047 10.8681H46.2109V7.41107H45.1914V16.2353Z" fill="#535965"/>
<rect opacity="0.496977" x="7" y="34.6471" width="10" height="10" rx="5" fill="#2DBAFC"/>
<path d="M26.0781 43.0588H27.0625V36.6018H27.127L29.7988 43.0588H30.6895L33.3613 36.6018H33.4258V43.0588H34.4102V34.6038H33.1855L30.291 41.6584H30.1973L27.3027 34.6038H26.0781V43.0588ZM39.0156 43.1702C40.5039 43.1702 41.4062 42.3264 41.623 41.4709L41.6348 41.4241H40.6152L40.5918 41.4768C40.4219 41.8577 39.8945 42.262 39.0391 42.262C37.9141 42.262 37.1934 41.5002 37.1641 40.1936H41.7109V39.7952C41.7109 37.9084 40.668 36.6311 38.9512 36.6311C37.2344 36.6311 36.1211 37.967 36.1211 39.9182V39.9241C36.1211 41.9045 37.2109 43.1702 39.0156 43.1702ZM38.9453 37.5393C39.877 37.5393 40.5684 38.1311 40.6738 39.3792H37.1816C37.293 38.178 38.0078 37.5393 38.9453 37.5393ZM45.625 43.1702C46.5039 43.1702 47.207 42.7542 47.5938 42.051H47.6875V43.0588H48.707V34.2346H47.6875V37.7385H47.5938C47.248 37.0647 46.4922 36.6311 45.625 36.6311C44.0195 36.6311 42.9766 37.9143 42.9766 39.8948V39.9065C42.9766 41.8752 44.0254 43.1702 45.625 43.1702ZM45.8594 42.2678C44.7051 42.2678 44.0195 41.3772 44.0195 39.9065V39.8948C44.0195 38.4241 44.7051 37.5334 45.8594 37.5334C47.0078 37.5334 47.7109 38.4358 47.7109 39.8948V39.9065C47.7109 41.3655 47.0078 42.2678 45.8594 42.2678ZM51.2031 35.5237C51.5898 35.5237 51.9062 35.2073 51.9062 34.8206C51.9062 34.4338 51.5898 34.1174 51.2031 34.1174C50.8164 34.1174 50.5 34.4338 50.5 34.8206C50.5 35.2073 50.8164 35.5237 51.2031 35.5237ZM50.6875 43.0588H51.707V36.7424H50.6875V43.0588ZM55.7441 43.1702C56.6699 43.1702 57.3086 42.7893 57.6191 42.1155H57.7129V43.0588H58.7324V36.7424H57.7129V40.4807C57.7129 41.5881 57.1211 42.2678 56.0078 42.2678C55 42.2678 54.5898 41.7229 54.5898 40.5862V36.7424H53.5703V40.8323C53.5703 42.3264 54.3086 43.1702 55.7441 43.1702ZM60.6367 43.0588H61.6562V39.1448C61.6562 38.2542 62.2832 37.5334 63.1094 37.5334C63.9062 37.5334 64.4219 38.0198 64.4219 38.7698V43.0588H65.4414V38.9983C65.4414 38.1956 66.0215 37.5334 66.9004 37.5334C67.791 37.5334 68.2188 37.9963 68.2188 38.928V43.0588H69.2383V38.6936C69.2383 37.3694 68.5176 36.6311 67.2285 36.6311C66.3555 36.6311 65.6348 37.0706 65.2949 37.7385H65.2012C64.9082 37.0823 64.3105 36.6311 63.4551 36.6311C62.6289 36.6311 62.0312 37.0237 61.75 37.7034H61.6562V36.7424H60.6367V43.0588Z" fill="#535965"/>
<rect opacity="0.50086" x="7" y="61.4706" width="10" height="10" rx="5" fill="#F2B42A"/>
<path d="M26.0781 69.8824H31.2109V68.9331H27.1328V61.4273H26.0781V69.8824ZM35.0723 69.9937C36.8711 69.9937 37.9844 68.7515 37.9844 66.73V66.7183C37.9844 64.6909 36.8711 63.4546 35.0723 63.4546C33.2734 63.4546 32.1602 64.6909 32.1602 66.7183V66.73C32.1602 68.7515 33.2734 69.9937 35.0723 69.9937ZM35.0723 69.0913C33.877 69.0913 33.2031 68.2183 33.2031 66.73V66.7183C33.2031 65.2242 33.877 64.357 35.0723 64.357C36.2676 64.357 36.9414 65.2242 36.9414 66.7183V66.73C36.9414 68.2183 36.2676 69.0913 35.0723 69.0913ZM40.5508 69.8824H41.5703L42.9766 64.9956H43.0703L44.4824 69.8824H45.5078L47.2773 63.5659H46.2637L45.0215 68.6167H44.9277L43.5156 63.5659H42.5488L41.1367 68.6167H41.043L39.8008 63.5659H38.7812L40.5508 69.8824Z" fill="#535965"/>
</svg>
