<svg width="721" height="442" viewBox="0 0 721 442" fill="none" xmlns="http://www.w3.org/2000/svg">
<line x1="1" y1="0.5" x2="721" y2="0.5" stroke="#646464"/>
<line x1="1" y1="63.4286" x2="721" y2="63.4286" stroke="#646464"/>
<line x1="1" y1="126.357" x2="721" y2="126.357" stroke="#646464"/>
<line x1="1" y1="189.286" x2="721" y2="189.286" stroke="#646464"/>
<line x1="1" y1="252.214" x2="721" y2="252.214" stroke="#646464"/>
<line x1="1" y1="315.143" x2="721" y2="315.143" stroke="#646464"/>
<line x1="1" y1="378.071" x2="721" y2="378.071" stroke="#646464"/>
<line x1="1" y1="441" x2="721" y2="441" stroke="#646464"/>
<line x1="0.5" y1="441.5" x2="0.5" stroke="#646464"/>
<line x1="720.5" y1="441.5" x2="720.5" stroke="#646464"/>
<ellipse opacity="0.5" cx="182.421" cy="304.532" rx="165.421" ry="121.096" fill="#344BCE"/>
<ellipse opacity="0.5" cx="182.421" cy="239.826" rx="103.388" ry="92.5041" fill="#344BCE"/>
<ellipse opacity="0.5" cx="182.421" cy="149.825" rx="116.546" ry="104.277" fill="#344BCE"/>
<ellipse opacity="0.5" cx="183.361" cy="65.6158" rx="55.4536" ry="49.6158" fill="#344BCE"/>
<ellipse opacity="0.5" cx="422.093" cy="326.948" rx="115.607" ry="97.5498" fill="#579BF9"/>
<ellipse opacity="0.5" cx="421.153" cy="242.073" rx="131.585" ry="117.732" fill="#579BF9"/>
<ellipse opacity="0.5" cx="421.153" cy="150.376" rx="65.7923" ry="58.8662" fill="#579BF9"/>
<ellipse opacity="0.5" cx="422.093" cy="58.8883" rx="47.9344" ry="42.8883" fill="#579BF9"/>
<ellipse opacity="0.7" cx="656.126" cy="241.979" rx="50.7541" ry="45.4111" fill="#FFDA70"/>
<ellipse opacity="0.7" cx="656.126" cy="148.049" rx="33.8361" ry="30.2741" fill="#FFDA70"/>
<ellipse opacity="0.7" cx="656.126" cy="55.7197" rx="15.0382" ry="13.4551" fill="#FFDA70"/>
<ellipse opacity="0.7" cx="656.126" cy="333.582" rx="35.7158" ry="31.956" fill="#FFDA70"/>
</svg>
