<svg width="17" height="17" viewBox="0 0 17 17" fill="none" xmlns="http://www.w3.org/2000/svg">
<path d="M14.2272 4.13442L14.2272 11.517C14.2272 12.0638 13.7832 12.507 13.2355 12.507H11.3328C10.6241 12.507 9.98751 12.9401 9.72831 13.5986C9.44527 14.3178 8.42984 14.329 8.13095 13.6162L8.11108 13.5689C7.8405 12.9237 7.21336 12.4992 6.5128 12.4872L4.20179 12.4474C3.66083 12.4381 3.22717 11.9977 3.22717 11.4576L3.22717 4.13442C3.22717 3.58766 3.67118 3.14443 4.21888 3.14443L13.2355 3.14442C13.7832 3.14442 14.2272 3.58766 14.2272 4.13442Z" stroke="#555555" stroke-linecap="round" stroke-linejoin="round"/>
<rect x="4.77319" y="5.54927" width="8" height="1" rx="0.5" fill="#48B0F7"/>
<rect x="4.77319" y="9.60909" width="8" height="1" rx="0.5" fill="#48B0F7"/>
<rect x="4.77319" y="7.57909" width="6.44151" height="1" rx="0.5" fill="#48B0F7"/>
</svg>
