<svg width="31" height="32" viewBox="0 0 31 32" fill="none" xmlns="http://www.w3.org/2000/svg">
<path d="M15.5003 31.6644C24.0471 31.6644 31 24.7108 31 16.1644C31 7.61809 24.0465 0.664429 15.5003 0.664429C6.95411 0.664429 0 7.61743 0 16.1644C0 24.7114 6.95345 31.6644 15.5003 31.6644ZM27.692 13.4166C26.3992 12.6628 26.7224 13.5242 26.7224 13.5242C26.7224 13.5242 26.7224 13.5242 27.5844 14.278C28.4465 15.032 29.0928 15.3557 28.7696 16.4114C28.4465 17.4673 27.9076 16.5404 26.8305 17.4025C25.7528 18.2645 28.1232 18.4801 28.2307 19.7729C28.3384 21.0657 26.938 20.4194 26.2917 21.7121C25.6453 23.0048 26.1842 24.4057 25.8609 25.591C25.5378 26.7762 22.8441 28.3922 21.8658 28.9311C20.8874 29.4699 21.5514 27.7459 21.8658 26.5606C22.1801 25.3753 21.1201 24.0825 21.1201 21.9277C21.1201 19.7729 20.4738 20.4194 18.5346 20.4194C16.5955 20.4194 15.7335 19.3416 15.5179 17.2948C15.3022 15.2476 17.1338 13.2009 17.9958 12.5545C18.8578 11.9081 20.0431 11.2617 21.2276 11.9081C22.4128 12.5545 22.8436 13.2009 24.1363 13.2009C25.429 13.2009 25.429 12.7702 26.1835 12.2313C26.9374 11.6924 25.1058 11.0461 24.0288 11.1586C22.9517 11.2712 23.1667 10.5079 21.7665 9.96901C20.3662 9.43015 19.8273 10.5079 19.396 10.7229C18.9653 10.9386 17.457 11.5849 17.3059 10.7229C17.1557 9.86085 18.1027 9.75334 19.0728 9.75334C20.0424 9.75334 19.1803 8.99946 18.8572 8.46054C18.5339 7.92168 17.8876 7.92168 17.4205 7.50105C16.9539 7.08042 17.9952 6.30577 19.0721 6.56293C20.1492 6.8201 19.7185 7.59856 20.9037 7.49099C22.0889 7.38342 20.9037 6.30577 20.9037 5.26198C20.9037 4.21819 22.1965 4.25844 23.0585 3.84221C23.9204 3.42592 24.9975 5.65933 25.7521 6.56293C26.0017 6.86225 26.3582 6.72955 26.723 6.42399C28.6287 8.61717 29.9032 11.3706 30.2628 14.4025C28.7225 14.9785 28.8226 14.0762 27.692 13.4166ZM15.5003 1.29317C16.0951 1.29317 16.6805 1.33217 17.2571 1.40068C17.0458 1.98859 16.7024 2.4275 16.7024 2.4275C16.7024 2.4275 16.2718 3.82774 15.3016 3.93591C14.3314 4.04408 13.1468 3.93591 12.608 4.79795C12.0691 5.65999 12.1773 7.16846 11.3152 6.30636C10.4532 5.44432 11.2077 5.3783 10.3457 4.49548C9.48363 3.61273 9.26796 3.61273 8.83728 3.61273C8.71024 3.61273 8.56624 3.3933 8.45183 3.07262C10.5513 1.93829 12.9512 1.29317 15.5003 1.29317ZM6.50896 4.32892C6.48503 4.48424 6.62146 4.70997 7.2836 4.98601C8.57637 5.52487 8.87436 6.59193 8.27897 6.54978C7.68351 6.50763 5.26399 6.83772 7.48921 7.48409C9.71501 8.13052 9.53143 8.88814 8.54178 9.21132C7.55207 9.53457 7.76399 8.13551 7.54832 9.53641C7.33265 10.9373 7.11573 10.8298 6.41533 11.0455C5.71486 11.2612 4.4215 12.3389 4.4215 13.0928C4.4215 13.8467 3.99016 14.2686 4.85218 14.915C5.7142 15.5614 4.5824 16.7436 4.17499 15.8821C3.68579 14.8484 3.34374 14.278 2.80489 14.1699C2.26605 14.0624 1.57189 14.9238 2.80489 15.7858C4.0379 16.6479 4.09766 17.1867 4.09766 17.8331C4.09766 18.4795 4.98987 18.4795 5.67521 18.372C6.35996 18.2645 7.76649 20.0961 8.24879 20.85C8.73043 21.604 9.59245 22.3585 10.7776 22.6816C11.9628 23.0048 12.3936 23.7594 11.7472 24.2976C11.1009 24.8364 10.9934 26.1292 10.2389 26.4524C9.48435 26.7755 9.37685 27.7451 8.9461 28.1765C8.69334 28.4293 8.44815 28.7574 8.24313 29.1367C7.59994 28.7752 6.98626 28.367 6.40593 27.9174C6.3883 27.8219 6.36884 27.725 6.36003 27.6377C6.25252 26.5599 6.14436 25.2672 5.49801 24.729C4.85159 24.1901 4.42031 23.4362 4.20524 22.5741C3.99016 21.7122 4.52841 20.4194 4.09773 19.5573C3.66705 18.6953 3.66705 19.5032 2.80496 18.2916C1.94294 17.0799 1.94294 17.0792 1.40409 16.1097C1.11616 15.591 0.921858 14.7642 0.802384 13.8932C1.40028 10.0068 3.51036 6.61264 6.50896 4.32892Z" fill="#C5C5C5"/>
</svg>
