<svg width="31" height="31" viewBox="0 0 31 31" fill="none" xmlns="http://www.w3.org/2000/svg">
<path d="M15.5003 31C24.0471 31 31 24.0463 31 15.5C31 6.95366 24.0465 0 15.5003 0C6.95411 0 0 6.95301 0 15.5C0 24.047 6.95345 31 15.5003 31ZM27.692 12.7522C26.3992 11.9983 26.7224 12.8597 26.7224 12.8597C26.7224 12.8597 26.7224 12.8597 27.5844 13.6136C28.4465 14.3675 29.0928 14.6913 28.7696 15.747C28.4465 16.8028 27.9076 15.876 26.8305 16.7381C25.7528 17.6 28.1232 17.8157 28.2307 19.1084C28.3384 20.4013 26.938 19.7549 26.2917 21.0477C25.6453 22.3404 26.1842 23.7413 25.8609 24.9265C25.5378 26.1117 22.8441 27.7278 21.8658 28.2667C20.8874 28.8055 21.5514 27.0814 21.8658 25.8961C22.1801 24.7108 21.1201 23.4181 21.1201 21.2633C21.1201 19.1084 20.4738 19.7549 18.5346 19.7549C16.5955 19.7549 15.7335 18.6772 15.5179 16.6304C15.3022 14.5832 17.1338 12.5365 17.9958 11.8901C18.8578 11.2437 20.0431 10.5973 21.2276 11.2437C22.4128 11.8901 22.8436 12.5365 24.1363 12.5365C25.429 12.5365 25.429 12.1058 26.1835 11.5669C26.9374 11.028 25.1058 10.3816 24.0288 10.4942C22.9517 10.6068 23.1667 9.84344 21.7665 9.30458C20.3662 8.76573 19.8273 9.84344 19.396 10.0585C18.9653 10.2741 17.457 10.9205 17.3059 10.0585C17.1557 9.19642 18.1027 9.08891 19.0728 9.08891C20.0424 9.08891 19.1803 8.33503 18.8572 7.79611C18.5339 7.25725 17.8876 7.25725 17.4205 6.83662C16.9539 6.41599 17.9952 5.64134 19.0721 5.8985C20.1492 6.15567 19.7185 6.93414 20.9037 6.82656C22.0889 6.71899 20.9037 5.64134 20.9037 4.59755C20.9037 3.55377 22.1965 3.59401 23.0585 3.17778C23.9204 2.76149 24.9975 4.99491 25.7521 5.8985C26.0017 6.19782 26.3582 6.06512 26.723 5.75956C28.6287 7.95274 29.9032 10.7061 30.2628 13.7381C28.7225 14.3141 28.8226 13.4118 27.692 12.7522ZM15.5003 0.628744C16.0951 0.628744 16.6805 0.667736 17.2571 0.736253C17.0458 1.32416 16.7024 1.76307 16.7024 1.76307C16.7024 1.76307 16.2718 3.16332 15.3016 3.27148C14.3314 3.37965 13.1468 3.27148 12.608 4.13352C12.0691 4.99556 12.1773 6.50404 11.3152 5.64193C10.4532 4.77989 11.2077 4.71387 10.3457 3.83105C9.48363 2.9483 9.26796 2.9483 8.83728 2.9483C8.71024 2.9483 8.56624 2.72888 8.45183 2.40819C10.5513 1.27386 12.9512 0.628744 15.5003 0.628744ZM6.50896 3.6645C6.48503 3.81981 6.62146 4.04554 7.2836 4.32158C8.57637 4.86044 8.87436 5.9275 8.27897 5.88535C7.68351 5.8432 5.26399 6.17329 7.48921 6.81966C9.71501 7.46609 9.53143 8.22371 8.54178 8.54689C7.55207 8.87014 7.76399 7.47109 7.54832 8.87198C7.33265 10.2729 7.11573 10.1654 6.41533 10.381C5.71486 10.5967 4.4215 11.6744 4.4215 12.4284C4.4215 13.1823 3.99016 13.6042 4.85218 14.2506C5.7142 14.8969 4.5824 16.0791 4.17499 15.2177C3.68579 14.184 3.34374 13.6136 2.80489 13.5055C2.26605 13.398 1.57189 14.2594 2.80489 15.1214C4.0379 15.9835 4.09766 16.5223 4.09766 17.1687C4.09766 17.8151 4.98987 17.8151 5.67521 17.7075C6.35996 17.6 7.76649 19.4317 8.24879 20.1856C8.73043 20.9396 9.59245 21.694 10.7776 22.0172C11.9628 22.3404 12.3936 23.0949 11.7472 23.6331C11.1009 24.172 10.9934 25.4647 10.2389 25.788C9.48435 26.1111 9.37685 27.0807 8.9461 27.5121C8.69334 27.7649 8.44815 28.093 8.24313 28.4723C7.59994 28.1108 6.98626 27.7026 6.40593 27.253C6.3883 27.1574 6.36884 27.0606 6.36003 26.9733C6.25252 25.8955 6.14436 24.6027 5.49801 24.0646C4.85159 23.5257 4.42031 22.7718 4.20524 21.9097C3.99016 21.0477 4.52841 19.7549 4.09773 18.8928C3.66705 18.0309 3.66705 18.8388 2.80496 17.6272C1.94294 16.4155 1.94294 16.4148 1.40409 15.4453C1.11616 14.9265 0.921858 14.0997 0.802384 13.2288C1.40028 9.34233 3.51036 5.94821 6.50896 3.6645Z" fill="#535965"/>
</svg>
