<svg width="275" height="225" viewBox="0 0 275 225" fill="none" xmlns="http://www.w3.org/2000/svg">
<line x1="1" y1="0.5" x2="275" y2="0.5" stroke="#D9DBDD"/>
<line x1="1" y1="32.4286" x2="275" y2="32.4286" stroke="#D9DBDD"/>
<line x1="1" y1="64.3571" x2="275" y2="64.3571" stroke="#D9DBDD"/>
<line x1="1" y1="96.2857" x2="275" y2="96.2857" stroke="#D9DBDD"/>
<line x1="1" y1="128.214" x2="275" y2="128.214" stroke="#D9DBDD"/>
<line x1="1" y1="160.143" x2="275" y2="160.143" stroke="#D9DBDD"/>
<line x1="1" y1="192.071" x2="275" y2="192.071" stroke="#D9DBDD"/>
<line x1="1" y1="224" x2="275" y2="224" stroke="#D9DBDD"/>
<line x1="0.5" y1="224.5" x2="0.5" stroke="#D9DBDD"/>
<line x1="274.5" y1="224.5" x2="274.5" stroke="#D9DBDD"/>
<path fill-rule="evenodd" clip-rule="evenodd" d="M1 174.355L92.3333 109.032L183.667 126.016L275 62V224H1V174.355Z" fill="#F2B42A"/>
<path fill-rule="evenodd" clip-rule="evenodd" d="M1 174.337L92.3333 158.653L181.723 92L275 108.99V224H1V174.337Z" fill="#264AE5"/>
<path fill-rule="evenodd" clip-rule="evenodd" d="M1 174.337L92.3333 158.653L181.723 92L275 108.99" fill="#264AE5"/>
<path fill-rule="evenodd" clip-rule="evenodd" d="M1 208.211L181.723 174L275 191.105V224H1V208.211Z" fill="#2DBAFC"/>
<path fill-rule="evenodd" clip-rule="evenodd" d="M1 208.211L181.723 174L275 191.105" fill="#2DBAFC"/>
</svg>
