<svg width="18" height="28" viewBox="0 0 18 28" fill="none" xmlns="http://www.w3.org/2000/svg">
<path d="M17 5.99969H1" stroke="#4A4A4A" stroke-width="0.8" stroke-linecap="round" stroke-linejoin="round"/>
<path d="M16.5998 18.7999H1.4" stroke="#4A4A4A" stroke-width="0.8" stroke-linecap="round" stroke-linejoin="round"/>
<path d="M6 3.49951H12" stroke="#4A4A4A" stroke-width="0.8" stroke-linecap="round" stroke-linejoin="round"/>
<path d="M6 21.2999H12" stroke="#4A4A4A" stroke-width="0.8" stroke-linecap="round" stroke-linejoin="round"/>
<path fill-rule="evenodd" clip-rule="evenodd" d="M17 24.7391C17 25.9871 15.8972 26.9999 14.5384 26.9999H3.4616C2.1028 26.9999 1 25.9871 1 24.7391V3.26086C1 2.01174 2.1028 1 3.4616 1H14.5384C15.8972 1 17 2.01174 17 3.26086V24.7391Z" stroke="#4A4A4A" stroke-width="0.8" stroke-linecap="round" stroke-linejoin="round"/>
<path fill-rule="evenodd" clip-rule="evenodd" d="M12.5306 13.2261H8.4816L6.2988 14.5619V13.2261H4.8436V8.93703L12.5306 8.93701V13.2261Z" stroke="#48B0F7" stroke-width="0.6" stroke-linejoin="round"/>
<path d="M5.604 16.8002C5.96932 16.8002 6.26547 16.5185 6.26547 16.1711C6.26547 15.8236 5.96932 15.542 5.604 15.542C5.23868 15.542 4.94253 15.8236 4.94253 16.1711C4.94253 16.5185 5.23868 16.8002 5.604 16.8002Z" fill="#48B0F7"/>
<path d="M8.9112 16.8002C9.27652 16.8002 9.57267 16.5185 9.57267 16.1711C9.57267 15.8236 9.27652 15.542 8.9112 15.542C8.54588 15.542 8.24973 15.8236 8.24973 16.1711C8.24973 16.5185 8.54588 16.8002 8.9112 16.8002Z" fill="#48B0F7"/>
<path d="M12.2188 16.8002C12.5841 16.8002 12.8803 16.5185 12.8803 16.1711C12.8803 15.8236 12.5841 15.542 12.2188 15.542C11.8535 15.542 11.5573 15.8236 11.5573 16.1711C11.5573 16.5185 11.8535 16.8002 12.2188 16.8002Z" fill="#48B0F7"/>
</svg>
