<svg width="18" height="28" viewBox="0 0 18 28" fill="none" xmlns="http://www.w3.org/2000/svg">
<path d="M17 5.99969H1" stroke="#A4A4A4" stroke-width="0.8" stroke-linecap="round" stroke-linejoin="round"/>
<path d="M16.5998 18.8H1.39999" stroke="#A4A4A4" stroke-width="0.8" stroke-linecap="round" stroke-linejoin="round"/>
<path d="M6 3.49951H12" stroke="#A4A4A4" stroke-width="0.8" stroke-linecap="round" stroke-linejoin="round"/>
<path d="M6 21.2998H12" stroke="#A4A4A4" stroke-width="0.8" stroke-linecap="round" stroke-linejoin="round"/>
<path fill-rule="evenodd" clip-rule="evenodd" d="M17 24.7392C17 25.9872 15.8972 27 14.5384 27H3.4616C2.1028 27 1 25.9872 1 24.7392V3.26086C1 2.01174 2.1028 1 3.4616 1H14.5384C15.8972 1 17 2.01174 17 3.26086V24.7392Z" stroke="#A4A4A4" stroke-width="0.8" stroke-linecap="round" stroke-linejoin="round"/>
<path fill-rule="evenodd" clip-rule="evenodd" d="M12.5306 13.2262L8.4816 13.2262L6.2988 14.562V13.2262H4.8436V8.93703L12.5306 8.93701V13.2262Z" stroke="#579BF9" stroke-width="0.6" stroke-linejoin="round"/>
<path d="M5.60401 16.8001C5.96933 16.8001 6.26548 16.5184 6.26548 16.171C6.26548 15.8235 5.96933 15.5419 5.60401 15.5419C5.23869 15.5419 4.94254 15.8235 4.94254 16.171C4.94254 16.5184 5.23869 16.8001 5.60401 16.8001Z" fill="#579BF9"/>
<path d="M8.9112 16.8001C9.27652 16.8001 9.57267 16.5184 9.57267 16.171C9.57267 15.8235 9.27652 15.5419 8.9112 15.5419C8.54588 15.5419 8.24973 15.8235 8.24973 16.171C8.24973 16.5184 8.54588 16.8001 8.9112 16.8001Z" fill="#579BF9"/>
<path d="M12.2188 16.8001C12.5841 16.8001 12.8803 16.5184 12.8803 16.171C12.8803 15.8235 12.5841 15.5419 12.2188 15.5419C11.8535 15.5419 11.5573 15.8235 11.5573 16.171C11.5573 16.5184 11.8535 16.8001 12.2188 16.8001Z" fill="#579BF9"/>
</svg>
