<svg width="32" height="32" viewBox="0 0 32 32" fill="none" xmlns="http://www.w3.org/2000/svg">
<path d="M16 0C14.9894 0 14.1473 0.842104 14.1473 1.85269V7.20841C14.1473 8.21899 14.9894 9.0611 16 9.0611C17.0106 9.0611 17.8527 8.21899 17.8527 7.20841V1.85269C17.8527 0.842104 17.0106 0 16 0V0Z" fill="#579BF9"/>
<path d="M7.30959 4.6821C6.6021 3.97462 5.42334 3.97462 4.68223 4.6821C3.97474 5.38959 3.97474 6.56836 4.68223 7.30947L8.48859 11.1158C8.85913 11.4864 9.33069 11.6548 9.80227 11.6548C10.2738 11.6548 10.7454 11.4864 11.1159 11.1158C11.8234 10.4084 11.8234 9.22959 11.1159 8.48847L7.30959 4.6821Z" fill="#579BF9"/>
<path d="M9.06108 16C9.06108 14.9894 8.21898 14.1473 7.2084 14.1473H1.85269C0.842102 14.1473 0 14.9894 0 16C0 17.0106 0.842102 17.8527 1.85269 17.8527H7.2084C8.25254 17.8527 9.06108 17.0106 9.06108 16Z" fill="#579BF9"/>
<path d="M8.48847 20.9179L4.6821 24.6904C3.97462 25.3979 3.97462 26.5767 4.6821 27.3178C5.05264 27.6883 5.52421 27.8568 5.99578 27.8568C6.46735 27.8568 6.93894 27.6883 7.30946 27.3178L11.1158 23.5114C11.8233 22.8039 11.8233 21.6252 11.1158 20.8841C10.3748 20.1768 9.19571 20.1768 8.48847 20.9179V20.9179Z" fill="#579BF9"/>
<path d="M16 22.9389C14.9894 22.9389 14.1473 23.781 14.1473 24.7916V30.1473C14.1473 31.1579 14.9894 32 16 32C17.0106 32 17.8527 31.1579 17.8527 30.1473V24.7916C17.8527 23.7474 17.0106 22.9389 16 22.9389V22.9389Z" fill="#579BF9"/>
<path d="M23.5116 20.9179C22.8041 20.2104 21.6254 20.2104 20.8843 20.9179C20.1768 21.6253 20.1768 22.8041 20.8843 23.5452L24.6906 27.3516C25.0612 27.7221 25.5327 27.8906 26.0043 27.8906C26.4759 27.8906 26.9474 27.7221 27.318 27.3516C28.0255 26.6441 28.0255 25.4653 27.318 24.7242L23.5116 20.9179Z" fill="#579BF9"/>
<path d="M30.1474 14.1473H24.7917C23.7811 14.1473 22.939 14.9894 22.939 16C22.939 17.0106 23.7811 17.8527 24.7917 17.8527H30.1474C31.1579 17.8527 32 17.0106 32 16C32 14.9894 31.1579 14.1473 30.1474 14.1473Z" fill="#579BF9"/>
<path d="M22.1979 11.621C22.6695 11.621 23.1411 11.4526 23.5116 11.082L27.318 7.27566C28.0255 6.56817 28.0255 5.3894 27.318 4.64829C26.6105 3.9408 25.4317 3.9408 24.6906 4.64829L20.9181 8.48853C20.2106 9.19601 20.2106 10.3748 20.9181 11.1159C21.2548 11.4526 21.7264 11.6211 22.1979 11.6211L22.1979 11.621Z" fill="#579BF9"/>
</svg>
