<svg width="57" height="57" viewBox="0 0 57 57" fill="none" xmlns="http://www.w3.org/2000/svg">
<g clip-path="url(#clip0_124_4551)">
<path d="M28.5172 56.458C43.9812 56.458 56.5172 43.922 56.5172 28.458C56.5172 12.994 43.9812 0.458008 28.5172 0.458008C13.0533 0.458008 0.517242 12.994 0.517242 28.458C0.517242 43.922 13.0533 56.458 28.5172 56.458Z" fill="#579BF9"/>
<path d="M30.069 20.7892L36.0158 26.7359L23.1027 39.649L17.8007 40.2343C17.0909 40.3128 16.4912 39.7126 16.5702 39.0029L17.1601 33.6971L30.069 20.7892ZM39.6938 19.9038L36.9016 17.1116C36.0306 16.2406 34.6181 16.2406 33.7471 17.1116L31.1202 19.7384L37.067 25.6852L39.6938 23.0583C40.5648 22.1869 40.5648 20.7748 39.6938 19.9038Z" fill="#101374"/>
</g>
<defs>
<clipPath id="clip0_124_4551">
<rect width="56" height="56" fill="white" transform="translate(0.517242 0.458008)"/>
</clipPath>
</defs>
</svg>
