<svg width="286" height="286" viewBox="0 0 286 286" fill="none" xmlns="http://www.w3.org/2000/svg">
<path d="M150.054 62.5432C135.553 60.1579 124.256 59.0254 115.31 59.0254C76.7976 59.0254 81.8483 79.9949 62.0571 111.975C38.9483 149.293 41.6024 199.835 83.2555 209.564C109.865 215.776 150.397 223.716 183.865 223.716C210.749 223.716 233.114 218.568 240.012 203.324C261.016 156.843 212.213 72.782 150.054 62.5432V62.5432Z" fill="#313131"/>
<path d="M98.1011 85.2275H207.147V194.274H98.1011V85.2275Z" fill="#252525"/>
<path d="M124.696 171.325L136.708 152.06L153.296 170.25L168.168 142.428L181.896 172.395V175.604H122.025L124.696 171.325Z" fill="#B8F3B8"/>
<path d="M183.799 159.852C182.192 155.676 173.738 133.677 172.062 129.765C171.65 128.815 171.392 127.683 170.952 126.579C170.771 126.13 170.462 125.745 170.064 125.47C169.666 125.195 169.196 125.043 168.712 125.032C168.229 125.021 167.752 125.152 167.342 125.408C166.932 125.665 166.606 126.036 166.405 126.476V126.527C165.884 127.671 165.655 128.666 165.129 129.81C164.603 130.954 163.985 131.664 163.413 132.968C162.681 134.558 162.269 136.034 161.697 137.481C158.791 144.522 155.245 151.535 153.254 156.168L152.042 159.251L138.686 143.064L138.033 142.366L137.89 142.211C137.733 142.043 137.543 141.908 137.333 141.812C137.123 141.717 136.896 141.665 136.666 141.657C136.435 141.65 136.206 141.688 135.99 141.769C135.774 141.85 135.576 141.974 135.408 142.131C135.263 142.263 135.142 142.42 135.053 142.595L131.787 148.818C128.184 154.813 123.636 160.91 120.29 166.819C119.672 167.86 119.072 168.884 118.488 169.879C117.756 171.452 117.293 172.739 116.612 173.849L116.04 174.815L119.415 176.84C120.77 174.598 122.098 172.264 123.545 170.028L124.174 169.158C124.826 168.226 125.118 167.03 125.77 166.104C127.176 164.075 128.454 161.96 129.596 159.772C130.414 158.205 135.385 149.567 136.952 146.839V146.799L139.183 149.27L142.009 153.274L149.21 162.003C149.942 162.781 150.629 163.484 151.167 164.022L151.378 164.233C151.546 164.402 151.746 164.536 151.966 164.628C152.186 164.719 152.421 164.766 152.659 164.766C152.898 164.766 153.133 164.719 153.353 164.628C153.573 164.536 153.773 164.402 153.941 164.233C154.122 164.05 154.264 163.832 154.358 163.593C154.982 161.94 155.502 160.578 156.074 159.2C157.602 155.693 159.066 152.382 160.176 149.167C160.789 147.528 161.555 145.95 162.464 144.454C162.967 143.619 163.522 142.606 163.985 141.788L168.504 131.984L176.049 151.009L178.537 156.42L179.606 159.589C181.46 163.776 183.193 168.009 184.852 171.429C186.407 174.632 192.951 182.738 183.799 159.852V159.852Z" fill="#5BDB5B"/>
<path d="M201.48 173.459L198.58 173.121C195.839 172.961 193.088 173.082 190.372 173.482C187.952 173.253 178.646 173.853 175.769 173.888L171.919 173.424L160.479 173.55C157.99 173.485 155.501 173.65 153.043 174.042L152.597 174.071L152.151 174.042C149.692 173.65 147.203 173.485 144.715 173.55L133.275 173.424L129.425 173.888C126.565 173.853 117.236 173.253 114.822 173.482C112.103 173.082 109.351 172.961 106.608 173.121L103.708 173.459C101.815 173.544 99.9042 173.487 98.0452 173.499V177.428H98.8345C99.8802 177.508 100.92 177.655 101.946 177.869L111.527 177.972L114.387 177.651C117.207 177.594 120.107 178.304 122.79 178.098C125.65 177.875 128.395 177.794 131.301 177.817C133.463 177.817 135.631 177.817 137.988 177.852C139.566 177.532 141.19 177.51 142.776 177.789C143.975 177.455 145.209 177.263 146.454 177.217C147.803 177.394 148.673 177.726 149.8 177.571C150.429 177.486 151.905 178.018 152.545 177.966C153.192 178.018 154.662 177.486 155.291 177.571C156.435 177.726 157.287 177.394 158.643 177.217C159.885 177.263 161.118 177.455 162.315 177.789C163.901 177.51 165.525 177.532 167.103 177.852C169.459 177.852 171.627 177.852 173.795 177.817C176.695 177.817 179.452 177.875 182.306 178.098C184.983 178.304 187.883 177.594 190.703 177.651L193.592 177.972L203.167 177.869C204.194 177.655 205.233 177.508 206.279 177.428H207.068V173.499C205.284 173.487 203.373 173.544 201.48 173.459V173.459Z" fill="#DB5F12"/>
<path d="M208.809 138.133C208.809 133.047 208.7 104.333 208.666 95.2669C208.666 91.995 208.62 88.7518 208.597 85.8003C208.596 85.6112 208.557 85.4244 208.483 85.2504C208.409 85.0764 208.302 84.9187 208.167 84.7864C208.032 84.654 207.872 84.5496 207.697 84.4792C207.521 84.4088 207.334 84.3737 207.145 84.376L191.701 84.5361L177.852 84.2559L145.655 84.2158C137.526 84.3474 131.097 84.5247 124.262 84.5476C115.024 84.5876 106.198 84.6105 98.0927 84.7707H98.047C97.9108 84.7729 97.7763 84.8021 97.6515 84.8566C97.5267 84.9112 97.4139 84.9899 97.3198 85.0884C97.2256 85.1868 97.1519 85.3029 97.1029 85.43C97.054 85.5571 97.0307 85.6927 97.0345 85.8289C97.0688 87.5449 97.0974 89.0149 97.126 90.4678C97.2347 94.6605 97.1604 100.815 97.0174 105.391C96.9487 108.16 96.8686 111.426 96.8 114.086L96.697 194.875C96.6963 195.058 96.7319 195.24 96.8018 195.409C96.8718 195.578 96.9746 195.732 97.1045 195.862C97.2343 195.991 97.3885 196.093 97.5581 196.162C97.7278 196.232 97.9095 196.266 98.0927 196.265H129.976L146.993 195.996L156.608 196.093C169.701 195.927 182.789 195.836 193.52 195.624C198.553 195.521 207.757 195.052 206.899 194.629C206.475 194.417 203.552 194.206 196.397 194.006C189.241 193.805 177.875 193.605 160.521 193.514C152.09 193.434 119.76 193.205 99.7973 193.159V166.069C99.7973 163.083 99.9174 159.777 99.9117 156.345C99.9117 152.753 99.7572 149.91 99.763 146.335C99.7687 142.76 99.9517 140.226 99.9574 136.148C99.9574 131.166 99.7801 126.864 99.7401 122.42C99.6257 109.613 99.66 96.5653 99.6943 87.4476C108.738 87.4476 114.795 87.4762 119.846 87.4476L143.012 87.133L205.795 87.2188L206.115 107.456V141.679C206.115 153.148 206.178 164.445 206.327 174.998C206.47 185.214 206.681 195.069 206.967 194.652C207.253 194.234 207.659 193.21 208.048 184.539C208.266 179.66 208.466 168.986 208.689 159.468C208.821 153.039 208.872 145.317 208.809 138.133V138.133Z" fill="#579BF9"/>
<path d="M232.907 123.551C230.51 123.374 228.588 123.254 226.798 123.163C222.628 122.951 211.777 123.763 231.231 125.965C231.002 128.11 230.768 130.541 230.51 133.327C229.938 139.281 226.815 170.684 226.375 176.364C226.272 177.766 225.986 179.31 225.843 180.94C225.7 182.57 225.723 183.972 225.568 185.648C225.414 187.324 225.122 188.508 224.939 190.401C224.722 192.741 224.716 194.771 224.567 196.865C223.995 204.873 223.132 212.995 222.588 218.784L220.403 218.595L209.535 217.92L179.894 215.072L169.238 214.442C158.724 213.476 147.256 212.154 137.354 211.514C132.561 211.199 127.985 211.027 128.283 211.468C128.58 211.908 129.203 212.549 133.339 213.384C135.667 213.847 140.661 214.471 145.094 215.06C148.079 215.455 151.649 215.775 154.961 215.97C157.323 216.107 170.616 217.188 174.815 217.525C178.819 217.851 182.76 218.097 186.466 218.355L192.93 219.23L208.014 220.649C211.835 220.86 214.878 220.963 218.069 221.221L223.949 221.695H223.978C224.297 221.719 224.611 221.615 224.854 221.407C225.096 221.199 225.246 220.904 225.271 220.586C225.517 217.485 225.7 214.688 225.803 212.006C225.928 209.666 226.178 207.334 226.552 205.021C226.752 203.734 226.958 202.207 227.124 200.966C228.84 182.937 230.499 165.102 232.078 148.342C232.289 144.939 232.438 142.588 232.575 140.391C232.793 138.612 232.987 137.028 233.119 135.964C233.41 132.011 233.691 128.059 233.942 124.787V124.747C233.957 124.453 233.857 124.164 233.665 123.942C233.472 123.719 233.2 123.579 232.907 123.551V123.551Z" fill="#579BF9"/>
<path d="M119.41 110.395C119.577 110.043 119.768 109.703 119.982 109.377C120.79 108.321 121.828 107.463 123.018 106.868C124.207 106.273 125.517 105.958 126.846 105.945C127.804 105.863 128.769 105.931 129.706 106.145C131.11 106.621 132.37 107.445 133.367 108.542C134.347 109.604 135.096 110.858 135.564 112.226C136.016 113.461 136.136 114.748 136.427 114.662C136.621 114.601 136.787 114.473 136.896 114.302C137.128 113.911 137.251 113.464 137.251 113.009C137.268 112.453 137.211 111.897 137.079 111.356C136.906 110.639 136.659 109.941 136.342 109.274C135.866 108.281 135.172 107.409 134.311 106.723C133.533 106.067 132.673 105.513 131.754 105.076C130.702 104.579 129.575 104.26 128.419 104.132C127.164 104.005 125.895 104.112 124.679 104.447C123.5 104.573 122.361 104.944 121.334 105.534C120.307 106.125 119.414 106.924 118.713 107.879C118.106 108.785 117.618 109.765 117.26 110.796C116.69 112.236 116.519 113.802 116.762 115.332C116.848 115.949 116.974 116.848 117.065 117.522C117.136 117.954 117.238 118.38 117.368 118.798C117.927 120.108 118.746 121.291 119.776 122.275C120.805 123.259 122.023 124.024 123.357 124.524C124.69 125.024 126.112 125.249 127.534 125.184C128.957 125.119 130.352 124.766 131.634 124.146C132.051 123.911 132.452 123.65 132.835 123.363C133.156 123.099 133.442 122.871 133.693 122.63L134.322 122.133C134.511 121.978 134.654 121.818 134.78 121.704C135.997 120.301 136.79 118.581 137.068 116.745C137.105 116.284 137.058 115.821 136.931 115.377C136.793 114.937 136.605 114.622 136.404 114.651C136.302 114.651 136.199 114.765 136.096 114.966C135.967 115.278 135.854 115.597 135.758 115.921C135.601 116.489 135.41 117.046 135.186 117.591C134.839 118.434 134.377 119.226 133.813 119.942C133.325 120.532 132.759 121.054 132.132 121.492C131.198 122.176 130.136 122.665 129.009 122.928C127.882 123.186 126.716 123.219 125.577 123.025C124.869 122.91 124.177 122.719 123.512 122.453C123.161 122.269 122.824 122.058 122.505 121.824C122.316 121.721 122.139 121.635 121.973 121.532C121.79 121.437 121.618 121.324 121.458 121.195C121.173 120.893 120.908 120.574 120.663 120.239C120.282 119.843 119.928 119.42 119.605 118.975C118.886 117.868 118.479 116.588 118.427 115.269C118.387 114.184 118.526 113.1 118.838 112.06C118.975 111.488 119.166 110.93 119.41 110.395V110.395Z" fill="#0595DB"/>
<path d="M126.821 121.264C130.546 121.264 133.565 118.245 133.565 114.521C133.565 110.796 130.546 107.777 126.821 107.777C123.097 107.777 120.077 110.796 120.077 114.521C120.077 118.245 123.097 121.264 126.821 121.264Z" fill="#579BF9"/>
</svg>
