<svg width="287" height="287" viewBox="0 0 287 287" fill="none" xmlns="http://www.w3.org/2000/svg">
<path d="M150.241 63.0373C135.741 60.6521 124.444 59.5195 115.498 59.5195C76.9851 59.5195 82.0358 80.489 62.2446 112.47C39.1358 149.787 41.7899 200.329 83.443 210.058C110.052 216.27 150.584 224.21 184.052 224.21C210.936 224.21 233.301 219.062 240.2 203.818C261.203 157.337 212.4 73.2761 150.241 63.0373Z" fill="#313131"/>
<path d="M98.2886 85.7217H207.335V194.768H98.2886V85.7217Z" fill="#252525"/>
<path d="M124.884 171.819L136.896 152.554L153.484 170.744L168.356 142.922L182.084 172.889V176.098H122.212L124.884 171.819Z" fill="#B8F3B8"/>
<path d="M183.987 160.346C182.379 156.17 173.925 134.171 172.249 130.259C171.837 129.309 171.58 128.177 171.14 127.073C170.958 126.624 170.649 126.239 170.251 125.964C169.853 125.689 169.383 125.537 168.9 125.526C168.416 125.515 167.94 125.646 167.53 125.902C167.12 126.159 166.794 126.53 166.592 126.97V127.021C166.072 128.165 165.843 129.161 165.317 130.305C164.79 131.449 164.173 132.158 163.601 133.462C162.868 135.052 162.457 136.528 161.885 137.975C158.979 145.016 155.432 152.029 153.442 156.662L152.229 159.745L138.873 143.558L138.221 142.86L138.078 142.706C137.92 142.537 137.731 142.402 137.521 142.307C137.311 142.212 137.084 142.159 136.853 142.151C136.623 142.144 136.393 142.182 136.177 142.263C135.961 142.345 135.764 142.468 135.595 142.625C135.45 142.757 135.33 142.914 135.241 143.089L131.975 149.312C128.371 155.307 123.824 161.404 120.478 167.313C119.86 168.354 119.259 169.378 118.676 170.373C117.944 171.946 117.48 173.233 116.8 174.343L116.228 175.31L119.602 177.334C120.958 175.092 122.285 172.758 123.732 170.522L124.361 169.652C125.013 168.72 125.305 167.525 125.957 166.598C127.364 164.569 128.642 162.454 129.784 160.266C130.602 158.699 135.573 150.061 137.14 147.333V147.293L139.371 149.764L142.196 153.768L149.398 162.497C150.13 163.275 150.816 163.978 151.354 164.516L151.566 164.728C151.734 164.896 151.933 165.03 152.153 165.122C152.373 165.213 152.609 165.26 152.847 165.26C153.085 165.26 153.321 165.213 153.541 165.122C153.761 165.03 153.96 164.896 154.128 164.728C154.309 164.544 154.451 164.326 154.546 164.087C155.169 162.434 155.69 161.072 156.262 159.694C157.789 156.188 159.253 152.876 160.363 149.661C160.977 148.022 161.743 146.444 162.651 144.948C163.154 144.113 163.709 143.1 164.173 142.282L168.691 132.478L176.236 151.503L178.724 156.914L179.794 160.083C181.647 164.27 183.38 168.503 185.039 171.923C186.595 175.126 193.139 183.232 183.987 160.346Z" fill="#5BDB5B"/>
<path d="M201.667 173.953L198.767 173.615C196.026 173.455 193.276 173.576 190.559 173.976C188.14 173.747 178.833 174.347 175.956 174.382L172.106 173.918L160.666 174.044C158.178 173.979 155.689 174.144 153.23 174.536L152.784 174.565L152.338 174.536C149.88 174.144 147.391 173.979 144.902 174.044L133.462 173.918L129.613 174.382C126.753 174.347 117.423 173.747 115.009 173.976C112.291 173.576 109.539 173.455 106.796 173.615L103.895 173.953C102.002 174.039 100.092 173.981 98.2327 173.993V177.923H99.022C100.068 178.002 101.107 178.149 102.134 178.363L111.715 178.466L114.575 178.146C117.395 178.088 120.295 178.798 122.977 178.592C125.837 178.369 128.583 178.289 131.489 178.311C133.651 178.311 135.819 178.311 138.175 178.346C139.753 178.026 141.377 178.004 142.963 178.283C144.162 177.949 145.397 177.757 146.641 177.711C147.991 177.888 148.86 178.22 149.987 178.066C150.616 177.98 152.092 178.512 152.733 178.46C153.379 178.512 154.849 177.98 155.478 178.066C156.622 178.22 157.475 177.888 158.83 177.711C160.073 177.757 161.305 177.949 162.503 178.283C164.088 178.004 165.712 178.026 167.29 178.346C169.647 178.346 171.815 178.346 173.983 178.311C176.883 178.311 179.64 178.369 182.494 178.592C185.171 178.798 188.071 178.088 190.891 178.146L193.78 178.466L203.355 178.363C204.381 178.149 205.421 178.002 206.466 177.923H207.256V173.993C205.471 173.981 203.561 174.039 201.667 173.953Z" fill="#DB5F12"/>
<path d="M208.997 138.627C208.997 133.542 208.888 104.827 208.854 95.761C208.854 92.4892 208.808 89.2459 208.785 86.2944C208.783 86.1054 208.745 85.9185 208.671 85.7445C208.597 85.5705 208.489 85.4128 208.354 85.2805C208.219 85.1482 208.06 85.0438 207.884 84.9734C207.709 84.9029 207.521 84.8679 207.332 84.8701L191.888 85.0303L178.04 84.75L145.842 84.71C137.714 84.8415 131.285 85.0188 124.449 85.0417C115.211 85.0818 106.385 85.1046 98.2802 85.2648H98.2345C98.0983 85.267 97.9638 85.2962 97.839 85.3508C97.7142 85.4053 97.6014 85.4841 97.5073 85.5825C97.4131 85.6809 97.3394 85.797 97.2904 85.9242C97.2415 86.0513 97.2182 86.1868 97.222 86.323C97.2563 88.039 97.2849 89.509 97.3135 90.9619C97.4222 95.1547 97.3479 101.309 97.2049 105.885C97.1362 108.654 97.0561 111.92 96.9875 114.58L96.8845 195.369C96.8838 195.552 96.9194 195.734 96.9893 195.903C97.0593 196.073 97.1621 196.226 97.292 196.356C97.4218 196.485 97.576 196.587 97.7456 196.656C97.9153 196.726 98.097 196.761 98.2802 196.759H130.164L147.181 196.49L156.796 196.587C169.889 196.422 182.976 196.33 193.707 196.118C198.741 196.015 207.944 195.546 207.086 195.123C206.663 194.912 203.74 194.7 196.584 194.5C189.428 194.299 178.063 194.099 160.708 194.008C152.277 193.928 119.948 193.699 99.9848 193.653V166.563C99.9848 163.577 100.105 160.271 100.099 156.839C100.099 153.247 99.9447 150.404 99.9505 146.829C99.9562 143.254 100.139 140.72 100.145 136.642C100.145 131.66 99.9676 127.358 99.9276 122.914C99.8132 110.107 99.8475 97.0594 99.8818 87.9418C108.925 87.9418 114.983 87.9704 120.033 87.9418L143.199 87.6272L205.982 87.713L206.302 107.95V142.173C206.302 153.642 206.365 164.939 206.514 175.492C206.657 185.708 206.869 195.564 207.155 195.146C207.441 194.728 207.847 193.705 208.236 185.033C208.453 180.154 208.653 169.48 208.876 159.962C209.008 153.533 209.059 145.811 208.997 138.627Z" fill="#579BF9"/>
<path d="M233.094 124.046C230.698 123.868 228.776 123.748 226.986 123.657C222.816 123.445 211.965 124.257 231.419 126.459C231.19 128.604 230.955 131.035 230.698 133.821C230.126 139.776 227.003 171.178 226.562 176.858C226.459 178.26 226.173 179.804 226.03 181.434C225.887 183.065 225.91 184.466 225.756 186.142C225.601 187.818 225.31 189.002 225.127 190.895C224.909 193.235 224.903 195.265 224.755 197.359C224.183 205.367 223.319 213.489 222.776 219.278L220.591 219.089L209.723 218.414L180.082 215.566L169.425 214.936C158.912 213.97 147.443 212.648 137.542 212.008C132.749 211.693 128.173 211.522 128.47 211.962C128.767 212.402 129.391 213.043 133.527 213.878C135.855 214.342 140.848 214.965 145.281 215.554C148.267 215.949 151.836 216.269 155.148 216.464C157.51 216.601 170.804 217.682 175.002 218.02C179.006 218.346 182.947 218.592 186.654 218.849L193.117 219.724L208.201 221.143C212.022 221.354 215.065 221.457 218.257 221.715L224.137 222.189H224.166C224.484 222.213 224.799 222.11 225.041 221.902C225.283 221.694 225.433 221.398 225.458 221.08C225.704 217.979 225.887 215.182 225.99 212.5C226.115 210.16 226.366 207.829 226.74 205.516C226.94 204.229 227.146 202.701 227.312 201.46C229.028 183.431 230.686 165.596 232.265 148.836C232.477 145.433 232.625 143.082 232.763 140.885C232.98 139.106 233.175 137.522 233.306 136.458C233.598 132.506 233.878 128.553 234.13 125.281V125.241C234.144 124.947 234.045 124.658 233.852 124.436C233.659 124.213 233.388 124.073 233.094 124.046Z" fill="#579BF9"/>
<path d="M119.598 110.889C119.765 110.537 119.956 110.197 120.17 109.871C120.978 108.815 122.016 107.957 123.205 107.362C124.395 106.768 125.704 106.452 127.034 106.439C127.992 106.357 128.957 106.425 129.894 106.64C131.298 107.115 132.558 107.939 133.555 109.036C134.535 110.098 135.283 111.353 135.751 112.72C136.203 113.955 136.323 115.242 136.615 115.157C136.809 115.095 136.974 114.967 137.084 114.796C137.316 114.405 137.438 113.958 137.439 113.504C137.456 112.947 137.398 112.391 137.267 111.85C137.094 111.133 136.846 110.435 136.529 109.768C136.054 108.775 135.359 107.903 134.498 107.217C133.72 106.561 132.861 106.008 131.942 105.57C130.89 105.073 129.763 104.754 128.607 104.626C127.351 104.499 126.083 104.606 124.866 104.941C123.688 105.067 122.549 105.438 121.522 106.029C120.495 106.619 119.602 107.418 118.9 108.373C118.294 109.279 117.805 110.26 117.447 111.29C116.878 112.73 116.706 114.297 116.95 115.826C117.035 116.444 117.161 117.342 117.253 118.017C117.324 118.448 117.425 118.875 117.556 119.292C118.115 120.602 118.934 121.785 119.963 122.769C120.993 123.753 122.211 124.519 123.544 125.019C124.878 125.519 126.299 125.743 127.722 125.678C129.144 125.613 130.539 125.26 131.822 124.64C132.239 124.406 132.64 124.144 133.023 123.857C133.343 123.594 133.629 123.365 133.881 123.125L134.51 122.627C134.699 122.472 134.842 122.312 134.968 122.198C136.184 120.795 136.978 119.075 137.256 117.239C137.292 116.778 137.246 116.315 137.118 115.872C136.981 115.431 136.792 115.117 136.592 115.145C136.489 115.145 136.386 115.26 136.283 115.46C136.155 115.772 136.042 116.091 135.946 116.415C135.789 116.983 135.598 117.54 135.374 118.085C135.027 118.929 134.565 119.72 134.001 120.436C133.513 121.026 132.947 121.548 132.319 121.986C131.386 122.671 130.323 123.159 129.196 123.422C128.07 123.681 126.903 123.714 125.764 123.519C125.057 123.404 124.364 123.213 123.699 122.947C123.348 122.763 123.012 122.552 122.692 122.318C122.504 122.215 122.326 122.129 122.16 122.026C121.978 121.931 121.805 121.818 121.646 121.689C121.361 121.388 121.095 121.069 120.851 120.734C120.469 120.337 120.116 119.914 119.792 119.469C119.073 118.362 118.666 117.082 118.614 115.763C118.575 114.678 118.714 113.594 119.026 112.554C119.162 111.982 119.354 111.424 119.598 110.889Z" fill="#0595DB"/>
<path d="M127.009 121.759C130.733 121.759 133.753 118.739 133.753 115.015C133.753 111.29 130.733 108.271 127.009 108.271C123.284 108.271 120.265 111.29 120.265 115.015C120.265 118.739 123.284 121.759 127.009 121.759Z" fill="#579BF9"/>
</svg>
