<svg width="286" height="286" viewBox="0 0 286 286" fill="none" xmlns="http://www.w3.org/2000/svg">
<path d="M150.053 62.5425C135.553 60.1572 124.256 59.0247 115.309 59.0247C76.7967 59.0247 81.8475 79.9942 62.0563 111.975C38.9475 149.292 41.6016 199.834 83.2546 209.564C109.864 215.776 150.396 223.715 183.864 223.715C210.748 223.715 233.113 218.567 240.011 203.323C261.015 156.842 212.212 72.7813 150.053 62.5425Z" fill="#E8F8FE"/>
<path d="M98.098 85.228H207.144V194.274H98.098V85.228Z" fill="white"/>
<path d="M124.696 171.325L136.708 152.06L153.296 170.25L168.168 142.428L181.896 172.395V175.604H122.025L124.696 171.325Z" fill="#D5FAE9"/>
<path d="M183.801 159.851C182.193 155.676 173.739 133.676 172.063 129.764C171.651 128.814 171.394 127.682 170.954 126.578C170.772 126.13 170.463 125.744 170.065 125.469C169.667 125.194 169.197 125.042 168.714 125.031C168.23 125.02 167.754 125.151 167.344 125.408C166.934 125.664 166.608 126.035 166.406 126.475V126.526C165.886 127.67 165.657 128.666 165.131 129.81C164.604 130.954 163.987 131.663 163.415 132.967C162.683 134.557 162.271 136.033 161.699 137.48C158.793 144.522 155.247 151.534 153.256 156.168L152.043 159.251L138.687 143.063L138.035 142.365L137.892 142.211C137.734 142.042 137.545 141.907 137.335 141.812C137.125 141.717 136.898 141.664 136.667 141.656C136.437 141.649 136.207 141.687 135.991 141.768C135.775 141.85 135.578 141.973 135.41 142.131C135.264 142.262 135.144 142.419 135.055 142.594L131.789 148.817C128.185 154.812 123.638 160.909 120.292 166.818C119.674 167.859 119.073 168.883 118.49 169.878C117.758 171.451 117.294 172.738 116.614 173.848L116.042 174.815L119.416 176.84C120.772 174.597 122.099 172.264 123.546 170.027L124.175 169.158C124.828 168.225 125.119 167.03 125.771 166.103C127.178 164.074 128.456 161.96 129.598 159.771C130.416 158.204 135.387 149.567 136.954 146.838V146.798L139.185 149.269L142.01 153.273L149.212 162.002C149.944 162.78 150.63 163.483 151.168 164.021L151.38 164.233C151.548 164.402 151.747 164.535 151.967 164.627C152.187 164.718 152.423 164.765 152.661 164.765C152.899 164.765 153.135 164.718 153.355 164.627C153.575 164.535 153.774 164.402 153.942 164.233C154.123 164.05 154.265 163.832 154.36 163.592C154.983 161.939 155.504 160.578 156.076 159.199C157.603 155.693 159.067 152.381 160.177 149.166C160.791 147.527 161.557 145.949 162.465 144.453C162.969 143.618 163.523 142.605 163.987 141.787L168.505 131.983L176.05 151.008L178.538 156.419L179.608 159.588C181.461 163.775 183.194 168.008 184.853 171.428C186.409 174.632 192.953 182.737 183.801 159.851Z" fill="#66DA55"/>
<path d="M201.481 173.459L198.581 173.121C195.84 172.961 193.09 173.082 190.373 173.482C187.953 173.253 178.647 173.854 175.77 173.888L171.92 173.425L160.48 173.55C157.992 173.485 155.502 173.65 153.044 174.042L152.598 174.071L152.152 174.042C149.694 173.65 147.204 173.485 144.716 173.55L133.276 173.425L129.426 173.888C126.566 173.854 117.237 173.253 114.823 173.482C112.105 173.082 109.352 172.961 106.609 173.121L103.709 173.459C101.816 173.545 99.9054 173.487 98.0464 173.499V177.429H98.8357C99.8814 177.508 100.921 177.655 101.947 177.869L111.528 177.972L114.388 177.652C117.208 177.594 120.108 178.304 122.791 178.098C125.651 177.875 128.397 177.795 131.302 177.818C133.465 177.818 135.633 177.818 137.989 177.852C139.567 177.532 141.191 177.511 142.777 177.789C143.976 177.455 145.211 177.263 146.455 177.217C147.805 177.394 148.674 177.726 149.801 177.572C150.43 177.486 151.906 178.018 152.547 177.966C153.193 178.018 154.663 177.486 155.292 177.572C156.436 177.726 157.288 177.394 158.644 177.217C159.886 177.263 161.119 177.455 162.316 177.789C163.902 177.511 165.526 177.532 167.104 177.852C169.461 177.852 171.628 177.852 173.796 177.818C176.696 177.818 179.453 177.875 182.308 178.098C184.985 178.304 187.885 177.594 190.705 177.652L193.593 177.972L203.169 177.869C204.195 177.655 205.235 177.508 206.28 177.429H207.07V173.499C205.285 173.487 203.374 173.545 201.481 173.459Z" fill="#FFAD80"/>
<path d="M208.809 138.132C208.809 133.047 208.7 104.333 208.666 95.2666C208.666 91.9948 208.62 88.7515 208.597 85.8C208.596 85.611 208.557 85.4241 208.483 85.2501C208.409 85.0761 208.302 84.9184 208.167 84.7861C208.032 84.6538 207.872 84.5494 207.696 84.479C207.521 84.4086 207.333 84.3735 207.144 84.3757L191.7 84.5359L177.852 84.2556L145.654 84.2156C137.526 84.3471 131.097 84.5245 124.261 84.5473C115.024 84.5874 106.198 84.6103 98.0925 84.7704H98.0467C97.9105 84.7726 97.7761 84.8019 97.6513 84.8564C97.5265 84.9109 97.4137 84.9897 97.3195 85.0881C97.2254 85.1865 97.1517 85.3027 97.1027 85.4298C97.0537 85.5569 97.0305 85.6925 97.0343 85.8286C97.0686 87.5446 97.0972 89.0147 97.1258 90.4675C97.2345 94.6603 97.1601 100.815 97.0171 105.391C96.9485 108.16 96.8684 111.426 96.7997 114.085L96.6968 194.875C96.696 195.058 96.7316 195.24 96.8016 195.409C96.8715 195.578 96.9744 195.732 97.1042 195.861C97.2341 195.991 97.3883 196.093 97.5579 196.162C97.7275 196.231 97.9092 196.266 98.0925 196.265H129.976L146.993 195.996L156.608 196.093C169.701 195.927 182.789 195.836 193.519 195.624C198.553 195.521 207.756 195.052 206.898 194.629C206.475 194.417 203.552 194.205 196.396 194.005C189.241 193.805 177.875 193.605 160.521 193.513C152.089 193.433 119.76 193.204 99.797 193.159V166.069C99.797 163.083 99.9171 159.777 99.9114 156.345C99.9114 152.753 99.757 149.91 99.7627 146.335C99.7684 142.76 99.9515 140.226 99.9572 136.147C99.9572 131.165 99.7799 126.864 99.7398 122.419C99.6254 109.612 99.6597 96.5651 99.6941 87.4474C108.737 87.4474 114.795 87.476 119.846 87.4474L143.012 87.1328L205.794 87.2186L206.115 107.456V141.679C206.115 153.147 206.178 164.444 206.326 174.998C206.469 185.214 206.681 195.069 206.967 194.652C207.253 194.234 207.659 193.21 208.048 184.539C208.265 179.66 208.466 168.986 208.689 159.468C208.82 153.039 208.872 145.317 208.809 138.132Z" fill="#065DBA"/>
<path d="M232.907 123.552C230.51 123.375 228.588 123.255 226.798 123.163C222.628 122.951 211.777 123.764 231.231 125.966C231.002 128.111 230.768 130.542 230.51 133.327C229.938 139.282 226.815 170.685 226.375 176.365C226.272 177.766 225.986 179.311 225.843 180.941C225.7 182.571 225.723 183.972 225.568 185.648C225.414 187.324 225.122 188.508 224.939 190.402C224.722 192.741 224.716 194.772 224.567 196.865C223.995 204.873 223.131 212.996 222.588 218.784L220.403 218.596L209.535 217.921L179.894 215.072L169.238 214.443C158.724 213.476 147.256 212.155 137.354 211.514C132.561 211.2 127.985 211.028 128.282 211.468C128.58 211.909 129.203 212.549 133.339 213.385C135.667 213.848 140.661 214.471 145.094 215.061C148.079 215.455 151.649 215.776 154.961 215.97C157.323 216.107 170.616 217.188 174.815 217.526C178.819 217.852 182.76 218.098 186.466 218.355L192.93 219.23L208.014 220.649C211.834 220.861 214.878 220.964 218.069 221.221L223.949 221.696H223.978C224.296 221.719 224.611 221.616 224.854 221.408C225.096 221.2 225.246 220.904 225.271 220.586C225.517 217.486 225.7 214.689 225.803 212.006C225.928 209.666 226.178 207.335 226.552 205.022C226.752 203.735 226.958 202.208 227.124 200.966C228.84 182.937 230.499 165.102 232.078 148.342C232.289 144.939 232.438 142.588 232.575 140.392C232.793 138.613 232.987 137.028 233.119 135.964C233.41 132.012 233.691 128.059 233.942 124.788V124.747C233.957 124.453 233.857 124.165 233.664 123.942C233.472 123.719 233.2 123.58 232.907 123.552Z" fill="#065DBA"/>
<path d="M119.411 110.396C119.578 110.044 119.769 109.704 119.983 109.378C120.791 108.322 121.829 107.464 123.018 106.869C124.208 106.274 125.517 105.958 126.847 105.946C127.805 105.864 128.77 105.931 129.707 106.146C131.111 106.621 132.371 107.446 133.368 108.543C134.348 109.605 135.096 110.859 135.564 112.226C136.016 113.462 136.136 114.749 136.428 114.663C136.622 114.602 136.788 114.474 136.897 114.303C137.129 113.911 137.251 113.465 137.252 113.01C137.269 112.454 137.211 111.898 137.08 111.357C136.907 110.639 136.659 109.942 136.342 109.275C135.867 108.282 135.172 107.41 134.311 106.724C133.533 106.068 132.674 105.514 131.755 105.076C130.703 104.58 129.576 104.261 128.42 104.133C127.164 104.006 125.896 104.112 124.679 104.447C123.501 104.574 122.362 104.944 121.335 105.535C120.308 106.126 119.415 106.924 118.713 107.879C118.107 108.786 117.618 109.766 117.26 110.796C116.691 112.237 116.519 113.803 116.763 115.332C116.848 115.95 116.974 116.848 117.066 117.523C117.137 117.955 117.238 118.381 117.369 118.799C117.928 120.109 118.747 121.291 119.776 122.276C120.806 123.26 122.024 124.025 123.357 124.525C124.691 125.025 126.112 125.249 127.535 125.184C128.957 125.119 130.352 124.766 131.635 124.147C132.052 123.912 132.453 123.65 132.836 123.363C133.156 123.1 133.442 122.871 133.694 122.631L134.323 122.134C134.512 121.979 134.655 121.819 134.781 121.705C135.997 120.301 136.791 118.582 137.069 116.745C137.105 116.285 137.059 115.822 136.931 115.378C136.794 114.938 136.605 114.623 136.405 114.652C136.302 114.652 136.199 114.766 136.096 114.966C135.968 115.279 135.855 115.598 135.759 115.922C135.602 116.489 135.411 117.047 135.187 117.592C134.84 118.435 134.378 119.226 133.814 119.943C133.326 120.533 132.76 121.054 132.132 121.493C131.199 122.177 130.136 122.666 129.009 122.929C127.883 123.187 126.716 123.22 125.577 123.026C124.87 122.911 124.177 122.719 123.512 122.454C123.161 122.269 122.825 122.059 122.505 121.825C122.317 121.722 122.139 121.636 121.973 121.533C121.791 121.438 121.618 121.325 121.459 121.195C121.174 120.894 120.908 120.575 120.664 120.24C120.282 119.843 119.929 119.421 119.605 118.976C118.886 117.869 118.479 116.589 118.427 115.27C118.388 114.185 118.527 113.1 118.839 112.061C118.975 111.489 119.167 110.931 119.411 110.396Z" fill="#0595DB"/>
<path d="M126.818 121.264C130.543 121.264 133.562 118.245 133.562 114.52C133.562 110.796 130.543 107.776 126.818 107.776C123.094 107.776 120.074 110.796 120.074 114.52C120.074 118.245 123.094 121.264 126.818 121.264Z" fill="#A3E5FB"/>
</svg>
