<svg width="16" height="16" viewBox="0 0 16 16" fill="none" xmlns="http://www.w3.org/2000/svg">
<path d="M4.85715 3L4.85715 13L3.00001 13C2.44772 13 2 12.5523 2 12L2 4C2 3.44772 2.44772 3 3 3L4.85715 3Z" fill="#3A65E5"/>
<rect x="8" y="3" width="10" height="3.14286" transform="rotate(90 8 3)" fill="#579BF9"/>
<rect x="10.8571" y="3" width="10" height="2.85714" transform="rotate(90 10.8571 3)" fill="#8AC4FF"/>
<path d="M13 3C13.5523 3 14 3.44772 14 4L14 12C14 12.5523 13.5523 13 13 13L10.8571 13L10.8571 3L13 3Z" fill="#ADD8FF"/>
</svg>
