<svg width="211" height="211" viewBox="0 0 211 211" fill="none" xmlns="http://www.w3.org/2000/svg">
<g clip-path="url(#clip0_124_4634)">
<path fill-rule="evenodd" clip-rule="evenodd" d="M113.017 195.64H128.017V210.64H113.017V195.64Z" fill="#A4A4A4"/>
<path fill-rule="evenodd" clip-rule="evenodd" d="M83.0172 83.1396V0.639648H0.517242V83.1396H15.5172V98.1396H30.5172V83.1396H83.0172ZM15.5172 68.1396V15.6396H68.0172V68.1396H15.5172Z" fill="#A4A4A4"/>
<path fill-rule="evenodd" clip-rule="evenodd" d="M30.5173 30.6396H53.0173V53.1396H30.5173V30.6396Z" fill="#A4A4A4"/>
<path fill-rule="evenodd" clip-rule="evenodd" d="M128.017 0.639648V83.1396H210.517V0.639648H128.017ZM195.517 68.1396H143.017V15.6396H195.517V68.1396Z" fill="#A4A4A4"/>
<path fill-rule="evenodd" clip-rule="evenodd" d="M158.017 30.6396H180.517V53.1396H158.017V30.6396Z" fill="#A4A4A4"/>
<path fill-rule="evenodd" clip-rule="evenodd" d="M30.5173 158.14H53.0173V180.64H30.5173V158.14Z" fill="#A4A4A4"/>
<path fill-rule="evenodd" clip-rule="evenodd" d="M0.517242 98.1396H15.5172V113.14H0.517242V98.1396Z" fill="#A4A4A4"/>
<path fill-rule="evenodd" clip-rule="evenodd" d="M30.5173 98.1396H45.5173V113.14H30.5173V98.1396Z" fill="#A4A4A4"/>
<path fill-rule="evenodd" clip-rule="evenodd" d="M45.5172 128.14H0.517242V210.64H83.0172V128.14H60.5172V113.14H45.5172V128.14ZM68.0172 143.14V195.64H15.5172V143.14H68.0172Z" fill="#A4A4A4"/>
<path fill-rule="evenodd" clip-rule="evenodd" d="M98.0173 8.13965H113.017V30.6397H98.0173V8.13965Z" fill="#A4A4A4"/>
<path fill-rule="evenodd" clip-rule="evenodd" d="M98.0173 45.6396H113.017V60.6396H98.0173V45.6396Z" fill="#A4A4A4"/>
<path fill-rule="evenodd" clip-rule="evenodd" d="M143.017 98.1396H128.017H113.017V75.6396H98.0172V98.1396H60.5172V113.14H98.0172H113.017H128.017V128.14H143.017V113.14V98.1396Z" fill="#A4A4A4"/>
<path fill-rule="evenodd" clip-rule="evenodd" d="M143.017 128.14H158.017V143.14H143.017V128.14Z" fill="#A4A4A4"/>
<path fill-rule="evenodd" clip-rule="evenodd" d="M98.0173 128.14H113.017V150.64H98.0173V128.14Z" fill="#A4A4A4"/>
<path fill-rule="evenodd" clip-rule="evenodd" d="M98.0173 165.64H113.017V195.64H98.0173V165.64Z" fill="#A4A4A4"/>
<path fill-rule="evenodd" clip-rule="evenodd" d="M128.017 150.64H143.017V195.64H128.017V150.64Z" fill="#A4A4A4"/>
<path fill-rule="evenodd" clip-rule="evenodd" d="M173.017 128.14H210.517V143.14H173.017V128.14Z" fill="#A4A4A4"/>
<path fill-rule="evenodd" clip-rule="evenodd" d="M195.517 98.1396H210.517V113.14H195.517V98.1396Z" fill="#A4A4A4"/>
<path fill-rule="evenodd" clip-rule="evenodd" d="M158.017 98.1396H188.017V113.14H158.017V98.1396Z" fill="#A4A4A4"/>
<path fill-rule="evenodd" clip-rule="evenodd" d="M158.017 150.64H173.017V165.64H158.017V150.64Z" fill="#A4A4A4"/>
<path fill-rule="evenodd" clip-rule="evenodd" d="M195.517 165.64H188.017V180.64H203.017V165.64H210.517V150.64H195.517V165.64Z" fill="#A4A4A4"/>
<path fill-rule="evenodd" clip-rule="evenodd" d="M158.017 180.64H173.017V195.64H158.017V180.64Z" fill="#A4A4A4"/>
<path fill-rule="evenodd" clip-rule="evenodd" d="M173.017 195.64H210.517V210.64H173.017V195.64Z" fill="#A4A4A4"/>
</g>
<defs>
<clipPath id="clip0_124_4634">
<rect width="210" height="210" fill="white" transform="translate(0.517242 0.639648)"/>
</clipPath>
</defs>
</svg>
