<svg width="256px" height="256px" viewBox="0 0 256 256" version="1.1" xmlns="http://www.w3.org/2000/svg" xmlns:xlink="http://www.w3.org/1999/xlink">
    <title>qrcode</title>
    <g id="Widgets" stroke="none" stroke-width="1" fill="none" fill-rule="evenodd" fill-opacity="0.87">
        <g id="qrcode" fill="#000000">
            <polygon id="Path" points="137.142857 237.714286 155.428571 237.714286 155.428571 256 137.142857 256"></polygon>
            <path d="M100.571429,100.571429 L100.571429,0 L0,0 L0,100.571429 L18.2857143,100.571429 L18.2857143,118.857143 L36.5714286,118.857143 L36.5714286,100.571429 L100.571429,100.571429 Z M18.2857143,82.2857143 L18.2857143,18.2857143 L82.2857143,18.2857143 L82.2857143,82.2857143 L18.2857143,82.2857143 Z" id="Shape"></path>
            <polygon id="Path" points="36.5714286 36.5714286 64 36.5714286 64 64 36.5714286 64"></polygon>
            <path d="M155.428571,0 L155.428571,100.571429 L256,100.571429 L256,0 L155.428571,0 Z M237.714286,82.2857143 L173.714286,82.2857143 L173.714286,18.2857143 L237.714286,18.2857143 L237.714286,82.2857143 Z" id="Shape"></path>
            <polygon id="Path" points="192 36.5714286 219.428571 36.5714286 219.428571 64 192 64"></polygon>
            <polygon id="Path" points="36.5714286 192 64 192 64 219.428571 36.5714286 219.428571"></polygon>
            <polygon id="Path" points="0 118.857143 18.2857143 118.857143 18.2857143 137.142857 0 137.142857"></polygon>
            <polygon id="Path" points="36.5714286 118.857143 54.8571429 118.857143 54.8571429 137.142857 36.5714286 137.142857"></polygon>
            <path d="M54.8571429,155.428571 L0,155.428571 L0,256 L100.571429,256 L100.571429,155.428571 L73.1428571,155.428571 L73.1428571,137.142857 L54.8571429,137.142857 L54.8571429,155.428571 Z M82.2857143,173.714286 L82.2857143,237.714286 L18.2857143,237.714286 L18.2857143,173.714286 L82.2857143,173.714286 Z" id="Shape"></path>
            <polygon id="Path" points="118.857143 9.14285714 137.142857 9.14285714 137.142857 36.5714286 118.857143 36.5714286"></polygon>
            <polygon id="Path" points="118.857143 54.8571429 137.142857 54.8571429 137.142857 73.1428571 118.857143 73.1428571"></polygon>
            <polygon id="Path" points="173.714286 118.857143 155.428571 118.857143 137.142857 118.857143 137.142857 91.4285714 118.857143 91.4285714 118.857143 118.857143 73.1428571 118.857143 73.1428571 137.142857 118.857143 137.142857 137.142857 137.142857 155.428571 137.142857 155.428571 155.428571 173.714286 155.428571 173.714286 137.142857"></polygon>
            <polygon id="Path" points="173.714286 155.428571 192 155.428571 192 173.714286 173.714286 173.714286"></polygon>
            <polygon id="Path" points="118.857143 155.428571 137.142857 155.428571 137.142857 182.857143 118.857143 182.857143"></polygon>
            <polygon id="Path" points="118.857143 201.142857 137.142857 201.142857 137.142857 237.714286 118.857143 237.714286"></polygon>
            <polygon id="Path" points="155.428571 182.857143 173.714286 182.857143 173.714286 237.714286 155.428571 237.714286"></polygon>
            <polygon id="Path" points="210.285714 155.428571 256 155.428571 256 173.714286 210.285714 173.714286"></polygon>
            <polygon id="Path" points="237.714286 118.857143 256 118.857143 256 137.142857 237.714286 137.142857"></polygon>
            <polygon id="Path" points="192 118.857143 228.571429 118.857143 228.571429 137.142857 192 137.142857"></polygon>
            <polygon id="Path" points="192 182.857143 210.285714 182.857143 210.285714 201.142857 192 201.142857"></polygon>
            <polygon id="Path" points="237.714286 201.142857 228.571429 201.142857 228.571429 219.428571 246.857143 219.428571 246.857143 201.142857 256 201.142857 256 182.857143 237.714286 182.857143"></polygon>
            <polygon id="Path" points="192 219.428571 210.285714 219.428571 210.285714 237.714286 192 237.714286"></polygon>
            <polygon id="Path" points="210.285714 237.714286 256 237.714286 256 256 210.285714 256"></polygon>
        </g>
    </g>
</svg>
