<svg width="602" height="148" viewBox="0 0 602 148" fill="none" xmlns="http://www.w3.org/2000/svg">
    <rect x="0.5" y="0.5" width="601" height="147" fill="#FAFAFA" />
    <rect width="600" height="42" transform="translate(1 1)" fill="#F2F2F3" />
    <g opacity="0.5">
        <path
            d="M16.3725 21.4092L18.4156 23.1237C18.7117 23.3724 18.7501 23.8141 18.5014 24.1103C18.2527 24.4064 17.811 24.4448 17.5149 24.1961L13.9794 21.2281C13.8938 21.1567 13.8266 21.0658 13.7834 20.9631C13.6165 20.6693 13.6833 20.2982 13.9421 20.0811L17.4813 17.1112C17.7777 16.8627 18.2194 16.9016 18.4678 17.198C18.7163 17.4944 18.6774 17.9361 18.381 18.1845L16.2054 20.0083H24.528C24.5976 20.0086 24.6668 20.0193 24.7333 20.04C26.2363 20.0406 27.5924 20.9426 28.1741 22.3285C28.7558 23.7143 28.4497 25.3139 27.3974 26.3871C26.3451 27.4603 24.7518 27.7978 23.3548 27.2435L23.6758 25.8537C24.5406 26.2917 25.5861 26.1494 26.3024 25.4962C27.0187 24.843 27.2564 23.815 26.8997 22.9136C26.543 22.0122 25.6662 21.4253 24.6969 21.4391L24.7044 21.4092H16.3725Z"
            fill="#0A1324"
        />
    </g>
    <g opacity="0.5">
        <path
            fill-rule="evenodd"
            clip-rule="evenodd"
            d="M56.6274 21.4092L54.5844 23.1237C54.2882 23.3724 54.2498 23.8141 54.4985 24.1103C54.7472 24.4064 55.1889 24.4448 55.485 24.1961L59.0205 21.2281C59.1061 21.1567 59.1733 21.0658 59.2165 20.9631C59.3834 20.6693 59.3166 20.2982 59.0578 20.0811L55.5186 17.1112C55.3269 16.9505 55.064 16.9042 54.8289 16.9899C54.5939 17.0756 54.4224 17.2802 54.3791 17.5266C54.3357 17.773 54.4272 18.0238 54.6189 18.1845L56.7945 20.0092H48.472C48.4024 20.0092 48.3332 20.0196 48.2666 20.04C46.7636 20.0406 45.4075 20.9425 44.8258 22.3284C44.2441 23.7143 44.5502 25.3139 45.6025 26.3871C46.6548 27.4603 48.2481 27.7978 49.6452 27.2435L49.3241 25.8537C48.4593 26.2927 47.4131 26.1509 46.6963 25.4976C45.9795 24.8443 45.7415 23.8157 46.0986 22.914C46.4557 22.0123 47.3333 21.4254 48.303 21.44L48.2956 21.4101H56.6274V21.4092Z"
            fill="#0A1324"
        />
    </g>
    <path d="M74.5 12H73.5V32H74.5V12Z" fill="#9EA2A9" />
    <path
        d="M94.5127 24.5308C94.5127 25.3475 94.2165 25.9844 93.624 26.4414C93.0316 26.8984 92.2275 27.127 91.2119 27.127C90.1117 27.127 89.2653 26.9852 88.6729 26.7017V25.6606C89.0537 25.8215 89.4684 25.9484 89.917 26.0415C90.3656 26.1346 90.8099 26.1812 91.25 26.1812C91.9694 26.1812 92.5111 26.0457 92.875 25.7749C93.2389 25.4998 93.4209 25.119 93.4209 24.6323C93.4209 24.3107 93.3553 24.0483 93.2241 23.8452C93.0972 23.6379 92.8813 23.4474 92.5767 23.2739C92.2762 23.1004 91.8171 22.9036 91.1992 22.6836C90.3359 22.3747 89.7181 22.0086 89.3457 21.5854C88.9775 21.1623 88.7935 20.61 88.7935 19.9287C88.7935 19.2135 89.0622 18.6444 89.5996 18.2212C90.137 17.798 90.848 17.5864 91.7324 17.5864C92.6549 17.5864 93.5034 17.7557 94.2778 18.0942L93.9414 19.0337C93.1755 18.7121 92.4307 18.5513 91.707 18.5513C91.1357 18.5513 90.6893 18.674 90.3677 18.9194C90.0461 19.1649 89.8853 19.5055 89.8853 19.9414C89.8853 20.263 89.9445 20.5275 90.063 20.7349C90.1815 20.938 90.3804 21.1263 90.6597 21.2998C90.9432 21.4691 91.3748 21.6574 91.9546 21.8647C92.9279 22.2118 93.5965 22.5841 93.9604 22.9819C94.3286 23.3797 94.5127 23.896 94.5127 24.5308ZM98.499 26.2573C98.6852 26.2573 98.8651 26.2446 99.0386 26.2192C99.2121 26.1896 99.3496 26.16 99.4512 26.1304V26.9365C99.3369 26.9915 99.1676 27.036 98.9434 27.0698C98.7233 27.1079 98.5244 27.127 98.3467 27.127C97.001 27.127 96.3281 26.4181 96.3281 25.0005V20.8618H95.3315V20.354L96.3281 19.916L96.7725 18.4307H97.3818V20.043H99.4004V20.8618H97.3818V24.9561C97.3818 25.375 97.4813 25.6966 97.6802 25.9209C97.8791 26.1452 98.152 26.2573 98.499 26.2573ZM99.7432 20.043H100.873L102.396 24.0103C102.731 24.9159 102.938 25.5697 103.019 25.9717H103.069C103.124 25.7559 103.239 25.3877 103.412 24.8672C103.59 24.3424 104.165 22.7344 105.139 20.043H106.269L103.279 27.9648C102.983 28.7477 102.636 29.3021 102.238 29.6279C101.844 29.958 101.36 30.123 100.784 30.123C100.463 30.123 100.145 30.0871 99.832 30.0151V29.1709C100.065 29.2217 100.325 29.2471 100.613 29.2471C101.336 29.2471 101.853 28.8408 102.162 28.0283L102.549 27.0381L99.7432 20.043ZM108.452 27H107.398V17.123H108.452V27ZM113.625 27.127C112.597 27.127 111.785 26.8138 111.188 26.1875C110.596 25.5612 110.299 24.6916 110.299 23.5786C110.299 22.4572 110.574 21.5664 111.125 20.9062C111.679 20.2461 112.422 19.916 113.353 19.916C114.224 19.916 114.914 20.2038 115.422 20.7793C115.93 21.3506 116.184 22.106 116.184 23.0454V23.7119H111.391C111.412 24.5286 111.618 25.1486 112.007 25.5718C112.4 25.995 112.953 26.2065 113.664 26.2065C114.413 26.2065 115.153 26.05 115.885 25.7368V26.6763C115.513 26.8371 115.16 26.9513 114.825 27.019C114.495 27.091 114.095 27.127 113.625 27.127ZM113.34 20.7983C112.781 20.7983 112.335 20.9803 112 21.3442C111.67 21.7082 111.476 22.2118 111.417 22.855H115.054C115.054 22.1906 114.906 21.6828 114.609 21.3315C114.313 20.9761 113.89 20.7983 113.34 20.7983ZM122.474 25.1021C122.474 25.7495 122.233 26.2489 121.75 26.6001C121.268 26.9513 120.591 27.127 119.719 27.127C118.797 27.127 118.077 26.981 117.561 26.689V25.7114C117.895 25.8807 118.253 26.014 118.634 26.1113C119.019 26.2087 119.389 26.2573 119.745 26.2573C120.295 26.2573 120.718 26.1706 121.014 25.9971C121.31 25.8193 121.458 25.5506 121.458 25.1909C121.458 24.9201 121.34 24.6895 121.103 24.499C120.87 24.3044 120.413 24.0758 119.732 23.8135C119.084 23.5723 118.623 23.3628 118.348 23.1851C118.077 23.0031 117.874 22.7979 117.739 22.5693C117.608 22.3408 117.542 22.0679 117.542 21.7505C117.542 21.1834 117.773 20.737 118.234 20.4111C118.695 20.0811 119.328 19.916 120.132 19.916C120.881 19.916 121.613 20.0684 122.328 20.373L121.954 21.23C121.255 20.9422 120.623 20.7983 120.056 20.7983C119.556 20.7983 119.18 20.8766 118.926 21.0332C118.672 21.1898 118.545 21.4056 118.545 21.6807C118.545 21.8669 118.591 22.0256 118.685 22.1567C118.782 22.2879 118.936 22.4128 119.148 22.5312C119.36 22.6497 119.766 22.8211 120.367 23.0454C121.192 23.3459 121.748 23.6484 122.036 23.9531C122.328 24.2578 122.474 24.6408 122.474 25.1021Z"
        fill="#0A1324"
    />
    <path
        fill-rule="evenodd"
        clip-rule="evenodd"
        d="M143.941 20.523C143.74 20.336 143.658 20.0544 143.726 19.7887C143.793 19.523 144.001 19.3155 144.267 19.2476C144.532 19.1798 144.814 19.2623 145.001 19.463L148.007 22.468L151.012 19.463C151.199 19.2623 151.481 19.1798 151.746 19.2476C152.012 19.3155 152.22 19.523 152.287 19.7887C152.355 20.0544 152.273 20.336 152.072 20.523L148.523 24.073C148.361 24.235 148.134 24.314 147.906 24.2875C147.679 24.261 147.476 24.1319 147.355 23.937L143.941 20.523Z"
        fill="#0A1324"
    />
    <path
        fill-rule="evenodd"
        clip-rule="evenodd"
        d="M143.941 20.523C143.74 20.336 143.658 20.0544 143.726 19.7887C143.793 19.523 144.001 19.3155 144.267 19.2476C144.532 19.1798 144.814 19.2623 145.001 19.463L148.007 22.468L151.012 19.463C151.199 19.2623 151.481 19.1798 151.746 19.2476C152.012 19.3155 152.22 19.523 152.287 19.7887C152.355 20.0544 152.273 20.336 152.072 20.523L148.523 24.073C148.361 24.235 148.134 24.314 147.906 24.2875C147.679 24.261 147.476 24.1319 147.355 23.937L143.941 20.523Z"
        fill="#0A1324"
    />
    <path d="M170.5 12H169.5V32H170.5V12Z" fill="#9EA2A9" />
    <path
        d="M192.322 27H191.243V22.6328H186.355V27H185.276V17.7197H186.355V21.668H191.243V17.7197H192.322V27ZM197.654 27.127C196.625 27.127 195.813 26.8138 195.216 26.1875C194.624 25.5612 194.328 24.6916 194.328 23.5786C194.328 22.4572 194.603 21.5664 195.153 20.9062C195.707 20.2461 196.45 19.916 197.381 19.916C198.253 19.916 198.942 20.2038 199.45 20.7793C199.958 21.3506 200.212 22.106 200.212 23.0454V23.7119H195.419C195.441 24.5286 195.646 25.1486 196.035 25.5718C196.429 25.995 196.981 26.2065 197.692 26.2065C198.441 26.2065 199.181 26.05 199.914 25.7368V26.6763C199.541 26.8371 199.188 26.9513 198.854 27.019C198.523 27.091 198.124 27.127 197.654 27.127ZM197.368 20.7983C196.81 20.7983 196.363 20.9803 196.029 21.3442C195.699 21.7082 195.504 22.2118 195.445 22.855H199.082C199.082 22.1906 198.934 21.6828 198.638 21.3315C198.341 20.9761 197.918 20.7983 197.368 20.7983ZM206.293 27L206.083 26.0098H206.033C205.686 26.4456 205.339 26.7419 204.992 26.8984C204.649 27.0508 204.219 27.127 203.703 27.127C203.013 27.127 202.472 26.9492 202.078 26.5938C201.689 26.2383 201.494 25.7326 201.494 25.0767C201.494 23.6717 202.618 22.9354 204.865 22.8677L206.045 22.8296V22.3979C206.045 21.8521 205.927 21.45 205.69 21.1919C205.457 20.9295 205.083 20.7983 204.566 20.7983C203.987 20.7983 203.331 20.9761 202.599 21.3315L202.275 20.5254C202.618 20.3392 202.992 20.1932 203.398 20.0874C203.809 19.9816 204.219 19.9287 204.63 19.9287C205.459 19.9287 206.073 20.1128 206.471 20.481C206.873 20.8491 207.074 21.4395 207.074 22.252V27H206.293ZM203.913 26.2573C204.569 26.2573 205.083 26.0775 205.455 25.7178C205.832 25.3581 206.02 24.8545 206.02 24.207V23.5786L204.966 23.623C204.128 23.6527 203.523 23.7839 203.151 24.0166C202.783 24.2451 202.599 24.6027 202.599 25.0894C202.599 25.4702 202.713 25.7601 202.941 25.959C203.174 26.1579 203.498 26.2573 203.913 26.2573ZM213.986 26.0669H213.929C213.443 26.7736 212.715 27.127 211.746 27.127C210.836 27.127 210.127 26.8159 209.619 26.1938C209.116 25.5718 208.864 24.6873 208.864 23.5405C208.864 22.3937 209.118 21.5029 209.625 20.8682C210.133 20.2334 210.84 19.916 211.746 19.916C212.689 19.916 213.413 20.2588 213.917 20.9443H213.999L213.955 20.4429L213.929 19.9541V17.123H214.983V27H214.126L213.986 26.0669ZM211.879 26.2446C212.598 26.2446 213.119 26.05 213.44 25.6606C213.766 25.2671 213.929 24.6344 213.929 23.7627V23.5405C213.929 22.5545 213.764 21.8521 213.434 21.4331C213.108 21.0099 212.586 20.7983 211.866 20.7983C211.248 20.7983 210.774 21.0396 210.444 21.522C210.118 22.0002 209.956 22.6772 209.956 23.5532C209.956 24.4419 210.118 25.1126 210.444 25.5654C210.77 26.0182 211.248 26.2446 211.879 26.2446ZM218.277 27H217.224V20.043H218.277V27ZM217.135 18.1577C217.135 17.9165 217.194 17.7409 217.312 17.6309C217.431 17.5166 217.579 17.4595 217.757 17.4595C217.926 17.4595 218.072 17.5166 218.195 17.6309C218.318 17.7451 218.379 17.9207 218.379 18.1577C218.379 18.3947 218.318 18.5724 218.195 18.6909C218.072 18.8052 217.926 18.8623 217.757 18.8623C217.579 18.8623 217.431 18.8052 217.312 18.6909C217.194 18.5724 217.135 18.3947 217.135 18.1577ZM225.272 27V22.4995C225.272 21.9325 225.143 21.5093 224.885 21.23C224.627 20.9507 224.223 20.811 223.673 20.811C222.945 20.811 222.412 21.0078 222.073 21.4014C221.735 21.7949 221.565 22.4445 221.565 23.3501V27H220.512V20.043H221.369L221.54 20.9951H221.591C221.807 20.6523 222.109 20.3879 222.499 20.2017C222.888 20.0112 223.322 19.916 223.8 19.916C224.638 19.916 225.268 20.1191 225.691 20.5254C226.115 20.9274 226.326 21.5728 226.326 22.4614V27H225.272ZM234.191 20.043V20.7095L232.902 20.8618C233.021 21.0099 233.127 21.2046 233.22 21.4458C233.313 21.6828 233.359 21.9515 233.359 22.252C233.359 22.9333 233.127 23.4771 232.661 23.8833C232.196 24.2896 231.557 24.4927 230.744 24.4927C230.537 24.4927 230.342 24.4757 230.16 24.4419C229.712 24.6789 229.487 24.9772 229.487 25.3369C229.487 25.5273 229.566 25.6691 229.722 25.7622C229.879 25.8511 230.147 25.8955 230.528 25.8955H231.76C232.513 25.8955 233.091 26.0542 233.493 26.3716C233.899 26.689 234.102 27.1502 234.102 27.7554C234.102 28.5256 233.793 29.1117 233.175 29.5137C232.557 29.9199 231.656 30.123 230.471 30.123C229.561 30.123 228.859 29.9538 228.364 29.6152C227.873 29.2767 227.627 28.7985 227.627 28.1807C227.627 27.7575 227.763 27.3914 228.034 27.0825C228.305 26.7736 228.685 26.5641 229.176 26.4541C228.999 26.3737 228.848 26.2489 228.726 26.0796C228.607 25.9103 228.548 25.7135 228.548 25.4893C228.548 25.2354 228.616 25.0132 228.751 24.8228C228.886 24.6323 229.1 24.4482 229.392 24.2705C229.032 24.1224 228.738 23.8706 228.51 23.5151C228.285 23.1597 228.173 22.7534 228.173 22.2964C228.173 21.5347 228.402 20.9486 228.859 20.5381C229.316 20.1234 229.963 19.916 230.801 19.916C231.165 19.916 231.493 19.9583 231.785 20.043H234.191ZM228.643 28.168C228.643 28.5446 228.802 28.8302 229.119 29.0249C229.437 29.2196 229.891 29.3169 230.484 29.3169C231.368 29.3169 232.022 29.1836 232.445 28.917C232.873 28.6546 233.086 28.297 233.086 27.8442C233.086 27.4676 232.97 27.2052 232.737 27.0571C232.505 26.9132 232.067 26.8413 231.423 26.8413H230.16C229.682 26.8413 229.31 26.9556 229.043 27.1841C228.776 27.4126 228.643 27.7406 228.643 28.168ZM229.214 22.271C229.214 22.7576 229.352 23.1258 229.627 23.3755C229.902 23.6252 230.285 23.75 230.776 23.75C231.804 23.75 232.318 23.2507 232.318 22.252C232.318 21.2067 231.798 20.6841 230.757 20.6841C230.262 20.6841 229.881 20.8174 229.614 21.084C229.348 21.3506 229.214 21.7463 229.214 22.271ZM244.614 27H238.514V26.0923L240.958 23.6357C241.702 22.8825 242.193 22.3451 242.43 22.0234C242.667 21.7018 242.845 21.3887 242.963 21.084C243.082 20.7793 243.141 20.4513 243.141 20.1001C243.141 19.605 242.991 19.2135 242.69 18.9258C242.39 18.6338 241.973 18.4878 241.44 18.4878C241.055 18.4878 240.689 18.5513 240.342 18.6782C239.999 18.8052 239.616 19.0358 239.193 19.3701L238.634 18.6528C239.489 17.9419 240.42 17.5864 241.427 17.5864C242.299 17.5864 242.982 17.8107 243.478 18.2593C243.973 18.7036 244.22 19.3024 244.22 20.0557C244.22 20.6439 244.055 21.2257 243.725 21.8013C243.395 22.3768 242.777 23.1047 241.872 23.9849L239.84 25.9717V26.0225H244.614V27Z"
        fill="#0A1324"
    />
    <path
        fill-rule="evenodd"
        clip-rule="evenodd"
        d="M265.941 20.523C265.74 20.336 265.658 20.0544 265.726 19.7887C265.793 19.523 266.001 19.3155 266.267 19.2476C266.532 19.1798 266.814 19.2623 267.001 19.463L270.007 22.468L273.012 19.463C273.199 19.2623 273.481 19.1798 273.746 19.2476C274.012 19.3155 274.22 19.523 274.287 19.7887C274.355 20.0544 274.273 20.336 274.072 20.523L270.523 24.073C270.361 24.235 270.134 24.314 269.906 24.2875C269.679 24.261 269.476 24.1319 269.355 23.937L265.941 20.523Z"
        fill="#0A1324"
    />
    <path
        fill-rule="evenodd"
        clip-rule="evenodd"
        d="M265.941 20.523C265.74 20.336 265.658 20.0544 265.726 19.7887C265.793 19.523 266.001 19.3155 266.267 19.2476C266.532 19.1798 266.814 19.2623 267.001 19.463L270.007 22.468L273.012 19.463C273.199 19.2623 273.481 19.1798 273.746 19.2476C274.012 19.3155 274.22 19.523 274.287 19.7887C274.355 20.0544 274.273 20.336 274.072 20.523L270.523 24.073C270.361 24.235 270.134 24.314 269.906 24.2875C269.679 24.261 269.476 24.1319 269.355 23.937L265.941 20.523Z"
        fill="#0A1324"
    />
    <path d="M292.5 12H291.5V32H292.5V12Z" fill="#9EA2A9" />
    <path
        fill-rule="evenodd"
        clip-rule="evenodd"
        d="M314.174 28.5329H310.055C309.46 28.5329 309.036 28.4041 308.782 28.1455C308.527 27.887 308.4 27.4754 308.4 26.9107V17.0883C308.4 16.5125 308.531 16.0971 308.791 15.8451C309.051 15.5931 309.472 15.4662 310.055 15.4662H314.423C315.067 15.4662 315.625 15.5045 316.096 15.5819C316.568 15.6594 316.992 15.8078 317.366 16.0281C317.684 16.2119 317.967 16.4453 318.211 16.7281C318.7 17.2863 318.968 18.0039 318.965 18.7459C318.965 20.0535 318.291 21.0102 316.943 21.6159C318.713 22.1629 319.6 23.2269 319.6 24.8089C319.616 26.2331 318.769 27.5257 317.457 28.0793C317.002 28.2568 316.526 28.375 316.041 28.4311C315.508 28.4993 314.886 28.5338 314.174 28.5338V28.5329ZM313.972 22.7303H311.2V26.5449H314.064C315.91 26.5449 316.832 25.9009 316.832 24.611C316.832 23.9511 316.593 23.4723 316.115 23.1765C315.637 22.8787 314.923 22.7303 313.972 22.7303V22.7303ZM311.2 17.4542V20.8319H313.632C314.313 20.8319 314.838 20.7694 315.21 20.6453C315.574 20.5252 315.878 20.2695 316.059 19.9313C316.213 19.6821 316.289 19.403 316.289 19.0941C316.289 18.4342 316.047 17.9965 315.563 17.779C315.079 17.5625 314.341 17.4542 313.347 17.4542H311.2V17.4542Z"
        fill="#0A1324"
    />
    <path
        fill-rule="evenodd"
        clip-rule="evenodd"
        d="M314.174 28.5329H310.055C309.46 28.5329 309.036 28.4041 308.782 28.1455C308.527 27.887 308.4 27.4754 308.4 26.9107V17.0883C308.4 16.5125 308.531 16.0971 308.791 15.8451C309.051 15.5931 309.472 15.4662 310.055 15.4662H314.423C315.067 15.4662 315.625 15.5045 316.096 15.5819C316.568 15.6594 316.992 15.8078 317.366 16.0281C317.684 16.2119 317.967 16.4453 318.211 16.7281C318.7 17.2863 318.968 18.0039 318.965 18.7459C318.965 20.0535 318.291 21.0102 316.943 21.6159C318.713 22.1629 319.6 23.2269 319.6 24.8089C319.616 26.2331 318.769 27.5257 317.457 28.0793C317.002 28.2568 316.526 28.375 316.041 28.4311C315.508 28.4993 314.886 28.5338 314.174 28.5338V28.5329ZM313.972 22.7303H311.2V26.5449H314.064C315.91 26.5449 316.832 25.9009 316.832 24.611C316.832 23.9511 316.593 23.4723 316.115 23.1765C315.637 22.8787 314.923 22.7303 313.972 22.7303V22.7303ZM311.2 17.4542V20.8319H313.632C314.313 20.8319 314.838 20.7694 315.21 20.6453C315.574 20.5252 315.878 20.2695 316.059 19.9313C316.213 19.6821 316.289 19.403 316.289 19.0941C316.289 18.4342 316.047 17.9965 315.563 17.779C315.079 17.5625 314.341 17.4542 313.347 17.4542H311.2V17.4542Z"
        fill="#0A1324"
    />

    <path
        fill-rule="evenodd"
        clip-rule="evenodd"
        d="M344.614 26.3241L344.633 26.3278C344.6 26.6405 344.722 26.9392 345 27.2257C345.076 27.3032 345.161 27.3657 345.256 27.4133H346.631C346.941 27.4133 347.191 27.664 347.191 27.9733C347.191 28.2826 346.941 28.5333 346.631 28.5333H340.617C340.308 28.5333 340.057 28.2826 340.057 27.9733C340.057 27.664 340.308 27.4133 340.617 27.4133H341.69C342.133 27.348 342.445 27.2434 342.628 27.1016C342.775 26.9877 342.9 26.8029 343.005 26.5444L345.26 17.631C345.288 17.3492 345.192 17.0692 344.998 16.8629C344.885 16.739 344.743 16.6443 344.586 16.5866H343.273C342.964 16.5866 342.713 16.3359 342.713 16.0266C342.713 15.7174 342.964 15.4666 343.273 15.4666H349.287C349.596 15.4666 349.847 15.7174 349.847 16.0266C349.847 16.3359 349.596 16.5866 349.287 16.5866H348.171C347.82 16.6389 347.565 16.7313 347.403 16.8629C347.203 17.0262 347.008 17.2726 346.822 17.6002L344.614 26.3241Z"
        fill="#0A1324"
    />
    <path
        fill-rule="evenodd"
        clip-rule="evenodd"
        d="M344.614 26.3241L344.633 26.3278C344.6 26.6405 344.722 26.9392 345 27.2257C345.076 27.3032 345.161 27.3657 345.256 27.4133H346.631C346.941 27.4133 347.191 27.664 347.191 27.9733C347.191 28.2826 346.941 28.5333 346.631 28.5333H340.617C340.308 28.5333 340.057 28.2826 340.057 27.9733C340.057 27.664 340.308 27.4133 340.617 27.4133H341.69C342.133 27.348 342.445 27.2434 342.628 27.1016C342.775 26.9877 342.9 26.8029 343.005 26.5444L345.26 17.631C345.288 17.3492 345.192 17.0692 344.998 16.8629C344.885 16.739 344.743 16.6443 344.586 16.5866H343.273C342.964 16.5866 342.713 16.3359 342.713 16.0266C342.713 15.7174 342.964 15.4666 343.273 15.4666H349.287C349.596 15.4666 349.847 15.7174 349.847 16.0266C349.847 16.3359 349.596 16.5866 349.287 16.5866H348.171C347.82 16.6389 347.565 16.7313 347.403 16.8629C347.203 17.0262 347.008 17.2726 346.822 17.6002L344.614 26.3241Z"
        fill="#0A1324"
    />
    <path
        fill-rule="evenodd"
        clip-rule="evenodd"
        d="M371.85 15.9893V21.5644C371.85 24.0035 373.679 25.0489 375.944 25.0489C378.296 25.0489 380.212 23.9164 380.212 21.5644V15.9893C380.212 15.728 379.864 15.5538 379.603 15.5538C379.254 15.5538 378.906 15.728 378.906 15.9893V21.3031C378.906 23.0453 377.599 23.8293 375.944 23.8293C374.289 23.8293 373.156 23.1324 373.156 21.3902V15.9893C373.156 15.6409 372.808 15.4666 372.547 15.4666C372.198 15.4666 371.85 15.6409 371.85 15.9893ZM369.933 27.2266V28.5333H382.129V27.2266H369.933Z"
        fill="#0A1324"
    />
    <path
        fill-rule="evenodd"
        clip-rule="evenodd"
        d="M371.85 15.9893V21.5644C371.85 24.0035 373.679 25.0489 375.944 25.0489C378.296 25.0489 380.212 23.9164 380.212 21.5644V15.9893C380.212 15.728 379.864 15.5538 379.603 15.5538C379.254 15.5538 378.906 15.728 378.906 15.9893V21.3031C378.906 23.0453 377.599 23.8293 375.944 23.8293C374.289 23.8293 373.156 23.1324 373.156 21.3902V15.9893C373.156 15.6409 372.808 15.4666 372.547 15.4666C372.198 15.4666 371.85 15.6409 371.85 15.9893ZM369.933 27.2266V28.5333H382.129V27.2266H369.933Z"
        fill="#0A1324"
    />
    <path
        fill-rule="evenodd"
        clip-rule="evenodd"
        d="M402.147 26.5733C402.8 27.1333 403.453 27.6 404.2 27.9733C404.853 28.2533 405.6 28.5333 406.533 28.5333C407.311 28.5043 408.074 28.3136 408.773 27.9733C409.24 27.7867 409.707 27.6 410.267 26.8533L410.827 25.7333V24.9867C410.827 24.52 410.733 24.0533 410.453 23.4H408.493C408.493 23.4 409.52 24.24 409.333 25.36C409.333 25.4533 409.333 26.2 408.773 26.5733C408.307 26.8533 407.56 27.1333 406.627 27.1333C405.133 27.1333 404.107 26.6667 403.173 25.5467H402.24L401.96 26.1067C401.945 26.283 402.014 26.456 402.147 26.5733ZM403.267 20.4133L404.013 21.0667H400.467V22.4667H413.533V21.0667H406.542C406.043 20.845 405.663 20.6108 405.227 20.32C405.13 20.2506 405.037 20.1874 404.949 20.1276C404.445 19.7854 404.107 19.5556 404.107 18.92C404.107 18.2667 404.293 18.08 405.04 17.52C405.6 17.1467 406.253 16.96 406.907 16.96C407.84 17.0533 408.4 17.1467 408.773 17.3333C409.223 17.5401 409.609 17.8621 409.893 18.2667C409.987 18.36 410.453 18.4533 410.827 18.2667C411.128 18.0409 411.065 17.8151 411.029 17.6872C411.02 17.6565 411.013 17.6314 411.013 17.6133L410.733 16.96C410.291 16.5213 409.745 16.2005 409.147 16.0267C407.739 15.4608 406.168 15.4608 404.76 16.0267C404.2 16.3067 403.64 16.68 403.267 17.24C402.893 17.7067 402.8 18.2667 402.8 18.92C402.8 19.6667 402.893 19.9467 403.267 20.4133Z"
        fill="#0A1324"
    />
    <path
        fill-rule="evenodd"
        clip-rule="evenodd"
        d="M402.147 26.5733C402.8 27.1333 403.453 27.6 404.2 27.9733C404.853 28.2533 405.6 28.5333 406.533 28.5333C407.311 28.5043 408.074 28.3136 408.773 27.9733C409.24 27.7867 409.707 27.6 410.267 26.8533L410.827 25.7333V24.9867C410.827 24.52 410.733 24.0533 410.453 23.4H408.493C408.493 23.4 409.52 24.24 409.333 25.36C409.333 25.4533 409.333 26.2 408.773 26.5733C408.307 26.8533 407.56 27.1333 406.627 27.1333C405.133 27.1333 404.107 26.6667 403.173 25.5467H402.24L401.96 26.1067C401.945 26.283 402.014 26.456 402.147 26.5733ZM403.267 20.4133L404.013 21.0667H400.467V22.4667H413.533V21.0667H406.542C406.043 20.845 405.663 20.6108 405.227 20.32C405.13 20.2506 405.037 20.1874 404.949 20.1276C404.445 19.7854 404.107 19.5556 404.107 18.92C404.107 18.2667 404.293 18.08 405.04 17.52C405.6 17.1467 406.253 16.96 406.907 16.96C407.84 17.0533 408.4 17.1467 408.773 17.3333C409.223 17.5401 409.609 17.8621 409.893 18.2667C409.987 18.36 410.453 18.4533 410.827 18.2667C411.128 18.0409 411.065 17.8151 411.029 17.6872C411.02 17.6565 411.013 17.6314 411.013 17.6133L410.733 16.96C410.291 16.5213 409.745 16.2005 409.147 16.0267C407.739 15.4608 406.168 15.4608 404.76 16.0267C404.2 16.3067 403.64 16.68 403.267 17.24C402.893 17.7067 402.8 18.2667 402.8 18.92C402.8 19.6667 402.893 19.9467 403.267 20.4133Z"

    />
    <path d="M429.5 12H428.5V32H429.5V12Z" fill="#9EA2A9" />
    <path
        fill-rule="evenodd"
        clip-rule="evenodd"
        d="M449.133 18.0333C449.133 18.4197 449.447 18.7333 449.833 18.7333H458.7C459.087 18.7333 459.4 18.4199 459.4 18.0333C459.4 17.6467 459.087 17.3333 458.7 17.3333H449.833C449.447 17.3333 449.133 17.6467 449.133 18.0333ZM445.867 15.4666V20.1333H444.467V16.12H443.533V15.1866H445.867V15.4666ZM442.92 29.3332L445.338 26.2933H445.325C445.461 26.0579 445.408 25.7593 445.2 25.5848C444.992 25.4103 444.688 25.4103 444.48 25.5848C444.272 25.7593 444.219 26.0579 444.355 26.2933H442.882C442.848 25.605 443.195 24.9537 443.786 24.5992C444.377 24.2447 445.115 24.2447 445.706 24.5992C446.297 24.9537 446.645 25.605 446.611 26.2933H446.61C446.565 26.6713 446.46 26.9784 446.299 27.2154C446.136 27.4525 445.748 27.8613 445.138 28.44H446.613V29.3733H442.88L442.92 29.3332ZM449.133 26.4333C449.133 26.0467 449.447 25.7333 449.833 25.7333H458.7C459.087 25.7333 459.4 26.0467 459.4 26.4333C459.4 26.8199 459.087 27.1333 458.7 27.1333H449.833C449.447 27.1333 449.133 26.8199 449.133 26.4333V26.4333Z"
        fill="#0A1324"
    />
    <path
        fill-rule="evenodd"
        clip-rule="evenodd"
        d="M449.133 18.0333C449.133 18.4197 449.447 18.7333 449.833 18.7333H458.7C459.087 18.7333 459.4 18.4199 459.4 18.0333C459.4 17.6467 459.087 17.3333 458.7 17.3333H449.833C449.447 17.3333 449.133 17.6467 449.133 18.0333ZM445.867 15.4666V20.1333H444.467V16.12H443.533V15.1866H445.867V15.4666ZM442.92 29.3332L445.338 26.2933H445.325C445.461 26.0579 445.408 25.7593 445.2 25.5848C444.992 25.4103 444.688 25.4103 444.48 25.5848C444.272 25.7593 444.219 26.0579 444.355 26.2933H442.882C442.848 25.605 443.195 24.9537 443.786 24.5992C444.377 24.2447 445.115 24.2447 445.706 24.5992C446.297 24.9537 446.645 25.605 446.611 26.2933H446.61C446.565 26.6713 446.46 26.9784 446.299 27.2154C446.136 27.4525 445.748 27.8613 445.138 28.44H446.613V29.3733H442.88L442.92 29.3332ZM449.133 26.4333C449.133 26.0467 449.447 25.7333 449.833 25.7333H458.7C459.087 25.7333 459.4 26.0467 459.4 26.4333C459.4 26.8199 459.087 27.1333 458.7 27.1333H449.833C449.447 27.1333 449.133 26.8199 449.133 26.4333V26.4333Z"

    />
    <path
        fill-rule="evenodd"
        clip-rule="evenodd"
        d="M479.667 17.5667C479.667 17.9531 479.98 18.2667 480.367 18.2667H489.233C489.62 18.2667 489.933 17.9533 489.933 17.5667C489.933 17.1801 489.62 16.8667 489.233 16.8667H480.367C479.98 16.8667 479.667 17.1801 479.667 17.5667ZM474.067 17.5667C474.067 16.6651 474.792 15.9333 475.7 15.9333C476.602 15.9333 477.333 16.6585 477.333 17.5667C477.333 18.4683 476.608 19.2 475.7 19.2C474.798 19.2 474.067 18.4748 474.067 17.5667ZM479.667 25.9667C479.667 26.3531 479.98 26.6667 480.367 26.6667H489.233C489.62 26.6667 489.933 26.3533 489.933 25.9667C489.933 25.5801 489.62 25.2667 489.233 25.2667H480.367C479.98 25.2667 479.667 25.5801 479.667 25.9667V25.9667ZM474.067 25.9667C474.067 25.0651 474.792 24.3333 475.7 24.3333C476.602 24.3333 477.333 25.0585 477.333 25.9667C477.333 26.8683 476.608 27.6 475.7 27.6C474.798 27.6 474.067 26.8748 474.067 25.9667Z"
        fill="#0A1324"
    />
    <path
        fill-rule="evenodd"
        clip-rule="evenodd"
        d="M479.667 17.5667C479.667 17.9531 479.98 18.2667 480.367 18.2667H489.233C489.62 18.2667 489.933 17.9533 489.933 17.5667C489.933 17.1801 489.62 16.8667 489.233 16.8667H480.367C479.98 16.8667 479.667 17.1801 479.667 17.5667ZM474.067 17.5667C474.067 16.6651 474.792 15.9333 475.7 15.9333C476.602 15.9333 477.333 16.6585 477.333 17.5667C477.333 18.4683 476.608 19.2 475.7 19.2C474.798 19.2 474.067 18.4748 474.067 17.5667ZM479.667 25.9667C479.667 26.3531 479.98 26.6667 480.367 26.6667H489.233C489.62 26.6667 489.933 26.3533 489.933 25.9667C489.933 25.5801 489.62 25.2667 489.233 25.2667H480.367C479.98 25.2667 479.667 25.5801 479.667 25.9667V25.9667ZM474.067 25.9667C474.067 25.0651 474.792 24.3333 475.7 24.3333C476.602 24.3333 477.333 25.0585 477.333 25.9667C477.333 26.8683 476.608 27.6 475.7 27.6C474.798 27.6 474.067 26.8748 474.067 25.9667Z"

    />
    <line x1="1" y1="42.5" x2="601" y2="42.5" stroke="#D9DBDD" />
    <rect width="600" height="80" transform="translate(1 43)" fill="white" />
    <line x1="1" y1="122.5" x2="601" y2="122.5" stroke="#D9DBDD" />
    <rect width="600" height="24" transform="translate(1 123)" fill="#F2F2F3" />
    <path d="M597 143V135L589 143H597Z" fill="#0A1324" />
    <rect x="0.5" y="0.5" width="601" height="147" stroke="#D9DBDD" />
    <text font-size="12" font-family="Segoe UI" text-anchor="middle" alignment-baseline="central" fill="#6B707B" class="attribute-name-text" x="301" y="86">[No attribute selected]</text>
</svg>
