<svg width="16" height="13" viewBox="0 0 16 13" fill="none" xmlns="http://www.w3.org/2000/svg">
<path d="M5.50625 8.37365L4.37495 9.43847V0.875C4.37495 0.419588 3.98384 0 3.5 0C3.01616 0 2.62506 0.419588 2.62506 0.875V9.43847L1.49375 8.37365C1.15165 8.05165 0.598681 8.05165 0.256578 8.37365C-0.0855259 8.69565 -0.0855259 9.21612 0.256578 9.53812L2.88054 12.0079C3.22352 12.3307 3.77648 12.3307 4.11946 12.0079L6.74342 9.53812C7.08553 9.21612 7.08553 8.69565 6.74342 8.37365C6.40132 8.05165 5.84835 8.05165 5.50625 8.37365Z" fill="#579BF9"/>
<path d="M9 1H15C15.5523 1 16 1.44772 16 2C16 2.55228 15.5523 3 15 3H9C8.44772 3 8 2.55228 8 2C8 1.44772 8.44772 1 9 1Z" fill="#579BF9"/>
<path d="M9 9H11C11.5523 9 12 9.44772 12 10C12 10.5523 11.5523 11 11 11H9C8.44772 11 8 10.5523 8 10C8 9.44772 8.44772 9 9 9Z" fill="#579BF9"/>
<path d="M9 5H13C13.5523 5 14 5.44772 14 6C14 6.55228 13.5523 7 13 7H9C8.44772 7 8 6.55228 8 6C8 5.44772 8.44772 5 9 5Z" fill="#579BF9"/>
</svg>
