<svg width="32" height="32" viewBox="0 0 32 32" fill="#264AE5" xmlns="http://www.w3.org/2000/svg">
    <g id="Ascendant">
        <g id="Filled_Icon">
            <g id="Group">
                <path id="Vector" d="M11.2933 19.7905L10.0002 21.0835V8.4975C10.0002 7.9445 9.55325 7.4975 9.00025 7.4975C8.44725 7.4975 8.00025 7.9445 8.00025 8.4975V21.0835L6.70725 19.7905C6.31625 19.3995 5.68425 19.3995 5.29325 19.7905C4.90225 20.1815 4.90225 20.8135 5.29325 21.2045L8.29225 24.2035C8.68425 24.5955 9.31625 24.5955 9.70825 24.2035L12.7072 21.2045C13.0982 20.8135 13.0982 20.1815 12.7072 19.7905C12.3162 19.3995 11.6843 19.3995 11.2933 19.7905Z" />
                <g id="Frame 1">
                    <path id="Shape" fill-rule="evenodd" clip-rule="evenodd" d="M22.0943 5C22.4784 4.99992 22.8199 5.2444 22.9437 5.60801L26.3434 15.1725C26.3895 15.3094 26.3669 15.4601 26.2827 15.5774C26.1984 15.6947 26.0629 15.7643 25.9184 15.7643H24.4994C24.307 15.7643 24.136 15.6414 24.0745 15.459L23.5399 13.9703H19.3267L18.7921 15.459C18.7307 15.6414 18.5596 15.7643 18.3672 15.7643H16.9482C16.8038 15.7642 16.6683 15.6946 16.5841 15.5773C16.5 15.46 16.4774 15.3094 16.5235 15.1725L19.9229 5.60801C20.0467 5.2444 20.3882 4.99992 20.7723 5H22.0943ZM21.4333 8.10427L20.1321 11.7277H22.7346L21.4333 8.10427Z" />
                    <path id="Z" d="M17.8001 26.2157C17.8001 26.9883 18.306 27.5243 19.0374 27.5243H24.1712C24.6907 27.5243 25.0667 27.0907 25.0667 26.4916C25.0667 25.8847 24.6907 25.4511 24.1712 25.4511H20.4388V25.325L23.9593 20.0041C24.6702 18.9715 24.8616 18.5616 24.8616 18.0571C24.8616 17.2609 24.3968 16.7643 23.6585 16.7643H18.8939C18.3607 16.7643 17.9915 17.1821 17.9915 17.8048C17.9915 18.4197 18.3538 18.8375 18.8939 18.8375H22.2845V18.9636L18.6888 24.316C17.971 25.3408 17.8001 25.7112 17.8001 26.2157Z" />
                </g>
            </g>
        </g>
        <g id="Filled_Icon_2">
            <g id="Group_2">
                <path id="Vector_2" d="M11.2933 19.7905L10.0002 21.0835V8.4975C10.0002 7.9445 9.55325 7.4975 9.00025 7.4975C8.44725 7.4975 8.00025 7.9445 8.00025 8.4975V21.0835L6.70725 19.7905C6.31625 19.3995 5.68425 19.3995 5.29325 19.7905C4.90225 20.1815 4.90225 20.8135 5.29325 21.2045L8.29225 24.2035C8.68425 24.5955 9.31625 24.5955 9.70825 24.2035L12.7072 21.2045C13.0982 20.8135 13.0982 20.1815 12.7072 19.7905C12.3162 19.3995 11.6843 19.3995 11.2933 19.7905Z" />
                <g id="Frame 1_2">
                    <path id="Shape_2" fill-rule="evenodd" clip-rule="evenodd" d="M22.0943 5C22.4784 4.99992 22.8199 5.2444 22.9437 5.60801L26.3434 15.1725C26.3895 15.3094 26.3669 15.4601 26.2827 15.5774C26.1984 15.6947 26.0629 15.7643 25.9184 15.7643H24.4994C24.307 15.7643 24.136 15.6414 24.0745 15.459L23.5399 13.9703H19.3267L18.7921 15.459C18.7307 15.6414 18.5596 15.7643 18.3672 15.7643H16.9482C16.8038 15.7642 16.6683 15.6946 16.5841 15.5773C16.5 15.46 16.4774 15.3094 16.5235 15.1725L19.9229 5.60801C20.0467 5.2444 20.3882 4.99992 20.7723 5H22.0943ZM21.4333 8.10427L20.1321 11.7277H22.7346L21.4333 8.10427Z" />
                    <path id="Z_2" d="M17.8001 26.2157C17.8001 26.9883 18.306 27.5243 19.0374 27.5243H24.1712C24.6907 27.5243 25.0667 27.0907 25.0667 26.4916C25.0667 25.8847 24.6907 25.4511 24.1712 25.4511H20.4388V25.325L23.9593 20.0041C24.6702 18.9715 24.8616 18.5616 24.8616 18.0571C24.8616 17.2609 24.3968 16.7643 23.6585 16.7643H18.8939C18.3607 16.7643 17.9915 17.1821 17.9915 17.8048C17.9915 18.4197 18.3538 18.8375 18.8939 18.8375H22.2845V18.9636L18.6888 24.316C17.971 25.3408 17.8001 25.7112 17.8001 26.2157Z" />
                </g>
            </g>
        </g>
    </g>
</svg>
