<svg width="32" height="32" viewBox="0 0 32 32" xmlns="http://www.w3.org/2000/svg" fill="#264AE5">
    <g id="Descending">
        <g id="Filled_Icon">
            <g id="Group">
                <path id="Vector" d="M11.2933 19.7905L10.0002 21.0835V8.4975C10.0002 7.9445 9.55325 7.4975 9.00025 7.4975C8.44725 7.4975 8.00025 7.9445 8.00025 8.4975V21.0835L6.70725 19.7905C6.31625 19.3995 5.68425 19.3995 5.29325 19.7905C4.90225 20.1815 4.90225 20.8135 5.29325 21.2045L8.29225 24.2035C8.68425 24.5955 9.31625 24.5955 9.70825 24.2035L12.7072 21.2045C13.0982 20.8135 13.0982 20.1815 12.7072 19.7905C12.3162 19.3995 11.6843 19.3995 11.2933 19.7905Z"/>
                <g id="Frame 1">
                    <path id="Z" d="M17.8001 14.4515C17.8001 15.224 18.306 15.76 19.0374 15.76H24.1712C24.6907 15.76 25.0667 15.3264 25.0667 14.7274C25.0667 14.1204 24.6907 13.6868 24.1712 13.6868H20.4388V13.5607L23.9593 8.23982C24.6702 7.20718 24.8616 6.79727 24.8616 6.29278C24.8616 5.49662 24.3968 5 23.6585 5H18.8939C18.3607 5 17.9915 5.41779 17.9915 6.04053C17.9915 6.65538 18.3538 7.07317 18.8939 7.07317H22.2845V7.1993L18.6888 12.5517C17.971 13.5765 17.8001 13.947 17.8001 14.4515Z"/>
                    <path id="Shape" fill-rule="evenodd" clip-rule="evenodd" d="M22.0943 16.76C22.4784 16.7599 22.8199 17.0044 22.9437 17.368L26.3434 26.9326C26.3895 27.0694 26.3669 27.2201 26.2827 27.3374C26.1984 27.4547 26.0629 27.5243 25.9184 27.5243H24.4994C24.307 27.5243 24.136 27.4014 24.0745 27.219L23.5399 25.7303H19.3267L18.7921 27.219C18.7307 27.4014 18.5596 27.5243 18.3672 27.5243H16.9482C16.8038 27.5242 16.6683 27.4546 16.5841 27.3373C16.5 27.22 16.4774 27.0694 16.5235 26.9326L19.9229 17.368C20.0467 17.0044 20.3882 16.7599 20.7723 16.76H22.0943ZM21.4333 19.8643L20.1321 23.4877H22.7346L21.4333 19.8643Z"/>
                </g>
            </g>
        </g>
    </g>
</svg>
