<svg width="16" height="13" viewBox="0 0 16 13" fill="none" xmlns="http://www.w3.org/2000/svg">
<path d="M1.49375 3.87635L2.62505 2.81153L2.62505 11.375C2.62505 11.8304 3.01616 12.25 3.5 12.25C3.98384 12.25 4.37494 11.8304 4.37494 11.375L4.37494 2.81153L5.50625 3.87635C5.84835 4.19835 6.40132 4.19835 6.74342 3.87635C7.08553 3.55435 7.08553 3.03388 6.74342 2.71188L4.11946 0.242118C3.77648 -0.080706 3.22352 -0.080706 2.88054 0.242118L0.256578 2.71188C-0.0855261 3.03388 -0.0855261 3.55435 0.256578 3.87635C0.598681 4.19835 1.15165 4.19835 1.49375 3.87635Z" fill="#264AE5"/>
<path d="M9 1H11C11.5523 1 12 1.44772 12 2C12 2.55228 11.5523 3 11 3H9C8.44772 3 8 2.55228 8 2C8 1.44772 8.44772 1 9 1Z" fill="#264AE5"/>
<path d="M9 9H15C15.5523 9 16 9.44772 16 10C16 10.5523 15.5523 11 15 11H9C8.44772 11 8 10.5523 8 10C8 9.44772 8.44772 9 9 9Z" fill="#264AE5"/>
<path d="M9 5H13C13.5523 5 14 5.44772 14 6C14 6.55228 13.5523 7 13 7H9C8.44772 7 8 6.55228 8 6C8 5.44772 8.44772 5 9 5Z" fill="#264AE5"/>
</svg>
