<svg width="24px" height="24px" viewBox="0 0 24 24" version="1.1" xmlns="http://www.w3.org/2000/svg" xmlns:xlink="http://www.w3.org/1999/xlink">
    <title>Shape</title>
    <g id="Widgets" stroke="none" stroke-width="1" fill="none" fill-rule="evenodd">
        <g id="Rating" transform="translate(-179.000000, -160.000000)" fill="#CED0D3">
            <g id="Group-2-Copy-3" transform="translate(115.000000, 160.000000)">
                <g id="rating-star" transform="translate(64.000000, 0.000000)">
                    <path d="M12.729,1.2 L16.075,7.829 L22.515,8.467 C22.8280559,8.49301479 23.0973816,8.69875802 23.2048041,8.99395486 C23.3122265,9.28915169 23.2381198,9.61987035 23.015,9.841 L17.715,15.094 L19.68,22.232 C19.762123,22.5412622 19.6552027,22.8699349 19.4068419,23.0716877 C19.158481,23.2734404 18.8148738,23.3107478 18.529,23.167 L12,19.934 L5.48,23.163 C5.19412617,23.3067478 4.85051899,23.2694404 4.60215814,23.0676877 C4.35379729,22.8659349 4.24687701,22.5372622 4.329,22.228 L6.294,15.09 L0.99,9.837 C0.76688024,9.61587035 0.692773515,9.28515169 0.800195946,8.98995486 C0.907618376,8.69475802 1.17694412,8.48901479 1.49,8.463 L7.93,7.825 L11.271,1.2 C11.411094,0.926384677 11.692605,0.754255944 12,0.754255944 C12.307395,0.754255944 12.588906,0.926384677 12.729,1.2 Z" id="Shape"></path>
                </g>
            </g>
        </g>
    </g>
</svg>
