<svg width="721" height="442" viewBox="0 0 721 442" fill="none" xmlns="http://www.w3.org/2000/svg">
<line x1="1" y1="0.5" x2="721" y2="0.5" stroke="#646464"/>
<line x1="1" y1="63.4285" x2="721" y2="63.4285" stroke="#646464"/>
<line x1="1" y1="126.357" x2="721" y2="126.357" stroke="#646464"/>
<line x1="1" y1="189.286" x2="721" y2="189.286" stroke="#646464"/>
<line x1="1" y1="252.214" x2="721" y2="252.214" stroke="#646464"/>
<line x1="1" y1="315.143" x2="721" y2="315.143" stroke="#646464"/>
<line x1="1" y1="378.071" x2="721" y2="378.071" stroke="#646464"/>
<line x1="1" y1="441" x2="721" y2="441" stroke="#646464"/>
<line x1="0.5" y1="441.5" x2="0.5" stroke="#646464"/>
<line x1="720.5" y1="441.5" x2="720.5" stroke="#646464"/>
<rect width="115.64" height="126.595" transform="matrix(-1 0 0 1 221.64 63.8242)" fill="#579BF9"/>
<rect width="115.64" height="148.353" transform="matrix(-1 0 0 1 221.64 192.397)" fill="#FFDA70"/>
<rect width="115.64" height="98.9022" transform="matrix(-1 0 0 1 221.64 342.728)" fill="#344BCE"/>
<rect width="115.64" height="148.353" transform="matrix(-1 0 0 1 353.093 140.968)" fill="#579BF9"/>
<rect width="115.64" height="49.4511" transform="matrix(-1 0 0 1 353.093 291.299)" fill="#FFDA70"/>
<rect width="115.64" height="98.9022" transform="matrix(-1 0 0 1 353.093 342.728)" fill="#344BCE"/>
<rect width="115.64" height="128.573" transform="matrix(-1 0 0 1 484.546 32.1755)" fill="#579BF9"/>
<rect width="115.64" height="98.9022" transform="matrix(-1 0 0 1 484.546 162.726)" fill="#FFDA70"/>
<rect width="115.64" height="178.024" transform="matrix(-1 0 0 1 484.546 263.606)" fill="#344BCE"/>
<rect width="115.64" height="148.353" transform="matrix(-1 0 0 1 616 12.3953)" fill="#579BF9"/>
<rect width="115.64" height="197.804" transform="matrix(-1 0 0 1 616 162.726)" fill="#FFDA70"/>
<rect width="115.64" height="79.1218" transform="matrix(-1 0 0 1 616 362.509)" fill="#344BCE"/>
</svg>
