<svg width="721" height="442" viewBox="0 0 721 442" fill="none" xmlns="http://www.w3.org/2000/svg">
<line x1="1" y1="0.5" x2="721" y2="0.5" stroke="#646464"/>
<line x1="1" y1="63.4287" x2="721" y2="63.4287" stroke="#646464"/>
<line x1="1" y1="126.357" x2="721" y2="126.357" stroke="#646464"/>
<line x1="1" y1="189.286" x2="721" y2="189.286" stroke="#646464"/>
<line x1="1" y1="252.214" x2="721" y2="252.214" stroke="#646464"/>
<line x1="1" y1="315.143" x2="721" y2="315.143" stroke="#646464"/>
<line x1="1" y1="378.071" x2="721" y2="378.071" stroke="#646464"/>
<line x1="1" y1="441" x2="721" y2="441" stroke="#646464"/>
<line x1="0.5" y1="441.5" x2="0.5" stroke="#646464"/>
<rect width="46.5271" height="146.794" transform="matrix(-1 0 0 1 100.361 294.528)" fill="#344BCE"/>
<rect width="46.5271" height="220.191" transform="matrix(-1 0 0 1 148.638 221.131)" fill="#FFDA70"/>
<rect width="46.5271" height="293.588" transform="matrix(-1 0 0 1 196.915 147.735)" fill="#579BF9"/>
<rect width="46.5271" height="146.794" transform="matrix(-1 0 0 1 257.444 294.528)" fill="#344BCE"/>
<rect width="46.5271" height="73.3971" transform="matrix(-1 0 0 1 305.722 367.925)" fill="#FFDA70"/>
<rect width="46.5271" height="220.191" transform="matrix(-1 0 0 1 353.999 221.131)" fill="#579BF9"/>
<rect width="46.5271" height="117.435" transform="matrix(-1 0 0 1 571.612 323.887)" fill="#344BCE"/>
<rect width="47.117" height="70.6755" transform="matrix(-1 0 0 1 620.144 370.824)" fill="#FFDA70"/>
<rect width="46.2109" height="371.499" transform="matrix(-1 0 0 1 414.46 70)" fill="#344BCE"/>
<rect width="46.5271" height="146.794" transform="matrix(-1 0 0 1 462.806 294.528)" fill="#FFDA70"/>
<rect width="46.5271" height="190.832" transform="matrix(-1 0 0 1 511.083 250.489)" fill="#579BF9"/>
<rect width="46.2109" height="315.38" transform="matrix(-1 0 0 1 668.167 126.12)" fill="#579BF9"/>
<line x1="720.5" y1="441.5" x2="720.5" stroke="#646464"/>
</svg>
