<svg width="275" height="225" viewBox="0 0 275 225" fill="none" xmlns="http://www.w3.org/2000/svg">
<line x1="1" y1="0.5" x2="275" y2="0.5" stroke="#646464"/>
<line x1="1" y1="32.4286" x2="275" y2="32.4286" stroke="#646464"/>
<line x1="1" y1="64.3572" x2="275" y2="64.3572" stroke="#646464"/>
<line x1="1" y1="96.2858" x2="275" y2="96.2858" stroke="#646464"/>
<line x1="1" y1="128.214" x2="275" y2="128.214" stroke="#646464"/>
<line x1="1" y1="160.143" x2="275" y2="160.143" stroke="#646464"/>
<line x1="1" y1="192.071" x2="275" y2="192.071" stroke="#646464"/>
<line x1="1" y1="224" x2="275" y2="224" stroke="#646464"/>
<line x1="0.5" y1="224.5" x2="0.5" stroke="#646464"/>
<line x1="274.5" y1="224.5" x2="274.5" stroke="#646464"/>
<rect width="18.8333" height="100" transform="matrix(-1 0 0 1 27.8334 124)" fill="#344BCE"/>
<rect width="18.8333" height="150" transform="matrix(-1 0 0 1 47.6666 74)" fill="#FFDA70"/>
<rect width="18.8333" height="200" transform="matrix(-1 0 0 1 67.5 24)" fill="#579BF9"/>
<rect width="18.8333" height="100" transform="matrix(-1 0 0 1 94.3334 124)" fill="#344BCE"/>
<rect width="18.8333" height="50" transform="matrix(-1 0 0 1 114.167 174)" fill="#FFDA70"/>
<rect width="18.8333" height="150" transform="matrix(-1 0 0 1 134 74)" fill="#579BF9"/>
<rect width="18.8333" height="180" transform="matrix(-1 0 0 1 160.833 44)" fill="#344BCE"/>
<rect width="18.8333" height="100" transform="matrix(-1 0 0 1 180.667 124)" fill="#FFDA70"/>
<rect width="18.8333" height="130" transform="matrix(-1 0 0 1 200.5 94)" fill="#579BF9"/>
<rect width="18.8333" height="80" transform="matrix(-1 0 0 1 227.333 144)" fill="#344BCE"/>
<rect width="18.8333" height="200" transform="matrix(-1 0 0 1 247.167 24)" fill="#FFDA70"/>
<rect width="18.8333" height="150" transform="matrix(-1 0 0 1 267 74)" fill="#579BF9"/>
</svg>
