<svg width="85" height="224" viewBox="0 0 85 224" fill="none" xmlns="http://www.w3.org/2000/svg">
<rect x="8" y="8" width="16" height="16" fill="#264AE5"/>
<path d="M39.418 21H38.4336V17.168H34.0859V21H33.1016V12.5977H34.0859V16.2832H38.4336V12.5977H39.418V21ZM41.9844 13.4766C41.8125 13.4766 41.666 13.418 41.5449 13.3008C41.4238 13.1836 41.3633 13.0352 41.3633 12.8555C41.3633 12.6758 41.4238 12.5273 41.5449 12.4102C41.666 12.2891 41.8125 12.2285 41.9844 12.2285C42.1602 12.2285 42.3086 12.2891 42.4297 12.4102C42.5547 12.5273 42.6172 12.6758 42.6172 12.8555C42.6172 13.0273 42.5547 13.1738 42.4297 13.2949C42.3086 13.416 42.1602 13.4766 41.9844 13.4766ZM42.4531 21H41.4922V15H42.4531V21ZM49.5195 20.5195C49.5195 22.7227 48.4648 23.8242 46.3555 23.8242C45.6133 23.8242 44.9648 23.6836 44.4102 23.4023V22.4414C45.0859 22.8164 45.7305 23.0039 46.3438 23.0039C47.8203 23.0039 48.5586 22.2188 48.5586 20.6484V19.9922H48.5352C48.0781 20.7578 47.3906 21.1406 46.4727 21.1406C45.7266 21.1406 45.125 20.875 44.668 20.3438C44.2148 19.8086 43.9883 19.0918 43.9883 18.1934C43.9883 17.1738 44.2324 16.3633 44.7207 15.7617C45.2129 15.1602 45.8848 14.8594 46.7363 14.8594C47.5449 14.8594 48.1445 15.1836 48.5352 15.832H48.5586V15H49.5195V20.5195ZM48.5586 18.2871V17.4023C48.5586 16.9258 48.3965 16.5176 48.0723 16.1777C47.752 15.8379 47.3516 15.668 46.8711 15.668C46.2773 15.668 45.8125 15.8848 45.4766 16.3184C45.1406 16.748 44.9727 17.3516 44.9727 18.1289C44.9727 18.7969 45.1328 19.332 45.4531 19.7344C45.7773 20.1328 46.2051 20.332 46.7363 20.332C47.2754 20.332 47.7129 20.1406 48.0488 19.7578C48.3887 19.375 48.5586 18.8848 48.5586 18.2871ZM56.4453 21H55.4844V17.543C55.4844 16.293 55.0195 15.668 54.0898 15.668C53.6211 15.668 53.2266 15.8496 52.9062 16.2129C52.5859 16.5723 52.4258 17.0352 52.4258 17.6016V21H51.4648V12.1172H52.4258V15.9961H52.4492C52.9102 15.2383 53.5664 14.8594 54.418 14.8594C55.7695 14.8594 56.4453 15.6738 56.4453 17.3027V21Z" fill="#03096C"/>
<path d="M39.418 21H38.4336V17.168H34.0859V21H33.1016V12.5977H34.0859V16.2832H38.4336V12.5977H39.418V21ZM41.9844 13.4766C41.8125 13.4766 41.666 13.418 41.5449 13.3008C41.4238 13.1836 41.3633 13.0352 41.3633 12.8555C41.3633 12.6758 41.4238 12.5273 41.5449 12.4102C41.666 12.2891 41.8125 12.2285 41.9844 12.2285C42.1602 12.2285 42.3086 12.2891 42.4297 12.4102C42.5547 12.5273 42.6172 12.6758 42.6172 12.8555C42.6172 13.0273 42.5547 13.1738 42.4297 13.2949C42.3086 13.416 42.1602 13.4766 41.9844 13.4766ZM42.4531 21H41.4922V15H42.4531V21ZM49.5195 20.5195C49.5195 22.7227 48.4648 23.8242 46.3555 23.8242C45.6133 23.8242 44.9648 23.6836 44.4102 23.4023V22.4414C45.0859 22.8164 45.7305 23.0039 46.3438 23.0039C47.8203 23.0039 48.5586 22.2188 48.5586 20.6484V19.9922H48.5352C48.0781 20.7578 47.3906 21.1406 46.4727 21.1406C45.7266 21.1406 45.125 20.875 44.668 20.3438C44.2148 19.8086 43.9883 19.0918 43.9883 18.1934C43.9883 17.1738 44.2324 16.3633 44.7207 15.7617C45.2129 15.1602 45.8848 14.8594 46.7363 14.8594C47.5449 14.8594 48.1445 15.1836 48.5352 15.832H48.5586V15H49.5195V20.5195ZM48.5586 18.2871V17.4023C48.5586 16.9258 48.3965 16.5176 48.0723 16.1777C47.752 15.8379 47.3516 15.668 46.8711 15.668C46.2773 15.668 45.8125 15.8848 45.4766 16.3184C45.1406 16.748 44.9727 17.3516 44.9727 18.1289C44.9727 18.7969 45.1328 19.332 45.4531 19.7344C45.7773 20.1328 46.2051 20.332 46.7363 20.332C47.2754 20.332 47.7129 20.1406 48.0488 19.7578C48.3887 19.375 48.5586 18.8848 48.5586 18.2871ZM56.4453 21H55.4844V17.543C55.4844 16.293 55.0195 15.668 54.0898 15.668C53.6211 15.668 53.2266 15.8496 52.9062 16.2129C52.5859 16.5723 52.4258 17.0352 52.4258 17.6016V21H51.4648V12.1172H52.4258V15.9961H52.4492C52.9102 15.2383 53.5664 14.8594 54.418 14.8594C55.7695 14.8594 56.4453 15.6738 56.4453 17.3027V21Z" fill="black" fill-opacity="0.2"/>
<rect x="8" y="32" width="16" height="16" fill="#2DBAFC"/>
<path d="M41.668 45H40.6895V39.3633C40.6895 38.918 40.7168 38.373 40.7715 37.7285H40.748C40.6543 38.1074 40.5703 38.3789 40.4961 38.543L37.625 45H37.1445L34.2793 38.5898C34.1973 38.4023 34.1133 38.1152 34.0273 37.7285H34.0039C34.0352 38.0645 34.0508 38.6133 34.0508 39.375V45H33.1016V36.5977H34.4023L36.9805 42.457C37.1797 42.9062 37.3086 43.2422 37.3672 43.4648H37.4023C37.5703 43.0039 37.7051 42.6602 37.8066 42.4336L40.4375 36.5977H41.668V45ZM48.5762 42.2402H44.3398C44.3555 42.9082 44.5352 43.4238 44.8789 43.7871C45.2227 44.1504 45.6953 44.332 46.2969 44.332C46.9727 44.332 47.5938 44.1094 48.1602 43.6641V44.5664C47.6328 44.9492 46.9355 45.1406 46.0684 45.1406C45.2207 45.1406 44.5547 44.8691 44.0703 44.3262C43.5859 43.7793 43.3438 43.0117 43.3438 42.0234C43.3438 41.0898 43.6074 40.3301 44.1348 39.7441C44.666 39.1543 45.3242 38.8594 46.1094 38.8594C46.8945 38.8594 47.502 39.1133 47.9316 39.6211C48.3613 40.1289 48.5762 40.834 48.5762 41.7363V42.2402ZM47.5918 41.4258C47.5879 40.8711 47.4531 40.4395 47.1875 40.1309C46.9258 39.8223 46.5605 39.668 46.0918 39.668C45.6387 39.668 45.2539 39.8301 44.9375 40.1543C44.6211 40.4785 44.4258 40.9023 44.3516 41.4258H47.5918ZM55.1562 45H54.1953V43.9805H54.1719C53.7266 44.7539 53.0391 45.1406 52.1094 45.1406C51.3555 45.1406 50.752 44.873 50.2988 44.3379C49.8496 43.7988 49.625 43.0664 49.625 42.1406C49.625 41.1484 49.875 40.3535 50.375 39.7559C50.875 39.1582 51.541 38.8594 52.373 38.8594C53.1973 38.8594 53.7969 39.1836 54.1719 39.832H54.1953V36.1172H55.1562V45ZM54.1953 42.2871V41.4023C54.1953 40.918 54.0352 40.5078 53.7148 40.1719C53.3945 39.8359 52.9883 39.668 52.4961 39.668C51.9102 39.668 51.4492 39.8828 51.1133 40.3125C50.7773 40.7422 50.6094 41.3359 50.6094 42.0938C50.6094 42.7852 50.7695 43.332 51.0898 43.7344C51.4141 44.1328 51.8477 44.332 52.3906 44.332C52.9258 44.332 53.3594 44.1387 53.6914 43.752C54.0273 43.3652 54.1953 42.877 54.1953 42.2871ZM57.5938 37.4766C57.4219 37.4766 57.2754 37.418 57.1543 37.3008C57.0332 37.1836 56.9727 37.0352 56.9727 36.8555C56.9727 36.6758 57.0332 36.5273 57.1543 36.4102C57.2754 36.2891 57.4219 36.2285 57.5938 36.2285C57.7695 36.2285 57.918 36.2891 58.0391 36.4102C58.1641 36.5273 58.2266 36.6758 58.2266 36.8555C58.2266 37.0273 58.1641 37.1738 58.0391 37.2949C57.918 37.416 57.7695 37.4766 57.5938 37.4766ZM58.0625 45H57.1016V39H58.0625V45ZM64.8594 45H63.8984V44.0508H63.875C63.4766 44.7773 62.8594 45.1406 62.0234 45.1406C60.5938 45.1406 59.8789 44.2891 59.8789 42.5859V39H60.834V42.4336C60.834 43.6992 61.3184 44.332 62.2871 44.332C62.7559 44.332 63.1406 44.1602 63.4414 43.8164C63.7461 43.4688 63.8984 43.0156 63.8984 42.457V39H64.8594V45ZM75.3242 45H74.3633V41.5547C74.3633 40.8906 74.2598 40.4102 74.0527 40.1133C73.8496 39.8164 73.5059 39.668 73.0215 39.668C72.6113 39.668 72.2617 39.8555 71.9727 40.2305C71.6875 40.6055 71.5449 41.0547 71.5449 41.5781V45H70.584V41.4375C70.584 40.2578 70.1289 39.668 69.2188 39.668C68.7969 39.668 68.4492 39.8457 68.1758 40.2012C67.9023 40.5527 67.7656 41.0117 67.7656 41.5781V45H66.8047V39H67.7656V39.9492H67.7891C68.2148 39.2227 68.8359 38.8594 69.6523 38.8594C70.0625 38.8594 70.4199 38.9746 70.7246 39.2051C71.0293 39.4316 71.2383 39.7305 71.3516 40.1016C71.7969 39.2734 72.4609 38.8594 73.3438 38.8594C74.6641 38.8594 75.3242 39.6738 75.3242 41.3027V45Z" fill="#03096C"/>
<path d="M41.668 45H40.6895V39.3633C40.6895 38.918 40.7168 38.373 40.7715 37.7285H40.748C40.6543 38.1074 40.5703 38.3789 40.4961 38.543L37.625 45H37.1445L34.2793 38.5898C34.1973 38.4023 34.1133 38.1152 34.0273 37.7285H34.0039C34.0352 38.0645 34.0508 38.6133 34.0508 39.375V45H33.1016V36.5977H34.4023L36.9805 42.457C37.1797 42.9062 37.3086 43.2422 37.3672 43.4648H37.4023C37.5703 43.0039 37.7051 42.6602 37.8066 42.4336L40.4375 36.5977H41.668V45ZM48.5762 42.2402H44.3398C44.3555 42.9082 44.5352 43.4238 44.8789 43.7871C45.2227 44.1504 45.6953 44.332 46.2969 44.332C46.9727 44.332 47.5938 44.1094 48.1602 43.6641V44.5664C47.6328 44.9492 46.9355 45.1406 46.0684 45.1406C45.2207 45.1406 44.5547 44.8691 44.0703 44.3262C43.5859 43.7793 43.3438 43.0117 43.3438 42.0234C43.3438 41.0898 43.6074 40.3301 44.1348 39.7441C44.666 39.1543 45.3242 38.8594 46.1094 38.8594C46.8945 38.8594 47.502 39.1133 47.9316 39.6211C48.3613 40.1289 48.5762 40.834 48.5762 41.7363V42.2402ZM47.5918 41.4258C47.5879 40.8711 47.4531 40.4395 47.1875 40.1309C46.9258 39.8223 46.5605 39.668 46.0918 39.668C45.6387 39.668 45.2539 39.8301 44.9375 40.1543C44.6211 40.4785 44.4258 40.9023 44.3516 41.4258H47.5918ZM55.1562 45H54.1953V43.9805H54.1719C53.7266 44.7539 53.0391 45.1406 52.1094 45.1406C51.3555 45.1406 50.752 44.873 50.2988 44.3379C49.8496 43.7988 49.625 43.0664 49.625 42.1406C49.625 41.1484 49.875 40.3535 50.375 39.7559C50.875 39.1582 51.541 38.8594 52.373 38.8594C53.1973 38.8594 53.7969 39.1836 54.1719 39.832H54.1953V36.1172H55.1562V45ZM54.1953 42.2871V41.4023C54.1953 40.918 54.0352 40.5078 53.7148 40.1719C53.3945 39.8359 52.9883 39.668 52.4961 39.668C51.9102 39.668 51.4492 39.8828 51.1133 40.3125C50.7773 40.7422 50.6094 41.3359 50.6094 42.0938C50.6094 42.7852 50.7695 43.332 51.0898 43.7344C51.4141 44.1328 51.8477 44.332 52.3906 44.332C52.9258 44.332 53.3594 44.1387 53.6914 43.752C54.0273 43.3652 54.1953 42.877 54.1953 42.2871ZM57.5938 37.4766C57.4219 37.4766 57.2754 37.418 57.1543 37.3008C57.0332 37.1836 56.9727 37.0352 56.9727 36.8555C56.9727 36.6758 57.0332 36.5273 57.1543 36.4102C57.2754 36.2891 57.4219 36.2285 57.5938 36.2285C57.7695 36.2285 57.918 36.2891 58.0391 36.4102C58.1641 36.5273 58.2266 36.6758 58.2266 36.8555C58.2266 37.0273 58.1641 37.1738 58.0391 37.2949C57.918 37.416 57.7695 37.4766 57.5938 37.4766ZM58.0625 45H57.1016V39H58.0625V45ZM64.8594 45H63.8984V44.0508H63.875C63.4766 44.7773 62.8594 45.1406 62.0234 45.1406C60.5938 45.1406 59.8789 44.2891 59.8789 42.5859V39H60.834V42.4336C60.834 43.6992 61.3184 44.332 62.2871 44.332C62.7559 44.332 63.1406 44.1602 63.4414 43.8164C63.7461 43.4688 63.8984 43.0156 63.8984 42.457V39H64.8594V45ZM75.3242 45H74.3633V41.5547C74.3633 40.8906 74.2598 40.4102 74.0527 40.1133C73.8496 39.8164 73.5059 39.668 73.0215 39.668C72.6113 39.668 72.2617 39.8555 71.9727 40.2305C71.6875 40.6055 71.5449 41.0547 71.5449 41.5781V45H70.584V41.4375C70.584 40.2578 70.1289 39.668 69.2188 39.668C68.7969 39.668 68.4492 39.8457 68.1758 40.2012C67.9023 40.5527 67.7656 41.0117 67.7656 41.5781V45H66.8047V39H67.7656V39.9492H67.7891C68.2148 39.2227 68.8359 38.8594 69.6523 38.8594C70.0625 38.8594 70.4199 38.9746 70.7246 39.2051C71.0293 39.4316 71.2383 39.7305 71.3516 40.1016C71.7969 39.2734 72.4609 38.8594 73.3438 38.8594C74.6641 38.8594 75.3242 39.6738 75.3242 41.3027V45Z" fill="black" fill-opacity="0.2"/>
<rect x="8" y="56" width="16" height="16" fill="#F2B42A"/>
<path d="M37.4609 69H33.1016V60.5977H34.0859V68.1094H37.4609V69ZM41.1289 69.1406C40.2422 69.1406 39.5332 68.8613 39.002 68.3027C38.4746 67.7402 38.2109 66.9961 38.2109 66.0703C38.2109 65.0625 38.4863 64.2754 39.0371 63.709C39.5879 63.1426 40.332 62.8594 41.2695 62.8594C42.1641 62.8594 42.8613 63.1348 43.3613 63.6855C43.8652 64.2363 44.1172 65 44.1172 65.9766C44.1172 66.9336 43.8457 67.7012 43.3027 68.2793C42.7637 68.8535 42.0391 69.1406 41.1289 69.1406ZM41.1992 63.668C40.582 63.668 40.0938 63.8789 39.7344 64.3008C39.375 64.7188 39.1953 65.2969 39.1953 66.0352C39.1953 66.7461 39.377 67.3066 39.7402 67.7168C40.1035 68.127 40.5898 68.332 41.1992 68.332C41.8203 68.332 42.2969 68.1309 42.6289 67.7285C42.9648 67.3262 43.1328 66.7539 43.1328 66.0117C43.1328 65.2617 42.9648 64.6836 42.6289 64.2773C42.2969 63.8711 41.8203 63.668 41.1992 63.668ZM53.2109 63L51.4121 69H50.416L49.1797 64.7051C49.1328 64.541 49.1016 64.3555 49.0859 64.1484H49.0625C49.0508 64.2891 49.0098 64.4707 48.9395 64.6934L47.5977 69H46.6367L44.8203 63H45.8281L47.0703 67.5117C47.1094 67.6484 47.1367 67.8281 47.1523 68.0508H47.1992C47.2109 67.8789 47.2461 67.6953 47.3047 67.5L48.6875 63H49.5664L50.8086 67.5234C50.8477 67.668 50.877 67.8477 50.8965 68.0625H50.9434C50.9512 67.9102 50.9844 67.7305 51.043 67.5234L52.2617 63H53.2109Z" fill="#03096C"/>
<path d="M37.4609 69H33.1016V60.5977H34.0859V68.1094H37.4609V69ZM41.1289 69.1406C40.2422 69.1406 39.5332 68.8613 39.002 68.3027C38.4746 67.7402 38.2109 66.9961 38.2109 66.0703C38.2109 65.0625 38.4863 64.2754 39.0371 63.709C39.5879 63.1426 40.332 62.8594 41.2695 62.8594C42.1641 62.8594 42.8613 63.1348 43.3613 63.6855C43.8652 64.2363 44.1172 65 44.1172 65.9766C44.1172 66.9336 43.8457 67.7012 43.3027 68.2793C42.7637 68.8535 42.0391 69.1406 41.1289 69.1406ZM41.1992 63.668C40.582 63.668 40.0938 63.8789 39.7344 64.3008C39.375 64.7188 39.1953 65.2969 39.1953 66.0352C39.1953 66.7461 39.377 67.3066 39.7402 67.7168C40.1035 68.127 40.5898 68.332 41.1992 68.332C41.8203 68.332 42.2969 68.1309 42.6289 67.7285C42.9648 67.3262 43.1328 66.7539 43.1328 66.0117C43.1328 65.2617 42.9648 64.6836 42.6289 64.2773C42.2969 63.8711 41.8203 63.668 41.1992 63.668ZM53.2109 63L51.4121 69H50.416L49.1797 64.7051C49.1328 64.541 49.1016 64.3555 49.0859 64.1484H49.0625C49.0508 64.2891 49.0098 64.4707 48.9395 64.6934L47.5977 69H46.6367L44.8203 63H45.8281L47.0703 67.5117C47.1094 67.6484 47.1367 67.8281 47.1523 68.0508H47.1992C47.2109 67.8789 47.2461 67.6953 47.3047 67.5L48.6875 63H49.5664L50.8086 67.5234C50.8477 67.668 50.877 67.8477 50.8965 68.0625H50.9434C50.9512 67.9102 50.9844 67.7305 51.043 67.5234L52.2617 63H53.2109Z" fill="black" fill-opacity="0.2"/>
</svg>
