<svg width="288" height="225" viewBox="0 0 288 225" fill="none" xmlns="http://www.w3.org/2000/svg">
<line x1="1" y1="0.5" x2="288" y2="0.5" stroke="#D9DBDD"/>
<line x1="1" y1="224" x2="288" y2="224" stroke="#D9DBDD"/>
<line x1="0.5" y1="224.5" x2="0.5" stroke="#D9DBDD"/>
<line x1="41.5" y1="224.5" x2="41.5" stroke="#D9DBDD"/>
<line x1="82.5" y1="224.5" x2="82.5" stroke="#D9DBDD"/>
<line x1="123.5" y1="224.5" x2="123.5" stroke="#D9DBDD"/>
<line x1="164.5" y1="224.5" x2="164.5" stroke="#D9DBDD"/>
<line x1="205.5" y1="224.5" x2="205.5" stroke="#D9DBDD"/>
<line x1="246.5" y1="224.5" x2="246.5" stroke="#D9DBDD"/>
<line x1="287.5" y1="224.5" x2="287.5" stroke="#D9DBDD"/>
<rect width="250" height="14.6667" transform="matrix(-1 0 0 1 251 8)" fill="#264AE5"/>
<rect width="120" height="14.6667" transform="matrix(-1 0 0 1 121 23.6666)" fill="#F2B42A"/>
<rect width="200" height="14.6667" transform="matrix(-1 0 0 1 201 39.3334)" fill="#2DBAFC"/>
<rect width="140" height="14.6667" transform="matrix(-1 0 0 1 141 62)" fill="#264AE5"/>
<rect width="200" height="14.6667" transform="matrix(-1 0 0 1 201 77.6667)" fill="#F2B42A"/>
<rect width="60" height="14.6667" transform="matrix(-1 0 0 1 61 93.3333)" fill="#2DBAFC"/>
<rect width="160" height="14.5" transform="matrix(-1 0 0 1 161 116)" fill="#264AE5"/>
<rect width="40" height="14.5" transform="matrix(-1 0 0 1 41 131.5)" fill="#F2B42A"/>
<rect width="210" height="15" transform="matrix(-1 0 0 1 211 147)" fill="#2DBAFC"/>
<rect width="180" height="14.5" transform="matrix(-1 0 0 1 181 170)" fill="#264AE5"/>
<rect width="80" height="15" transform="matrix(-1 0 0 1 81 185.5)" fill="#F2B42A"/>
<rect width="220" height="14.5" transform="matrix(-1 0 0 1 221 201.5)" fill="#2DBAFC"/>
</svg>
