<svg width="73" height="178" viewBox="0 0 73 178" fill="none" xmlns="http://www.w3.org/2000/svg">
<rect x="8" y="7" width="24" height="164" fill="url(#paint0_linear_181_6069)"/>
<path d="M44.9492 23H43.8281V14.5303C43.7415 14.6169 43.6139 14.7171 43.4453 14.8311C43.2812 14.9404 43.0944 15.0498 42.8848 15.1592C42.6797 15.2686 42.4609 15.3711 42.2285 15.4668C42.0007 15.5625 41.7773 15.6377 41.5586 15.6924V14.5576C41.8047 14.4893 42.0645 14.3981 42.3379 14.2842C42.6159 14.1657 42.887 14.0358 43.1514 13.8945C43.4202 13.7487 43.6732 13.5983 43.9102 13.4434C44.1471 13.2839 44.3522 13.1289 44.5254 12.9785H44.9492V23ZM54.5195 18.0576C54.5195 18.8779 54.4443 19.6048 54.2939 20.2383C54.1481 20.8717 53.9339 21.4072 53.6514 21.8447C53.3734 22.2777 53.0293 22.6081 52.6191 22.8359C52.2135 23.0592 51.751 23.1709 51.2314 23.1709C50.7393 23.1709 50.2995 23.0638 49.9121 22.8496C49.5293 22.6309 49.2057 22.3141 48.9414 21.8994C48.6771 21.4847 48.4766 20.9766 48.3398 20.375C48.2031 19.7689 48.1348 19.0762 48.1348 18.2969C48.1348 17.4401 48.2054 16.6836 48.3467 16.0273C48.4925 15.3711 48.7044 14.8219 48.9824 14.3799C49.2604 13.9333 49.6045 13.5983 50.0146 13.375C50.4294 13.1471 50.9033 13.0332 51.4365 13.0332C53.4919 13.0332 54.5195 14.708 54.5195 18.0576ZM53.3711 18.167C53.3711 15.3779 52.708 13.9834 51.3818 13.9834C49.9827 13.9834 49.2832 15.403 49.2832 18.2422C49.2832 20.89 49.9691 22.2139 51.3408 22.2139C52.6943 22.2139 53.3711 20.8649 53.3711 18.167ZM62.0664 18.0576C62.0664 18.8779 61.9912 19.6048 61.8408 20.2383C61.695 20.8717 61.4808 21.4072 61.1982 21.8447C60.9202 22.2777 60.5762 22.6081 60.166 22.8359C59.7604 23.0592 59.2979 23.1709 58.7783 23.1709C58.2861 23.1709 57.8464 23.0638 57.459 22.8496C57.0762 22.6309 56.7526 22.3141 56.4883 21.8994C56.224 21.4847 56.0234 20.9766 55.8867 20.375C55.75 19.7689 55.6816 19.0762 55.6816 18.2969C55.6816 17.4401 55.7523 16.6836 55.8936 16.0273C56.0394 15.3711 56.2513 14.8219 56.5293 14.3799C56.8073 13.9333 57.1514 13.5983 57.5615 13.375C57.9762 13.1471 58.4502 13.0332 58.9834 13.0332C61.0387 13.0332 62.0664 14.708 62.0664 18.0576ZM60.918 18.167C60.918 15.3779 60.2549 13.9834 58.9287 13.9834C57.5296 13.9834 56.8301 15.403 56.8301 18.2422C56.8301 20.89 57.516 22.2139 58.8877 22.2139C60.2412 22.2139 60.918 20.8649 60.918 18.167Z" fill="#535965"/>
<path d="M40.6152 49.4656C40.6152 49.2059 40.6562 48.9461 40.7383 48.6863C40.8203 48.422 40.9365 48.1759 41.0869 47.9481C41.2419 47.7202 41.431 47.5128 41.6543 47.326C41.8822 47.1391 42.1396 46.991 42.4268 46.8817C42.0029 46.6447 41.6657 46.3416 41.415 45.9725C41.1644 45.5988 41.0391 45.1863 41.0391 44.7352C41.0391 44.3751 41.1074 44.0425 41.2441 43.7371C41.3854 43.4318 41.5791 43.1675 41.8252 42.9442C42.0713 42.7208 42.363 42.5477 42.7002 42.4246C43.0374 42.297 43.402 42.2332 43.7939 42.2332C44.1904 42.2332 44.5573 42.297 44.8945 42.4246C45.2318 42.5522 45.5234 42.7277 45.7695 42.951C46.0156 43.1743 46.207 43.4386 46.3438 43.744C46.4805 44.0493 46.5488 44.3797 46.5488 44.7352C46.5488 45.1863 46.4235 45.5988 46.1729 45.9725C45.9222 46.3416 45.5895 46.6447 45.1748 46.8817C45.4574 46.991 45.7103 47.1391 45.9336 47.326C46.1569 47.5128 46.3438 47.7202 46.4941 47.9481C46.6491 48.1759 46.7676 48.422 46.8496 48.6863C46.9316 48.9461 46.9727 49.2059 46.9727 49.4656C46.9727 49.894 46.8952 50.2859 46.7402 50.6414C46.5853 50.9969 46.3665 51.3022 46.084 51.5574C45.806 51.8081 45.471 52.004 45.0791 52.1453C44.6917 52.2866 44.2633 52.3572 43.7939 52.3572C43.3291 52.3572 42.903 52.2866 42.5156 52.1453C42.1283 52.004 41.7933 51.8081 41.5107 51.5574C41.2282 51.3022 41.0072 50.9969 40.8477 50.6414C40.6927 50.2859 40.6152 49.894 40.6152 49.4656ZM41.832 49.3699C41.832 49.6753 41.8776 49.951 41.9688 50.1971C42.0645 50.4432 42.1966 50.6528 42.3652 50.826C42.5384 50.9992 42.7458 51.1336 42.9873 51.2293C43.2334 51.3205 43.5046 51.366 43.8008 51.366C44.0879 51.366 44.3522 51.3182 44.5938 51.2225C44.8353 51.1268 45.0426 50.9923 45.2158 50.8192C45.3936 50.646 45.5303 50.4363 45.626 50.1902C45.7262 49.9442 45.7764 49.6707 45.7764 49.3699C45.7764 49.0965 45.7285 48.8413 45.6328 48.6043C45.5417 48.3628 45.4095 48.1509 45.2363 47.9686C45.0632 47.7863 44.8558 47.6427 44.6143 47.5379C44.3727 47.4331 44.1016 47.3807 43.8008 47.3807C43.5182 47.3807 43.2562 47.4308 43.0146 47.5311C42.7777 47.6268 42.5703 47.7635 42.3926 47.9412C42.2194 48.1144 42.0827 48.324 41.9824 48.5701C41.8822 48.8117 41.832 49.0783 41.832 49.3699ZM42.1807 44.824C42.1807 45.0565 42.2217 45.2729 42.3037 45.4734C42.3903 45.6694 42.5065 45.8426 42.6523 45.993C42.8027 46.1388 42.9759 46.255 43.1719 46.3416C43.3678 46.4236 43.5775 46.4647 43.8008 46.4647C44.0241 46.4647 44.2337 46.4214 44.4297 46.3348C44.6302 46.2482 44.8034 46.132 44.9492 45.9861C45.0951 45.8358 45.2113 45.6626 45.2979 45.4666C45.3844 45.2661 45.4277 45.0519 45.4277 44.824C45.4277 44.5871 45.3844 44.3683 45.2979 44.1678C45.2158 43.9673 45.1019 43.7941 44.9561 43.6483C44.8102 43.5024 44.637 43.3885 44.4365 43.3065C44.2406 43.2199 44.0286 43.1766 43.8008 43.1766C43.5592 43.1766 43.3382 43.2199 43.1377 43.3065C42.9417 43.393 42.7708 43.5115 42.625 43.6619C42.4837 43.8078 42.3743 43.9809 42.2969 44.1815C42.2194 44.382 42.1807 44.5962 42.1807 44.824ZM54.5195 47.2576C54.5195 48.0779 54.4443 48.8048 54.2939 49.4383C54.1481 50.0718 53.9339 50.6072 53.6514 51.0447C53.3734 51.4777 53.0293 51.8081 52.6191 52.0359C52.2135 52.2593 51.751 52.3709 51.2314 52.3709C50.7393 52.3709 50.2995 52.2638 49.9121 52.0496C49.5293 51.8309 49.2057 51.5141 48.9414 51.0994C48.6771 50.6847 48.4766 50.1766 48.3398 49.575C48.2031 48.9689 48.1348 48.2762 48.1348 47.4969C48.1348 46.6401 48.2054 45.8836 48.3467 45.2274C48.4925 44.5711 48.7044 44.022 48.9824 43.5799C49.2604 43.1333 49.6045 42.7983 50.0146 42.575C50.4294 42.3471 50.9033 42.2332 51.4365 42.2332C53.4919 42.2332 54.5195 43.908 54.5195 47.2576ZM53.3711 47.367C53.3711 44.5779 52.708 43.1834 51.3818 43.1834C49.9827 43.1834 49.2832 44.603 49.2832 47.4422C49.2832 50.09 49.9691 51.4139 51.3408 51.4139C52.6943 51.4139 53.3711 50.0649 53.3711 47.367Z" fill="#535965"/>
<path d="M46.9863 78.2897C46.9863 78.7682 46.9089 79.208 46.7539 79.609C46.599 80.0101 46.3848 80.3564 46.1113 80.6481C45.8379 80.9397 45.512 81.1676 45.1338 81.3317C44.7555 81.4912 44.3454 81.5709 43.9033 81.5709C43.4111 81.5709 42.9691 81.4684 42.5771 81.2633C42.1898 81.0582 41.8594 80.7643 41.5859 80.3815C41.3171 79.9941 41.112 79.5224 40.9707 78.9664C40.8294 78.4104 40.7588 77.7838 40.7588 77.0865C40.7588 76.2343 40.8522 75.4619 41.0391 74.7692C41.2305 74.0719 41.4993 73.4772 41.8457 72.985C42.1966 72.4882 42.6182 72.1054 43.1104 71.8365C43.6025 71.5677 44.1517 71.4332 44.7578 71.4332C45.4323 71.4332 45.9746 71.5267 46.3848 71.7135V72.7731C45.8789 72.5133 45.3457 72.3834 44.7852 72.3834C44.3477 72.3834 43.9535 72.4814 43.6025 72.6774C43.2516 72.8733 42.9508 73.1513 42.7002 73.5114C42.4495 73.8668 42.2559 74.2975 42.1191 74.8033C41.987 75.3092 41.9209 75.872 41.9209 76.4918H41.9482C42.3994 75.6761 43.1445 75.2682 44.1836 75.2682C44.612 75.2682 44.9971 75.3411 45.3389 75.4869C45.6852 75.6328 45.9792 75.8401 46.2207 76.109C46.4668 76.3733 46.6559 76.6901 46.7881 77.0592C46.9202 77.4283 46.9863 77.8385 46.9863 78.2897ZM45.8379 78.4332C45.8379 78.0914 45.7946 77.7838 45.708 77.5104C45.6214 77.2369 45.4961 77.0045 45.332 76.8131C45.1725 76.6217 44.9743 76.4759 44.7373 76.3756C44.5003 76.2708 44.2314 76.2184 43.9307 76.2184C43.6527 76.2184 43.3952 76.2708 43.1582 76.3756C42.9212 76.4804 42.7161 76.624 42.543 76.8063C42.3698 76.984 42.2331 77.1936 42.1328 77.4352C42.0371 77.6722 41.9893 77.9251 41.9893 78.194C41.9893 78.5312 42.0371 78.8479 42.1328 79.1442C42.2285 79.4358 42.363 79.691 42.5361 79.9098C42.7093 80.1285 42.9144 80.3017 43.1514 80.4293C43.3929 80.5524 43.6595 80.6139 43.9512 80.6139C44.2337 80.6139 44.4912 80.5615 44.7236 80.4567C44.9561 80.3473 45.1543 80.1969 45.3184 80.0055C45.4824 79.8141 45.61 79.5862 45.7012 79.3219C45.7923 79.053 45.8379 78.7568 45.8379 78.4332ZM54.5195 76.4576C54.5195 77.278 54.4443 78.0048 54.2939 78.6383C54.1481 79.2718 53.9339 79.8073 53.6514 80.2448C53.3734 80.6777 53.0293 81.0081 52.6191 81.236C52.2135 81.4593 51.751 81.5709 51.2314 81.5709C50.7393 81.5709 50.2995 81.4638 49.9121 81.2496C49.5293 81.0309 49.2057 80.7142 48.9414 80.2994C48.6771 79.8847 48.4766 79.3766 48.3398 78.775C48.2031 78.1689 48.1348 77.4762 48.1348 76.6969C48.1348 75.8401 48.2054 75.0836 48.3467 74.4274C48.4925 73.7711 48.7044 73.222 48.9824 72.7799C49.2604 72.3333 49.6045 71.9983 50.0146 71.775C50.4294 71.5472 50.9033 71.4332 51.4365 71.4332C53.4919 71.4332 54.5195 73.108 54.5195 76.4576ZM53.3711 76.567C53.3711 73.778 52.708 72.3834 51.3818 72.3834C49.9827 72.3834 49.2832 73.803 49.2832 76.6422C49.2832 79.29 49.9691 80.6139 51.3408 80.6139C52.6943 80.6139 53.3711 79.2649 53.3711 76.567Z" fill="#535965"/>
<path d="M45.8105 100.797V107.271H47.0684V108.296H45.8105V110.6H44.7031V108.296H40.0957V107.326C40.5241 106.842 40.957 106.328 41.3945 105.781C41.832 105.229 42.249 104.671 42.6455 104.106C43.0465 103.541 43.4157 102.978 43.7529 102.417C44.0947 101.852 44.3818 101.312 44.6143 100.797H45.8105ZM41.3604 107.271H44.7031V102.472C44.3613 103.069 44.0378 103.602 43.7324 104.072C43.4271 104.541 43.1354 104.967 42.8574 105.35C42.584 105.733 42.3219 106.079 42.0713 106.389C41.8206 106.699 41.5837 106.993 41.3604 107.271ZM54.5195 105.658C54.5195 106.478 54.4443 107.205 54.2939 107.838C54.1481 108.472 53.9339 109.007 53.6514 109.445C53.3734 109.878 53.0293 110.208 52.6191 110.436C52.2135 110.659 51.751 110.771 51.2314 110.771C50.7393 110.771 50.2995 110.664 49.9121 110.45C49.5293 110.231 49.2057 109.914 48.9414 109.499C48.6771 109.085 48.4766 108.577 48.3398 107.975C48.2031 107.369 48.1348 106.676 48.1348 105.897C48.1348 105.04 48.2054 104.284 48.3467 103.627C48.4925 102.971 48.7044 102.422 48.9824 101.98C49.2604 101.533 49.6045 101.198 50.0146 100.975C50.4294 100.747 50.9033 100.633 51.4365 100.633C53.4919 100.633 54.5195 102.308 54.5195 105.658ZM53.3711 105.767C53.3711 102.978 52.708 101.583 51.3818 101.583C49.9827 101.583 49.2832 103.003 49.2832 105.842C49.2832 108.49 49.9691 109.814 51.3408 109.814C52.6943 109.814 53.3711 108.465 53.3711 105.767Z" fill="#535965"/>
<path d="M45.2773 132.568C45.2773 132.267 45.2295 132.005 45.1338 131.781C45.0426 131.558 44.915 131.374 44.751 131.228C44.5915 131.077 44.4023 130.966 44.1836 130.893C43.9648 130.82 43.7279 130.783 43.4727 130.783C43.2539 130.783 43.0397 130.813 42.8301 130.872C42.6204 130.931 42.4154 131.014 42.2148 131.118C42.0189 131.223 41.8275 131.348 41.6406 131.494C41.4583 131.64 41.2874 131.802 41.1279 131.98V130.777C41.4424 130.471 41.7933 130.239 42.1807 130.079C42.5726 129.915 43.0488 129.833 43.6094 129.833C44.0104 129.833 44.3818 129.892 44.7236 130.011C45.0654 130.125 45.3617 130.293 45.6123 130.517C45.863 130.74 46.0589 131.016 46.2002 131.344C46.346 131.672 46.4189 132.048 46.4189 132.472C46.4189 132.859 46.3734 133.21 46.2822 133.525C46.1956 133.839 46.0612 134.135 45.8789 134.413C45.7012 134.691 45.4756 134.958 45.2021 135.213C44.9287 135.468 44.6074 135.728 44.2383 135.992C43.778 136.32 43.3975 136.601 43.0967 136.833C42.8005 137.066 42.5635 137.284 42.3857 137.489C42.2126 137.69 42.0895 137.893 42.0166 138.098C41.9482 138.298 41.9141 138.531 41.9141 138.795H46.7949V139.8H40.7451V139.315C40.7451 138.895 40.7907 138.526 40.8818 138.207C40.973 137.888 41.1234 137.585 41.333 137.298C41.5426 137.011 41.8161 136.724 42.1533 136.437C42.4951 136.15 42.9121 135.826 43.4043 135.466C43.7598 135.211 44.056 134.967 44.293 134.735C44.5345 134.502 44.7282 134.27 44.874 134.037C45.0199 133.805 45.1224 133.57 45.1816 133.333C45.2454 133.092 45.2773 132.836 45.2773 132.568ZM54.5195 134.858C54.5195 135.678 54.4443 136.405 54.2939 137.038C54.1481 137.672 53.9339 138.207 53.6514 138.645C53.3734 139.078 53.0293 139.408 52.6191 139.636C52.2135 139.859 51.751 139.971 51.2314 139.971C50.7393 139.971 50.2995 139.864 49.9121 139.65C49.5293 139.431 49.2057 139.114 48.9414 138.699C48.6771 138.285 48.4766 137.777 48.3398 137.175C48.2031 136.569 48.1348 135.876 48.1348 135.097C48.1348 134.24 48.2054 133.484 48.3467 132.827C48.4925 132.171 48.7044 131.622 48.9824 131.18C49.2604 130.733 49.6045 130.398 50.0146 130.175C50.4294 129.947 50.9033 129.833 51.4365 129.833C53.4919 129.833 54.5195 131.508 54.5195 134.858ZM53.3711 134.967C53.3711 132.178 52.708 130.783 51.3818 130.783C49.9827 130.783 49.2832 132.203 49.2832 135.042C49.2832 137.69 49.9691 139.014 51.3408 139.014C52.6943 139.014 53.3711 137.665 53.3711 134.967Z" fill="#535965"/>
<path d="M46.9727 164.058C46.9727 164.878 46.8975 165.605 46.7471 166.238C46.6012 166.872 46.387 167.407 46.1045 167.845C45.8265 168.278 45.4824 168.608 45.0723 168.836C44.6667 169.059 44.2041 169.171 43.6846 169.171C43.1924 169.171 42.7526 169.064 42.3652 168.85C41.9824 168.631 41.6589 168.314 41.3945 167.899C41.1302 167.485 40.9297 166.977 40.793 166.375C40.6562 165.769 40.5879 165.076 40.5879 164.297C40.5879 163.44 40.6585 162.684 40.7998 162.027C40.9456 161.371 41.1576 160.822 41.4355 160.38C41.7135 159.933 42.0576 159.598 42.4678 159.375C42.8825 159.147 43.3564 159.033 43.8896 159.033C45.945 159.033 46.9727 160.708 46.9727 164.058ZM45.8242 164.167C45.8242 161.378 45.1611 159.983 43.835 159.983C42.4359 159.983 41.7363 161.403 41.7363 164.242C41.7363 166.89 42.4222 168.214 43.7939 168.214C45.1475 168.214 45.8242 166.865 45.8242 164.167Z" fill="#535965"/>
<defs>
<linearGradient id="paint0_linear_181_6069" x1="8" y1="7" x2="8" y2="171" gradientUnits="userSpaceOnUse">
<stop stop-color="#FACA4A"/>
<stop offset="0.343565" stop-color="#66D467"/>
<stop offset="0.651042" stop-color="#2DBAFC"/>
<stop offset="1" stop-color="#0D2ED1"/>
</linearGradient>
</defs>
</svg>
