<svg width="292" height="179" viewBox="0 0 292 179" fill="none" xmlns="http://www.w3.org/2000/svg">
<line x1="2" y1="0.5" x2="289" y2="0.5" stroke="#646464"/>
<line x1="2" y1="25.8571" x2="289" y2="25.8571" stroke="#646464"/>
<line x1="2" y1="51.2143" x2="289" y2="51.2143" stroke="#646464"/>
<line x1="2" y1="76.5714" x2="289" y2="76.5714" stroke="#646464"/>
<line x1="2" y1="101.929" x2="289" y2="101.929" stroke="#646464"/>
<line x1="2" y1="127.286" x2="289" y2="127.286" stroke="#646464"/>
<line x1="2" y1="152.643" x2="289" y2="152.643" stroke="#646464"/>
<line x1="2" y1="178" x2="289" y2="178" stroke="#646464"/>
<line x1="1.5" y1="178.5" x2="1.5" stroke="#646464"/>
<line x1="42.5" y1="178.5" x2="42.5" stroke="#646464"/>
<line x1="83.5" y1="178.5" x2="83.5" stroke="#646464"/>
<line x1="124.5" y1="178.5" x2="124.5" stroke="#646464"/>
<line x1="165.5" y1="178.5" x2="165.5" stroke="#646464"/>
<line x1="206.5" y1="178.5" x2="206.5" stroke="#646464"/>
<line x1="247.5" y1="178.5" x2="247.5" stroke="#646464"/>
<line x1="288.5" y1="178.5" x2="288.5" stroke="#646464"/>
<rect x="10" y="7" width="53.4" height="32" fill="#96F396"/>
<rect x="10" y="40" width="53.4" height="32" fill="#34B634"/>
<rect x="10" y="73" width="53.4" height="32" fill="#6DB1FE"/>
<rect x="10" y="106" width="53.4" height="32" fill="#2B36B0"/>
<rect x="10" y="139" width="53.4" height="32" fill="#C7912E"/>
<rect x="64.3999" y="7" width="53.4" height="32" fill="#6DB1FE"/>
<rect x="64.3999" y="40" width="53.4" height="32" fill="#344BCE"/>
<rect x="64.3999" y="73" width="53.4" height="32" fill="#ADD8FF"/>
<rect x="64.3999" y="106" width="53.4" height="32" fill="#4481F2"/>
<rect x="64.3999" y="139" width="53.4" height="32" fill="#34B634"/>
<rect x="118.8" y="7" width="53.4" height="32" fill="#FFE495"/>
<rect x="118.8" y="40" width="53.4" height="32" fill="#E3AE3B"/>
<rect x="118.8" y="73" width="53.4" height="32" fill="#289D28"/>
<rect x="119" y="106" width="53" height="32" fill="#5BDB5B"/>
<rect x="118.8" y="139" width="53.4" height="32" fill="#0CABF9"/>
<rect x="173.2" y="7" width="53.4" height="32" fill="#4481F2"/>
<rect x="173.2" y="40" width="53.4" height="32" fill="#6DB1FE"/>
<rect x="173.2" y="73" width="53.4" height="32" fill="#72E972"/>
<rect x="173.2" y="106" width="53.4" height="32" fill="#C0FAC0"/>
<rect x="173.2" y="139" width="53.4" height="32" fill="#289D28"/>
<rect x="227.6" y="7" width="53.4" height="32" fill="#6DB1FE"/>
<rect x="227.6" y="40" width="53.4" height="32" fill="#4481F2"/>
<rect x="227.6" y="73" width="53.4" height="32" fill="#101374"/>
<rect x="227.6" y="106" width="53.4" height="32" fill="#2B36B0"/>
<rect x="227.6" y="139" width="53.4" height="32" fill="#344BCE"/>
</svg>
