<svg width="263" height="133" viewBox="0 0 263 133" fill="none" xmlns="http://www.w3.org/2000/svg">
<rect x="113" y="35" width="50" height="35" fill="#344BCE"/>
<path d="M134.958 57H133.754V50.014C133.754 49.6127 133.759 49.2907 133.768 49.048C133.778 48.8053 133.792 48.5533 133.81 48.292C133.661 48.4413 133.521 48.5673 133.39 48.67C133.269 48.7727 133.12 48.9033 132.942 49.062L131.878 49.93L131.234 49.104L133.936 47.004H134.958V57ZM145.322 51.988C145.322 53.0707 145.21 53.9947 144.986 54.76C144.762 55.5253 144.403 56.1133 143.908 56.524C143.423 56.9347 142.783 57.14 141.99 57.14C140.861 57.14 140.025 56.6873 139.484 55.782C138.952 54.8673 138.686 53.6027 138.686 51.988C138.686 50.9053 138.793 49.9813 139.008 49.216C139.232 48.4507 139.587 47.8673 140.072 47.466C140.557 47.0553 141.197 46.85 141.99 46.85C143.11 46.85 143.945 47.3027 144.496 48.208C145.047 49.104 145.322 50.364 145.322 51.988ZM139.918 51.988C139.918 53.36 140.072 54.3867 140.38 55.068C140.697 55.7493 141.234 56.09 141.99 56.09C142.737 56.09 143.269 55.754 143.586 55.082C143.913 54.4007 144.076 53.3693 144.076 51.988C144.076 50.6253 143.913 49.6033 143.586 48.922C143.269 48.2407 142.737 47.9 141.99 47.9C141.234 47.9 140.697 48.2407 140.38 48.922C140.072 49.6033 139.918 50.6253 139.918 51.988Z" fill="white"/>
<rect x="213" y="35" width="50" height="35" fill="#344BCE"/>
<path d="M234.958 57H233.754V50.014C233.754 49.6127 233.759 49.2907 233.768 49.048C233.778 48.8053 233.792 48.5533 233.81 48.292C233.661 48.4413 233.521 48.5673 233.39 48.67C233.269 48.7727 233.12 48.9033 232.942 49.062L231.878 49.93L231.234 49.104L233.936 47.004H234.958V57ZM245.322 51.988C245.322 53.0707 245.21 53.9947 244.986 54.76C244.762 55.5253 244.403 56.1133 243.908 56.524C243.423 56.9347 242.783 57.14 241.99 57.14C240.861 57.14 240.025 56.6873 239.484 55.782C238.952 54.8673 238.686 53.6027 238.686 51.988C238.686 50.9053 238.793 49.9813 239.008 49.216C239.232 48.4507 239.587 47.8673 240.072 47.466C240.557 47.0553 241.197 46.85 241.99 46.85C243.11 46.85 243.945 47.3027 244.496 48.208C245.047 49.104 245.322 50.364 245.322 51.988ZM239.918 51.988C239.918 53.36 240.072 54.3867 240.38 55.068C240.697 55.7493 241.234 56.09 241.99 56.09C242.737 56.09 243.269 55.754 243.586 55.082C243.913 54.4007 244.076 53.3693 244.076 51.988C244.076 50.6253 243.913 49.6033 243.586 48.922C243.269 48.2407 242.737 47.9 241.99 47.9C241.234 47.9 240.697 48.2407 240.38 48.922C240.072 49.6033 239.918 50.6253 239.918 51.988Z" fill="white"/>
<rect x="163" y="70" width="50" height="35" fill="#344BCE"/>
<path d="M184.958 92H183.754V85.014C183.754 84.6127 183.759 84.2907 183.768 84.048C183.778 83.8053 183.792 83.5533 183.81 83.292C183.661 83.4413 183.521 83.5673 183.39 83.67C183.269 83.7727 183.12 83.9033 182.942 84.062L181.878 84.93L181.234 84.104L183.936 82.004H184.958V92ZM195.322 86.988C195.322 88.0707 195.21 88.9947 194.986 89.76C194.762 90.5253 194.403 91.1133 193.908 91.524C193.423 91.9347 192.783 92.14 191.99 92.14C190.861 92.14 190.025 91.6873 189.484 90.782C188.952 89.8673 188.686 88.6027 188.686 86.988C188.686 85.9053 188.793 84.9813 189.008 84.216C189.232 83.4507 189.587 82.8673 190.072 82.466C190.557 82.0553 191.197 81.85 191.99 81.85C193.11 81.85 193.945 82.3027 194.496 83.208C195.047 84.104 195.322 85.364 195.322 86.988ZM189.918 86.988C189.918 88.36 190.072 89.3867 190.38 90.068C190.697 90.7493 191.234 91.09 191.99 91.09C192.737 91.09 193.269 90.754 193.586 90.082C193.913 89.4007 194.076 88.3693 194.076 86.988C194.076 85.6253 193.913 84.6033 193.586 83.922C193.269 83.2407 192.737 82.9 191.99 82.9C191.234 82.9 190.697 83.2407 190.38 83.922C190.072 84.6033 189.918 85.6253 189.918 86.988Z" fill="white"/>
<rect x="163" y="35" width="50" height="35" fill="#579BF9"/>
<path d="M187.716 54.732H186.26V57H185.07V54.732H180.282V53.682L184.986 46.948H186.26V53.626H187.716V54.732ZM185.07 53.626V50.476C185.07 49.9907 185.075 49.58 185.084 49.244C185.103 48.8987 185.122 48.572 185.14 48.264H185.084C185.01 48.4413 184.916 48.6327 184.804 48.838C184.692 49.0433 184.585 49.216 184.482 49.356L181.486 53.626H185.07ZM195.322 51.988C195.322 53.0707 195.21 53.9947 194.986 54.76C194.762 55.5253 194.403 56.1133 193.908 56.524C193.423 56.9347 192.783 57.14 191.99 57.14C190.861 57.14 190.025 56.6873 189.484 55.782C188.952 54.8673 188.686 53.6027 188.686 51.988C188.686 50.9053 188.793 49.9813 189.008 49.216C189.232 48.4507 189.587 47.8673 190.072 47.466C190.557 47.0553 191.197 46.85 191.99 46.85C193.11 46.85 193.945 47.3027 194.496 48.208C195.047 49.104 195.322 50.364 195.322 51.988ZM189.918 51.988C189.918 53.36 190.072 54.3867 190.38 55.068C190.697 55.7493 191.234 56.09 191.99 56.09C192.737 56.09 193.269 55.754 193.586 55.082C193.913 54.4007 194.076 53.3693 194.076 51.988C194.076 50.6253 193.913 49.6033 193.586 48.922C193.269 48.2407 192.737 47.9 191.99 47.9C191.234 47.9 190.697 48.2407 190.38 48.922C190.072 49.6033 189.918 50.6253 189.918 51.988Z" fill="white"/>
<rect x="113" y="70" width="50" height="35" fill="#579BF9"/>
<path d="M137.716 89.732H136.26V92H135.07V89.732H130.282V88.682L134.986 81.948H136.26V88.626H137.716V89.732ZM135.07 88.626V85.476C135.07 84.9907 135.075 84.58 135.084 84.244C135.103 83.8987 135.122 83.572 135.14 83.264H135.084C135.01 83.4413 134.916 83.6327 134.804 83.838C134.692 84.0433 134.585 84.216 134.482 84.356L131.486 88.626H135.07ZM145.322 86.988C145.322 88.0707 145.21 88.9947 144.986 89.76C144.762 90.5253 144.403 91.1133 143.908 91.524C143.423 91.9347 142.783 92.14 141.99 92.14C140.861 92.14 140.025 91.6873 139.484 90.782C138.952 89.8673 138.686 88.6027 138.686 86.988C138.686 85.9053 138.793 84.9813 139.008 84.216C139.232 83.4507 139.587 82.8673 140.072 82.466C140.557 82.0553 141.197 81.85 141.99 81.85C143.11 81.85 143.945 82.3027 144.496 83.208C145.047 84.104 145.322 85.364 145.322 86.988ZM139.918 86.988C139.918 88.36 140.072 89.3867 140.38 90.068C140.697 90.7493 141.234 91.09 141.99 91.09C142.737 91.09 143.269 90.754 143.586 90.082C143.913 89.4007 144.076 88.3693 144.076 86.988C144.076 85.6253 143.913 84.6033 143.586 83.922C143.269 83.2407 142.737 82.9 141.99 82.9C141.234 82.9 140.697 83.2407 140.38 83.922C140.072 84.6033 139.918 85.6253 139.918 86.988Z" fill="white"/>
<rect x="113" width="50" height="35" fill="#579BF9"/>
<path d="M137.716 19.732H136.26V22H135.07V19.732H130.282V18.682L134.986 11.948H136.26V18.626H137.716V19.732ZM135.07 18.626V15.476C135.07 14.9907 135.075 14.58 135.084 14.244C135.103 13.8987 135.122 13.572 135.14 13.264H135.084C135.01 13.4413 134.916 13.6327 134.804 13.838C134.692 14.0433 134.585 14.216 134.482 14.356L131.486 18.626H135.07ZM145.322 16.988C145.322 18.0707 145.21 18.9947 144.986 19.76C144.762 20.5253 144.403 21.1133 143.908 21.524C143.423 21.9347 142.783 22.14 141.99 22.14C140.861 22.14 140.025 21.6873 139.484 20.782C138.952 19.8673 138.686 18.6027 138.686 16.988C138.686 15.9053 138.793 14.9813 139.008 14.216C139.232 13.4507 139.587 12.8673 140.072 12.466C140.557 12.0553 141.197 11.85 141.99 11.85C143.11 11.85 143.945 12.3027 144.496 13.208C145.047 14.104 145.322 15.364 145.322 16.988ZM139.918 16.988C139.918 18.36 140.072 19.3867 140.38 20.068C140.697 20.7493 141.234 21.09 141.99 21.09C142.737 21.09 143.269 20.754 143.586 20.082C143.913 19.4007 144.076 18.3693 144.076 16.988C144.076 15.6253 143.913 14.6033 143.586 13.922C143.269 13.2407 142.737 12.9 141.99 12.9C141.234 12.9 140.697 13.2407 140.38 13.922C140.072 14.6033 139.918 15.6253 139.918 16.988Z" fill="white"/>
<rect x="213" width="50" height="35" fill="#579BF9"/>
<path d="M237.716 19.732H236.26V22H235.07V19.732H230.282V18.682L234.986 11.948H236.26V18.626H237.716V19.732ZM235.07 18.626V15.476C235.07 14.9907 235.075 14.58 235.084 14.244C235.103 13.8987 235.122 13.572 235.14 13.264H235.084C235.01 13.4413 234.916 13.6327 234.804 13.838C234.692 14.0433 234.585 14.216 234.482 14.356L231.486 18.626H235.07ZM245.322 16.988C245.322 18.0707 245.21 18.9947 244.986 19.76C244.762 20.5253 244.403 21.1133 243.908 21.524C243.423 21.9347 242.783 22.14 241.99 22.14C240.861 22.14 240.025 21.6873 239.484 20.782C238.952 19.8673 238.686 18.6027 238.686 16.988C238.686 15.9053 238.793 14.9813 239.008 14.216C239.232 13.4507 239.587 12.8673 240.072 12.466C240.557 12.0553 241.197 11.85 241.99 11.85C243.11 11.85 243.945 12.3027 244.496 13.208C245.047 14.104 245.322 15.364 245.322 16.988ZM239.918 16.988C239.918 18.36 240.072 19.3867 240.38 20.068C240.697 20.7493 241.234 21.09 241.99 21.09C242.737 21.09 243.269 20.754 243.586 20.082C243.913 19.4007 244.076 18.3693 244.076 16.988C244.076 15.6253 243.913 14.6033 243.586 13.922C243.269 13.2407 242.737 12.9 241.99 12.9C241.234 12.9 240.697 13.2407 240.38 13.922C240.072 14.6033 239.918 15.6253 239.918 16.988Z" fill="white"/>
<rect x="63" y="35" width="50" height="35" fill="#579BF9"/>
<path d="M87.7163 54.732H86.2603V57H85.0703V54.732H80.2823V53.682L84.9863 46.948H86.2603V53.626H87.7163V54.732ZM85.0703 53.626V50.476C85.0703 49.9907 85.0749 49.58 85.0843 49.244C85.1029 48.8987 85.1216 48.572 85.1403 48.264H85.0843C85.0096 48.4413 84.9163 48.6327 84.8043 48.838C84.6923 49.0433 84.5849 49.216 84.4823 49.356L81.4863 53.626H85.0703ZM95.322 51.988C95.322 53.0707 95.21 53.9947 94.986 54.76C94.762 55.5253 94.4027 56.1133 93.908 56.524C93.4227 56.9347 92.7833 57.14 91.99 57.14C90.8607 57.14 90.0253 56.6873 89.484 55.782C88.952 54.8673 88.686 53.6027 88.686 51.988C88.686 50.9053 88.7933 49.9813 89.008 49.216C89.232 48.4507 89.5867 47.8673 90.072 47.466C90.5573 47.0553 91.1967 46.85 91.99 46.85C93.11 46.85 93.9453 47.3027 94.496 48.208C95.0467 49.104 95.322 50.364 95.322 51.988ZM89.918 51.988C89.918 53.36 90.072 54.3867 90.38 55.068C90.6973 55.7493 91.234 56.09 91.99 56.09C92.7367 56.09 93.2687 55.754 93.586 55.082C93.9127 54.4007 94.076 53.3693 94.076 51.988C94.076 50.6253 93.9127 49.6033 93.586 48.922C93.2687 48.2407 92.7367 47.9 91.99 47.9C91.234 47.9 90.6973 48.2407 90.38 48.922C90.072 49.6033 89.918 50.6253 89.918 51.988Z" fill="white"/>
<rect x="163" width="50" height="35" fill="#FFDA70"/>
<path d="M187.268 16.274C187.268 16.9927 187.203 17.702 187.072 18.402C186.951 19.0927 186.722 19.7227 186.386 20.292C186.06 20.852 185.593 21.3 184.986 21.636C184.389 21.972 183.619 22.14 182.676 22.14C182.49 22.14 182.27 22.126 182.018 22.098C181.766 22.0793 181.566 22.0467 181.416 22V20.95C181.78 21.0713 182.191 21.132 182.648 21.132C183.302 21.132 183.838 21.0247 184.258 20.81C184.688 20.5953 185.028 20.306 185.28 19.942C185.532 19.5687 185.714 19.1393 185.826 18.654C185.938 18.1593 186.004 17.6413 186.022 17.1H185.938C185.724 17.4173 185.425 17.6927 185.042 17.926C184.66 18.15 184.165 18.262 183.558 18.262C182.7 18.262 182.004 18.0007 181.472 17.478C180.95 16.946 180.688 16.1993 180.688 15.238C180.688 14.538 180.819 13.936 181.08 13.432C181.342 12.928 181.71 12.5407 182.186 12.27C182.672 11.9993 183.236 11.864 183.88 11.864C184.515 11.864 185.089 12.0273 185.602 12.354C186.116 12.6713 186.522 13.1567 186.82 13.81C187.119 14.454 187.268 15.2753 187.268 16.274ZM183.88 12.9C183.302 12.9 182.826 13.0913 182.452 13.474C182.088 13.8567 181.906 14.44 181.906 15.224C181.906 15.868 182.06 16.3767 182.368 16.75C182.686 17.114 183.171 17.296 183.824 17.296C184.272 17.296 184.66 17.2073 184.986 17.03C185.313 16.8433 185.565 16.61 185.742 16.33C185.929 16.05 186.022 15.7607 186.022 15.462C186.022 15.0607 185.943 14.664 185.784 14.272C185.626 13.88 185.388 13.5533 185.07 13.292C184.753 13.0307 184.356 12.9 183.88 12.9ZM195.322 16.988C195.322 18.0707 195.21 18.9947 194.986 19.76C194.762 20.5253 194.403 21.1133 193.908 21.524C193.423 21.9347 192.783 22.14 191.99 22.14C190.861 22.14 190.025 21.6873 189.484 20.782C188.952 19.8673 188.686 18.6027 188.686 16.988C188.686 15.9053 188.793 14.9813 189.008 14.216C189.232 13.4507 189.587 12.8673 190.072 12.466C190.557 12.0553 191.197 11.85 191.99 11.85C193.11 11.85 193.945 12.3027 194.496 13.208C195.047 14.104 195.322 15.364 195.322 16.988ZM189.918 16.988C189.918 18.36 190.072 19.3867 190.38 20.068C190.697 20.7493 191.234 21.09 191.99 21.09C192.737 21.09 193.269 20.754 193.586 20.082C193.913 19.4007 194.076 18.3693 194.076 16.988C194.076 15.6253 193.913 14.6033 193.586 13.922C193.269 13.2407 192.737 12.9 191.99 12.9C191.234 12.9 190.697 13.2407 190.38 13.922C190.072 14.6033 189.918 15.6253 189.918 16.988Z" fill="#2F3646"/>
<rect x="63" width="50" height="35" fill="#72E972"/>
<path d="M82.3923 22L86.4943 13.124H81.1043V12.004H87.8103V12.956L83.7503 22H82.3923ZM95.822 16.988C95.822 18.0707 95.71 18.9947 95.486 19.76C95.262 20.5253 94.9027 21.1133 94.408 21.524C93.9227 21.9347 93.2833 22.14 92.49 22.14C91.3607 22.14 90.5253 21.6873 89.984 20.782C89.452 19.8673 89.186 18.6027 89.186 16.988C89.186 15.9053 89.2933 14.9813 89.508 14.216C89.732 13.4507 90.0867 12.8673 90.572 12.466C91.0573 12.0553 91.6967 11.85 92.49 11.85C93.61 11.85 94.4453 12.3027 94.996 13.208C95.5467 14.104 95.822 15.364 95.822 16.988ZM90.418 16.988C90.418 18.36 90.572 19.3867 90.88 20.068C91.1973 20.7493 91.734 21.09 92.49 21.09C93.2367 21.09 93.7687 20.754 94.086 20.082C94.4127 19.4007 94.576 18.3693 94.576 16.988C94.576 15.6253 94.4127 14.6033 94.086 13.922C93.7687 13.2407 93.2367 12.9 92.49 12.9C91.734 12.9 91.1973 13.2407 90.88 13.922C90.572 14.6033 90.418 15.6253 90.418 16.988Z" fill="#2F3646"/>
<rect x="63" y="70" width="50" height="35" fill="#FFDA70"/>
<path d="M87.2683 86.274C87.2683 86.9927 87.2029 87.702 87.0723 88.402C86.9509 89.0927 86.7223 89.7227 86.3863 90.292C86.0596 90.852 85.5929 91.3 84.9863 91.636C84.3889 91.972 83.6189 92.14 82.6763 92.14C82.4896 92.14 82.2703 92.126 82.0183 92.098C81.7663 92.0793 81.5656 92.0467 81.4163 92V90.95C81.7803 91.0713 82.1909 91.132 82.6483 91.132C83.3016 91.132 83.8383 91.0247 84.2583 90.81C84.6876 90.5953 85.0283 90.306 85.2803 89.942C85.5323 89.5687 85.7143 89.1393 85.8263 88.654C85.9383 88.1593 86.0036 87.6413 86.0223 87.1H85.9383C85.7236 87.4173 85.4249 87.6927 85.0423 87.926C84.6596 88.15 84.1649 88.262 83.5583 88.262C82.6996 88.262 82.0043 88.0007 81.4723 87.478C80.9496 86.946 80.6883 86.1993 80.6883 85.238C80.6883 84.538 80.8189 83.936 81.0803 83.432C81.3416 82.928 81.7103 82.5407 82.1863 82.27C82.6716 81.9993 83.2363 81.864 83.8803 81.864C84.5149 81.864 85.0889 82.0273 85.6023 82.354C86.1156 82.6713 86.5216 83.1567 86.8203 83.81C87.1189 84.454 87.2683 85.2753 87.2683 86.274ZM83.8803 82.9C83.3016 82.9 82.8256 83.0913 82.4523 83.474C82.0883 83.8567 81.9063 84.44 81.9063 85.224C81.9063 85.868 82.0603 86.3767 82.3683 86.75C82.6856 87.114 83.1709 87.296 83.8243 87.296C84.2723 87.296 84.6596 87.2073 84.9863 87.03C85.3129 86.8433 85.5649 86.61 85.7423 86.33C85.9289 86.05 86.0223 85.7607 86.0223 85.462C86.0223 85.0607 85.9429 84.664 85.7843 84.272C85.6256 83.88 85.3876 83.5533 85.0703 83.292C84.7529 83.0307 84.3563 82.9 83.8803 82.9ZM95.322 86.988C95.322 88.0707 95.21 88.9947 94.986 89.76C94.762 90.5253 94.4027 91.1133 93.908 91.524C93.4227 91.9347 92.7833 92.14 91.99 92.14C90.8607 92.14 90.0253 91.6873 89.484 90.782C88.952 89.8673 88.686 88.6027 88.686 86.988C88.686 85.9053 88.7933 84.9813 89.008 84.216C89.232 83.4507 89.5867 82.8673 90.072 82.466C90.5573 82.0553 91.1967 81.85 91.99 81.85C93.11 81.85 93.9453 82.3027 94.496 83.208C95.0467 84.104 95.322 85.364 95.322 86.988ZM89.918 86.988C89.918 88.36 90.072 89.3867 90.38 90.068C90.6973 90.7493 91.234 91.09 91.99 91.09C92.7367 91.09 93.2687 90.754 93.586 90.082C93.9127 89.4007 94.076 88.3693 94.076 86.988C94.076 85.6253 93.9127 84.6033 93.586 83.922C93.2687 83.2407 92.7367 82.9 91.99 82.9C91.234 82.9 90.6973 83.2407 90.38 83.922C90.072 84.6033 89.918 85.6253 89.918 86.988Z" fill="#2F3646"/>
<rect x="213" y="70" width="50" height="35" fill="#72E972"/>
<path d="M232.392 92L236.494 83.124H231.104V82.004H237.81V82.956L233.75 92H232.392ZM245.822 86.988C245.822 88.0707 245.71 88.9947 245.486 89.76C245.262 90.5253 244.903 91.1133 244.408 91.524C243.923 91.9347 243.283 92.14 242.49 92.14C241.361 92.14 240.525 91.6873 239.984 90.782C239.452 89.8673 239.186 88.6027 239.186 86.988C239.186 85.9053 239.293 84.9813 239.508 84.216C239.732 83.4507 240.087 82.8673 240.572 82.466C241.057 82.0553 241.697 81.85 242.49 81.85C243.61 81.85 244.445 82.3027 244.996 83.208C245.547 84.104 245.822 85.364 245.822 86.988ZM240.418 86.988C240.418 88.36 240.572 89.3867 240.88 90.068C241.197 90.7493 241.734 91.09 242.49 91.09C243.237 91.09 243.769 90.754 244.086 90.082C244.413 89.4007 244.576 88.3693 244.576 86.988C244.576 85.6253 244.413 84.6033 244.086 83.922C243.769 83.2407 243.237 82.9 242.49 82.9C241.734 82.9 241.197 83.2407 240.88 83.922C240.572 84.6033 240.418 85.6253 240.418 86.988Z" fill="#2F3646"/>
<path d="M32.7481 93H31.4881V88.338H26.3641V93H25.1041V83.004H26.3641V87.232H31.4881V83.004H32.7481V93ZM35.943 82.682C36.1297 82.682 36.293 82.7473 36.433 82.878C36.5824 82.9993 36.657 83.1953 36.657 83.466C36.657 83.7367 36.5824 83.9373 36.433 84.068C36.293 84.1893 36.1297 84.25 35.943 84.25C35.7377 84.25 35.565 84.1893 35.425 84.068C35.285 83.9373 35.215 83.7367 35.215 83.466C35.215 83.1953 35.285 82.9993 35.425 82.878C35.565 82.7473 35.7377 82.682 35.943 82.682ZM36.545 85.496V93H35.313V85.496H36.545ZM41.5824 85.356C42.0771 85.356 42.5204 85.4493 42.9124 85.636C43.3138 85.8227 43.6544 86.1073 43.9344 86.49H44.0044L44.1724 85.496H45.1524V93.126C45.1524 94.1993 44.8771 95.0067 44.3264 95.548C43.7851 96.0893 42.9404 96.36 41.7924 96.36C40.6911 96.36 39.7904 96.2013 39.0904 95.884V94.75C39.8278 95.142 40.7518 95.338 41.8624 95.338C42.5064 95.338 43.0104 95.1467 43.3744 94.764C43.7478 94.3907 43.9344 93.8773 43.9344 93.224V92.93C43.9344 92.818 43.9391 92.6593 43.9484 92.454C43.9578 92.2393 43.9671 92.09 43.9764 92.006H43.9204C43.4164 92.762 42.6418 93.14 41.5964 93.14C40.6258 93.14 39.8651 92.7993 39.3144 92.118C38.7731 91.4367 38.5024 90.4847 38.5024 89.262C38.5024 88.0673 38.7731 87.12 39.3144 86.42C39.8651 85.7107 40.6211 85.356 41.5824 85.356ZM41.7504 86.392C41.1251 86.392 40.6398 86.644 40.2944 87.148C39.9491 87.6427 39.7764 88.352 39.7764 89.276C39.7764 90.2 39.9444 90.9093 40.2804 91.404C40.6164 91.8893 41.1158 92.132 41.7784 92.132C42.5344 92.132 43.0851 91.9313 43.4304 91.53C43.7758 91.1193 43.9484 90.4613 43.9484 89.556V89.262C43.9484 88.2447 43.7711 87.512 43.4164 87.064C43.0618 86.616 42.5064 86.392 41.7504 86.392ZM48.7677 82.36V85.482C48.7677 85.8553 48.7444 86.2053 48.6977 86.532H48.7817C49.0244 86.1493 49.351 85.86 49.7617 85.664C50.1817 85.468 50.6344 85.37 51.1197 85.37C52.025 85.37 52.7064 85.5893 53.1637 86.028C53.6304 86.4573 53.8637 87.1527 53.8637 88.114V93H52.6457V88.198C52.6457 86.994 52.0857 86.392 50.9657 86.392C50.1257 86.392 49.547 86.63 49.2297 87.106C48.9217 87.5727 48.7677 88.2447 48.7677 89.122V93H47.5357V82.36H48.7677Z" fill="#A4A4A4"/>
<path d="M29.8072 58V48.004H31.0672V56.88H35.4352V58H29.8072ZM43.505 54.234C43.505 55.4753 43.1877 56.4367 42.553 57.118C41.9277 57.7993 41.0783 58.14 40.005 58.14C39.3423 58.14 38.7497 57.9907 38.227 57.692C37.7137 57.384 37.3077 56.9407 37.009 56.362C36.7103 55.774 36.561 55.0647 36.561 54.234C36.561 52.9927 36.869 52.036 37.485 51.364C38.1103 50.692 38.9643 50.356 40.047 50.356C40.719 50.356 41.3163 50.51 41.839 50.818C42.3617 51.1167 42.7677 51.5553 43.057 52.134C43.3557 52.7033 43.505 53.4033 43.505 54.234ZM37.835 54.234C37.835 55.1207 38.0077 55.8253 38.353 56.348C38.7077 56.8613 39.2677 57.118 40.033 57.118C40.789 57.118 41.3443 56.8613 41.699 56.348C42.0537 55.8253 42.231 55.1207 42.231 54.234C42.231 53.3473 42.0537 52.652 41.699 52.148C41.3443 51.644 40.7843 51.392 40.019 51.392C39.2537 51.392 38.6983 51.644 38.353 52.148C38.0077 52.652 37.835 53.3473 37.835 54.234ZM51.3161 57.986L50.0281 53.758C49.9068 53.3753 49.7995 53.002 49.7061 52.638C49.6128 52.274 49.5475 51.9847 49.5101 51.77H49.4541C49.4168 51.9847 49.3561 52.274 49.2721 52.638C49.1881 53.002 49.0808 53.38 48.9501 53.772L47.6061 57.986H46.2061L44.1481 50.482H45.4221L46.4581 54.486C46.5608 54.8873 46.6588 55.2933 46.7521 55.704C46.8455 56.1147 46.9108 56.4553 46.9481 56.726H47.0041C47.0321 56.5673 47.0741 56.3713 47.1301 56.138C47.1861 55.9047 47.2468 55.662 47.3121 55.41C47.3775 55.1487 47.4428 54.9153 47.5081 54.71L48.8381 50.482H50.1821L51.4701 54.71C51.5635 55.0367 51.6615 55.3867 51.7641 55.76C51.8668 56.1333 51.9368 56.4507 51.9741 56.712H52.0301C52.0581 56.4787 52.1188 56.1567 52.2121 55.746C52.3148 55.3353 52.4221 54.9153 52.5341 54.486L53.5841 50.482H54.8441L52.7581 57.986H51.3161Z" fill="#A4A4A4"/>
<path d="M6.20355 23L2.91355 14.236H2.85755C2.88555 14.5253 2.90888 14.9173 2.92755 15.412C2.94621 15.8973 2.95555 16.406 2.95555 16.938V23H1.79355V13.004H3.65555L6.73555 21.194H6.79155L9.92755 13.004H11.7755V23H10.5295V16.854C10.5295 16.3687 10.5389 15.888 10.5575 15.412C10.5855 14.936 10.6089 14.5487 10.6275 14.25H10.5715L7.23955 23H6.20355ZM17.2247 15.356C17.8594 15.356 18.4101 15.496 18.8767 15.776C19.3434 16.056 19.6981 16.4527 19.9407 16.966C20.1927 17.47 20.3187 18.0627 20.3187 18.744V19.486H15.1807C15.1994 20.3353 15.4141 20.984 15.8247 21.432C16.2447 21.8707 16.8281 22.09 17.5747 22.09C18.0507 22.09 18.4707 22.048 18.8347 21.964C19.2081 21.8707 19.5907 21.74 19.9827 21.572V22.65C19.6001 22.818 19.2221 22.9393 18.8487 23.014C18.4754 23.098 18.0321 23.14 17.5187 23.14C16.8001 23.14 16.1701 22.9953 15.6287 22.706C15.0874 22.4167 14.6627 21.9873 14.3547 21.418C14.0561 20.8487 13.9067 20.144 13.9067 19.304C13.9067 18.4827 14.0421 17.778 14.3127 17.19C14.5927 16.602 14.9801 16.1493 15.4747 15.832C15.9787 15.5147 16.5621 15.356 17.2247 15.356ZM17.2107 16.364C16.6227 16.364 16.1561 16.5553 15.8107 16.938C15.4747 17.3113 15.2741 17.834 15.2087 18.506H19.0307C19.0214 17.8713 18.8721 17.358 18.5827 16.966C18.2934 16.5647 17.8361 16.364 17.2107 16.364ZM24.8891 23.14C23.9557 23.14 23.2091 22.818 22.6491 22.174C22.0891 21.5207 21.8091 20.55 21.8091 19.262C21.8091 17.974 22.0891 17.0033 22.6491 16.35C23.2184 15.6873 23.9697 15.356 24.9031 15.356C25.4817 15.356 25.9531 15.4633 26.3171 15.678C26.6904 15.8927 26.9937 16.154 27.2271 16.462H27.3111C27.2924 16.3407 27.2737 16.1633 27.2551 15.93C27.2364 15.6873 27.2271 15.496 27.2271 15.356V12.36H28.4591V23H27.4651L27.2831 21.992H27.2271C27.0031 22.3093 26.7044 22.58 26.3311 22.804C25.9577 23.028 25.4771 23.14 24.8891 23.14ZM25.0851 22.118C25.8784 22.118 26.4337 21.9033 26.7511 21.474C27.0777 21.0353 27.2411 20.3773 27.2411 19.5V19.276C27.2411 18.3427 27.0871 17.6287 26.7791 17.134C26.4711 16.63 25.9017 16.378 25.0711 16.378C24.4084 16.378 23.9091 16.644 23.5731 17.176C23.2464 17.6987 23.0831 18.4033 23.0831 19.29C23.0831 20.186 23.2464 20.8813 23.5731 21.376C23.9091 21.8707 24.4131 22.118 25.0851 22.118ZM31.4723 12.682C31.659 12.682 31.8223 12.7473 31.9623 12.878C32.1117 12.9993 32.1863 13.1953 32.1863 13.466C32.1863 13.7367 32.1117 13.9373 31.9623 14.068C31.8223 14.1893 31.659 14.25 31.4723 14.25C31.267 14.25 31.0943 14.1893 30.9543 14.068C30.8143 13.9373 30.7443 13.7367 30.7443 13.466C30.7443 13.1953 30.8143 12.9993 30.9543 12.878C31.0943 12.7473 31.267 12.682 31.4723 12.682ZM32.0743 15.496V23H30.8423V15.496H32.0743ZM40.7237 15.496V23H39.7157L39.5337 22.006H39.4777C39.2351 22.398 38.8991 22.6873 38.4697 22.874C38.0404 23.0513 37.5831 23.14 37.0977 23.14C36.1924 23.14 35.5111 22.9253 35.0537 22.496C34.5964 22.0573 34.3677 21.362 34.3677 20.41V15.496H35.6137V20.326C35.6137 21.5207 36.1691 22.118 37.2797 22.118C38.1104 22.118 38.6844 21.8847 39.0017 21.418C39.3284 20.9513 39.4917 20.2793 39.4917 19.402V15.496H40.7237ZM51.338 15.356C52.1873 15.356 52.822 15.5753 53.242 16.014C53.662 16.4527 53.872 17.1527 53.872 18.114V23H52.654V18.17C52.654 16.9847 52.1453 16.392 51.128 16.392C50.4 16.392 49.8773 16.602 49.56 17.022C49.252 17.442 49.098 18.0533 49.098 18.856V23H47.88V18.17C47.88 16.9847 47.3667 16.392 46.34 16.392C45.584 16.392 45.0613 16.6253 44.772 17.092C44.4827 17.5587 44.338 18.2307 44.338 19.108V23H43.106V15.496H44.1L44.282 16.518H44.352C44.5853 16.126 44.898 15.8367 45.29 15.65C45.6913 15.454 46.116 15.356 46.564 15.356C47.74 15.356 48.5053 15.776 48.86 16.616H48.93C49.182 16.1867 49.5227 15.8693 49.952 15.664C50.3813 15.4587 50.8433 15.356 51.338 15.356Z" fill="#A4A4A4"/>
<path d="M77.852 128L74.562 119.236H74.506C74.534 119.525 74.5573 119.917 74.576 120.412C74.5947 120.897 74.604 121.406 74.604 121.938V128H73.442V118.004H75.304L78.384 126.194H78.44L81.576 118.004H83.424V128H82.178V121.854C82.178 121.369 82.1873 120.888 82.206 120.412C82.234 119.936 82.2573 119.549 82.276 119.25H82.22L78.888 128H77.852ZM92.4992 124.234C92.4992 125.475 92.1818 126.437 91.5472 127.118C90.9218 127.799 90.0725 128.14 88.9992 128.14C88.3365 128.14 87.7438 127.991 87.2212 127.692C86.7078 127.384 86.3018 126.941 86.0032 126.362C85.7045 125.774 85.5552 125.065 85.5552 124.234C85.5552 122.993 85.8632 122.036 86.4792 121.364C87.1045 120.692 87.9585 120.356 89.0412 120.356C89.7132 120.356 90.3105 120.51 90.8332 120.818C91.3558 121.117 91.7618 121.555 92.0512 122.134C92.3498 122.703 92.4992 123.403 92.4992 124.234ZM86.8292 124.234C86.8292 125.121 87.0018 125.825 87.3472 126.348C87.7018 126.861 88.2618 127.118 89.0272 127.118C89.7832 127.118 90.3385 126.861 90.6932 126.348C91.0478 125.825 91.2252 125.121 91.2252 124.234C91.2252 123.347 91.0478 122.652 90.6932 122.148C90.3385 121.644 89.7785 121.392 89.0132 121.392C88.2478 121.392 87.6925 121.644 87.3472 122.148C87.0018 122.652 86.8292 123.347 86.8292 124.234ZM98.0637 120.356C98.9597 120.356 99.6364 120.575 100.094 121.014C100.551 121.453 100.78 122.153 100.78 123.114V128H99.5617V123.198C99.5617 121.994 99.0017 121.392 97.8817 121.392C97.0511 121.392 96.4771 121.625 96.1597 122.092C95.8424 122.559 95.6837 123.231 95.6837 124.108V128H94.4517V120.496H95.4457L95.6277 121.518H95.6977C95.9404 121.126 96.2764 120.837 96.7057 120.65C97.1351 120.454 97.5877 120.356 98.0637 120.356Z" fill="#A4A4A4"/>
<path d="M130.203 128H128.943V119.11H125.821V118.004H133.311V119.11H130.203V128ZM140.225 120.496V128H139.217L139.035 127.006H138.979C138.736 127.398 138.4 127.687 137.971 127.874C137.541 128.051 137.084 128.14 136.599 128.14C135.693 128.14 135.012 127.925 134.555 127.496C134.097 127.057 133.869 126.362 133.869 125.41V120.496H135.115V125.326C135.115 126.521 135.67 127.118 136.781 127.118C137.611 127.118 138.185 126.885 138.503 126.418C138.829 125.951 138.993 125.279 138.993 124.402V120.496H140.225ZM145.505 120.356C146.14 120.356 146.69 120.496 147.157 120.776C147.624 121.056 147.978 121.453 148.221 121.966C148.473 122.47 148.599 123.063 148.599 123.744V124.486H143.461C143.48 125.335 143.694 125.984 144.105 126.432C144.525 126.871 145.108 127.09 145.855 127.09C146.331 127.09 146.751 127.048 147.115 126.964C147.488 126.871 147.871 126.74 148.263 126.572V127.65C147.88 127.818 147.502 127.939 147.129 128.014C146.756 128.098 146.312 128.14 145.799 128.14C145.08 128.14 144.45 127.995 143.909 127.706C143.368 127.417 142.943 126.987 142.635 126.418C142.336 125.849 142.187 125.144 142.187 124.304C142.187 123.483 142.322 122.778 142.593 122.19C142.873 121.602 143.26 121.149 143.755 120.832C144.259 120.515 144.842 120.356 145.505 120.356ZM145.491 121.364C144.903 121.364 144.436 121.555 144.091 121.938C143.755 122.311 143.554 122.834 143.489 123.506H147.311C147.302 122.871 147.152 122.358 146.863 121.966C146.574 121.565 146.116 121.364 145.491 121.364Z" fill="#A4A4A4"/>
<path d="M185.209 118.004L182.549 128H181.275L179.329 121.448C179.245 121.187 179.166 120.921 179.091 120.65C179.026 120.37 178.965 120.127 178.909 119.922C178.862 119.707 178.834 119.558 178.825 119.474C178.816 119.595 178.764 119.857 178.671 120.258C178.578 120.65 178.47 121.061 178.349 121.49L176.459 128H175.185L172.539 118.004H173.855L175.409 124.108C175.521 124.537 175.614 124.953 175.689 125.354C175.773 125.755 175.838 126.133 175.885 126.488C175.932 126.124 176.002 125.727 176.095 125.298C176.188 124.869 176.296 124.449 176.417 124.038L178.181 118.004H179.483L181.317 124.08C181.448 124.509 181.56 124.939 181.653 125.368C181.746 125.797 181.816 126.171 181.863 126.488C181.9 126.143 181.961 125.769 182.045 125.368C182.138 124.957 182.241 124.533 182.353 124.094L183.893 118.004H185.209ZM189.201 120.356C189.836 120.356 190.387 120.496 190.853 120.776C191.32 121.056 191.675 121.453 191.917 121.966C192.169 122.47 192.295 123.063 192.295 123.744V124.486H187.157C187.176 125.335 187.391 125.984 187.801 126.432C188.221 126.871 188.805 127.09 189.551 127.09C190.027 127.09 190.447 127.048 190.811 126.964C191.185 126.871 191.567 126.74 191.959 126.572V127.65C191.577 127.818 191.199 127.939 190.825 128.014C190.452 128.098 190.009 128.14 189.495 128.14C188.777 128.14 188.147 127.995 187.605 127.706C187.064 127.417 186.639 126.987 186.331 126.418C186.033 125.849 185.883 125.144 185.883 124.304C185.883 123.483 186.019 122.778 186.289 122.19C186.569 121.602 186.957 121.149 187.451 120.832C187.955 120.515 188.539 120.356 189.201 120.356ZM189.187 121.364C188.599 121.364 188.133 121.555 187.787 121.938C187.451 122.311 187.251 122.834 187.185 123.506H191.007C190.998 122.871 190.849 122.358 190.559 121.966C190.27 121.565 189.813 121.364 189.187 121.364ZM196.866 128.14C195.932 128.14 195.186 127.818 194.626 127.174C194.066 126.521 193.786 125.55 193.786 124.262C193.786 122.974 194.066 122.003 194.626 121.35C195.195 120.687 195.946 120.356 196.88 120.356C197.458 120.356 197.93 120.463 198.294 120.678C198.667 120.893 198.97 121.154 199.204 121.462H199.288C199.269 121.341 199.25 121.163 199.232 120.93C199.213 120.687 199.204 120.496 199.204 120.356V117.36H200.436V128H199.442L199.26 126.992H199.204C198.98 127.309 198.681 127.58 198.308 127.804C197.934 128.028 197.454 128.14 196.866 128.14ZM197.062 127.118C197.855 127.118 198.41 126.903 198.728 126.474C199.054 126.035 199.218 125.377 199.218 124.5V124.276C199.218 123.343 199.064 122.629 198.756 122.134C198.448 121.63 197.878 121.378 197.048 121.378C196.385 121.378 195.886 121.644 195.55 122.176C195.223 122.699 195.06 123.403 195.06 124.29C195.06 125.186 195.223 125.881 195.55 126.376C195.886 126.871 196.39 127.118 197.062 127.118Z" fill="#A4A4A4"/>
<path d="M229.478 128H228.218V119.11H225.096V118.004H232.586V119.11H229.478V128ZM235.157 117.36V120.482C235.157 120.855 235.134 121.205 235.087 121.532H235.171C235.414 121.149 235.741 120.86 236.151 120.664C236.571 120.468 237.024 120.37 237.509 120.37C238.415 120.37 239.096 120.589 239.553 121.028C240.02 121.457 240.253 122.153 240.253 123.114V128H239.035V123.198C239.035 121.994 238.475 121.392 237.355 121.392C236.515 121.392 235.937 121.63 235.619 122.106C235.311 122.573 235.157 123.245 235.157 124.122V128H233.925V117.36H235.157ZM248.852 120.496V128H247.844L247.662 127.006H247.606C247.363 127.398 247.027 127.687 246.598 127.874C246.168 128.051 245.711 128.14 245.226 128.14C244.32 128.14 243.639 127.925 243.182 127.496C242.724 127.057 242.496 126.362 242.496 125.41V120.496H243.742V125.326C243.742 126.521 244.297 127.118 245.408 127.118C246.238 127.118 246.812 126.885 247.13 126.418C247.456 125.951 247.62 125.279 247.62 124.402V120.496H248.852Z" fill="#A4A4A4"/>
</svg>
