<svg width="721" height="441" viewBox="0 0 721 441" fill="none" xmlns="http://www.w3.org/2000/svg">
<line x1="1" y1="0.5" x2="721" y2="0.5" stroke="#646464"/>
<line x1="1" y1="63.2858" x2="721" y2="63.2858" stroke="#646464"/>
<line x1="1" y1="126.071" x2="721" y2="126.071" stroke="#646464"/>
<line x1="1" y1="188.857" x2="721" y2="188.857" stroke="#646464"/>
<line x1="1" y1="251.643" x2="721" y2="251.643" stroke="#646464"/>
<line x1="1" y1="314.429" x2="721" y2="314.429" stroke="#646464"/>
<line x1="1" y1="377.214" x2="721" y2="377.214" stroke="#646464"/>
<line x1="1" y1="440" x2="721" y2="440" stroke="#646464"/>
<line x1="0.5" y1="440.5" x2="0.5" stroke="#646464"/>
<line x1="103.357" y1="440.5" x2="103.357" stroke="#646464"/>
<line x1="206.214" y1="440.5" x2="206.214" stroke="#646464"/>
<line x1="309.071" y1="440.5" x2="309.071" stroke="#646464"/>
<line x1="411.929" y1="440.5" x2="411.929" stroke="#646464"/>
<line x1="514.786" y1="440.5" x2="514.786" stroke="#646464"/>
<line x1="617.643" y1="440.5" x2="617.643" stroke="#646464"/>
<line x1="720.5" y1="440.5" x2="720.5" stroke="#646464"/>
<rect x="156.505" y="13" width="134.978" height="80.8856" fill="#6DB1FE"/>
<rect x="156.505" y="96.4132" width="134.978" height="80.8856" fill="#344BCE"/>
<rect x="156.505" y="179.827" width="134.978" height="80.8856" fill="#ADD8FF"/>
<rect x="156.505" y="263.24" width="134.978" height="80.8856" fill="#4481F2"/>
<rect x="156.505" y="346.653" width="134.978" height="80.8856" fill="#34B634"/>
<rect x="294.011" y="13" width="134.978" height="80.8856" fill="#FFE495"/>
<rect x="294.011" y="96.4132" width="134.978" height="80.8856" fill="#E3AE3B"/>
<rect x="294.011" y="179.827" width="134.978" height="80.8856" fill="#289D28"/>
<rect x="294.517" y="263.24" width="133.967" height="80.8856" fill="#5BDB5B"/>
<rect x="294.011" y="346.653" width="134.978" height="80.8856" fill="#0CABF9"/>
<rect x="431.516" y="13" width="134.978" height="80.8856" fill="#4481F2"/>
<rect x="431.516" y="96.4132" width="134.978" height="80.8856" fill="#6DB1FE"/>
<rect x="431.516" y="179.827" width="134.978" height="80.8856" fill="#72E972"/>
<rect x="431.516" y="263.24" width="134.978" height="80.8856" fill="#C0FAC0"/>
<rect x="431.516" y="346.653" width="134.978" height="80.8856" fill="#289D28"/>
<rect x="569.022" y="13" width="134.978" height="80.8856" fill="#6DB1FE"/>
<rect x="569.022" y="96.4132" width="134.978" height="80.8856" fill="#4481F2"/>
<rect x="569.022" y="179.827" width="134.978" height="80.8856" fill="#101374"/>
<rect x="569.022" y="263.24" width="134.978" height="80.8856" fill="#2B36B0"/>
<rect x="569.022" y="346.653" width="134.978" height="80.8856" fill="#344BCE"/>
<rect x="19" y="13" width="134.978" height="80.8856" fill="#96F396"/>
<rect x="19" y="96.4132" width="134.978" height="80.8856" fill="#34B634"/>
<rect x="19" y="179.827" width="134.978" height="80.8856" fill="#6DB1FE"/>
<rect x="19" y="263.24" width="134.978" height="80.8856" fill="#2B36B0"/>
<rect x="19" y="346.653" width="134.978" height="80.8856" fill="#C7912E"/>
</svg>
