<svg width="71" height="179" viewBox="0 0 71 179" fill="none" xmlns="http://www.w3.org/2000/svg">
<rect x="0.844238" y="0.995209" width="34.8777" height="154.961" fill="url(#paint0_linear_166_6232)"/>
<path d="M54.28 154.456H47.672V153.434L50.29 150.788C50.7847 150.284 51.2047 149.836 51.55 149.444C51.9047 149.052 52.1707 148.669 52.348 148.296C52.5253 147.923 52.614 147.507 52.614 147.05C52.614 146.499 52.4507 146.084 52.124 145.804C51.7973 145.515 51.3727 145.37 50.85 145.37C50.3553 145.37 49.926 145.454 49.562 145.622C49.198 145.79 48.8247 146.023 48.442 146.322L47.784 145.496C48.176 145.169 48.624 144.894 49.128 144.67C49.6413 144.437 50.2153 144.32 50.85 144.32C51.7833 144.32 52.5207 144.558 53.062 145.034C53.6033 145.51 53.874 146.159 53.874 146.98C53.874 147.503 53.7667 147.993 53.552 148.45C53.3373 148.907 53.0387 149.36 52.656 149.808C52.2733 150.256 51.8253 150.727 51.312 151.222L49.226 153.28V153.336H54.28V154.456ZM62.3337 149.444C62.3337 150.527 62.2217 151.451 61.9977 152.216C61.7737 152.981 61.4144 153.569 60.9197 153.98C60.4344 154.391 59.7951 154.596 59.0017 154.596C57.8724 154.596 57.0371 154.143 56.4957 153.238C55.9637 152.323 55.6977 151.059 55.6977 149.444C55.6977 148.361 55.8051 147.437 56.0197 146.672C56.2437 145.907 56.5984 145.323 57.0837 144.922C57.5691 144.511 58.2084 144.306 59.0017 144.306C60.1217 144.306 60.9571 144.759 61.5077 145.664C62.0584 146.56 62.3337 147.82 62.3337 149.444ZM56.9297 149.444C56.9297 150.816 57.0837 151.843 57.3917 152.524C57.7091 153.205 58.2457 153.546 59.0017 153.546C59.7484 153.546 60.2804 153.21 60.5977 152.538C60.9244 151.857 61.0877 150.825 61.0877 149.444C61.0877 148.081 60.9244 147.059 60.5977 146.378C60.2804 145.697 59.7484 145.356 59.0017 145.356C58.2457 145.356 57.7091 145.697 57.3917 146.378C57.0837 147.059 56.9297 148.081 56.9297 149.444Z" fill="#535965"/>
<path d="M54.728 118.613H53.272V120.881H52.082V118.613H47.294V117.563L51.998 110.829H53.272V117.507H54.728V118.613ZM52.082 117.507V114.357C52.082 113.872 52.0867 113.461 52.096 113.125C52.1147 112.78 52.1333 112.453 52.152 112.145H52.096C52.0213 112.322 51.928 112.514 51.816 112.719C51.704 112.924 51.5967 113.097 51.494 113.237L48.498 117.507H52.082ZM62.3337 115.869C62.3337 116.952 62.2217 117.876 61.9977 118.641C61.7737 119.406 61.4144 119.994 60.9197 120.405C60.4344 120.816 59.7951 121.021 59.0017 121.021C57.8724 121.021 57.0371 120.568 56.4957 119.663C55.9637 118.748 55.6977 117.484 55.6977 115.869C55.6977 114.786 55.8051 113.862 56.0197 113.097C56.2437 112.332 56.5984 111.748 57.0837 111.347C57.5691 110.936 58.2084 110.731 59.0017 110.731C60.1217 110.731 60.9571 111.184 61.5077 112.089C62.0584 112.985 62.3337 114.245 62.3337 115.869ZM56.9297 115.869C56.9297 117.241 57.0837 118.268 57.3917 118.949C57.7091 119.63 58.2457 119.971 59.0017 119.971C59.7484 119.971 60.2804 119.635 60.5977 118.963C60.9244 118.282 61.0877 117.25 61.0877 115.869C61.0877 114.506 60.9244 113.484 60.5977 112.803C60.2804 112.122 59.7484 111.781 59.0017 111.781C58.2457 111.781 57.7091 112.122 57.3917 112.803C57.0837 113.484 56.9297 114.506 56.9297 115.869Z" fill="#535965"/>
<path d="M47.77 78.067C47.77 77.3483 47.8307 76.6437 47.952 75.953C48.0827 75.253 48.3113 74.623 48.638 74.063C48.974 73.4937 49.4407 73.041 50.038 72.705C50.6353 72.369 51.4053 72.201 52.348 72.201C52.544 72.201 52.7587 72.2103 52.992 72.229C53.2347 72.2477 53.4307 72.2803 53.58 72.327V73.377C53.412 73.321 53.2207 73.279 53.006 73.251C52.7913 73.223 52.5813 73.209 52.376 73.209C51.732 73.209 51.1953 73.3163 50.766 73.531C50.3367 73.7457 49.996 74.0397 49.744 74.413C49.5013 74.7863 49.324 75.2157 49.212 75.701C49.1 76.1863 49.03 76.7043 49.002 77.255H49.086C49.3007 76.9283 49.5993 76.653 49.982 76.429C50.3647 76.1957 50.8547 76.079 51.452 76.079C52.32 76.079 53.02 76.345 53.552 76.877C54.084 77.3997 54.35 78.1463 54.35 79.117C54.35 80.1623 54.0607 80.9837 53.482 81.581C52.9127 82.1783 52.1427 82.477 51.172 82.477C50.5373 82.477 49.9633 82.3183 49.45 82.001C48.9367 81.6837 48.526 81.1983 48.218 80.545C47.9193 79.8917 47.77 79.0657 47.77 78.067ZM51.158 81.441C51.746 81.441 52.222 81.2543 52.586 80.881C52.95 80.4983 53.132 79.9103 53.132 79.117C53.132 78.4823 52.9687 77.9783 52.642 77.605C52.3247 77.2317 51.844 77.045 51.2 77.045C50.7613 77.045 50.3787 77.1383 50.052 77.325C49.7253 77.5023 49.4687 77.7357 49.282 78.025C49.1047 78.305 49.016 78.5897 49.016 78.879C49.016 79.2803 49.0953 79.6817 49.254 80.083C49.4127 80.475 49.6507 80.8017 49.968 81.063C50.2853 81.315 50.682 81.441 51.158 81.441ZM62.3337 77.325C62.3337 78.4077 62.2217 79.3317 61.9977 80.097C61.7737 80.8623 61.4144 81.4503 60.9197 81.861C60.4344 82.2717 59.7951 82.477 59.0017 82.477C57.8724 82.477 57.0371 82.0243 56.4957 81.119C55.9637 80.2043 55.6977 78.9397 55.6977 77.325C55.6977 76.2423 55.8051 75.3183 56.0197 74.553C56.2437 73.7877 56.5984 73.2043 57.0837 72.803C57.5691 72.3923 58.2084 72.187 59.0017 72.187C60.1217 72.187 60.9571 72.6397 61.5077 73.545C62.0584 74.441 62.3337 75.701 62.3337 77.325ZM56.9297 77.325C56.9297 78.697 57.0837 79.7237 57.3917 80.405C57.7091 81.0863 58.2457 81.427 59.0017 81.427C59.7484 81.427 60.2804 81.091 60.5977 80.419C60.9244 79.7377 61.0877 78.7063 61.0877 77.325C61.0877 75.9623 60.9244 74.9403 60.5977 74.259C60.2804 73.5777 59.7484 73.237 59.0017 73.237C58.2457 73.237 57.7091 73.5777 57.3917 74.259C57.0837 74.9403 56.9297 75.9623 56.9297 77.325Z" fill="#535965"/>
<path d="M50.99 35.6415C51.8673 35.6415 52.586 35.8468 53.146 36.2575C53.706 36.6682 53.986 37.2608 53.986 38.0355C53.986 38.4368 53.8973 38.7868 53.72 39.0855C53.552 39.3842 53.3233 39.6502 53.034 39.8835C52.7447 40.1075 52.4273 40.3082 52.082 40.4855C52.4927 40.6908 52.866 40.9148 53.202 41.1575C53.538 41.4002 53.804 41.6848 54 42.0115C54.2053 42.3382 54.308 42.7302 54.308 43.1875C54.308 44.0275 54.0093 44.6948 53.412 45.1895C52.8147 45.6748 52.0213 45.9175 51.032 45.9175C49.9493 45.9175 49.1187 45.6842 48.54 45.2175C47.9707 44.7415 47.686 44.0788 47.686 43.2295C47.686 42.7815 47.7793 42.3895 47.966 42.0535C48.162 41.7082 48.4187 41.4142 48.736 41.1715C49.0533 40.9288 49.394 40.7235 49.758 40.5555C49.2633 40.2755 48.848 39.9395 48.512 39.5475C48.176 39.1462 48.008 38.6375 48.008 38.0215C48.008 37.5175 48.1387 37.0882 48.4 36.7335C48.6613 36.3788 49.016 36.1082 49.464 35.9215C49.912 35.7348 50.4207 35.6415 50.99 35.6415ZM50.976 36.6355C50.4533 36.6355 50.0287 36.7615 49.702 37.0135C49.3753 37.2562 49.212 37.6108 49.212 38.0775C49.212 38.4228 49.2913 38.7122 49.45 38.9455C49.618 39.1788 49.842 39.3795 50.122 39.5475C50.402 39.7062 50.71 39.8602 51.046 40.0095C51.5313 39.8042 51.9373 39.5568 52.264 39.2675C52.6 38.9782 52.768 38.5815 52.768 38.0775C52.768 37.6108 52.6047 37.2562 52.278 37.0135C51.9513 36.7615 51.5173 36.6355 50.976 36.6355ZM48.89 43.2435C48.89 43.7288 49.0627 44.1348 49.408 44.4615C49.7533 44.7788 50.2853 44.9375 51.004 44.9375C51.6853 44.9375 52.2033 44.7788 52.558 44.4615C52.922 44.1348 53.104 43.7148 53.104 43.2015C53.104 42.7162 52.9127 42.3148 52.53 41.9975C52.1473 41.6708 51.6387 41.3862 51.004 41.1435L50.78 41.0595C50.164 41.3302 49.6927 41.6335 49.366 41.9695C49.0487 42.3055 48.89 42.7302 48.89 43.2435ZM62.3337 40.7655C62.3337 41.8482 62.2217 42.7722 61.9977 43.5375C61.7737 44.3028 61.4144 44.8908 60.9197 45.3015C60.4344 45.7122 59.7951 45.9175 59.0017 45.9175C57.8724 45.9175 57.0371 45.4648 56.4957 44.5595C55.9637 43.6448 55.6977 42.3802 55.6977 40.7655C55.6977 39.6828 55.8051 38.7588 56.0197 37.9935C56.2437 37.2282 56.5984 36.6448 57.0837 36.2435C57.5691 35.8328 58.2084 35.6275 59.0017 35.6275C60.1217 35.6275 60.9571 36.0802 61.5077 36.9855C62.0584 37.8815 62.3337 39.1415 62.3337 40.7655ZM56.9297 40.7655C56.9297 42.1375 57.0837 43.1642 57.3917 43.8455C57.7091 44.5268 58.2457 44.8675 59.0017 44.8675C59.7484 44.8675 60.2804 44.5315 60.5977 43.8595C60.9244 43.1782 61.0877 42.1468 61.0877 40.7655C61.0877 39.4028 60.9244 38.3808 60.5977 37.6995C60.2804 37.0182 59.7484 36.6775 59.0017 36.6775C58.2457 36.6775 57.7091 37.0182 57.3917 37.6995C57.0837 38.3808 56.9297 39.4028 56.9297 40.7655Z" fill="#535965"/>
<path d="M51.97 13.2802H50.766V6.29415C50.766 5.89282 50.7707 5.57082 50.78 5.32815C50.7893 5.08548 50.8033 4.83348 50.822 4.57215C50.6727 4.72148 50.5327 4.84748 50.402 4.95015C50.2807 5.05282 50.1313 5.18348 49.954 5.34215L48.89 6.21015L48.246 5.38415L50.948 3.28415H51.97V13.2802ZM62.3337 8.26815C62.3337 9.35082 62.2217 10.2748 61.9977 11.0402C61.7737 11.8055 61.4144 12.3935 60.9197 12.8042C60.4344 13.2148 59.7951 13.4202 59.0017 13.4202C57.8724 13.4202 57.0371 12.9675 56.4957 12.0622C55.9637 11.1475 55.6977 9.88282 55.6977 8.26815C55.6977 7.18548 55.8051 6.26148 56.0197 5.49615C56.2437 4.73082 56.5984 4.14748 57.0837 3.74615C57.5691 3.33548 58.2084 3.13015 59.0017 3.13015C60.1217 3.13015 60.9571 3.58282 61.5077 4.48815C62.0584 5.38415 62.3337 6.64415 62.3337 8.26815ZM56.9297 8.26815C56.9297 9.64015 57.0837 10.6668 57.3917 11.3482C57.7091 12.0295 58.2457 12.3702 59.0017 12.3702C59.7484 12.3702 60.2804 12.0342 60.5977 11.3622C60.9244 10.6808 61.0877 9.64948 61.0877 8.26815C61.0877 6.90548 60.9244 5.88348 60.5977 5.20215C60.2804 4.52082 59.7484 4.18015 59.0017 4.18015C58.2457 4.18015 57.7091 4.52082 57.3917 5.20215C57.0837 5.88348 56.9297 6.90548 56.9297 8.26815ZM70.3454 8.26815C70.3454 9.35082 70.2334 10.2748 70.0094 11.0402C69.7854 11.8055 69.4261 12.3935 68.9314 12.8042C68.4461 13.2148 67.8068 13.4202 67.0134 13.4202C65.8841 13.4202 65.0488 12.9675 64.5074 12.0622C63.9754 11.1475 63.7094 9.88282 63.7094 8.26815C63.7094 7.18548 63.8168 6.26148 64.0314 5.49615C64.2554 4.73082 64.6101 4.14748 65.0954 3.74615C65.5808 3.33548 66.2201 3.13015 67.0134 3.13015C68.1334 3.13015 68.9688 3.58282 69.5194 4.48815C70.0701 5.38415 70.3454 6.64415 70.3454 8.26815ZM64.9414 8.26815C64.9414 9.64015 65.0954 10.6668 65.4034 11.3482C65.7208 12.0295 66.2574 12.3702 67.0134 12.3702C67.7601 12.3702 68.2921 12.0342 68.6094 11.3622C68.9361 10.6808 69.0994 9.64948 69.0994 8.26815C69.0994 6.90548 68.9361 5.88348 68.6094 5.20215C68.2921 4.52082 67.7601 4.18015 67.0134 4.18015C66.2574 4.18015 65.7208 4.52082 65.4034 5.20215C65.0954 5.88348 64.9414 6.90548 64.9414 8.26815Z" fill="#535965"/>
<defs>
<linearGradient id="paint0_linear_166_6232" x1="0.844238" y1="0.995209" x2="0.844238" y2="155.957" gradientUnits="userSpaceOnUse">
<stop stop-color="#FACA4A"/>
<stop offset="0.343565" stop-color="#66D467"/>
<stop offset="0.651042" stop-color="#2DBAFC"/>
<stop offset="1" stop-color="#0D2ED1"/>
</linearGradient>
</defs>
</svg>
