<svg width="57" height="116" viewBox="0 0 57 116" fill="none" xmlns="http://www.w3.org/2000/svg">
<rect y="6" width="24" height="105" fill="url(#paint0_linear_121_4588)"/>
<path d="M39.28 111H32.672V109.978L35.29 107.332C35.7847 106.828 36.2047 106.38 36.55 105.988C36.9047 105.596 37.1707 105.213 37.348 104.84C37.5253 104.467 37.614 104.051 37.614 103.594C37.614 103.043 37.4507 102.628 37.124 102.348C36.7973 102.059 36.3727 101.914 35.85 101.914C35.3553 101.914 34.926 101.998 34.562 102.166C34.198 102.334 33.8247 102.567 33.442 102.866L32.784 102.04C33.176 101.713 33.624 101.438 34.128 101.214C34.6413 100.981 35.2153 100.864 35.85 100.864C36.7833 100.864 37.5207 101.102 38.062 101.578C38.6033 102.054 38.874 102.703 38.874 103.524C38.874 104.047 38.7667 104.537 38.552 104.994C38.3373 105.451 38.0387 105.904 37.656 106.352C37.2733 106.8 36.8253 107.271 36.312 107.766L34.226 109.824V109.88H39.28V111ZM47.3337 105.988C47.3337 107.071 47.2217 107.995 46.9977 108.76C46.7737 109.525 46.4144 110.113 45.9197 110.524C45.4344 110.935 44.7951 111.14 44.0017 111.14C42.8724 111.14 42.0371 110.687 41.4957 109.782C40.9637 108.867 40.6977 107.603 40.6977 105.988C40.6977 104.905 40.8051 103.981 41.0197 103.216C41.2437 102.451 41.5984 101.867 42.0837 101.466C42.5691 101.055 43.2084 100.85 44.0017 100.85C45.1217 100.85 45.9571 101.303 46.5077 102.208C47.0584 103.104 47.3337 104.364 47.3337 105.988ZM41.9297 105.988C41.9297 107.36 42.0837 108.387 42.3917 109.068C42.7091 109.749 43.2457 110.09 44.0017 110.09C44.7484 110.09 45.2804 109.754 45.5977 109.082C45.9244 108.401 46.0877 107.369 46.0877 105.988C46.0877 104.625 45.9244 103.603 45.5977 102.922C45.2804 102.241 44.7484 101.9 44.0017 101.9C43.2457 101.9 42.7091 102.241 42.3917 102.922C42.0837 103.603 41.9297 104.625 41.9297 105.988Z" fill="#535965"/>
<path d="M39.728 84.732H38.272V87H37.082V84.732H32.294V83.682L36.998 76.948H38.272V83.626H39.728V84.732ZM37.082 83.626V80.476C37.082 79.9907 37.0867 79.58 37.096 79.244C37.1147 78.8987 37.1333 78.572 37.152 78.264H37.096C37.0213 78.4413 36.928 78.6327 36.816 78.838C36.704 79.0433 36.5967 79.216 36.494 79.356L33.498 83.626H37.082ZM47.3337 81.988C47.3337 83.0707 47.2217 83.9947 46.9977 84.76C46.7737 85.5253 46.4144 86.1133 45.9197 86.524C45.4344 86.9347 44.7951 87.14 44.0017 87.14C42.8724 87.14 42.0371 86.6873 41.4957 85.782C40.9637 84.8673 40.6977 83.6027 40.6977 81.988C40.6977 80.9053 40.8051 79.9813 41.0197 79.216C41.2437 78.4507 41.5984 77.8673 42.0837 77.466C42.5691 77.0553 43.2084 76.85 44.0017 76.85C45.1217 76.85 45.9571 77.3027 46.5077 78.208C47.0584 79.104 47.3337 80.364 47.3337 81.988ZM41.9297 81.988C41.9297 83.36 42.0837 84.3867 42.3917 85.068C42.7091 85.7493 43.2457 86.09 44.0017 86.09C44.7484 86.09 45.2804 85.754 45.5977 85.082C45.9244 84.4007 46.0877 83.3693 46.0877 81.988C46.0877 80.6253 45.9244 79.6033 45.5977 78.922C45.2804 78.2407 44.7484 77.9 44.0017 77.9C43.2457 77.9 42.7091 78.2407 42.3917 78.922C42.0837 79.6033 41.9297 80.6253 41.9297 81.988Z" fill="#535965"/>
<path d="M32.77 58.73C32.77 58.0113 32.8307 57.3067 32.952 56.616C33.0827 55.916 33.3113 55.286 33.638 54.726C33.974 54.1567 34.4407 53.704 35.038 53.368C35.6353 53.032 36.4053 52.864 37.348 52.864C37.544 52.864 37.7587 52.8733 37.992 52.892C38.2347 52.9107 38.4307 52.9433 38.58 52.99V54.04C38.412 53.984 38.2207 53.942 38.006 53.914C37.7913 53.886 37.5813 53.872 37.376 53.872C36.732 53.872 36.1953 53.9793 35.766 54.194C35.3367 54.4087 34.996 54.7027 34.744 55.076C34.5013 55.4493 34.324 55.8787 34.212 56.364C34.1 56.8493 34.03 57.3673 34.002 57.918H34.086C34.3007 57.5913 34.5993 57.316 34.982 57.092C35.3647 56.8587 35.8547 56.742 36.452 56.742C37.32 56.742 38.02 57.008 38.552 57.54C39.084 58.0627 39.35 58.8093 39.35 59.78C39.35 60.8253 39.0607 61.6467 38.482 62.244C37.9127 62.8413 37.1427 63.14 36.172 63.14C35.5373 63.14 34.9633 62.9813 34.45 62.664C33.9367 62.3467 33.526 61.8613 33.218 61.208C32.9193 60.5547 32.77 59.7287 32.77 58.73ZM36.158 62.104C36.746 62.104 37.222 61.9173 37.586 61.544C37.95 61.1613 38.132 60.5733 38.132 59.78C38.132 59.1453 37.9687 58.6413 37.642 58.268C37.3247 57.8947 36.844 57.708 36.2 57.708C35.7613 57.708 35.3787 57.8013 35.052 57.988C34.7253 58.1653 34.4687 58.3987 34.282 58.688C34.1047 58.968 34.016 59.2527 34.016 59.542C34.016 59.9433 34.0953 60.3447 34.254 60.746C34.4127 61.138 34.6507 61.4647 34.968 61.726C35.2853 61.978 35.682 62.104 36.158 62.104ZM47.3337 57.988C47.3337 59.0707 47.2217 59.9947 46.9977 60.76C46.7737 61.5253 46.4144 62.1133 45.9197 62.524C45.4344 62.9347 44.7951 63.14 44.0017 63.14C42.8724 63.14 42.0371 62.6873 41.4957 61.782C40.9637 60.8673 40.6977 59.6027 40.6977 57.988C40.6977 56.9053 40.8051 55.9813 41.0197 55.216C41.2437 54.4507 41.5984 53.8673 42.0837 53.466C42.5691 53.0553 43.2084 52.85 44.0017 52.85C45.1217 52.85 45.9571 53.3027 46.5077 54.208C47.0584 55.104 47.3337 56.364 47.3337 57.988ZM41.9297 57.988C41.9297 59.36 42.0837 60.3867 42.3917 61.068C42.7091 61.7493 43.2457 62.09 44.0017 62.09C44.7484 62.09 45.2804 61.754 45.5977 61.082C45.9244 60.4007 46.0877 59.3693 46.0877 57.988C46.0877 56.6253 45.9244 55.6033 45.5977 54.922C45.2804 54.2407 44.7484 53.9 44.0017 53.9C43.2457 53.9 42.7091 54.2407 42.3917 54.922C42.0837 55.6033 41.9297 56.6253 41.9297 57.988Z" fill="#535965"/>
<path d="M35.99 28.864C36.8673 28.864 37.586 29.0693 38.146 29.48C38.706 29.8907 38.986 30.4833 38.986 31.258C38.986 31.6593 38.8973 32.0093 38.72 32.308C38.552 32.6067 38.3233 32.8727 38.034 33.106C37.7447 33.33 37.4273 33.5307 37.082 33.708C37.4927 33.9133 37.866 34.1373 38.202 34.38C38.538 34.6227 38.804 34.9073 39 35.234C39.2053 35.5607 39.308 35.9527 39.308 36.41C39.308 37.25 39.0093 37.9173 38.412 38.412C37.8147 38.8973 37.0213 39.14 36.032 39.14C34.9493 39.14 34.1187 38.9067 33.54 38.44C32.9707 37.964 32.686 37.3013 32.686 36.452C32.686 36.004 32.7793 35.612 32.966 35.276C33.162 34.9307 33.4187 34.6367 33.736 34.394C34.0533 34.1513 34.394 33.946 34.758 33.778C34.2633 33.498 33.848 33.162 33.512 32.77C33.176 32.3687 33.008 31.86 33.008 31.244C33.008 30.74 33.1387 30.3107 33.4 29.956C33.6613 29.6013 34.016 29.3307 34.464 29.144C34.912 28.9573 35.4207 28.864 35.99 28.864ZM35.976 29.858C35.4533 29.858 35.0287 29.984 34.702 30.236C34.3753 30.4787 34.212 30.8333 34.212 31.3C34.212 31.6453 34.2913 31.9347 34.45 32.168C34.618 32.4013 34.842 32.602 35.122 32.77C35.402 32.9287 35.71 33.0827 36.046 33.232C36.5313 33.0267 36.9373 32.7793 37.264 32.49C37.6 32.2007 37.768 31.804 37.768 31.3C37.768 30.8333 37.6047 30.4787 37.278 30.236C36.9513 29.984 36.5173 29.858 35.976 29.858ZM33.89 36.466C33.89 36.9513 34.0627 37.3573 34.408 37.684C34.7533 38.0013 35.2853 38.16 36.004 38.16C36.6853 38.16 37.2033 38.0013 37.558 37.684C37.922 37.3573 38.104 36.9373 38.104 36.424C38.104 35.9387 37.9127 35.5373 37.53 35.22C37.1473 34.8933 36.6387 34.6087 36.004 34.366L35.78 34.282C35.164 34.5527 34.6927 34.856 34.366 35.192C34.0487 35.528 33.89 35.9527 33.89 36.466ZM47.3337 33.988C47.3337 35.0707 47.2217 35.9947 46.9977 36.76C46.7737 37.5253 46.4144 38.1133 45.9197 38.524C45.4344 38.9347 44.7951 39.14 44.0017 39.14C42.8724 39.14 42.0371 38.6873 41.4957 37.782C40.9637 36.8673 40.6977 35.6027 40.6977 33.988C40.6977 32.9053 40.8051 31.9813 41.0197 31.216C41.2437 30.4507 41.5984 29.8673 42.0837 29.466C42.5691 29.0553 43.2084 28.85 44.0017 28.85C45.1217 28.85 45.9571 29.3027 46.5077 30.208C47.0584 31.104 47.3337 32.364 47.3337 33.988ZM41.9297 33.988C41.9297 35.36 42.0837 36.3867 42.3917 37.068C42.7091 37.7493 43.2457 38.09 44.0017 38.09C44.7484 38.09 45.2804 37.754 45.5977 37.082C45.9244 36.4007 46.0877 35.3693 46.0877 33.988C46.0877 32.6253 45.9244 31.6033 45.5977 30.922C45.2804 30.2407 44.7484 29.9 44.0017 29.9C43.2457 29.9 42.7091 30.2407 42.3917 30.922C42.0837 31.6033 41.9297 32.6253 41.9297 33.988Z" fill="#535965"/>
<path d="M36.97 15H35.766V8.014C35.766 7.61267 35.7707 7.29067 35.78 7.048C35.7893 6.80533 35.8033 6.55333 35.822 6.292C35.6727 6.44133 35.5327 6.56733 35.402 6.67C35.2807 6.77267 35.1313 6.90333 34.954 7.062L33.89 7.93L33.246 7.104L35.948 5.004H36.97V15ZM47.3337 9.988C47.3337 11.0707 47.2217 11.9947 46.9977 12.76C46.7737 13.5253 46.4144 14.1133 45.9197 14.524C45.4344 14.9347 44.7951 15.14 44.0017 15.14C42.8724 15.14 42.0371 14.6873 41.4957 13.782C40.9637 12.8673 40.6977 11.6027 40.6977 9.988C40.6977 8.90533 40.8051 7.98133 41.0197 7.216C41.2437 6.45067 41.5984 5.86733 42.0837 5.466C42.5691 5.05533 43.2084 4.85 44.0017 4.85C45.1217 4.85 45.9571 5.30267 46.5077 6.208C47.0584 7.104 47.3337 8.364 47.3337 9.988ZM41.9297 9.988C41.9297 11.36 42.0837 12.3867 42.3917 13.068C42.7091 13.7493 43.2457 14.09 44.0017 14.09C44.7484 14.09 45.2804 13.754 45.5977 13.082C45.9244 12.4007 46.0877 11.3693 46.0877 9.988C46.0877 8.62533 45.9244 7.60333 45.5977 6.922C45.2804 6.24067 44.7484 5.9 44.0017 5.9C43.2457 5.9 42.7091 6.24067 42.3917 6.922C42.0837 7.60333 41.9297 8.62533 41.9297 9.988ZM55.3454 9.988C55.3454 11.0707 55.2334 11.9947 55.0094 12.76C54.7854 13.5253 54.4261 14.1133 53.9314 14.524C53.4461 14.9347 52.8068 15.14 52.0134 15.14C50.8841 15.14 50.0488 14.6873 49.5074 13.782C48.9754 12.8673 48.7094 11.6027 48.7094 9.988C48.7094 8.90533 48.8168 7.98133 49.0314 7.216C49.2554 6.45067 49.6101 5.86733 50.0954 5.466C50.5808 5.05533 51.2201 4.85 52.0134 4.85C53.1334 4.85 53.9688 5.30267 54.5194 6.208C55.0701 7.104 55.3454 8.364 55.3454 9.988ZM49.9414 9.988C49.9414 11.36 50.0954 12.3867 50.4034 13.068C50.7208 13.7493 51.2574 14.09 52.0134 14.09C52.7601 14.09 53.2921 13.754 53.6094 13.082C53.9361 12.4007 54.0994 11.3693 54.0994 9.988C54.0994 8.62533 53.9361 7.60333 53.6094 6.922C53.2921 6.24067 52.7601 5.9 52.0134 5.9C51.2574 5.9 50.7208 6.24067 50.4034 6.922C50.0954 7.60333 49.9414 8.62533 49.9414 9.988Z" fill="#535965"/>
<defs>
<linearGradient id="paint0_linear_121_4588" x1="0" y1="6" x2="0" y2="111" gradientUnits="userSpaceOnUse">
<stop stop-color="#FACA4A"/>
<stop offset="0.343565" stop-color="#66D467"/>
<stop offset="0.651042" stop-color="#2DBAFC"/>
<stop offset="1" stop-color="#0D2ED1"/>
</linearGradient>
</defs>
</svg>
