<svg width="356" height="178" viewBox="0 0 356 178" fill="none" xmlns="http://www.w3.org/2000/svg">
<g clip-path="url(#clip0_166_5839)">
<rect x="139.365" y="50.688" width="72.2118" height="50.688" fill="#264AE5"/>
<path d="M172.429 80H171.225V73.014C171.225 72.6127 171.229 72.2907 171.239 72.048C171.248 71.8053 171.262 71.5533 171.281 71.292C171.131 71.4413 170.991 71.5673 170.861 71.67C170.739 71.7727 170.59 71.9033 170.413 72.062L169.349 72.93L168.705 72.104L171.407 70.004H172.429V80ZM182.792 74.988C182.792 76.0707 182.68 76.9947 182.456 77.76C182.232 78.5253 181.873 79.1133 181.378 79.524C180.893 79.9347 180.254 80.14 179.46 80.14C178.331 80.14 177.496 79.6873 176.954 78.782C176.422 77.8673 176.156 76.6027 176.156 74.988C176.156 73.9053 176.264 72.9813 176.478 72.216C176.702 71.4507 177.057 70.8673 177.542 70.466C178.028 70.0553 178.667 69.85 179.46 69.85C180.58 69.85 181.416 70.3027 181.966 71.208C182.517 72.104 182.792 73.364 182.792 74.988ZM177.388 74.988C177.388 76.36 177.542 77.3867 177.85 78.068C178.168 78.7493 178.704 79.09 179.46 79.09C180.207 79.09 180.739 78.754 181.056 78.082C181.383 77.4007 181.546 76.3693 181.546 74.988C181.546 73.6253 181.383 72.6033 181.056 71.922C180.739 71.2407 180.207 70.9 179.46 70.9C178.704 70.9 178.168 71.2407 177.85 71.922C177.542 72.6033 177.388 73.6253 177.388 74.988Z" fill="white"/>
<rect x="283.788" y="50.688" width="72.2118" height="50.688" fill="#264AE5"/>
<path d="M316.852 80H315.648V73.014C315.648 72.6127 315.653 72.2907 315.662 72.048C315.672 71.8053 315.686 71.5533 315.704 71.292C315.555 71.4413 315.415 71.5673 315.284 71.67C315.163 71.7727 315.014 71.9033 314.836 72.062L313.772 72.93L313.128 72.104L315.83 70.004H316.852V80ZM327.216 74.988C327.216 76.0707 327.104 76.9947 326.88 77.76C326.656 78.5253 326.297 79.1133 325.802 79.524C325.317 79.9347 324.677 80.14 323.884 80.14C322.755 80.14 321.919 79.6873 321.378 78.782C320.846 77.8673 320.58 76.6027 320.58 74.988C320.58 73.9053 320.687 72.9813 320.902 72.216C321.126 71.4507 321.481 70.8673 321.966 70.466C322.451 70.0553 323.091 69.85 323.884 69.85C325.004 69.85 325.839 70.3027 326.39 71.208C326.941 72.104 327.216 73.364 327.216 74.988ZM321.812 74.988C321.812 76.36 321.966 77.3867 322.274 78.068C322.591 78.7493 323.128 79.09 323.884 79.09C324.631 79.09 325.163 78.754 325.48 78.082C325.807 77.4007 325.97 76.3693 325.97 74.988C325.97 73.6253 325.807 72.6033 325.48 71.922C325.163 71.2407 324.631 70.9 323.884 70.9C323.128 70.9 322.591 71.2407 322.274 71.922C321.966 72.6033 321.812 73.6253 321.812 74.988Z" fill="white"/>
<rect x="211.576" y="101.376" width="72.2118" height="50.688" fill="#264AE5"/>
<path d="M244.641 130.274H243.437V123.288C243.437 122.887 243.441 122.565 243.451 122.322C243.46 122.08 243.474 121.828 243.493 121.566C243.343 121.716 243.203 121.842 243.073 121.944C242.951 122.047 242.802 122.178 242.625 122.336L241.561 123.204L240.917 122.378L243.619 120.278H244.641V130.274ZM255.004 125.262C255.004 126.345 254.892 127.269 254.668 128.034C254.444 128.8 254.085 129.388 253.59 129.798C253.105 130.209 252.466 130.414 251.672 130.414C250.543 130.414 249.708 129.962 249.166 129.056C248.634 128.142 248.368 126.877 248.368 125.262C248.368 124.18 248.476 123.256 248.69 122.49C248.914 121.725 249.269 121.142 249.754 120.74C250.24 120.33 250.879 120.124 251.672 120.124C252.792 120.124 253.628 120.577 254.178 121.482C254.729 122.378 255.004 123.638 255.004 125.262ZM249.6 125.262C249.6 126.634 249.754 127.661 250.062 128.342C250.38 129.024 250.916 129.364 251.672 129.364C252.419 129.364 252.951 129.028 253.268 128.356C253.595 127.675 253.758 126.644 253.758 125.262C253.758 123.9 253.595 122.878 253.268 122.196C252.951 121.515 252.419 121.174 251.672 121.174C250.916 121.174 250.38 121.515 250.062 122.196C249.754 122.878 249.6 123.9 249.6 125.262Z" fill="white"/>
<rect x="211.576" y="50.688" width="72.2118" height="50.688" fill="#2DBAFC"/>
<path d="M247.398 77.732H245.942V80H244.752V77.732H239.964V76.682L244.668 69.948H245.942V76.626H247.398V77.732ZM244.752 76.626V73.476C244.752 72.9907 244.757 72.58 244.766 72.244C244.785 71.8987 244.804 71.572 244.822 71.264H244.766C244.692 71.4413 244.598 71.6327 244.486 71.838C244.374 72.0433 244.267 72.216 244.164 72.356L241.168 76.626H244.752ZM255.004 74.988C255.004 76.0707 254.892 76.9947 254.668 77.76C254.444 78.5253 254.085 79.1133 253.59 79.524C253.105 79.9347 252.465 80.14 251.672 80.14C250.543 80.14 249.707 79.6873 249.166 78.782C248.634 77.8673 248.368 76.6027 248.368 74.988C248.368 73.9053 248.475 72.9813 248.69 72.216C248.914 71.4507 249.269 70.8673 249.754 70.466C250.239 70.0553 250.879 69.85 251.672 69.85C252.792 69.85 253.627 70.3027 254.178 71.208C254.729 72.104 255.004 73.364 255.004 74.988ZM249.6 74.988C249.6 76.36 249.754 77.3867 250.062 78.068C250.379 78.7493 250.916 79.09 251.672 79.09C252.419 79.09 252.951 78.754 253.268 78.082C253.595 77.4007 253.758 76.3693 253.758 74.988C253.758 73.6253 253.595 72.6033 253.268 71.922C252.951 71.2407 252.419 70.9 251.672 70.9C250.916 70.9 250.379 71.2407 250.062 71.922C249.754 72.6033 249.6 73.6253 249.6 74.988Z" fill="white"/>
<rect x="139.365" y="101.376" width="72.2118" height="50.688" fill="#2DBAFC"/>
<path d="M175.187 128.006H173.731V130.274H172.541V128.006H167.753V126.956L172.457 120.222H173.731V126.9H175.187V128.006ZM172.541 126.9V123.75C172.541 123.265 172.545 122.854 172.555 122.518C172.573 122.173 172.592 121.846 172.611 121.538H172.555C172.48 121.716 172.387 121.907 172.275 122.112C172.163 122.318 172.055 122.49 171.953 122.63L168.957 126.9H172.541ZM182.792 125.262C182.792 126.345 182.68 127.269 182.456 128.034C182.232 128.8 181.873 129.388 181.378 129.798C180.893 130.209 180.254 130.414 179.46 130.414C178.331 130.414 177.496 129.962 176.954 129.056C176.422 128.142 176.156 126.877 176.156 125.262C176.156 124.18 176.264 123.256 176.478 122.49C176.702 121.725 177.057 121.142 177.542 120.74C178.028 120.33 178.667 120.124 179.46 120.124C180.58 120.124 181.416 120.577 181.966 121.482C182.517 122.378 182.792 123.638 182.792 125.262ZM177.388 125.262C177.388 126.634 177.542 127.661 177.85 128.342C178.168 129.024 178.704 129.364 179.46 129.364C180.207 129.364 180.739 129.028 181.056 128.356C181.383 127.675 181.546 126.644 181.546 125.262C181.546 123.9 181.383 122.878 181.056 122.196C180.739 121.515 180.207 121.174 179.46 121.174C178.704 121.174 178.168 121.515 177.85 122.196C177.542 122.878 177.388 123.9 177.388 125.262Z" fill="white"/>
<rect x="139.365" width="72.2118" height="50.688" fill="#2DBAFC"/>
<path d="M174.861 29.0064H173.405V31.2744H172.215V29.0064H167.427V27.9564L172.131 21.2224H173.405V27.9004H174.861V29.0064ZM172.215 27.9004V24.7504C172.215 24.2651 172.22 23.8544 172.229 23.5184C172.248 23.173 172.266 22.8464 172.285 22.5384H172.229C172.154 22.7157 172.061 22.9071 171.949 23.1124C171.837 23.3177 171.73 23.4904 171.627 23.6304L168.631 27.9004H172.215ZM182.467 26.2624C182.467 27.3451 182.355 28.2691 182.131 29.0344C181.907 29.7997 181.547 30.3877 181.053 30.7984C180.567 31.2091 179.928 31.4144 179.135 31.4144C178.005 31.4144 177.17 30.9617 176.629 30.0564C176.097 29.1417 175.831 27.8771 175.831 26.2624C175.831 25.1797 175.938 24.2557 176.153 23.4904C176.377 22.725 176.731 22.1417 177.217 21.7404C177.702 21.3297 178.341 21.1244 179.135 21.1244C180.255 21.1244 181.09 21.577 181.641 22.4824C182.191 23.3784 182.467 24.6384 182.467 26.2624ZM177.063 26.2624C177.063 27.6344 177.217 28.6611 177.525 29.3424C177.842 30.0237 178.379 30.3644 179.135 30.3644C179.881 30.3644 180.413 30.0284 180.731 29.3564C181.057 28.6751 181.221 27.6437 181.221 26.2624C181.221 24.8997 181.057 23.8777 180.731 23.1964C180.413 22.515 179.881 22.1744 179.135 22.1744C178.379 22.1744 177.842 22.515 177.525 23.1964C177.217 23.8777 177.063 24.8997 177.063 26.2624Z" fill="white"/>
<rect x="283.788" width="72.2118" height="50.688" fill="#2DBAFC"/>
<path d="M319.61 29.0064H318.154V31.2744H316.964V29.0064H312.176V27.9564L316.88 21.2224H318.154V27.9004H319.61V29.0064ZM316.964 27.9004V24.7504C316.964 24.2651 316.969 23.8544 316.978 23.5184C316.997 23.173 317.016 22.8464 317.034 22.5384H316.978C316.904 22.7157 316.81 22.9071 316.698 23.1124C316.586 23.3177 316.479 23.4904 316.376 23.6304L313.38 27.9004H316.964ZM327.216 26.2624C327.216 27.3451 327.104 28.2691 326.88 29.0344C326.656 29.7997 326.297 30.3877 325.802 30.7984C325.317 31.2091 324.677 31.4144 323.884 31.4144C322.755 31.4144 321.919 30.9617 321.378 30.0564C320.846 29.1417 320.58 27.8771 320.58 26.2624C320.58 25.1797 320.687 24.2557 320.902 23.4904C321.126 22.725 321.481 22.1417 321.966 21.7404C322.451 21.3297 323.091 21.1244 323.884 21.1244C325.004 21.1244 325.839 21.577 326.39 22.4824C326.941 23.3784 327.216 24.6384 327.216 26.2624ZM321.812 26.2624C321.812 27.6344 321.966 28.6611 322.274 29.3424C322.591 30.0237 323.128 30.3644 323.884 30.3644C324.631 30.3644 325.163 30.0284 325.48 29.3564C325.807 28.6751 325.97 27.6437 325.97 26.2624C325.97 24.8997 325.807 23.8777 325.48 23.1964C325.163 22.515 324.631 22.1744 323.884 22.1744C323.128 22.1744 322.591 22.515 322.274 23.1964C321.966 23.8777 321.812 24.8997 321.812 26.2624Z" fill="white"/>
<rect x="67.1526" y="50.688" width="72.2118" height="50.688" fill="#2DBAFC"/>
<path d="M102.975 77.732H101.519V80H100.329V77.732H95.5407V76.682L100.245 69.948H101.519V76.626H102.975V77.732ZM100.329 76.626V73.476C100.329 72.9907 100.333 72.58 100.343 72.244C100.361 71.8987 100.38 71.572 100.399 71.264H100.343C100.268 71.4413 100.175 71.6327 100.063 71.838C99.9507 72.0433 99.8434 72.216 99.7407 72.356L96.7447 76.626H100.329ZM110.58 74.988C110.58 76.0707 110.468 76.9947 110.244 77.76C110.02 78.5253 109.661 79.1133 109.166 79.524C108.681 79.9347 108.042 80.14 107.248 80.14C106.119 80.14 105.284 79.6873 104.742 78.782C104.21 77.8673 103.944 76.6027 103.944 74.988C103.944 73.9053 104.052 72.9813 104.266 72.216C104.49 71.4507 104.845 70.8673 105.33 70.466C105.816 70.0553 106.455 69.85 107.248 69.85C108.368 69.85 109.204 70.3027 109.754 71.208C110.305 72.104 110.58 73.364 110.58 74.988ZM105.176 74.988C105.176 76.36 105.33 77.3867 105.638 78.068C105.956 78.7493 106.492 79.09 107.248 79.09C107.995 79.09 108.527 78.754 108.844 78.082C109.171 77.4007 109.334 76.3693 109.334 74.988C109.334 73.6253 109.171 72.6033 108.844 71.922C108.527 71.2407 107.995 70.9 107.248 70.9C106.492 70.9 105.956 71.2407 105.638 71.922C105.33 72.6033 105.176 73.6253 105.176 74.988Z" fill="white"/>
<rect x="211.576" width="72.2118" height="50.688" fill="#F2B42A"/>
<path d="M246.951 25.5484C246.951 26.2671 246.885 26.9764 246.755 27.6764C246.633 28.3671 246.405 28.9971 246.069 29.5664C245.742 30.1264 245.275 30.5744 244.669 30.9104C244.071 31.2464 243.301 31.4144 242.359 31.4144C242.172 31.4144 241.953 31.4004 241.701 31.3724C241.449 31.3537 241.248 31.3211 241.099 31.2744V30.2244C241.463 30.3457 241.873 30.4064 242.331 30.4064C242.984 30.4064 243.521 30.2991 243.941 30.0844C244.37 29.8697 244.711 29.5804 244.963 29.2164C245.215 28.8431 245.397 28.4137 245.509 27.9284C245.621 27.4337 245.686 26.9157 245.705 26.3744H245.621C245.406 26.6917 245.107 26.9671 244.725 27.2004C244.342 27.4244 243.847 27.5364 243.241 27.5364C242.382 27.5364 241.687 27.275 241.155 26.7524C240.632 26.2204 240.371 25.4737 240.371 24.5124C240.371 23.8124 240.501 23.2104 240.763 22.7064C241.024 22.2024 241.393 21.815 241.869 21.5444C242.354 21.2737 242.919 21.1384 243.563 21.1384C244.197 21.1384 244.771 21.3017 245.285 21.6284C245.798 21.9457 246.204 22.431 246.503 23.0844C246.801 23.7284 246.951 24.5497 246.951 25.5484ZM243.563 22.1744C242.984 22.1744 242.508 22.3657 242.135 22.7484C241.771 23.131 241.589 23.7144 241.589 24.4984C241.589 25.1424 241.743 25.651 242.051 26.0244C242.368 26.3884 242.853 26.5704 243.507 26.5704C243.955 26.5704 244.342 26.4817 244.669 26.3044C244.995 26.1177 245.247 25.8844 245.425 25.6044C245.611 25.3244 245.705 25.035 245.705 24.7364C245.705 24.335 245.625 23.9384 245.467 23.5464C245.308 23.1544 245.07 22.8277 244.753 22.5664C244.435 22.305 244.039 22.1744 243.563 22.1744ZM255.004 26.2624C255.004 27.3451 254.892 28.2691 254.668 29.0344C254.444 29.7997 254.085 30.3877 253.59 30.7984C253.105 31.2091 252.466 31.4144 251.672 31.4144C250.543 31.4144 249.708 30.9617 249.166 30.0564C248.634 29.1417 248.368 27.8771 248.368 26.2624C248.368 25.1797 248.476 24.2557 248.69 23.4904C248.914 22.725 249.269 22.1417 249.754 21.7404C250.24 21.3297 250.879 21.1244 251.672 21.1244C252.792 21.1244 253.628 21.577 254.178 22.4824C254.729 23.3784 255.004 24.6384 255.004 26.2624ZM249.6 26.2624C249.6 27.6344 249.754 28.6611 250.062 29.3424C250.38 30.0237 250.916 30.3644 251.672 30.3644C252.419 30.3644 252.951 30.0284 253.268 29.3564C253.595 28.6751 253.758 27.6437 253.758 26.2624C253.758 24.8997 253.595 23.8777 253.268 23.1964C252.951 22.515 252.419 22.1744 251.672 22.1744C250.916 22.1744 250.38 22.515 250.062 23.1964C249.754 23.8777 249.6 24.8997 249.6 26.2624Z" fill="#2F3646"/>
<rect x="67.1526" width="72.2118" height="50.688" fill="#6CE66C"/>
<path d="M97.8729 31.2744L101.975 22.3984H96.5849V21.2784H103.291V22.2304L99.2309 31.2744H97.8729ZM111.303 26.2624C111.303 27.3451 111.191 28.2691 110.967 29.0344C110.743 29.7997 110.383 30.3877 109.889 30.7984C109.403 31.2091 108.764 31.4144 107.971 31.4144C106.841 31.4144 106.006 30.9617 105.465 30.0564C104.933 29.1417 104.667 27.8771 104.667 26.2624C104.667 25.1797 104.774 24.2557 104.989 23.4904C105.213 22.725 105.567 22.1417 106.053 21.7404C106.538 21.3297 107.177 21.1244 107.971 21.1244C109.091 21.1244 109.926 21.577 110.477 22.4824C111.027 23.3784 111.303 24.6384 111.303 26.2624ZM105.899 26.2624C105.899 27.6344 106.053 28.6611 106.361 29.3424C106.678 30.0237 107.215 30.3644 107.971 30.3644C108.717 30.3644 109.249 30.0284 109.567 29.3564C109.893 28.6751 110.057 27.6437 110.057 26.2624C110.057 24.8997 109.893 23.8777 109.567 23.1964C109.249 22.515 108.717 22.1744 107.971 22.1744C107.215 22.1744 106.678 22.515 106.361 23.1964C106.053 23.8777 105.899 24.8997 105.899 26.2624Z" fill="#2F3646"/>
<rect x="67.1526" y="101.376" width="72.2118" height="50.688" fill="#F2B42A"/>
<path d="M102.527 124.548C102.527 125.267 102.461 125.976 102.331 126.676C102.209 127.367 101.981 127.997 101.645 128.566C101.318 129.126 100.851 129.574 100.245 129.91C99.6474 130.246 98.8774 130.414 97.9347 130.414C97.748 130.414 97.5287 130.4 97.2767 130.372C97.0247 130.354 96.824 130.321 96.6747 130.274V129.224C97.0387 129.346 97.4494 129.406 97.9067 129.406C98.56 129.406 99.0967 129.299 99.5167 129.084C99.946 128.87 100.287 128.58 100.539 128.216C100.791 127.843 100.973 127.414 101.085 126.928C101.197 126.434 101.262 125.916 101.281 125.374H101.197C100.982 125.692 100.683 125.967 100.301 126.2C99.918 126.424 99.4234 126.536 98.8167 126.536C97.958 126.536 97.2627 126.275 96.7307 125.752C96.208 125.22 95.9467 124.474 95.9467 123.512C95.9467 122.812 96.0774 122.21 96.3387 121.706C96.6 121.202 96.9687 120.815 97.4447 120.544C97.93 120.274 98.4947 120.138 99.1387 120.138C99.7734 120.138 100.347 120.302 100.861 120.628C101.374 120.946 101.78 121.431 102.079 122.084C102.377 122.728 102.527 123.55 102.527 124.548ZM99.1387 121.174C98.56 121.174 98.084 121.366 97.7107 121.748C97.3467 122.131 97.1647 122.714 97.1647 123.498C97.1647 124.142 97.3187 124.651 97.6267 125.024C97.944 125.388 98.4294 125.57 99.0827 125.57C99.5307 125.57 99.918 125.482 100.245 125.304C100.571 125.118 100.823 124.884 101.001 124.604C101.187 124.324 101.281 124.035 101.281 123.736C101.281 123.335 101.201 122.938 101.043 122.546C100.884 122.154 100.646 121.828 100.329 121.566C100.011 121.305 99.6147 121.174 99.1387 121.174ZM110.58 125.262C110.58 126.345 110.468 127.269 110.244 128.034C110.02 128.8 109.661 129.388 109.166 129.798C108.681 130.209 108.042 130.414 107.248 130.414C106.119 130.414 105.284 129.962 104.742 129.056C104.21 128.142 103.944 126.877 103.944 125.262C103.944 124.18 104.052 123.256 104.266 122.49C104.49 121.725 104.845 121.142 105.33 120.74C105.816 120.33 106.455 120.124 107.248 120.124C108.368 120.124 109.204 120.577 109.754 121.482C110.305 122.378 110.58 123.638 110.58 125.262ZM105.176 125.262C105.176 126.634 105.33 127.661 105.638 128.342C105.956 129.024 106.492 129.364 107.248 129.364C107.995 129.364 108.527 129.028 108.844 128.356C109.171 127.675 109.334 126.644 109.334 125.262C109.334 123.9 109.171 122.878 108.844 122.196C108.527 121.515 107.995 121.174 107.248 121.174C106.492 121.174 105.956 121.515 105.638 122.196C105.33 122.878 105.176 123.9 105.176 125.262Z" fill="#2F3646"/>
<rect x="283.408" y="101.55" width="72.2118" height="50.688" fill="#6CE66C"/>
<path d="M314.508 130.274L318.61 121.398H313.22V120.278H319.926V121.23L315.866 130.274H314.508ZM327.938 125.262C327.938 126.345 327.826 127.269 327.602 128.034C327.378 128.8 327.019 129.388 326.524 129.798C326.039 130.209 325.399 130.414 324.606 130.414C323.477 130.414 322.641 129.962 322.1 129.056C321.568 128.142 321.302 126.877 321.302 125.262C321.302 124.18 321.409 123.256 321.624 122.49C321.848 121.725 322.203 121.142 322.688 120.74C323.173 120.33 323.813 120.124 324.606 120.124C325.726 120.124 326.561 120.577 327.112 121.482C327.663 122.378 327.938 123.638 327.938 125.262ZM322.534 125.262C322.534 126.634 322.688 127.661 322.996 128.342C323.313 129.024 323.85 129.364 324.606 129.364C325.353 129.364 325.885 129.028 326.202 128.356C326.529 127.675 326.692 126.644 326.692 125.262C326.692 123.9 326.529 122.878 326.202 122.196C325.885 121.515 325.353 121.174 324.606 121.174C323.85 121.174 323.313 121.515 322.996 122.196C322.688 122.878 322.534 123.9 322.534 125.262Z" fill="#2F3646"/>
</g>
<path d="M32.8137 128.933H31.5537V124.271H26.4297V128.933H25.1697V118.937H26.4297V123.165H31.5537V118.937H32.8137V128.933ZM36.0087 118.615C36.1953 118.615 36.3587 118.68 36.4987 118.811C36.648 118.932 36.7227 119.128 36.7227 119.399C36.7227 119.67 36.648 119.87 36.4987 120.001C36.3587 120.122 36.1953 120.183 36.0087 120.183C35.8033 120.183 35.6307 120.122 35.4907 120.001C35.3507 119.87 35.2807 119.67 35.2807 119.399C35.2807 119.128 35.3507 118.932 35.4907 118.811C35.6307 118.68 35.8033 118.615 36.0087 118.615ZM36.6107 121.429V128.933H35.3787V121.429H36.6107ZM41.6481 121.289C42.1427 121.289 42.5861 121.382 42.9781 121.569C43.3794 121.756 43.7201 122.04 44.0001 122.423H44.0701L44.2381 121.429H45.2181V129.059C45.2181 130.132 44.9427 130.94 44.3921 131.481C43.8507 132.022 43.0061 132.293 41.8581 132.293C40.7567 132.293 39.8561 132.134 39.1561 131.817V130.683C39.8934 131.075 40.8174 131.271 41.9281 131.271C42.5721 131.271 43.0761 131.08 43.4401 130.697C43.8134 130.324 44.0001 129.81 44.0001 129.157V128.863C44.0001 128.751 44.0047 128.592 44.0141 128.387C44.0234 128.172 44.0327 128.023 44.0421 127.939H43.9861C43.4821 128.695 42.7074 129.073 41.6621 129.073C40.6914 129.073 39.9307 128.732 39.3801 128.051C38.8387 127.37 38.5681 126.418 38.5681 125.195C38.5681 124 38.8387 123.053 39.3801 122.353C39.9307 121.644 40.6867 121.289 41.6481 121.289ZM41.8161 122.325C41.1907 122.325 40.7054 122.577 40.3601 123.081C40.0147 123.576 39.8421 124.285 39.8421 125.209C39.8421 126.133 40.0101 126.842 40.3461 127.337C40.6821 127.822 41.1814 128.065 41.8441 128.065C42.6001 128.065 43.1507 127.864 43.4961 127.463C43.8414 127.052 44.0141 126.394 44.0141 125.489V125.195C44.0141 124.178 43.8367 123.445 43.4821 122.997C43.1274 122.549 42.5721 122.325 41.8161 122.325ZM48.8333 118.293V121.415C48.8333 121.788 48.81 122.138 48.7633 122.465H48.8473C49.09 122.082 49.4167 121.793 49.8273 121.597C50.2473 121.401 50.7 121.303 51.1853 121.303C52.0907 121.303 52.772 121.522 53.2293 121.961C53.696 122.39 53.9293 123.086 53.9293 124.047V128.933H52.7113V124.131C52.7113 122.927 52.1513 122.325 51.0313 122.325C50.1913 122.325 49.6127 122.563 49.2953 123.039C48.9873 123.506 48.8333 124.178 48.8333 125.055V128.933H47.6013V118.293H48.8333Z" fill="#535965"/>
<path d="M30.1422 74.2738V64.2778H31.4022V73.1538H35.7702V74.2738H30.1422ZM43.84 70.5078C43.84 71.7491 43.5227 72.7105 42.888 73.3918C42.2627 74.0731 41.4133 74.4138 40.34 74.4138C39.6773 74.4138 39.0847 74.2645 38.562 73.9658C38.0487 73.6578 37.6427 73.2145 37.344 72.6358C37.0453 72.0478 36.896 71.3385 36.896 70.5078C36.896 69.2665 37.204 68.3098 37.82 67.6378C38.4453 66.9658 39.2993 66.6298 40.382 66.6298C41.054 66.6298 41.6513 66.7838 42.174 67.0918C42.6967 67.3905 43.1027 67.8291 43.392 68.4078C43.6907 68.9771 43.84 69.6771 43.84 70.5078ZM38.17 70.5078C38.17 71.3945 38.3427 72.0991 38.688 72.6218C39.0427 73.1351 39.6027 73.3918 40.368 73.3918C41.124 73.3918 41.6793 73.1351 42.034 72.6218C42.3887 72.0991 42.566 71.3945 42.566 70.5078C42.566 69.6211 42.3887 68.9258 42.034 68.4218C41.6793 67.9178 41.1193 67.6658 40.354 67.6658C39.5887 67.6658 39.0333 67.9178 38.688 68.4218C38.3427 68.9258 38.17 69.6211 38.17 70.5078ZM51.6511 74.2598L50.3631 70.0318C50.2418 69.6491 50.1345 69.2758 50.0411 68.9118C49.9478 68.5478 49.8825 68.2585 49.8451 68.0438H49.7891C49.7518 68.2585 49.6911 68.5478 49.6071 68.9118C49.5231 69.2758 49.4158 69.6538 49.2851 70.0458L47.9411 74.2598H46.5411L44.4831 66.7558H45.7571L46.7931 70.7598C46.8958 71.1611 46.9938 71.5671 47.0871 71.9778C47.1805 72.3885 47.2458 72.7291 47.2831 72.9998H47.3391C47.3671 72.8411 47.4091 72.6451 47.4651 72.4118C47.5211 72.1785 47.5818 71.9358 47.6471 71.6838C47.7125 71.4225 47.7778 71.1891 47.8431 70.9838L49.1731 66.7558H50.5171L51.8051 70.9838C51.8985 71.3105 51.9965 71.6605 52.0991 72.0338C52.2018 72.4071 52.2718 72.7245 52.3091 72.9858H52.3651C52.3931 72.7525 52.4538 72.4305 52.5471 72.0198C52.6498 71.6091 52.7571 71.1891 52.8691 70.7598L53.9191 66.7558H55.1791L53.0931 74.2598H51.6511Z" fill="#535965"/>
<path d="M5.82413 23.5858L2.53413 14.8218H2.47813C2.50613 15.1112 2.52946 15.5032 2.54813 15.9978C2.5668 16.4832 2.57613 16.9918 2.57613 17.5238V23.5858H1.41413V13.5898H3.27613L6.35613 21.7798H6.41213L9.54813 13.5898H11.3961V23.5858H10.1501V17.4398C10.1501 16.9545 10.1595 16.4738 10.1781 15.9978C10.2061 15.5218 10.2295 15.1345 10.2481 14.8358H10.1921L6.86013 23.5858H5.82413ZM16.8453 15.9418C17.48 15.9418 18.0306 16.0818 18.4973 16.3618C18.964 16.6418 19.3186 17.0385 19.5613 17.5518C19.8133 18.0558 19.9393 18.6485 19.9393 19.3298V20.0718H14.8013C14.82 20.9212 15.0346 21.5698 15.4453 22.0178C15.8653 22.4565 16.4486 22.6758 17.1953 22.6758C17.6713 22.6758 18.0913 22.6338 18.4553 22.5498C18.8286 22.4565 19.2113 22.3258 19.6033 22.1578V23.2358C19.2206 23.4038 18.8426 23.5252 18.4693 23.5998C18.096 23.6838 17.6526 23.7258 17.1393 23.7258C16.4206 23.7258 15.7906 23.5812 15.2493 23.2918C14.708 23.0025 14.2833 22.5732 13.9753 22.0038C13.6766 21.4345 13.5273 20.7298 13.5273 19.8898C13.5273 19.0685 13.6626 18.3638 13.9333 17.7758C14.2133 17.1878 14.6006 16.7352 15.0953 16.4178C15.5993 16.1005 16.1826 15.9418 16.8453 15.9418ZM16.8313 16.9498C16.2433 16.9498 15.7766 17.1412 15.4313 17.5238C15.0953 17.8972 14.8946 18.4198 14.8293 19.0918H18.6513C18.642 18.4572 18.4926 17.9438 18.2033 17.5518C17.914 17.1505 17.4566 16.9498 16.8313 16.9498ZM24.5096 23.7258C23.5763 23.7258 22.8296 23.4038 22.2696 22.7598C21.7096 22.1065 21.4296 21.1358 21.4296 19.8478C21.4296 18.5598 21.7096 17.5892 22.2696 16.9358C22.839 16.2732 23.5903 15.9418 24.5236 15.9418C25.1023 15.9418 25.5736 16.0492 25.9376 16.2638C26.311 16.4785 26.6143 16.7398 26.8476 17.0478H26.9316C26.913 16.9265 26.8943 16.7492 26.8756 16.5158C26.857 16.2732 26.8476 16.0818 26.8476 15.9418V12.9458H28.0796V23.5858H27.0856L26.9036 22.5778H26.8476C26.6236 22.8952 26.325 23.1658 25.9516 23.3898C25.5783 23.6138 25.0976 23.7258 24.5096 23.7258ZM24.7056 22.7038C25.499 22.7038 26.0543 22.4892 26.3716 22.0598C26.6983 21.6212 26.8616 20.9632 26.8616 20.0858V19.8618C26.8616 18.9285 26.7076 18.2145 26.3996 17.7198C26.0916 17.2158 25.5223 16.9638 24.6916 16.9638C24.029 16.9638 23.5296 17.2298 23.1936 17.7618C22.867 18.2845 22.7036 18.9892 22.7036 19.8758C22.7036 20.7718 22.867 21.4672 23.1936 21.9618C23.5296 22.4565 24.0336 22.7038 24.7056 22.7038ZM31.0929 13.2678C31.2796 13.2678 31.4429 13.3332 31.5829 13.4638C31.7323 13.5852 31.8069 13.7812 31.8069 14.0518C31.8069 14.3225 31.7323 14.5232 31.5829 14.6538C31.4429 14.7752 31.2796 14.8358 31.0929 14.8358C30.8876 14.8358 30.7149 14.7752 30.5749 14.6538C30.4349 14.5232 30.3649 14.3225 30.3649 14.0518C30.3649 13.7812 30.4349 13.5852 30.5749 13.4638C30.7149 13.3332 30.8876 13.2678 31.0929 13.2678ZM31.6949 16.0818V23.5858H30.4629V16.0818H31.6949ZM40.3443 16.0818V23.5858H39.3363L39.1543 22.5918H39.0983C38.8556 22.9838 38.5196 23.2732 38.0903 23.4598C37.661 23.6372 37.2036 23.7258 36.7183 23.7258C35.813 23.7258 35.1316 23.5112 34.6743 23.0818C34.217 22.6432 33.9883 21.9478 33.9883 20.9958V16.0818H35.2343V20.9118C35.2343 22.1065 35.7896 22.7038 36.9003 22.7038C37.731 22.7038 38.305 22.4705 38.6223 22.0038C38.949 21.5372 39.1123 20.8652 39.1123 19.9878V16.0818H40.3443ZM50.9586 15.9418C51.8079 15.9418 52.4426 16.1612 52.8626 16.5998C53.2826 17.0385 53.4926 17.7385 53.4926 18.6998V23.5858H52.2746V18.7558C52.2746 17.5705 51.7659 16.9778 50.7486 16.9778C50.0206 16.9778 49.4979 17.1878 49.1806 17.6078C48.8726 18.0278 48.7186 18.6392 48.7186 19.4418V23.5858H47.5006V18.7558C47.5006 17.5705 46.9873 16.9778 45.9606 16.9778C45.2046 16.9778 44.6819 17.2112 44.3926 17.6778C44.1033 18.1445 43.9586 18.8165 43.9586 19.6938V23.5858H42.7266V16.0818H43.7206L43.9026 17.1038H43.9726C44.2059 16.7118 44.5186 16.4225 44.9106 16.2358C45.3119 16.0398 45.7366 15.9418 46.1846 15.9418C47.3606 15.9418 48.1259 16.3618 48.4806 17.2018H48.5506C48.8026 16.7725 49.1433 16.4552 49.5726 16.2498C50.0019 16.0445 50.4639 15.9418 50.9586 15.9418Z" fill="#535965"/>
<path d="M91.8854 175.65L88.5954 166.886H88.5394C88.5674 167.175 88.5907 167.567 88.6094 168.062C88.628 168.547 88.6374 169.056 88.6374 169.588V175.65H87.4754V165.654H89.3374L92.4174 173.844H92.4734L95.6094 165.654H97.4574V175.65H96.2114V169.504C96.2114 169.018 96.2207 168.538 96.2394 168.062C96.2674 167.586 96.2907 167.198 96.3094 166.9H96.2534L92.9214 175.65H91.8854ZM106.533 171.884C106.533 173.125 106.215 174.086 105.581 174.768C104.955 175.449 104.106 175.79 103.033 175.79C102.37 175.79 101.777 175.64 101.255 175.342C100.741 175.034 100.335 174.59 100.037 174.012C99.7379 173.424 99.5885 172.714 99.5885 171.884C99.5885 170.642 99.8965 169.686 100.513 169.014C101.138 168.342 101.992 168.006 103.075 168.006C103.747 168.006 104.344 168.16 104.867 168.468C105.389 168.766 105.795 169.205 106.085 169.784C106.383 170.353 106.533 171.053 106.533 171.884ZM100.863 171.884C100.863 172.77 101.035 173.475 101.381 173.998C101.735 174.511 102.295 174.768 103.061 174.768C103.817 174.768 104.372 174.511 104.727 173.998C105.081 173.475 105.259 172.77 105.259 171.884C105.259 170.997 105.081 170.302 104.727 169.798C104.372 169.294 103.812 169.042 103.047 169.042C102.281 169.042 101.726 169.294 101.381 169.798C101.035 170.302 100.863 170.997 100.863 171.884ZM112.097 168.006C112.993 168.006 113.67 168.225 114.127 168.664C114.584 169.102 114.813 169.802 114.813 170.764V175.65H113.595V170.848C113.595 169.644 113.035 169.042 111.915 169.042C111.084 169.042 110.51 169.275 110.193 169.742C109.876 170.208 109.717 170.88 109.717 171.758V175.65H108.485V168.146H109.479L109.661 169.168H109.731C109.974 168.776 110.31 168.486 110.739 168.3C111.168 168.104 111.621 168.006 112.097 168.006Z" fill="#535965"/>
<path d="M167.025 175.65H165.765V166.76H162.643V165.654H170.133V166.76H167.025V175.65ZM177.047 168.146V175.65H176.039L175.857 174.656H175.801C175.558 175.048 175.222 175.337 174.793 175.524C174.364 175.701 173.906 175.79 173.421 175.79C172.516 175.79 171.834 175.575 171.377 175.146C170.92 174.707 170.691 174.012 170.691 173.06V168.146H171.937V172.976C171.937 174.17 172.492 174.768 173.603 174.768C174.434 174.768 175.008 174.534 175.325 174.068C175.652 173.601 175.815 172.929 175.815 172.052V168.146H177.047ZM182.327 168.006C182.962 168.006 183.513 168.146 183.979 168.426C184.446 168.706 184.801 169.102 185.043 169.616C185.295 170.12 185.421 170.712 185.421 171.394V172.136H180.283C180.302 172.985 180.517 173.634 180.927 174.082C181.347 174.52 181.931 174.74 182.677 174.74C183.153 174.74 183.573 174.698 183.937 174.614C184.311 174.52 184.693 174.39 185.085 174.222V175.3C184.703 175.468 184.325 175.589 183.951 175.664C183.578 175.748 183.135 175.79 182.621 175.79C181.903 175.79 181.273 175.645 180.731 175.356C180.19 175.066 179.765 174.637 179.457 174.068C179.159 173.498 179.009 172.794 179.009 171.954C179.009 171.132 179.145 170.428 179.415 169.84C179.695 169.252 180.083 168.799 180.577 168.482C181.081 168.164 181.665 168.006 182.327 168.006ZM182.313 169.014C181.725 169.014 181.259 169.205 180.913 169.588C180.577 169.961 180.377 170.484 180.311 171.156H184.133C184.124 170.521 183.975 170.008 183.685 169.616C183.396 169.214 182.939 169.014 182.313 169.014Z" fill="#535965"/>
<path d="M243.666 165.654L241.006 175.65H239.732L237.786 169.098C237.702 168.836 237.622 168.57 237.548 168.3C237.482 168.02 237.422 167.777 237.366 167.572C237.319 167.357 237.291 167.208 237.282 167.124C237.272 167.245 237.221 167.506 237.128 167.908C237.034 168.3 236.927 168.71 236.806 169.14L234.916 175.65H233.642L230.996 165.654H232.312L233.866 171.758C233.978 172.187 234.071 172.602 234.146 173.004C234.23 173.405 234.295 173.783 234.342 174.138C234.388 173.774 234.458 173.377 234.552 172.948C234.645 172.518 234.752 172.098 234.874 171.688L236.638 165.654H237.94L239.774 171.73C239.904 172.159 240.016 172.588 240.11 173.018C240.203 173.447 240.273 173.82 240.32 174.138C240.357 173.792 240.418 173.419 240.502 173.018C240.595 172.607 240.698 172.182 240.81 171.744L242.35 165.654H243.666ZM247.658 168.006C248.293 168.006 248.843 168.146 249.31 168.426C249.777 168.706 250.131 169.102 250.374 169.616C250.626 170.12 250.752 170.712 250.752 171.394V172.136H245.614C245.633 172.985 245.847 173.634 246.258 174.082C246.678 174.52 247.261 174.74 248.008 174.74C248.484 174.74 248.904 174.698 249.268 174.614C249.641 174.52 250.024 174.39 250.416 174.222V175.3C250.033 175.468 249.655 175.589 249.282 175.664C248.909 175.748 248.465 175.79 247.952 175.79C247.233 175.79 246.603 175.645 246.062 175.356C245.521 175.066 245.096 174.637 244.788 174.068C244.489 173.498 244.34 172.794 244.34 171.954C244.34 171.132 244.475 170.428 244.746 169.84C245.026 169.252 245.413 168.799 245.908 168.482C246.412 168.164 246.995 168.006 247.658 168.006ZM247.644 169.014C247.056 169.014 246.589 169.205 246.244 169.588C245.908 169.961 245.707 170.484 245.642 171.156H249.464C249.455 170.521 249.305 170.008 249.016 169.616C248.727 169.214 248.269 169.014 247.644 169.014ZM255.322 175.79C254.389 175.79 253.642 175.468 253.082 174.824C252.522 174.17 252.242 173.2 252.242 171.912C252.242 170.624 252.522 169.653 253.082 169C253.652 168.337 254.403 168.006 255.336 168.006C255.915 168.006 256.386 168.113 256.75 168.328C257.124 168.542 257.427 168.804 257.66 169.112H257.744C257.726 168.99 257.707 168.813 257.688 168.58C257.67 168.337 257.66 168.146 257.66 168.006V165.01H258.892V175.65H257.898L257.716 174.642H257.66C257.436 174.959 257.138 175.23 256.764 175.454C256.391 175.678 255.91 175.79 255.322 175.79ZM255.518 174.768C256.312 174.768 256.867 174.553 257.184 174.124C257.511 173.685 257.674 173.027 257.674 172.15V171.926C257.674 170.992 257.52 170.278 257.212 169.784C256.904 169.28 256.335 169.028 255.504 169.028C254.842 169.028 254.342 169.294 254.006 169.826C253.68 170.348 253.516 171.053 253.516 171.94C253.516 172.836 253.68 173.531 254.006 174.026C254.342 174.52 254.846 174.768 255.518 174.768Z" fill="#535965"/>
<path d="M309.196 176.1H307.936V167.21H304.814V166.104H312.304V167.21H309.196V176.1ZM314.875 165.46V168.582C314.875 168.955 314.852 169.305 314.805 169.632H314.889C315.132 169.249 315.458 168.96 315.869 168.764C316.289 168.568 316.742 168.47 317.227 168.47C318.132 168.47 318.814 168.689 319.271 169.128C319.738 169.557 319.971 170.253 319.971 171.214V176.1H318.753V171.298C318.753 170.094 318.193 169.492 317.073 169.492C316.233 169.492 315.654 169.73 315.337 170.206C315.029 170.673 314.875 171.345 314.875 172.222V176.1H313.643V165.46H314.875ZM328.569 168.596V176.1H327.561L327.379 175.106H327.323C327.081 175.498 326.745 175.787 326.315 175.974C325.886 176.151 325.429 176.24 324.943 176.24C324.038 176.24 323.357 176.025 322.899 175.596C322.442 175.157 322.213 174.462 322.213 173.51V168.596H323.459V173.426C323.459 174.621 324.015 175.218 325.125 175.218C325.956 175.218 326.53 174.985 326.847 174.518C327.174 174.051 327.337 173.379 327.337 172.502V168.596H328.569Z" fill="#535965"/>
<defs>
<clipPath id="clip0_166_5839">
<rect width="288.847" height="152.064" fill="white" transform="translate(67.1526)"/>
</clipPath>
</defs>
</svg>
