<svg width="720" height="720" viewBox="0 0 720 720" fill="none" xmlns="http://www.w3.org/2000/svg">
<path d="M712 360C712 434.335 688.467 506.762 644.774 566.9C601.081 627.039 539.471 671.801 468.774 694.772C398.077 717.743 321.923 717.743 251.226 694.772C180.529 671.801 118.919 627.039 75.226 566.9L189.136 484.14C215.351 520.223 252.317 547.081 294.736 560.863C337.154 574.646 382.846 574.646 425.264 560.863C467.683 547.081 504.649 520.223 530.864 484.14C557.08 448.057 571.2 404.601 571.2 360H712Z" fill="#F2B42A"/>
<path d="M249.857 25.676C302.797 8.23503 359.122 3.61534 414.196 12.1971C469.27 20.7789 521.518 42.3168 566.642 75.0382C611.765 107.76 648.473 150.729 673.743 200.41C699.014 250.091 712.126 305.063 711.999 360.801L571.199 360.481C571.276 327.038 563.409 294.054 548.246 264.246C533.084 234.437 511.059 208.656 483.985 189.023C456.911 169.39 425.562 156.467 392.517 151.318C359.473 146.169 325.678 148.941 293.914 159.406L249.857 25.676Z" fill="#2DBAFC"/>
<path d="M76.1035 568.103C43.2627 523.301 21.4914 471.363 12.5696 416.534C3.64791 361.706 7.82905 305.545 24.7712 252.642C41.7134 199.74 70.9356 151.598 110.048 112.153C149.161 72.7078 197.054 43.0797 249.812 25.6909L293.887 159.415C262.233 169.848 233.497 187.625 210.029 211.292C186.561 234.959 169.028 263.844 158.863 295.585C148.697 327.327 146.189 361.024 151.542 393.921C156.895 426.818 169.958 457.981 189.662 484.862L76.1035 568.103Z" fill="#264AE5"/>
</svg>
