<svg width="200" height="200" viewBox="0 0 200 200" fill="none" xmlns="http://www.w3.org/2000/svg">
<path d="M192 100C192 119.428 185.849 138.358 174.43 154.076C163.01 169.794 146.907 181.493 128.43 187.497C109.952 193.501 90.048 193.501 71.5704 187.497C53.0928 181.493 36.9902 169.794 25.5704 154.076L55.3423 132.446C62.1941 141.877 71.8557 148.896 82.9423 152.498C94.0288 156.101 105.971 156.101 117.058 152.498C128.144 148.896 137.806 141.877 144.658 132.446C151.51 123.015 155.2 111.657 155.2 100H192Z" fill="#FACA4A"/>
<path d="M71.2127 12.6199C85.0492 8.06143 99.7704 6.85401 114.165 9.09698C128.559 11.3399 142.215 16.9692 154.009 25.5214C165.802 34.0735 175.396 45.3042 182.001 58.2889C188.606 71.2737 192.033 85.6413 192 100.209L155.2 100.126C155.22 91.3848 153.164 82.7642 149.201 74.9734C145.238 67.1825 139.481 60.4441 132.405 55.3128C125.329 50.1815 117.135 46.804 108.499 45.4582C99.8622 44.1124 91.0295 44.8369 82.7276 47.5719L71.2127 12.6199Z" fill="#2DBAFC"/>
<path d="M25.7998 154.391C17.2164 142.681 11.5262 129.106 9.19434 114.776C6.86252 100.446 7.95532 85.7674 12.3834 71.9406C16.8115 58.1138 24.4491 45.5312 34.6718 35.2218C44.8944 24.9123 57.412 17.1686 71.2009 12.6237L82.7205 47.5742C74.4472 50.3011 66.9367 54.9474 60.8031 61.1331C54.6694 67.3187 50.0869 74.8683 47.43 83.1644C44.7732 91.4605 44.1175 100.268 45.5166 108.866C46.9157 117.464 50.3298 125.609 55.4799 132.634L25.7998 154.391Z" fill="#344BCE"/>
</svg>
