<svg width="720" height="720" viewBox="0 0 720 720" fill="none" xmlns="http://www.w3.org/2000/svg">
<path d="M720 360C720 436.025 695.932 510.098 651.246 571.603C606.56 633.108 543.55 678.887 471.246 702.38C398.942 725.873 321.057 725.873 248.754 702.38C176.45 678.887 113.44 633.108 68.7539 571.603L185.252 486.962C212.064 523.865 249.87 551.332 293.252 565.428C336.634 579.524 383.365 579.524 426.748 565.428C470.13 551.333 507.936 523.865 534.748 486.962C561.559 450.059 576 405.615 576 360H720Z" fill="#FFDA70"/>
<path d="M247.354 18.0777C301.497 0.240375 359.102 -4.48431 415.427 4.29252C471.753 13.0694 525.189 35.0968 571.338 68.5618C617.487 102.027 655.029 145.973 680.874 196.783C706.719 247.593 720.129 303.814 719.999 360.819L575.999 360.492C576.077 326.288 568.032 292.556 552.524 262.07C537.017 231.584 514.492 205.216 486.803 185.137C459.114 165.058 427.052 151.842 393.256 146.575C359.461 141.309 324.898 144.144 292.412 154.847L247.354 18.0777Z" fill="#579BF9"/>
<path d="M69.6513 572.832C36.0641 527.012 13.798 473.894 4.6735 417.819C-4.45101 361.745 -0.174833 304.307 17.1524 250.202C34.4796 196.097 64.3659 146.861 104.368 106.52C144.37 66.1785 193.351 35.877 247.308 18.0929L292.385 154.856C260.011 165.526 230.622 183.707 206.621 207.912C182.62 232.117 164.688 261.658 154.291 294.121C143.895 326.584 141.329 361.047 146.804 394.692C152.279 428.336 165.638 460.207 185.791 487.699L69.6513 572.832Z" fill="#344BCE"/>
</svg>
