<svg width="200" height="200" viewBox="0 0 200 200" fill="none" xmlns="http://www.w3.org/2000/svg">
<path d="M191 101C191 120.217 184.916 138.941 173.621 154.488C162.325 170.036 146.397 181.608 128.121 187.546C109.844 193.485 90.1562 193.485 71.8794 187.546C53.6027 181.608 37.6751 170.036 26.3794 154.488L100 101H191Z" fill="#FFDA70"/>
<path d="M71.5256 14.5696C85.2117 10.0608 99.7729 8.86647 114.011 11.0851C128.249 13.3036 141.756 18.8717 153.422 27.3309C165.087 35.7901 174.577 46.8987 181.11 59.7423C187.643 72.5859 191.033 86.7974 191 101.207L100 101L71.5256 14.5696Z" fill="#579BF9"/>
<path d="M26.6063 154.799C18.1162 143.217 12.4878 129.79 10.1814 115.615C7.87488 101.441 8.95581 86.9221 13.3357 73.2456C17.7157 59.5691 25.2703 47.1233 35.3818 36.9259C45.4934 26.7284 57.8749 19.0689 71.5139 14.5735L100 101L26.6063 154.799Z" fill="#344BCE"/>
</svg>
