<svg width="720" height="720" viewBox="0 0 720 720" fill="none" xmlns="http://www.w3.org/2000/svg">
<path d="M720 360C720 436.025 695.932 510.098 651.246 571.603C606.56 633.108 543.55 678.887 471.246 702.38C398.942 725.873 321.057 725.873 248.754 702.38C176.45 678.887 113.44 633.108 68.7539 571.603L360 360H720Z" fill="#FFDA70"/>
<path d="M247.354 18.0777C301.497 0.240375 359.102 -4.48431 415.427 4.29252C471.753 13.0694 525.189 35.0968 571.338 68.5618C617.487 102.027 655.029 145.973 680.874 196.783C706.719 247.593 720.129 303.814 719.999 360.819L360 360L247.354 18.0777Z" fill="#579BF9"/>
<path d="M69.6513 572.832C36.0641 527.012 13.798 473.894 4.6735 417.819C-4.45101 361.745 -0.174833 304.307 17.1524 250.202C34.4796 196.097 64.3659 146.861 104.368 106.52C144.37 66.1785 193.351 35.877 247.308 18.0929L360 360L69.6513 572.832Z" fill="#344BCE"/>
</svg>
