<svg width="301" height="16" viewBox="0 0 301 16" fill="none" xmlns="http://www.w3.org/2000/svg">
<g clip-path="url(#clip0_263_3489)">
<path d="M295.517 0H5.51721C2.75579 0 0.517212 2.23858 0.517212 5V11C0.517212 13.7614 2.75579 16 5.51721 16H295.517C298.279 16 300.517 13.7614 300.517 11V5C300.517 2.23858 298.279 0 295.517 0Z" fill="#DEDEDE"/>
<path d="M221.014 0H5.51721C2.75579 0 0.517212 2.23858 0.517212 5V11C0.517212 13.7614 2.75579 16 5.51721 16H221.014C223.776 16 226.014 13.7614 226.014 11V5C226.014 2.23858 223.776 0 221.014 0Z" fill="#579BF9"/>
<path d="M102.286 12.3637H103.926L107.634 4.9873V3.63645H101.689V4.95747H105.997V5.01713L102.286 12.3637ZM111.926 12.483C113.771 12.483 115.058 11.2302 115.058 9.49582C115.058 7.81684 113.89 6.60662 112.305 6.60662C111.598 6.60662 110.971 6.88787 110.647 7.27139H110.596L110.848 4.95747H114.602V3.63645H109.539L109.084 8.13645L110.511 8.37082C110.805 8.04696 111.359 7.82963 111.883 7.83389C112.842 7.83815 113.532 8.54555 113.528 9.53417C113.532 10.51 112.859 11.2046 111.926 11.2046C111.137 11.2046 110.503 10.706 110.447 9.99014H108.913C108.956 11.439 110.221 12.483 111.926 12.483ZM121.152 10.7273C121.156 11.7415 121.799 12.6066 122.997 12.6066C124.19 12.6066 124.846 11.7415 124.842 10.7273V10.2671C124.846 9.2444 124.207 8.38787 122.997 8.38787C121.816 8.38787 121.156 9.25292 121.152 10.2671V10.7273ZM116.716 5.73304C116.72 6.74724 117.363 7.60378 118.565 7.60378C119.754 7.60378 120.41 6.75577 120.406 5.73304V5.27281C120.41 4.25008 119.771 3.39355 118.565 3.39355C117.389 3.39355 116.72 4.25008 116.716 5.27281V5.73304ZM117.099 12.3637H118.169L124.169 3.63645H123.099L117.099 12.3637ZM122.264 10.2671C122.268 9.81542 122.46 9.35946 122.997 9.35946C123.559 9.35946 123.726 9.81542 123.721 10.2671V10.7273C123.726 11.179 123.542 11.6265 122.997 11.6265C122.451 11.6265 122.268 11.1748 122.264 10.7273V10.2671ZM117.836 5.27281C117.841 4.82537 118.024 4.36514 118.565 4.36514C119.128 4.36514 119.289 4.82111 119.285 5.27281V5.73304C119.289 6.18474 119.11 6.63219 118.565 6.63219C118.02 6.63219 117.841 6.18474 117.836 5.73304V5.27281Z" fill="#24278F"/>
</g>
<defs>
<clipPath id="clip0_263_3489">
<rect width="300" height="16" fill="white" transform="translate(0.517212)"/>
</clipPath>
</defs>
</svg>
