<svg width="301" height="17" viewBox="0 0 301 17" fill="none" xmlns="http://www.w3.org/2000/svg">
<g clip-path="url(#clip0_263_3485)">
<path d="M295.452 0.125977H5.45215C2.69072 0.125977 0.452148 2.36455 0.452148 5.12598V11.126C0.452148 13.8874 2.69072 16.126 5.45215 16.126H295.452C298.214 16.126 300.452 13.8874 300.452 11.126V5.12598C300.452 2.36455 298.214 0.125977 295.452 0.125977Z" fill="#F8F8F8"/>
<path d="M220.949 0.125977H5.45215C2.69072 0.125977 0.452148 2.36455 0.452148 5.12598V11.126C0.452148 13.8874 2.69072 16.126 5.45215 16.126H220.949C223.711 16.126 225.949 13.8874 225.949 11.126V5.12598C225.949 2.36455 223.711 0.125977 220.949 0.125977Z" fill="#264AE5"/>
<path d="M101.477 12.1259H103.117L106.825 4.74951V3.39866H100.88V4.71968H105.188V4.77934L101.477 12.1259ZM111.117 12.2452C112.962 12.2452 114.249 10.9924 114.249 9.25803C114.249 7.57905 113.081 6.36883 111.496 6.36883C110.789 6.36883 110.162 6.65008 109.838 7.0336H109.787L110.039 4.71968H113.793V3.39866H108.73L108.275 7.89866L109.702 8.13303C109.996 7.80917 110.55 7.59184 111.074 7.5961C112.033 7.60036 112.723 8.30775 112.719 9.29638C112.723 10.2722 112.05 10.9668 111.117 10.9668C110.328 10.9668 109.694 10.4682 109.638 9.75235H108.104C108.147 11.2012 109.412 12.2452 111.117 12.2452ZM120.343 10.4895C120.347 11.5037 120.99 12.3688 122.188 12.3688C123.381 12.3688 124.037 11.5037 124.033 10.4895V10.0293C124.037 9.00661 123.398 8.15008 122.188 8.15008C121.007 8.15008 120.347 9.01513 120.343 10.0293V10.4895ZM115.907 5.49525C115.911 6.50945 116.554 7.36599 117.756 7.36599C118.945 7.36599 119.601 6.51798 119.597 5.49525V5.03502C119.601 4.01229 118.962 3.15576 117.756 3.15576C116.58 3.15576 115.911 4.01229 115.907 5.03502V5.49525ZM116.29 12.1259H117.36L123.36 3.39866H122.29L116.29 12.1259ZM121.455 10.0293C121.459 9.57763 121.651 9.12167 122.188 9.12167C122.75 9.12167 122.917 9.57763 122.912 10.0293V10.4895C122.917 10.9412 122.733 11.3887 122.188 11.3887C121.642 11.3887 121.459 10.937 121.455 10.4895V10.0293ZM117.027 5.03502C117.032 4.58758 117.215 4.12735 117.756 4.12735C118.319 4.12735 118.48 4.58332 118.476 5.03502V5.49525C118.48 5.94695 118.301 6.3944 117.756 6.3944C117.211 6.3944 117.032 5.94695 117.027 5.49525V5.03502Z" fill="white"/>
</g>
<defs>
<clipPath id="clip0_263_3485">
<rect width="300" height="16" fill="white" transform="translate(0.452148 0.125977)"/>
</clipPath>
</defs>
</svg>
