<svg width="300" height="16" viewBox="0 0 300 16" fill="none" xmlns="http://www.w3.org/2000/svg">
<rect width="300" height="16" rx="5" fill="#F8F8F8"/>
<rect width="225.497" height="16" rx="5" fill="#264AE5"/>
<path d="M101.025 12H102.665L106.373 4.62358V3.27273H100.428V4.59375H104.736V4.65341L101.025 12ZM110.665 12.1193C112.51 12.1193 113.797 10.8665 113.797 9.1321C113.797 7.45312 112.629 6.2429 111.044 6.2429C110.337 6.2429 109.71 6.52415 109.386 6.90767H109.335L109.587 4.59375H113.341V3.27273H108.278L107.823 7.77273L109.25 8.0071C109.544 7.68324 110.098 7.46591 110.622 7.47017C111.581 7.47443 112.271 8.18182 112.267 9.17045C112.271 10.1463 111.598 10.8409 110.665 10.8409C109.876 10.8409 109.242 10.3423 109.186 9.62642H107.652C107.695 11.0753 108.96 12.1193 110.665 12.1193ZM119.891 10.3636C119.895 11.3778 120.538 12.2429 121.736 12.2429C122.929 12.2429 123.585 11.3778 123.581 10.3636V9.90341C123.585 8.88068 122.946 8.02415 121.736 8.02415C120.555 8.02415 119.895 8.8892 119.891 9.90341V10.3636ZM115.455 5.36932C115.459 6.38352 116.102 7.24006 117.304 7.24006C118.493 7.24006 119.149 6.39205 119.145 5.36932V4.90909C119.149 3.88636 118.51 3.02983 117.304 3.02983C116.128 3.02983 115.459 3.88636 115.455 4.90909V5.36932ZM115.838 12H116.908L122.908 3.27273H121.838L115.838 12ZM121.003 9.90341C121.007 9.4517 121.199 8.99574 121.736 8.99574C122.298 8.99574 122.465 9.4517 122.46 9.90341V10.3636C122.465 10.8153 122.281 11.2628 121.736 11.2628C121.19 11.2628 121.007 10.8111 121.003 10.3636V9.90341ZM116.575 4.90909C116.58 4.46165 116.763 4.00142 117.304 4.00142C117.867 4.00142 118.028 4.45739 118.024 4.90909V5.36932C118.028 5.82102 117.849 6.26847 117.304 6.26847C116.759 6.26847 116.58 5.82102 116.575 5.36932V4.90909Z" fill="white"/>
</svg>
