<svg width="298" height="53" viewBox="0 0 298 53" fill="none" xmlns="http://www.w3.org/2000/svg">
<path d="M8.00024 10.1681C8.00024 6.85438 10.6865 4.16809 14.0002 4.16809H293C295.762 4.16809 298 6.40667 298 9.16809V35.1681C298 37.9295 295.762 40.1681 293 40.1681H14.0002C10.6865 40.1681 8.00024 37.4818 8.00024 34.1681V10.1681Z" fill="#CED0D3"/>
<path d="M137.491 27.4005C139.693 27.4005 141.135 26.2521 141.135 24.4064V24.3995C141.135 22.9777 140.322 22.1505 138.264 21.6925L137.17 21.4464C135.83 21.1525 135.29 20.6193 135.29 19.8331V19.8263C135.29 18.7941 136.24 18.213 137.471 18.2062C138.756 18.1993 139.576 18.8419 139.713 19.7101L139.727 19.799H140.957L140.95 19.7032C140.848 18.2335 139.474 17.0714 137.505 17.0714C135.468 17.0714 134.039 18.2267 134.032 19.8605V19.8673C134.032 21.296 134.887 22.2052 136.863 22.6427L137.956 22.882C139.31 23.1827 139.877 23.7433 139.877 24.5636V24.5704C139.877 25.5753 138.9 26.2657 137.56 26.2657C136.138 26.2657 135.113 25.6437 135.024 24.6593L135.017 24.5841H133.786L133.793 24.6593C133.937 26.2657 135.331 27.4005 137.491 27.4005ZM145.059 27.298C146.05 27.298 146.823 26.8673 147.287 26.0812H147.397V27.1681H148.586V22.1232C148.586 20.5919 147.581 19.6691 145.783 19.6691C144.211 19.6691 143.09 20.4484 142.899 21.6036L142.892 21.6447H144.081L144.088 21.6241C144.28 21.0499 144.861 20.7218 145.742 20.7218C146.843 20.7218 147.397 21.214 147.397 22.1232V22.7931L145.284 22.923C143.569 23.0255 142.598 23.7843 142.598 25.0968V25.1105C142.598 26.4503 143.657 27.298 145.059 27.298ZM143.815 25.0831V25.0695C143.815 24.338 144.307 23.9415 145.428 23.8732L147.397 23.7501V24.42C147.397 25.4728 146.515 26.2657 145.305 26.2657C144.45 26.2657 143.815 25.8282 143.815 25.0831ZM153.378 27.2228C153.611 27.2228 153.836 27.1954 154.069 27.1544V26.1427C153.85 26.1632 153.734 26.17 153.522 26.17C152.756 26.17 152.455 25.8214 152.455 24.9532V20.7833H154.069V19.799H152.455V17.8917H151.225V19.799H150.063V20.7833H151.225V25.254C151.225 26.6622 151.861 27.2228 153.378 27.2228ZM158.464 27.2228C158.697 27.2228 158.922 27.1954 159.155 27.1544V26.1427C158.936 26.1632 158.82 26.17 158.608 26.17C157.842 26.17 157.541 25.8214 157.541 24.9532V20.7833H159.155V19.799H157.541V17.8917H156.311V19.799H155.149V20.7833H156.311V25.254C156.311 26.6622 156.947 27.2228 158.464 27.2228ZM163.83 27.298C165.567 27.298 166.619 26.3136 166.872 25.3156L166.886 25.2609H165.697L165.669 25.3224C165.471 25.7667 164.856 26.2384 163.858 26.2384C162.545 26.2384 161.704 25.3497 161.67 23.8253H166.975V23.3605C166.975 21.1593 165.758 19.6691 163.755 19.6691C161.752 19.6691 160.453 21.2277 160.453 23.504V23.5109C160.453 25.8214 161.725 27.298 163.83 27.298ZM163.748 20.7286C164.835 20.7286 165.642 21.4191 165.765 22.8751H161.691C161.821 21.4738 162.655 20.7286 163.748 20.7286ZM168.889 27.1681H170.078V16.8732H168.889V27.1681ZM172.99 18.3771C173.442 18.3771 173.811 18.0079 173.811 17.5568C173.811 17.1056 173.442 16.7365 172.99 16.7365C172.539 16.7365 172.17 17.1056 172.17 17.5568C172.17 18.0079 172.539 18.3771 172.99 18.3771ZM172.389 27.1681H173.578V19.799H172.389V27.1681ZM178.439 27.2228C178.671 27.2228 178.897 27.1954 179.129 27.1544V26.1427C178.91 26.1632 178.794 26.17 178.582 26.17C177.817 26.17 177.516 25.8214 177.516 24.9532V20.7833H179.129V19.799H177.516V17.8917H176.285V19.799H175.123V20.7833H176.285V25.254C176.285 26.6622 176.921 27.2228 178.439 27.2228ZM183.805 27.298C185.541 27.298 186.594 26.3136 186.847 25.3156L186.861 25.2609H185.671L185.644 25.3224C185.446 25.7667 184.83 26.2384 183.832 26.2384C182.52 26.2384 181.679 25.3497 181.645 23.8253H186.949V23.3605C186.949 21.1593 185.733 19.6691 183.73 19.6691C181.727 19.6691 180.428 21.2277 180.428 23.504V23.5109C180.428 25.8214 181.699 27.298 183.805 27.298ZM183.723 20.7286C184.81 20.7286 185.616 21.4191 185.74 22.8751H181.665C181.795 21.4738 182.629 20.7286 183.723 20.7286Z" fill="black"/>
<path d="M38.4915 27.4005C40.6926 27.4005 42.135 26.2521 42.135 24.4064V24.3995C42.135 22.9777 41.3215 22.1505 39.2639 21.6925L38.1702 21.4464C36.8303 21.1525 36.2903 20.6193 36.2903 19.8331V19.8263C36.2903 18.7941 37.2405 18.213 38.4709 18.2062C39.7561 18.1993 40.5764 18.8419 40.7131 19.7101L40.7268 19.799H41.9573L41.9504 19.7032C41.8479 18.2335 40.4739 17.0714 38.5051 17.0714C36.468 17.0714 35.0393 18.2267 35.0325 19.8605V19.8673C35.0325 21.296 35.887 22.2052 37.8625 22.6427L38.9563 22.882C40.3098 23.1827 40.8772 23.7433 40.8772 24.5636V24.5704C40.8772 25.5753 39.8997 26.2657 38.5598 26.2657C37.1379 26.2657 36.1125 25.6437 36.0237 24.6593L36.0168 24.5841H34.7864L34.7932 24.6593C34.9368 26.2657 36.3313 27.4005 38.4915 27.4005ZM46.6536 27.2228C46.886 27.2228 47.1116 27.1954 47.344 27.1544V26.1427C47.1252 26.1632 47.009 26.17 46.7971 26.17C46.0315 26.17 45.7307 25.8214 45.7307 24.9532V20.7833H47.344V19.799H45.7307V17.8917H44.5002V19.799H43.3381V20.7833H44.5002V25.254C44.5002 26.6622 45.136 27.2228 46.6536 27.2228ZM51.1448 27.298C52.136 27.298 52.9084 26.8673 53.3733 26.0812H53.4827V27.1681H54.6721V22.1232C54.6721 20.5919 53.6672 19.6691 51.8694 19.6691C50.2971 19.6691 49.176 20.4484 48.9846 21.6036L48.9778 21.6447H50.1672L50.1741 21.6241C50.3655 21.0499 50.9465 20.7218 51.8284 20.7218C52.929 20.7218 53.4827 21.214 53.4827 22.1232V22.7931L51.3704 22.923C49.6545 23.0255 48.6838 23.7843 48.6838 25.0968V25.1105C48.6838 26.4503 49.7434 27.298 51.1448 27.298ZM49.9006 25.0831V25.0695C49.9006 24.338 50.3928 23.9415 51.5139 23.8732L53.4827 23.7501V24.42C53.4827 25.4728 52.6008 26.2657 51.3909 26.2657C50.5364 26.2657 49.9006 25.8282 49.9006 25.0831ZM56.8459 27.1681H58.0354V22.8068C58.0354 21.5148 58.7805 20.7218 59.9563 20.7218C61.1321 20.7218 61.679 21.3575 61.679 22.6837V27.1681H62.8684V22.3966C62.8684 20.6466 61.9456 19.6691 60.2913 19.6691C59.2043 19.6691 58.5139 20.1271 58.1448 20.9064H58.0354V19.799H56.8459V27.1681ZM67.7424 27.298C68.7678 27.298 69.5881 26.8126 70.0393 25.9923H70.1487V27.1681H71.3381V16.8732H70.1487V20.9611H70.0393C69.636 20.1749 68.7542 19.6691 67.7424 19.6691C65.8694 19.6691 64.6526 21.1661 64.6526 23.4767V23.4904C64.6526 25.7872 65.8762 27.298 67.7424 27.298ZM68.0159 26.2452C66.6692 26.2452 65.8694 25.2062 65.8694 23.4904V23.4767C65.8694 21.7609 66.6692 20.7218 68.0159 20.7218C69.3557 20.7218 70.176 21.7745 70.176 23.4767V23.4904C70.176 25.1925 69.3557 26.2452 68.0159 26.2452ZM75.6448 27.298C76.636 27.298 77.4084 26.8673 77.8733 26.0812H77.9827V27.1681H79.1721V22.1232C79.1721 20.5919 78.1672 19.6691 76.3694 19.6691C74.7971 19.6691 73.676 20.4484 73.4846 21.6036L73.4778 21.6447H74.6672L74.6741 21.6241C74.8655 21.0499 75.4465 20.7218 76.3284 20.7218C77.429 20.7218 77.9827 21.214 77.9827 22.1232V22.7931L75.8704 22.923C74.1545 23.0255 73.1838 23.7843 73.1838 25.0968V25.1105C73.1838 26.4503 74.2434 27.298 75.6448 27.298ZM74.4006 25.0831V25.0695C74.4006 24.338 74.8928 23.9415 76.0139 23.8732L77.9827 23.7501V24.42C77.9827 25.4728 77.1008 26.2657 75.8909 26.2657C75.0364 26.2657 74.4006 25.8282 74.4006 25.0831ZM81.3459 27.1681H82.5354V22.6017C82.5354 21.5216 83.342 20.8038 84.4768 20.8038C84.7366 20.8038 84.9622 20.8312 85.2083 20.8722V19.7169C85.092 19.6964 84.8391 19.6691 84.6135 19.6691C83.6155 19.6691 82.925 20.1202 82.6448 20.8927H82.5354V19.799H81.3459V27.1681ZM89.1936 27.298C90.219 27.298 91.0393 26.8126 91.4905 25.9923H91.5999V27.1681H92.7893V16.8732H91.5999V20.9611H91.4905C91.0872 20.1749 90.2053 19.6691 89.1936 19.6691C87.3206 19.6691 86.1038 21.1661 86.1038 23.4767V23.4904C86.1038 25.7872 87.3274 27.298 89.1936 27.298ZM89.467 26.2452C88.1204 26.2452 87.3206 25.2062 87.3206 23.4904V23.4767C87.3206 21.7609 88.1204 20.7218 89.467 20.7218C90.8069 20.7218 91.6272 21.7745 91.6272 23.4767V23.4904C91.6272 25.1925 90.8069 26.2452 89.467 26.2452Z" fill="black"/>
<path d="M220.258 27.1681H221.488V22.6769H226.902V27.1681H228.133V17.3038H226.902V21.5695H221.488V17.3038H220.258V27.1681ZM231.127 29.7521C232.433 29.7521 233.041 29.2736 233.649 27.6193L236.527 19.799H235.276L233.26 25.8624H233.15L231.127 19.799H229.855L232.583 27.1749L232.446 27.6124C232.18 28.4601 231.77 28.7677 231.093 28.7677C230.929 28.7677 230.744 28.7609 230.601 28.7335V29.7111C230.765 29.7384 230.97 29.7521 231.127 29.7521ZM241.764 27.298C243.63 27.298 244.854 25.7872 244.854 23.4904V23.4767C244.854 21.1661 243.637 19.6691 241.764 19.6691C240.752 19.6691 239.87 20.1749 239.467 20.9611H239.357V16.8732H238.168V27.1681H239.357V25.9923H239.467C239.918 26.8126 240.738 27.298 241.764 27.298ZM241.49 26.2452C240.15 26.2452 239.33 25.1925 239.33 23.4904V23.4767C239.33 21.7745 240.15 20.7218 241.49 20.7218C242.837 20.7218 243.637 21.7609 243.637 23.4767V23.4904C243.637 25.2062 242.837 26.2452 241.49 26.2452ZM246.699 27.1681H247.889V22.6017C247.889 21.5216 248.695 20.8038 249.83 20.8038C250.09 20.8038 250.315 20.8312 250.562 20.8722V19.7169C250.445 19.6964 250.192 19.6691 249.967 19.6691C248.969 19.6691 248.278 20.1202 247.998 20.8927H247.889V19.799H246.699V27.1681ZM252.66 18.3771C253.111 18.3771 253.48 18.0079 253.48 17.5568C253.48 17.1056 253.111 16.7365 252.66 16.7365C252.209 16.7365 251.84 17.1056 251.84 17.5568C251.84 18.0079 252.209 18.3771 252.66 18.3771ZM252.059 27.1681H253.248V19.799H252.059V27.1681ZM258.211 27.298C259.236 27.298 260.057 26.8126 260.508 25.9923H260.617V27.1681H261.807V16.8732H260.617V20.9611H260.508C260.104 20.1749 259.223 19.6691 258.211 19.6691C256.338 19.6691 255.121 21.1661 255.121 23.4767V23.4904C255.121 25.7872 256.345 27.298 258.211 27.298ZM258.484 26.2452C257.138 26.2452 256.338 25.2062 256.338 23.4904V23.4767C256.338 21.7609 257.138 20.7218 258.484 20.7218C259.824 20.7218 260.645 21.7745 260.645 23.4767V23.4904C260.645 25.1925 259.824 26.2452 258.484 26.2452Z" fill="black"/>
<g filter="url(#filter0_d_309_829)">
<path d="M8.00024 10.1681C8.00024 6.85438 10.6865 4.16809 14.0002 4.16809H96.0002C99.314 4.16809 102 6.85438 102 10.1681V34.1681C102 37.4818 99.314 40.1681 96.0002 40.1681H14.0002C10.6865 40.1681 8.00024 37.4818 8.00024 34.1681V10.1681Z" fill="#264AE5"/>
<path d="M28.7366 27.4073C31.0334 27.4073 32.5032 26.2316 32.5032 24.3448V24.338C32.5032 22.8751 31.6555 22.0411 29.5842 21.5968L28.511 21.3575C27.2327 21.0841 26.7131 20.6056 26.7131 19.8741V19.8673C26.7131 18.9376 27.5676 18.3976 28.7229 18.3976C29.9192 18.3907 30.6917 18.9786 30.8215 19.7853L30.8352 19.8741H32.3186L32.3118 19.7784C32.2024 18.2472 30.8352 17.0646 28.7434 17.0646C26.6516 17.0646 25.175 18.2404 25.1682 19.9425V19.9493C25.1682 21.4054 26.0295 22.3351 28.0325 22.7589L29.1125 22.9913C30.4182 23.2716 30.9514 23.7638 30.9514 24.5226V24.5294C30.9514 25.4454 30.0559 26.0743 28.7981 26.0743C27.4788 26.0743 26.5286 25.5001 26.4465 24.6046L26.4397 24.5294H24.9358L24.9426 24.6183C25.0793 26.2794 26.5081 27.4073 28.7366 27.4073ZM37.1516 27.2159C37.4387 27.2159 37.7122 27.1818 37.9514 27.1407V25.9581C37.7463 25.9786 37.6165 25.9855 37.3909 25.9855C36.6594 25.9855 36.3586 25.6573 36.3586 24.8575V20.9132H37.9514V19.7443H36.3586V17.8712H34.8479V19.7443H33.6858V20.9132H34.8479V25.213C34.8479 26.6417 35.5178 27.2159 37.1516 27.2159ZM41.718 27.2911C42.7024 27.2911 43.4817 26.8673 43.9192 26.1154H44.0354V27.1681H45.5051V22.089C45.5051 20.5304 44.4524 19.6007 42.5862 19.6007C40.8977 19.6007 39.7288 20.4142 39.551 21.631L39.5442 21.6788H40.9729L40.9797 21.6515C41.1575 21.1251 41.6975 20.8243 42.5178 20.8243C43.5227 20.8243 44.0354 21.2755 44.0354 22.089V22.7452L42.0256 22.8615C40.2551 22.9708 39.2571 23.7433 39.2571 25.0695V25.0831C39.2571 26.4298 40.303 27.2911 41.718 27.2911ZM40.7336 25.0216V25.0079C40.7336 24.338 41.1985 23.9689 42.2239 23.9073L44.0354 23.7911V24.4269C44.0354 25.3839 43.2219 26.1085 42.1145 26.1085C41.3147 26.1085 40.7336 25.7052 40.7336 25.0216ZM47.5969 27.1681H49.0803V22.8136C49.0803 21.6173 49.7571 20.8722 50.844 20.8722C51.9309 20.8722 52.4436 21.4806 52.4436 22.7111V27.1681H53.9202V22.3624C53.9202 20.5919 53.0042 19.6007 51.343 19.6007C50.2629 19.6007 49.552 20.0792 49.1897 20.8722H49.0803V19.7443H47.5969V27.1681ZM58.6985 27.2911C59.7375 27.2911 60.551 26.8126 60.9817 25.9991H61.0979V27.1681H62.5745V16.8322H61.0979V20.92H60.9817C60.5852 20.1202 59.717 19.6144 58.6985 19.6144C56.8118 19.6144 55.6223 21.0978 55.6223 23.4493V23.463C55.6223 25.7941 56.8323 27.2911 58.6985 27.2911ZM59.1223 26.0265C57.8782 26.0265 57.1331 25.0558 57.1331 23.463V23.4493C57.1331 21.8566 57.8782 20.8859 59.1223 20.8859C60.3528 20.8859 61.1184 21.8634 61.1184 23.4493V23.463C61.1184 25.049 60.3596 26.0265 59.1223 26.0265ZM66.8196 27.2911C67.804 27.2911 68.5833 26.8673 69.0208 26.1154H69.137V27.1681H70.6067V22.089C70.6067 20.5304 69.554 19.6007 67.6877 19.6007C65.9993 19.6007 64.8303 20.4142 64.6526 21.631L64.6458 21.6788H66.0745L66.0813 21.6515C66.259 21.1251 66.7991 20.8243 67.6194 20.8243C68.6243 20.8243 69.137 21.2755 69.137 22.089V22.7452L67.1272 22.8615C65.3567 22.9708 64.3586 23.7433 64.3586 25.0695V25.0831C64.3586 26.4298 65.4045 27.2911 66.8196 27.2911ZM65.8352 25.0216V25.0079C65.8352 24.338 66.3 23.9689 67.3254 23.9073L69.137 23.7911V24.4269C69.137 25.3839 68.3235 26.1085 67.2161 26.1085C66.4163 26.1085 65.8352 25.7052 65.8352 25.0216ZM72.6985 27.1681H74.1819V22.7316C74.1819 21.6583 74.9543 20.9611 76.0891 20.9611C76.3694 20.9611 76.6223 20.9952 76.8889 21.0499V19.6827C76.7385 19.6486 76.4788 19.6144 76.2395 19.6144C75.2483 19.6144 74.5579 20.0792 74.2913 20.8654H74.1819V19.7443H72.6985V27.1681ZM80.8196 27.2911C81.8586 27.2911 82.6721 26.8126 83.1028 25.9991H83.219V27.1681H84.6956V16.8322H83.219V20.92H83.1028C82.7063 20.1202 81.8381 19.6144 80.8196 19.6144C78.9329 19.6144 77.7434 21.0978 77.7434 23.4493V23.463C77.7434 25.7941 78.9534 27.2911 80.8196 27.2911ZM81.2434 26.0265C79.9993 26.0265 79.2542 25.0558 79.2542 23.463V23.4493C79.2542 21.8566 79.9993 20.8859 81.2434 20.8859C82.4739 20.8859 83.2395 21.8634 83.2395 23.4493V23.463C83.2395 25.049 82.4807 26.0265 81.2434 26.0265Z" fill="white"/>
</g>
<defs>
<filter id="filter0_d_309_829" x="0.000244141" y="0.168091" width="110" height="52" filterUnits="userSpaceOnUse" color-interpolation-filters="sRGB">
<feFlood flood-opacity="0" result="BackgroundImageFix"/>
<feColorMatrix in="SourceAlpha" type="matrix" values="0 0 0 0 0 0 0 0 0 0 0 0 0 0 0 0 0 0 127 0" result="hardAlpha"/>
<feOffset dy="4"/>
<feGaussianBlur stdDeviation="4"/>
<feComposite in2="hardAlpha" operator="out"/>
<feColorMatrix type="matrix" values="0 0 0 0 0 0 0 0 0 0 0 0 0 0 0 0 0 0 0.25 0"/>
<feBlend mode="normal" in2="BackgroundImageFix" result="effect1_dropShadow_309_829"/>
<feBlend mode="normal" in="SourceGraphic" in2="effect1_dropShadow_309_829" result="shape"/>
</filter>
</defs>
</svg>
