<svg width="298" height="52" viewBox="0 0 298 52" fill="none" xmlns="http://www.w3.org/2000/svg">
<path d="M8 10C8 6.68629 10.6863 4 14 4H293C295.761 4 298 6.23858 298 9V35C298 37.7614 295.761 40 293 40H14C10.6863 40 8 37.3137 8 34V10Z" fill="#848484"/>
<path d="M137.491 27.2324C139.692 27.2324 141.135 26.084 141.135 24.2383V24.2314C141.135 22.8096 140.321 21.9824 138.264 21.5244L137.17 21.2783C135.83 20.9844 135.29 20.4512 135.29 19.665V19.6582C135.29 18.626 136.24 18.0449 137.471 18.0381C138.756 18.0312 139.576 18.6738 139.713 19.542L139.727 19.6309H140.957L140.95 19.5352C140.848 18.0654 139.474 16.9033 137.505 16.9033C135.468 16.9033 134.039 18.0586 134.032 19.6924V19.6992C134.032 21.1279 134.887 22.0371 136.862 22.4746L137.956 22.7139C139.31 23.0146 139.877 23.5752 139.877 24.3955V24.4023C139.877 25.4072 138.899 26.0977 137.56 26.0977C136.138 26.0977 135.112 25.4756 135.023 24.4912L135.017 24.416H133.786L133.793 24.4912C133.937 26.0977 135.331 27.2324 137.491 27.2324ZM145.059 27.1299C146.05 27.1299 146.822 26.6992 147.287 25.9131H147.396V27H148.586V21.9551C148.586 20.4238 147.581 19.501 145.783 19.501C144.211 19.501 143.09 20.2803 142.898 21.4355L142.892 21.4766H144.081L144.088 21.4561C144.279 20.8818 144.86 20.5537 145.742 20.5537C146.843 20.5537 147.396 21.0459 147.396 21.9551V22.625L145.284 22.7549C143.568 22.8574 142.598 23.6162 142.598 24.9287V24.9424C142.598 26.2822 143.657 27.1299 145.059 27.1299ZM143.814 24.915V24.9014C143.814 24.1699 144.307 23.7734 145.428 23.7051L147.396 23.582V24.252C147.396 25.3047 146.515 26.0977 145.305 26.0977C144.45 26.0977 143.814 25.6602 143.814 24.915ZM153.378 27.0547C153.61 27.0547 153.836 27.0273 154.068 26.9863V25.9746C153.85 25.9951 153.733 26.002 153.521 26.002C152.756 26.002 152.455 25.6533 152.455 24.7852V20.6152H154.068V19.6309H152.455V17.7236H151.225V19.6309H150.062V20.6152H151.225V25.0859C151.225 26.4941 151.86 27.0547 153.378 27.0547ZM158.464 27.0547C158.696 27.0547 158.922 27.0273 159.154 26.9863V25.9746C158.936 25.9951 158.819 26.002 158.607 26.002C157.842 26.002 157.541 25.6533 157.541 24.7852V20.6152H159.154V19.6309H157.541V17.7236H156.311V19.6309H155.148V20.6152H156.311V25.0859C156.311 26.4941 156.946 27.0547 158.464 27.0547ZM163.83 27.1299C165.566 27.1299 166.619 26.1455 166.872 25.1475L166.886 25.0928H165.696L165.669 25.1543C165.471 25.5986 164.855 26.0703 163.857 26.0703C162.545 26.0703 161.704 25.1816 161.67 23.6572H166.975V23.1924C166.975 20.9912 165.758 19.501 163.755 19.501C161.752 19.501 160.453 21.0596 160.453 23.3359V23.3428C160.453 25.6533 161.725 27.1299 163.83 27.1299ZM163.748 20.5605C164.835 20.5605 165.642 21.251 165.765 22.707H161.69C161.82 21.3057 162.654 20.5605 163.748 20.5605ZM168.889 27H170.078V16.7051H168.889V27ZM172.99 18.209C173.441 18.209 173.811 17.8398 173.811 17.3887C173.811 16.9375 173.441 16.5684 172.99 16.5684C172.539 16.5684 172.17 16.9375 172.17 17.3887C172.17 17.8398 172.539 18.209 172.99 18.209ZM172.389 27H173.578V19.6309H172.389V27ZM178.438 27.0547C178.671 27.0547 178.896 27.0273 179.129 26.9863V25.9746C178.91 25.9951 178.794 26.002 178.582 26.002C177.816 26.002 177.516 25.6533 177.516 24.7852V20.6152H179.129V19.6309H177.516V17.7236H176.285V19.6309H175.123V20.6152H176.285V25.0859C176.285 26.4941 176.921 27.0547 178.438 27.0547ZM183.805 27.1299C185.541 27.1299 186.594 26.1455 186.847 25.1475L186.86 25.0928H185.671L185.644 25.1543C185.445 25.5986 184.83 26.0703 183.832 26.0703C182.52 26.0703 181.679 25.1816 181.645 23.6572H186.949V23.1924C186.949 20.9912 185.732 19.501 183.729 19.501C181.727 19.501 180.428 21.0596 180.428 23.3359V23.3428C180.428 25.6533 181.699 27.1299 183.805 27.1299ZM183.723 20.5605C184.81 20.5605 185.616 21.251 185.739 22.707H181.665C181.795 21.3057 182.629 20.5605 183.723 20.5605Z" fill="white"/>
<path d="M38.4912 27.2324C40.6924 27.2324 42.1348 26.084 42.1348 24.2383V24.2314C42.1348 22.8096 41.3213 21.9824 39.2637 21.5244L38.1699 21.2783C36.8301 20.9844 36.29 20.4512 36.29 19.665V19.6582C36.29 18.626 37.2402 18.0449 38.4707 18.0381C39.7559 18.0312 40.5762 18.6738 40.7129 19.542L40.7266 19.6309H41.957L41.9502 19.5352C41.8477 18.0654 40.4736 16.9033 38.5049 16.9033C36.4678 16.9033 35.0391 18.0586 35.0322 19.6924V19.6992C35.0322 21.1279 35.8867 22.0371 37.8623 22.4746L38.9561 22.7139C40.3096 23.0146 40.877 23.5752 40.877 24.3955V24.4023C40.877 25.4072 39.8994 26.0977 38.5596 26.0977C37.1377 26.0977 36.1123 25.4756 36.0234 24.4912L36.0166 24.416H34.7861L34.793 24.4912C34.9365 26.0977 36.3311 27.2324 38.4912 27.2324ZM46.6533 27.0547C46.8857 27.0547 47.1113 27.0273 47.3438 26.9863V25.9746C47.125 25.9951 47.0088 26.002 46.7969 26.002C46.0312 26.002 45.7305 25.6533 45.7305 24.7852V20.6152H47.3438V19.6309H45.7305V17.7236H44.5V19.6309H43.3379V20.6152H44.5V25.0859C44.5 26.4941 45.1357 27.0547 46.6533 27.0547ZM51.1445 27.1299C52.1357 27.1299 52.9082 26.6992 53.373 25.9131H53.4824V27H54.6719V21.9551C54.6719 20.4238 53.667 19.501 51.8691 19.501C50.2969 19.501 49.1758 20.2803 48.9844 21.4355L48.9775 21.4766H50.167L50.1738 21.4561C50.3652 20.8818 50.9463 20.5537 51.8281 20.5537C52.9287 20.5537 53.4824 21.0459 53.4824 21.9551V22.625L51.3701 22.7549C49.6543 22.8574 48.6836 23.6162 48.6836 24.9287V24.9424C48.6836 26.2822 49.7432 27.1299 51.1445 27.1299ZM49.9004 24.915V24.9014C49.9004 24.1699 50.3926 23.7734 51.5137 23.7051L53.4824 23.582V24.252C53.4824 25.3047 52.6006 26.0977 51.3906 26.0977C50.5361 26.0977 49.9004 25.6602 49.9004 24.915ZM56.8457 27H58.0352V22.6387C58.0352 21.3467 58.7803 20.5537 59.9561 20.5537C61.1318 20.5537 61.6787 21.1895 61.6787 22.5156V27H62.8682V22.2285C62.8682 20.4785 61.9453 19.501 60.291 19.501C59.2041 19.501 58.5137 19.959 58.1445 20.7383H58.0352V19.6309H56.8457V27ZM67.7422 27.1299C68.7676 27.1299 69.5879 26.6445 70.0391 25.8242H70.1484V27H71.3379V16.7051H70.1484V20.793H70.0391C69.6357 20.0068 68.7539 19.501 67.7422 19.501C65.8691 19.501 64.6523 20.998 64.6523 23.3086V23.3223C64.6523 25.6191 65.876 27.1299 67.7422 27.1299ZM68.0156 26.0771C66.6689 26.0771 65.8691 25.0381 65.8691 23.3223V23.3086C65.8691 21.5928 66.6689 20.5537 68.0156 20.5537C69.3555 20.5537 70.1758 21.6064 70.1758 23.3086V23.3223C70.1758 25.0244 69.3555 26.0771 68.0156 26.0771ZM75.6445 27.1299C76.6357 27.1299 77.4082 26.6992 77.873 25.9131H77.9824V27H79.1719V21.9551C79.1719 20.4238 78.167 19.501 76.3691 19.501C74.7969 19.501 73.6758 20.2803 73.4844 21.4355L73.4775 21.4766H74.667L74.6738 21.4561C74.8652 20.8818 75.4463 20.5537 76.3281 20.5537C77.4287 20.5537 77.9824 21.0459 77.9824 21.9551V22.625L75.8701 22.7549C74.1543 22.8574 73.1836 23.6162 73.1836 24.9287V24.9424C73.1836 26.2822 74.2432 27.1299 75.6445 27.1299ZM74.4004 24.915V24.9014C74.4004 24.1699 74.8926 23.7734 76.0137 23.7051L77.9824 23.582V24.252C77.9824 25.3047 77.1006 26.0977 75.8906 26.0977C75.0361 26.0977 74.4004 25.6602 74.4004 24.915ZM81.3457 27H82.5352V22.4336C82.5352 21.3535 83.3418 20.6357 84.4766 20.6357C84.7363 20.6357 84.9619 20.6631 85.208 20.7041V19.5488C85.0918 19.5283 84.8389 19.501 84.6133 19.501C83.6152 19.501 82.9248 19.9521 82.6445 20.7246H82.5352V19.6309H81.3457V27ZM89.1934 27.1299C90.2188 27.1299 91.0391 26.6445 91.4902 25.8242H91.5996V27H92.7891V16.7051H91.5996V20.793H91.4902C91.0869 20.0068 90.2051 19.501 89.1934 19.501C87.3203 19.501 86.1035 20.998 86.1035 23.3086V23.3223C86.1035 25.6191 87.3271 27.1299 89.1934 27.1299ZM89.4668 26.0771C88.1201 26.0771 87.3203 25.0381 87.3203 23.3223V23.3086C87.3203 21.5928 88.1201 20.5537 89.4668 20.5537C90.8066 20.5537 91.627 21.6064 91.627 23.3086V23.3223C91.627 25.0244 90.8066 26.0771 89.4668 26.0771Z" fill="black"/>
<path d="M220.258 27H221.488V22.5088H226.902V27H228.133V17.1357H226.902V21.4014H221.488V17.1357H220.258V27ZM231.127 29.584C232.433 29.584 233.041 29.1055 233.649 27.4512L236.527 19.6309H235.276L233.26 25.6943H233.15L231.127 19.6309H229.855L232.583 27.0068L232.446 27.4443C232.18 28.292 231.77 28.5996 231.093 28.5996C230.929 28.5996 230.744 28.5928 230.601 28.5654V29.543C230.765 29.5703 230.97 29.584 231.127 29.584ZM241.764 27.1299C243.63 27.1299 244.854 25.6191 244.854 23.3223V23.3086C244.854 20.998 243.637 19.501 241.764 19.501C240.752 19.501 239.87 20.0068 239.467 20.793H239.357V16.7051H238.168V27H239.357V25.8242H239.467C239.918 26.6445 240.738 27.1299 241.764 27.1299ZM241.49 26.0771C240.15 26.0771 239.33 25.0244 239.33 23.3223V23.3086C239.33 21.6064 240.15 20.5537 241.49 20.5537C242.837 20.5537 243.637 21.5928 243.637 23.3086V23.3223C243.637 25.0381 242.837 26.0771 241.49 26.0771ZM246.699 27H247.889V22.4336C247.889 21.3535 248.695 20.6357 249.83 20.6357C250.09 20.6357 250.315 20.6631 250.562 20.7041V19.5488C250.445 19.5283 250.192 19.501 249.967 19.501C248.969 19.501 248.278 19.9521 247.998 20.7246H247.889V19.6309H246.699V27ZM252.66 18.209C253.111 18.209 253.48 17.8398 253.48 17.3887C253.48 16.9375 253.111 16.5684 252.66 16.5684C252.209 16.5684 251.84 16.9375 251.84 17.3887C251.84 17.8398 252.209 18.209 252.66 18.209ZM252.059 27H253.248V19.6309H252.059V27ZM258.211 27.1299C259.236 27.1299 260.057 26.6445 260.508 25.8242H260.617V27H261.807V16.7051H260.617V20.793H260.508C260.104 20.0068 259.223 19.501 258.211 19.501C256.338 19.501 255.121 20.998 255.121 23.3086V23.3223C255.121 25.6191 256.345 27.1299 258.211 27.1299ZM258.484 26.0771C257.138 26.0771 256.338 25.0381 256.338 23.3223V23.3086C256.338 21.5928 257.138 20.5537 258.484 20.5537C259.824 20.5537 260.645 21.6064 260.645 23.3086V23.3223C260.645 25.0244 259.824 26.0771 258.484 26.0771Z" fill="white"/>
<g filter="url(#filter0_d_308_214)">
<path d="M8 10C8 6.68629 10.6863 4 14 4H96C99.3137 4 102 6.68629 102 10V34C102 37.3137 99.3137 40 96 40H14C10.6863 40 8 37.3137 8 34V10Z" fill="#344BCE"/>
<path d="M28.7363 27.2393C31.0332 27.2393 32.5029 26.0635 32.5029 24.1768V24.1699C32.5029 22.707 31.6553 21.873 29.584 21.4287L28.5107 21.1895C27.2324 20.916 26.7129 20.4375 26.7129 19.7061V19.6992C26.7129 18.7695 27.5674 18.2295 28.7227 18.2295C29.9189 18.2227 30.6914 18.8105 30.8213 19.6172L30.835 19.7061H32.3184L32.3115 19.6104C32.2021 18.0791 30.835 16.8965 28.7432 16.8965C26.6514 16.8965 25.1748 18.0723 25.168 19.7744V19.7812C25.168 21.2373 26.0293 22.167 28.0322 22.5908L29.1123 22.8232C30.418 23.1035 30.9512 23.5957 30.9512 24.3545V24.3613C30.9512 25.2773 30.0557 25.9062 28.7979 25.9062C27.4785 25.9062 26.5283 25.332 26.4463 24.4365L26.4395 24.3613H24.9355L24.9424 24.4502C25.0791 26.1113 26.5078 27.2393 28.7363 27.2393ZM37.1514 27.0479C37.4385 27.0479 37.7119 27.0137 37.9512 26.9727V25.79C37.7461 25.8105 37.6162 25.8174 37.3906 25.8174C36.6592 25.8174 36.3584 25.4893 36.3584 24.6895V20.7451H37.9512V19.5762H36.3584V17.7031H34.8477V19.5762H33.6855V20.7451H34.8477V25.0449C34.8477 26.4736 35.5176 27.0479 37.1514 27.0479ZM41.7178 27.123C42.7021 27.123 43.4814 26.6992 43.9189 25.9473H44.0352V27H45.5049V21.9209C45.5049 20.3623 44.4521 19.4326 42.5859 19.4326C40.8975 19.4326 39.7285 20.2461 39.5508 21.4629L39.5439 21.5107H40.9727L40.9795 21.4834C41.1572 20.957 41.6973 20.6562 42.5176 20.6562C43.5225 20.6562 44.0352 21.1074 44.0352 21.9209V22.5771L42.0254 22.6934C40.2549 22.8027 39.2568 23.5752 39.2568 24.9014V24.915C39.2568 26.2617 40.3027 27.123 41.7178 27.123ZM40.7334 24.8535V24.8398C40.7334 24.1699 41.1982 23.8008 42.2236 23.7393L44.0352 23.623V24.2588C44.0352 25.2158 43.2217 25.9404 42.1143 25.9404C41.3145 25.9404 40.7334 25.5371 40.7334 24.8535ZM47.5967 27H49.0801V22.6455C49.0801 21.4492 49.7568 20.7041 50.8438 20.7041C51.9307 20.7041 52.4434 21.3125 52.4434 22.543V27H53.9199V22.1943C53.9199 20.4238 53.0039 19.4326 51.3428 19.4326C50.2627 19.4326 49.5518 19.9111 49.1895 20.7041H49.0801V19.5762H47.5967V27ZM58.6982 27.123C59.7373 27.123 60.5508 26.6445 60.9814 25.8311H61.0977V27H62.5742V16.6641H61.0977V20.752H60.9814C60.585 19.9521 59.7168 19.4463 58.6982 19.4463C56.8115 19.4463 55.6221 20.9297 55.6221 23.2812V23.2949C55.6221 25.626 56.832 27.123 58.6982 27.123ZM59.1221 25.8584C57.8779 25.8584 57.1328 24.8877 57.1328 23.2949V23.2812C57.1328 21.6885 57.8779 20.7178 59.1221 20.7178C60.3525 20.7178 61.1182 21.6953 61.1182 23.2812V23.2949C61.1182 24.8809 60.3594 25.8584 59.1221 25.8584ZM66.8193 27.123C67.8037 27.123 68.583 26.6992 69.0205 25.9473H69.1367V27H70.6064V21.9209C70.6064 20.3623 69.5537 19.4326 67.6875 19.4326C65.999 19.4326 64.8301 20.2461 64.6523 21.4629L64.6455 21.5107H66.0742L66.0811 21.4834C66.2588 20.957 66.7988 20.6562 67.6191 20.6562C68.624 20.6562 69.1367 21.1074 69.1367 21.9209V22.5771L67.127 22.6934C65.3564 22.8027 64.3584 23.5752 64.3584 24.9014V24.915C64.3584 26.2617 65.4043 27.123 66.8193 27.123ZM65.835 24.8535V24.8398C65.835 24.1699 66.2998 23.8008 67.3252 23.7393L69.1367 23.623V24.2588C69.1367 25.2158 68.3232 25.9404 67.2158 25.9404C66.416 25.9404 65.835 25.5371 65.835 24.8535ZM72.6982 27H74.1816V22.5635C74.1816 21.4902 74.9541 20.793 76.0889 20.793C76.3691 20.793 76.6221 20.8271 76.8887 20.8818V19.5146C76.7383 19.4805 76.4785 19.4463 76.2393 19.4463C75.248 19.4463 74.5576 19.9111 74.291 20.6973H74.1816V19.5762H72.6982V27ZM80.8193 27.123C81.8584 27.123 82.6719 26.6445 83.1025 25.8311H83.2188V27H84.6953V16.6641H83.2188V20.752H83.1025C82.7061 19.9521 81.8379 19.4463 80.8193 19.4463C78.9326 19.4463 77.7432 20.9297 77.7432 23.2812V23.2949C77.7432 25.626 78.9531 27.123 80.8193 27.123ZM81.2432 25.8584C79.999 25.8584 79.2539 24.8877 79.2539 23.2949V23.2812C79.2539 21.6885 79.999 20.7178 81.2432 20.7178C82.4736 20.7178 83.2393 21.6953 83.2393 23.2812V23.2949C83.2393 24.8809 82.4805 25.8584 81.2432 25.8584Z" fill="white"/>
</g>
<defs>
<filter id="filter0_d_308_214" x="0" y="0" width="110" height="52" filterUnits="userSpaceOnUse" color-interpolation-filters="sRGB">
<feFlood flood-opacity="0" result="BackgroundImageFix"/>
<feColorMatrix in="SourceAlpha" type="matrix" values="0 0 0 0 0 0 0 0 0 0 0 0 0 0 0 0 0 0 127 0" result="hardAlpha"/>
<feOffset dy="4"/>
<feGaussianBlur stdDeviation="4"/>
<feComposite in2="hardAlpha" operator="out"/>
<feColorMatrix type="matrix" values="0 0 0 0 0 0 0 0 0 0 0 0 0 0 0 0 0 0 0.25 0"/>
<feBlend mode="normal" in2="BackgroundImageFix" result="effect1_dropShadow_308_214"/>
<feBlend mode="normal" in="SourceGraphic" in2="effect1_dropShadow_308_214" result="shape"/>
</filter>
</defs>
</svg>
